G75*
%MOIN*%
%OFA0B0*%
%FSLAX25Y25*%
%IPPOS*%
%LPD*%
%AMOC8*
5,1,8,0,0,1.08239X$1,22.5*
%
%ADD10R,0.05000X0.03937*%
%ADD11C,0.01600*%
%ADD12C,0.04000*%
%ADD13C,0.04356*%
%ADD14C,0.01200*%
D10*
X0029300Y0037587D03*
X0013670Y0037627D03*
X0013670Y0044713D03*
X0029300Y0044713D03*
X0053040Y0041564D03*
X0068670Y0041524D03*
X0092410Y0045501D03*
X0108040Y0045461D03*
X0131780Y0049438D03*
X0147410Y0049398D03*
X0171150Y0049438D03*
X0186780Y0049398D03*
X0210520Y0052587D03*
X0226150Y0052587D03*
X0249891Y0048650D03*
X0265520Y0048650D03*
X0289261Y0044713D03*
X0304891Y0044713D03*
X0289261Y0037627D03*
X0304891Y0037587D03*
X0265520Y0041524D03*
X0249891Y0041564D03*
X0226150Y0045461D03*
X0210520Y0045501D03*
X0186780Y0056524D03*
X0171150Y0056524D03*
X0147410Y0056524D03*
X0131780Y0056524D03*
X0108040Y0052587D03*
X0092410Y0052587D03*
X0068670Y0048650D03*
X0053040Y0048650D03*
D11*
X0006600Y0063929D02*
X0006600Y0006600D01*
X0015325Y0006600D01*
X0014887Y0007038D01*
X0013478Y0009479D01*
X0012748Y0012202D01*
X0012748Y0015020D01*
X0013478Y0017743D01*
X0014887Y0020184D01*
X0016880Y0022178D01*
X0019321Y0023587D01*
X0022044Y0024317D01*
X0024863Y0024317D01*
X0027586Y0023587D01*
X0030027Y0022178D01*
X0032020Y0020184D01*
X0033429Y0017743D01*
X0034159Y0015020D01*
X0034159Y0012202D01*
X0033429Y0009479D01*
X0032020Y0007038D01*
X0031582Y0006600D01*
X0036370Y0006600D01*
X0036370Y0020471D01*
X0037101Y0022236D01*
X0038451Y0023586D01*
X0040215Y0024317D01*
X0112991Y0024317D01*
X0114755Y0023586D01*
X0116105Y0022236D01*
X0116836Y0020471D01*
X0116836Y0010537D01*
X0201724Y0010537D01*
X0201724Y0020471D01*
X0202455Y0022236D01*
X0203805Y0023586D01*
X0205570Y0024317D01*
X0214237Y0024317D01*
X0213208Y0025345D01*
X0212599Y0026815D01*
X0212599Y0028407D01*
X0213208Y0029877D01*
X0213827Y0030496D01*
X0180538Y0030496D01*
X0179509Y0030922D01*
X0171821Y0038611D01*
X0170985Y0038611D01*
X0169514Y0039220D01*
X0168389Y0040345D01*
X0167780Y0041815D01*
X0167780Y0043407D01*
X0168389Y0044877D01*
X0169182Y0045669D01*
X0168413Y0045669D01*
X0167956Y0045792D01*
X0167545Y0046029D01*
X0167210Y0046364D01*
X0166973Y0046775D01*
X0166850Y0047232D01*
X0166850Y0049254D01*
X0170966Y0049254D01*
X0170966Y0049622D01*
X0166850Y0049622D01*
X0166850Y0051643D01*
X0166973Y0052101D01*
X0167210Y0052512D01*
X0167538Y0052840D01*
X0166650Y0053727D01*
X0166650Y0059321D01*
X0167822Y0060493D01*
X0174479Y0060493D01*
X0175561Y0059411D01*
X0177337Y0059411D01*
X0178366Y0058985D01*
X0180866Y0056485D01*
X0181654Y0055697D01*
X0182080Y0054668D01*
X0182080Y0046771D01*
X0183205Y0045646D01*
X0183214Y0045667D01*
X0182280Y0046601D01*
X0182280Y0052195D01*
X0183191Y0053106D01*
X0183175Y0053116D01*
X0182840Y0053451D01*
X0182603Y0053861D01*
X0182480Y0054319D01*
X0182480Y0056340D01*
X0186596Y0056340D01*
X0186596Y0056709D01*
X0186596Y0060293D01*
X0184043Y0060293D01*
X0183586Y0060170D01*
X0183175Y0059933D01*
X0182840Y0059598D01*
X0182603Y0059188D01*
X0182480Y0058730D01*
X0182480Y0056709D01*
X0186596Y0056709D01*
X0186965Y0056709D01*
X0191080Y0056709D01*
X0191080Y0058730D01*
X0190958Y0059188D01*
X0190721Y0059598D01*
X0190386Y0059933D01*
X0189975Y0060170D01*
X0189517Y0060293D01*
X0186965Y0060293D01*
X0186965Y0056709D01*
X0186965Y0056340D01*
X0191080Y0056340D01*
X0191080Y0054319D01*
X0190958Y0053861D01*
X0190721Y0053451D01*
X0190386Y0053116D01*
X0190369Y0053106D01*
X0191280Y0052195D01*
X0191280Y0046601D01*
X0190346Y0045667D01*
X0190780Y0044619D01*
X0190780Y0043028D01*
X0190171Y0041558D01*
X0189046Y0040433D01*
X0188602Y0040249D01*
X0189440Y0039411D01*
X0193448Y0039411D01*
X0193280Y0039815D01*
X0193280Y0041407D01*
X0193889Y0042877D01*
X0194680Y0043668D01*
X0194680Y0051916D01*
X0193889Y0052707D01*
X0193280Y0054178D01*
X0193280Y0055769D01*
X0193889Y0057239D01*
X0195014Y0058364D01*
X0196485Y0058973D01*
X0198076Y0058973D01*
X0199546Y0058364D01*
X0200671Y0057239D01*
X0201280Y0055769D01*
X0201280Y0054178D01*
X0200671Y0052707D01*
X0199880Y0051916D01*
X0199880Y0043668D01*
X0200671Y0042877D01*
X0201280Y0041407D01*
X0201280Y0039815D01*
X0201113Y0039411D01*
X0211598Y0039411D01*
X0211598Y0040940D01*
X0211927Y0041732D01*
X0210705Y0041732D01*
X0210705Y0045316D01*
X0210336Y0045316D01*
X0210336Y0041732D01*
X0207783Y0041732D01*
X0207326Y0041855D01*
X0206915Y0042092D01*
X0206580Y0042427D01*
X0206343Y0042838D01*
X0206220Y0043295D01*
X0206220Y0045317D01*
X0210336Y0045317D01*
X0210336Y0045685D01*
X0206220Y0045685D01*
X0206220Y0047706D01*
X0206343Y0048164D01*
X0206580Y0048575D01*
X0206908Y0048903D01*
X0206020Y0049790D01*
X0206020Y0055384D01*
X0207192Y0056556D01*
X0212297Y0056556D01*
X0219670Y0063929D01*
X0097174Y0063929D01*
X0097866Y0063237D01*
X0098654Y0062449D01*
X0098832Y0062019D01*
X0104503Y0056348D01*
X0104712Y0056556D01*
X0111369Y0056556D01*
X0112540Y0055384D01*
X0112540Y0049790D01*
X0111774Y0049024D01*
X0112540Y0048258D01*
X0112540Y0048211D01*
X0113797Y0048211D01*
X0114753Y0047815D01*
X0115957Y0046611D01*
X0117076Y0046611D01*
X0118546Y0046002D01*
X0119671Y0044877D01*
X0120280Y0043407D01*
X0120280Y0041815D01*
X0120113Y0041411D01*
X0131121Y0041411D01*
X0134039Y0044330D01*
X0134039Y0045669D01*
X0131965Y0045669D01*
X0131965Y0049253D01*
X0131596Y0049253D01*
X0131596Y0045669D01*
X0129043Y0045669D01*
X0128586Y0045792D01*
X0128175Y0046029D01*
X0127840Y0046364D01*
X0127603Y0046775D01*
X0127480Y0047232D01*
X0127480Y0049254D01*
X0131596Y0049254D01*
X0131596Y0049622D01*
X0127480Y0049622D01*
X0127480Y0051643D01*
X0127603Y0052101D01*
X0127840Y0052512D01*
X0128168Y0052840D01*
X0128010Y0052998D01*
X0127076Y0052611D01*
X0125485Y0052611D01*
X0124014Y0053220D01*
X0122889Y0054345D01*
X0122280Y0055815D01*
X0122280Y0057407D01*
X0122889Y0058877D01*
X0124014Y0060002D01*
X0125485Y0060611D01*
X0127076Y0060611D01*
X0128132Y0060173D01*
X0128452Y0060493D01*
X0135109Y0060493D01*
X0136280Y0059321D01*
X0136280Y0059048D01*
X0137156Y0059411D01*
X0143000Y0059411D01*
X0144082Y0060493D01*
X0150739Y0060493D01*
X0151910Y0059321D01*
X0151910Y0053727D01*
X0151144Y0052961D01*
X0151910Y0052195D01*
X0151910Y0046601D01*
X0150739Y0045430D01*
X0149880Y0045430D01*
X0149880Y0045413D01*
X0149484Y0044457D01*
X0148780Y0043753D01*
X0148780Y0042634D01*
X0148171Y0041164D01*
X0147046Y0040039D01*
X0145576Y0039430D01*
X0143985Y0039430D01*
X0142514Y0040039D01*
X0141389Y0041164D01*
X0140780Y0042634D01*
X0140780Y0044226D01*
X0141389Y0045696D01*
X0142514Y0046821D01*
X0142910Y0046985D01*
X0142910Y0048021D01*
X0142321Y0048611D01*
X0141091Y0048611D01*
X0139639Y0049212D01*
X0139639Y0042613D01*
X0139213Y0041584D01*
X0138425Y0040796D01*
X0138425Y0040796D01*
X0134654Y0037025D01*
X0134654Y0037025D01*
X0133866Y0036237D01*
X0132837Y0035811D01*
X0111873Y0035811D01*
X0111174Y0036101D01*
X0111355Y0035663D01*
X0111355Y0034071D01*
X0110746Y0032601D01*
X0109621Y0031476D01*
X0108151Y0030867D01*
X0107346Y0030867D01*
X0107461Y0030588D01*
X0107461Y0028996D01*
X0106852Y0027526D01*
X0105727Y0026401D01*
X0104257Y0025792D01*
X0102666Y0025792D01*
X0101196Y0026401D01*
X0100279Y0027318D01*
X0099626Y0027588D01*
X0099203Y0028011D01*
X0030763Y0028011D01*
X0029808Y0028407D01*
X0029603Y0028611D01*
X0028985Y0028611D01*
X0027514Y0029220D01*
X0026389Y0030345D01*
X0025780Y0031815D01*
X0025780Y0033407D01*
X0025898Y0033692D01*
X0024800Y0034790D01*
X0024800Y0040384D01*
X0025711Y0041295D01*
X0025695Y0041305D01*
X0025360Y0041640D01*
X0025123Y0042050D01*
X0025000Y0042508D01*
X0025000Y0044529D01*
X0029116Y0044529D01*
X0029116Y0044898D01*
X0029116Y0048482D01*
X0026563Y0048482D01*
X0026105Y0048359D01*
X0025695Y0048122D01*
X0025360Y0047787D01*
X0025123Y0047377D01*
X0025000Y0046919D01*
X0025000Y0044898D01*
X0029116Y0044898D01*
X0029484Y0044898D01*
X0029484Y0048482D01*
X0032037Y0048482D01*
X0032495Y0048359D01*
X0032905Y0048122D01*
X0033240Y0047787D01*
X0033477Y0047377D01*
X0033600Y0046919D01*
X0033600Y0044898D01*
X0029484Y0044898D01*
X0029484Y0044529D01*
X0033600Y0044529D01*
X0033600Y0042508D01*
X0033477Y0042050D01*
X0033240Y0041640D01*
X0032905Y0041305D01*
X0032889Y0041295D01*
X0033800Y0040384D01*
X0033800Y0034790D01*
X0033381Y0034371D01*
X0033780Y0033407D01*
X0033780Y0033211D01*
X0046221Y0033211D01*
X0043407Y0036025D01*
X0042980Y0037054D01*
X0042980Y0038451D01*
X0032621Y0048811D01*
X0025940Y0048811D01*
X0024580Y0047451D01*
X0024580Y0046554D01*
X0024154Y0045525D01*
X0023366Y0044737D01*
X0020866Y0042237D01*
X0019837Y0041811D01*
X0018065Y0041811D01*
X0017282Y0041029D01*
X0017610Y0040700D01*
X0017847Y0040290D01*
X0017970Y0039832D01*
X0017970Y0037811D01*
X0013854Y0037811D01*
X0013854Y0037442D01*
X0013854Y0033858D01*
X0016407Y0033858D01*
X0016865Y0033981D01*
X0017275Y0034218D01*
X0017610Y0034553D01*
X0017847Y0034963D01*
X0017970Y0035421D01*
X0017970Y0037442D01*
X0013854Y0037442D01*
X0013486Y0037442D01*
X0013486Y0033858D01*
X0010933Y0033858D01*
X0010475Y0033981D01*
X0010065Y0034218D01*
X0009730Y0034553D01*
X0009493Y0034963D01*
X0009370Y0035421D01*
X0009370Y0037442D01*
X0013486Y0037442D01*
X0013486Y0037811D01*
X0009370Y0037811D01*
X0009370Y0039832D01*
X0009493Y0040290D01*
X0009730Y0040700D01*
X0010058Y0041029D01*
X0009170Y0041916D01*
X0009170Y0047510D01*
X0010342Y0048682D01*
X0016998Y0048682D01*
X0018170Y0047510D01*
X0018170Y0047461D01*
X0018980Y0048271D01*
X0018980Y0049168D01*
X0019407Y0050197D01*
X0022407Y0053197D01*
X0023194Y0053985D01*
X0024223Y0054411D01*
X0034337Y0054411D01*
X0035366Y0053985D01*
X0047366Y0041985D01*
X0048154Y0041197D01*
X0048580Y0040168D01*
X0048580Y0038771D01*
X0049940Y0037411D01*
X0072121Y0037411D01*
X0073480Y0038771D01*
X0073480Y0044451D01*
X0072624Y0045307D01*
X0072404Y0045087D01*
X0073170Y0044321D01*
X0073170Y0038727D01*
X0071998Y0037556D01*
X0065342Y0037556D01*
X0064170Y0038727D01*
X0064170Y0040619D01*
X0064076Y0040580D01*
X0062485Y0040580D01*
X0061014Y0041188D01*
X0059889Y0042314D01*
X0059280Y0043784D01*
X0059280Y0044903D01*
X0059076Y0045107D01*
X0058784Y0045811D01*
X0057498Y0045811D01*
X0056652Y0044966D01*
X0056981Y0044637D01*
X0057217Y0044227D01*
X0057340Y0043769D01*
X0057340Y0041748D01*
X0053224Y0041748D01*
X0053224Y0041380D01*
X0057340Y0041380D01*
X0057340Y0039358D01*
X0057217Y0038900D01*
X0056981Y0038490D01*
X0056645Y0038155D01*
X0056235Y0037918D01*
X0055777Y0037795D01*
X0053224Y0037795D01*
X0053224Y0041379D01*
X0052856Y0041379D01*
X0052856Y0037795D01*
X0050303Y0037795D01*
X0049845Y0037918D01*
X0049435Y0038155D01*
X0049100Y0038490D01*
X0048863Y0038900D01*
X0048740Y0039358D01*
X0048740Y0041380D01*
X0052856Y0041380D01*
X0052856Y0041748D01*
X0048740Y0041748D01*
X0048740Y0043769D01*
X0048863Y0044227D01*
X0049100Y0044637D01*
X0049428Y0044966D01*
X0048540Y0045853D01*
X0048540Y0051447D01*
X0049712Y0052619D01*
X0056369Y0052619D01*
X0057540Y0051447D01*
X0057540Y0051411D01*
X0057621Y0051411D01*
X0058480Y0052271D01*
X0058480Y0053168D01*
X0058907Y0054197D01*
X0068639Y0063929D01*
X0006600Y0063929D01*
X0006600Y0063165D02*
X0067874Y0063165D01*
X0071493Y0062824D02*
X0061280Y0052611D01*
X0061280Y0051111D01*
X0058780Y0048611D01*
X0053280Y0048611D01*
X0053040Y0048650D01*
X0048540Y0048778D02*
X0040573Y0048778D01*
X0042171Y0047180D02*
X0048540Y0047180D01*
X0048812Y0045581D02*
X0043770Y0045581D01*
X0045368Y0043983D02*
X0048797Y0043983D01*
X0048740Y0042384D02*
X0046967Y0042384D01*
X0048324Y0040786D02*
X0048740Y0040786D01*
X0048786Y0039187D02*
X0048580Y0039187D01*
X0045780Y0039611D02*
X0045780Y0037611D01*
X0048780Y0034611D01*
X0073280Y0034611D01*
X0076280Y0037611D01*
X0076280Y0045611D01*
X0072780Y0049111D01*
X0072280Y0048611D01*
X0068780Y0048611D01*
X0068670Y0048650D01*
X0058880Y0045581D02*
X0057268Y0045581D01*
X0057283Y0043983D02*
X0059280Y0043983D01*
X0059860Y0042384D02*
X0057340Y0042384D01*
X0057340Y0040786D02*
X0061987Y0040786D01*
X0064170Y0039187D02*
X0057294Y0039187D01*
X0053224Y0039187D02*
X0052856Y0039187D01*
X0052856Y0040786D02*
X0053224Y0040786D01*
X0045780Y0039611D02*
X0033780Y0051611D01*
X0024780Y0051611D01*
X0021780Y0048611D01*
X0021780Y0047111D01*
X0019280Y0044611D01*
X0013780Y0044611D01*
X0013670Y0044713D01*
X0009170Y0043983D02*
X0006600Y0043983D01*
X0006600Y0042384D02*
X0009170Y0042384D01*
X0009815Y0040786D02*
X0006600Y0040786D01*
X0006600Y0039187D02*
X0009370Y0039187D01*
X0006600Y0037589D02*
X0013486Y0037589D01*
X0013854Y0037589D02*
X0024800Y0037589D01*
X0024800Y0035990D02*
X0017970Y0035990D01*
X0013854Y0035990D02*
X0013486Y0035990D01*
X0013486Y0034392D02*
X0013854Y0034392D01*
X0017449Y0034392D02*
X0025199Y0034392D01*
X0025780Y0032793D02*
X0006600Y0032793D01*
X0006600Y0034392D02*
X0009891Y0034392D01*
X0009370Y0035990D02*
X0006600Y0035990D01*
X0017970Y0039187D02*
X0024800Y0039187D01*
X0025201Y0040786D02*
X0017525Y0040786D01*
X0021013Y0042384D02*
X0025033Y0042384D01*
X0025000Y0043983D02*
X0022612Y0043983D01*
X0024177Y0045581D02*
X0025000Y0045581D01*
X0029116Y0045581D02*
X0029484Y0045581D01*
X0029484Y0047180D02*
X0029116Y0047180D01*
X0025070Y0047180D02*
X0024580Y0047180D01*
X0025907Y0048778D02*
X0032653Y0048778D01*
X0033530Y0047180D02*
X0034252Y0047180D01*
X0033600Y0045581D02*
X0035850Y0045581D01*
X0037449Y0043983D02*
X0033600Y0043983D01*
X0033567Y0042384D02*
X0039047Y0042384D01*
X0040646Y0040786D02*
X0033399Y0040786D01*
X0033800Y0039187D02*
X0042244Y0039187D01*
X0042980Y0037589D02*
X0033800Y0037589D01*
X0033800Y0035990D02*
X0043441Y0035990D01*
X0045040Y0034392D02*
X0033401Y0034392D01*
X0026037Y0031195D02*
X0006600Y0031195D01*
X0006600Y0029596D02*
X0027138Y0029596D01*
X0006600Y0027998D02*
X0099217Y0027998D01*
X0101200Y0026399D02*
X0006600Y0026399D01*
X0006600Y0024801D02*
X0213753Y0024801D01*
X0212772Y0026399D02*
X0105722Y0026399D01*
X0107048Y0027998D02*
X0212599Y0027998D01*
X0213092Y0029596D02*
X0107461Y0029596D01*
X0108942Y0031195D02*
X0179237Y0031195D01*
X0177638Y0032793D02*
X0110826Y0032793D01*
X0111355Y0034392D02*
X0176040Y0034392D01*
X0174441Y0035990D02*
X0133270Y0035990D01*
X0135218Y0037589D02*
X0172843Y0037589D01*
X0180762Y0037589D02*
X0183343Y0037589D01*
X0182255Y0036096D02*
X0184835Y0036096D01*
X0176907Y0044025D01*
X0176480Y0045054D01*
X0176480Y0052951D01*
X0175650Y0053781D01*
X0175650Y0053727D01*
X0174763Y0052840D01*
X0175091Y0052512D01*
X0175328Y0052101D01*
X0175450Y0051643D01*
X0175450Y0049622D01*
X0171335Y0049622D01*
X0171335Y0049254D01*
X0175450Y0049254D01*
X0175450Y0047232D01*
X0175328Y0046775D01*
X0175091Y0046364D01*
X0174756Y0046029D01*
X0174345Y0045792D01*
X0174275Y0045773D01*
X0175171Y0044877D01*
X0175780Y0043407D01*
X0175780Y0042571D01*
X0182255Y0036096D01*
X0188280Y0036611D02*
X0212780Y0036611D01*
X0214398Y0038229D01*
X0214398Y0040383D01*
X0216367Y0042351D01*
X0216367Y0049831D01*
X0219146Y0052611D01*
X0225780Y0052611D01*
X0226150Y0052587D01*
X0230650Y0051975D02*
X0245919Y0051975D01*
X0245391Y0051447D02*
X0245391Y0045853D01*
X0246278Y0044966D01*
X0245950Y0044637D01*
X0245713Y0044227D01*
X0245591Y0043769D01*
X0245591Y0041748D01*
X0249706Y0041748D01*
X0249706Y0041380D01*
X0245591Y0041380D01*
X0245591Y0039358D01*
X0245713Y0038900D01*
X0245950Y0038490D01*
X0246285Y0038155D01*
X0246696Y0037918D01*
X0247154Y0037795D01*
X0249706Y0037795D01*
X0249706Y0041379D01*
X0250075Y0041379D01*
X0250075Y0037795D01*
X0252628Y0037795D01*
X0253085Y0037918D01*
X0253496Y0038155D01*
X0253831Y0038490D01*
X0254068Y0038900D01*
X0254191Y0039358D01*
X0254191Y0041380D01*
X0250075Y0041380D01*
X0250075Y0041748D01*
X0254191Y0041748D01*
X0254191Y0042378D01*
X0255272Y0041930D01*
X0256863Y0041930D01*
X0257074Y0042017D01*
X0257074Y0039885D01*
X0253085Y0035896D01*
X0229596Y0035896D01*
X0229278Y0036664D01*
X0228152Y0037789D01*
X0226682Y0038398D01*
X0225091Y0038398D01*
X0223887Y0037900D01*
X0223887Y0038269D01*
X0223278Y0039739D01*
X0222152Y0040864D01*
X0221241Y0041242D01*
X0222537Y0041778D01*
X0222822Y0041493D01*
X0229479Y0041493D01*
X0230650Y0042664D01*
X0230650Y0048258D01*
X0229884Y0049024D01*
X0230650Y0049790D01*
X0230650Y0055384D01*
X0229479Y0056556D01*
X0222822Y0056556D01*
X0221677Y0055411D01*
X0219072Y0055411D01*
X0222440Y0058780D01*
X0249121Y0058780D01*
X0254480Y0053420D01*
X0254480Y0051352D01*
X0254391Y0051389D01*
X0254391Y0051447D01*
X0253219Y0052619D01*
X0246562Y0052619D01*
X0245391Y0051447D01*
X0245391Y0050377D02*
X0230650Y0050377D01*
X0230130Y0048778D02*
X0245391Y0048778D01*
X0249891Y0048650D02*
X0250280Y0048611D01*
X0253780Y0048611D01*
X0256068Y0046324D01*
X0256068Y0045930D01*
X0245663Y0045581D02*
X0230650Y0045581D01*
X0230650Y0047180D02*
X0245391Y0047180D01*
X0257280Y0051111D02*
X0259780Y0048611D01*
X0265280Y0048611D01*
X0265520Y0048650D01*
X0270020Y0048778D02*
X0301992Y0048778D01*
X0301992Y0048682D02*
X0301562Y0048682D01*
X0300391Y0047510D01*
X0300391Y0041916D01*
X0301134Y0041173D01*
X0300076Y0041611D01*
X0298485Y0041611D01*
X0297014Y0041002D01*
X0295889Y0039877D01*
X0295280Y0038407D01*
X0295280Y0036815D01*
X0295889Y0035345D01*
X0297014Y0034220D01*
X0298485Y0033611D01*
X0300076Y0033611D01*
X0301132Y0034049D01*
X0301562Y0033619D01*
X0308219Y0033619D01*
X0309391Y0034790D01*
X0309391Y0040384D01*
X0308624Y0041150D01*
X0309391Y0041916D01*
X0309391Y0047510D01*
X0308219Y0048682D01*
X0307592Y0048682D01*
X0307592Y0050022D01*
X0308183Y0050613D01*
X0308792Y0052083D01*
X0308792Y0053674D01*
X0308183Y0055145D01*
X0307058Y0056270D01*
X0305588Y0056879D01*
X0303996Y0056879D01*
X0302526Y0056270D01*
X0301401Y0055145D01*
X0300792Y0053674D01*
X0300792Y0052083D01*
X0301401Y0050613D01*
X0301992Y0050022D01*
X0301992Y0048682D01*
X0301637Y0050377D02*
X0270020Y0050377D01*
X0270020Y0051447D02*
X0268849Y0052619D01*
X0262192Y0052619D01*
X0261020Y0051447D01*
X0261020Y0051411D01*
X0260940Y0051411D01*
X0260080Y0052271D01*
X0260080Y0055136D01*
X0259654Y0056166D01*
X0258866Y0056953D01*
X0251890Y0063929D01*
X0311961Y0063929D01*
X0311961Y0006600D01*
X0303236Y0006600D01*
X0303674Y0007038D01*
X0305083Y0009479D01*
X0305813Y0012202D01*
X0305813Y0015020D01*
X0305083Y0017743D01*
X0303674Y0020184D01*
X0301680Y0022178D01*
X0299239Y0023587D01*
X0296516Y0024317D01*
X0293698Y0024317D01*
X0290975Y0023587D01*
X0288534Y0022178D01*
X0286541Y0020184D01*
X0285131Y0017743D01*
X0284402Y0015020D01*
X0284402Y0012202D01*
X0285131Y0009479D01*
X0286541Y0007038D01*
X0286978Y0006600D01*
X0282191Y0006600D01*
X0282191Y0020471D01*
X0281460Y0022236D01*
X0280110Y0023586D01*
X0278345Y0024317D01*
X0271958Y0024317D01*
X0272473Y0025559D01*
X0272473Y0027151D01*
X0271864Y0028621D01*
X0270739Y0029746D01*
X0269269Y0030355D01*
X0267914Y0030355D01*
X0268010Y0030452D01*
X0268619Y0031922D01*
X0268619Y0033513D01*
X0268380Y0034089D01*
X0268380Y0037556D01*
X0268849Y0037556D01*
X0270020Y0038727D01*
X0270020Y0042507D01*
X0284761Y0042507D01*
X0284761Y0041916D01*
X0285648Y0041029D01*
X0285320Y0040700D01*
X0285083Y0040290D01*
X0284961Y0039832D01*
X0284961Y0037811D01*
X0289076Y0037811D01*
X0289076Y0037442D01*
X0289445Y0037442D01*
X0289445Y0033858D01*
X0291998Y0033858D01*
X0292455Y0033981D01*
X0292866Y0034218D01*
X0293201Y0034553D01*
X0293438Y0034963D01*
X0293561Y0035421D01*
X0293561Y0037442D01*
X0289445Y0037442D01*
X0289445Y0037811D01*
X0293561Y0037811D01*
X0293561Y0039832D01*
X0293438Y0040290D01*
X0293201Y0040700D01*
X0292873Y0041029D01*
X0293761Y0041916D01*
X0293761Y0047510D01*
X0292589Y0048682D01*
X0285932Y0048682D01*
X0284957Y0047707D01*
X0270020Y0047707D01*
X0270020Y0051447D01*
X0269492Y0051975D02*
X0300837Y0051975D01*
X0304792Y0052879D02*
X0304792Y0044812D01*
X0304891Y0044713D01*
X0304780Y0044611D01*
X0300391Y0043983D02*
X0293761Y0043983D01*
X0293761Y0042384D02*
X0300391Y0042384D01*
X0296798Y0040786D02*
X0293116Y0040786D01*
X0293561Y0039187D02*
X0295604Y0039187D01*
X0295280Y0037589D02*
X0289445Y0037589D01*
X0289076Y0037589D02*
X0268882Y0037589D01*
X0268380Y0035990D02*
X0284961Y0035990D01*
X0284961Y0035421D02*
X0285083Y0034963D01*
X0285320Y0034553D01*
X0285655Y0034218D01*
X0286066Y0033981D01*
X0286524Y0033858D01*
X0289076Y0033858D01*
X0289076Y0037442D01*
X0284961Y0037442D01*
X0284961Y0035421D01*
X0285482Y0034392D02*
X0268380Y0034392D01*
X0268619Y0032793D02*
X0311961Y0032793D01*
X0311961Y0034392D02*
X0308992Y0034392D01*
X0309391Y0035990D02*
X0311961Y0035990D01*
X0311961Y0037589D02*
X0309391Y0037589D01*
X0309391Y0039187D02*
X0311961Y0039187D01*
X0311961Y0040786D02*
X0308989Y0040786D01*
X0309391Y0042384D02*
X0311961Y0042384D01*
X0311961Y0043983D02*
X0309391Y0043983D01*
X0309391Y0045581D02*
X0311961Y0045581D01*
X0311961Y0047180D02*
X0309391Y0047180D01*
X0307592Y0048778D02*
X0311961Y0048778D01*
X0311961Y0050377D02*
X0307947Y0050377D01*
X0308747Y0051975D02*
X0311961Y0051975D01*
X0311961Y0053574D02*
X0308792Y0053574D01*
X0308155Y0055172D02*
X0311961Y0055172D01*
X0311961Y0056771D02*
X0305848Y0056771D01*
X0303736Y0056771D02*
X0259049Y0056771D01*
X0260065Y0055172D02*
X0301429Y0055172D01*
X0300792Y0053574D02*
X0260080Y0053574D01*
X0257280Y0054580D02*
X0257280Y0051111D01*
X0254480Y0051975D02*
X0253863Y0051975D01*
X0260376Y0051975D02*
X0261548Y0051975D01*
X0254326Y0053574D02*
X0230650Y0053574D01*
X0230650Y0055172D02*
X0252728Y0055172D01*
X0251129Y0056771D02*
X0220431Y0056771D01*
X0212512Y0056771D02*
X0200865Y0056771D01*
X0201280Y0055172D02*
X0206020Y0055172D01*
X0206020Y0053574D02*
X0201030Y0053574D01*
X0199939Y0051975D02*
X0206020Y0051975D01*
X0210520Y0052587D02*
X0212288Y0052587D01*
X0221280Y0061580D01*
X0250280Y0061580D01*
X0257280Y0054580D01*
X0257450Y0058369D02*
X0311961Y0058369D01*
X0311961Y0059968D02*
X0255852Y0059968D01*
X0254253Y0061566D02*
X0311961Y0061566D01*
X0311961Y0063165D02*
X0252655Y0063165D01*
X0249531Y0058369D02*
X0222030Y0058369D01*
X0215709Y0059968D02*
X0190326Y0059968D01*
X0186965Y0059968D02*
X0186596Y0059968D01*
X0183235Y0059968D02*
X0175004Y0059968D01*
X0178982Y0058369D02*
X0182480Y0058369D01*
X0186596Y0058369D02*
X0186965Y0058369D01*
X0191080Y0058369D02*
X0195027Y0058369D01*
X0199534Y0058369D02*
X0214110Y0058369D01*
X0217307Y0061566D02*
X0099285Y0061566D01*
X0096280Y0060863D02*
X0096280Y0060611D01*
X0104280Y0052611D01*
X0107780Y0052611D01*
X0108040Y0052587D01*
X0112540Y0051975D02*
X0127569Y0051975D01*
X0123661Y0053574D02*
X0112540Y0053574D01*
X0112540Y0055172D02*
X0122547Y0055172D01*
X0122280Y0056771D02*
X0104080Y0056771D01*
X0102482Y0058369D02*
X0122679Y0058369D01*
X0123980Y0059968D02*
X0100883Y0059968D01*
X0096280Y0060863D02*
X0094320Y0062824D01*
X0071493Y0062824D01*
X0066276Y0061566D02*
X0006600Y0061566D01*
X0006600Y0059968D02*
X0064677Y0059968D01*
X0063079Y0058369D02*
X0006600Y0058369D01*
X0006600Y0056771D02*
X0061480Y0056771D01*
X0059882Y0055172D02*
X0006600Y0055172D01*
X0006600Y0053574D02*
X0022783Y0053574D01*
X0021185Y0051975D02*
X0006600Y0051975D01*
X0006600Y0050377D02*
X0019586Y0050377D01*
X0018980Y0048778D02*
X0006600Y0048778D01*
X0006600Y0047180D02*
X0009170Y0047180D01*
X0009170Y0045581D02*
X0006600Y0045581D01*
X0037376Y0051975D02*
X0049068Y0051975D01*
X0048540Y0050377D02*
X0038974Y0050377D01*
X0035777Y0053574D02*
X0058648Y0053574D01*
X0058185Y0051975D02*
X0057012Y0051975D01*
X0073766Y0056243D02*
X0074722Y0055847D01*
X0089357Y0041211D01*
X0097480Y0041211D01*
X0097480Y0042951D01*
X0096710Y0043721D01*
X0096710Y0043295D01*
X0096588Y0042838D01*
X0096351Y0042427D01*
X0096015Y0042092D01*
X0095605Y0041855D01*
X0095147Y0041732D01*
X0092594Y0041732D01*
X0092594Y0045316D01*
X0092226Y0045316D01*
X0092226Y0041732D01*
X0089673Y0041732D01*
X0089215Y0041855D01*
X0088805Y0042092D01*
X0088470Y0042427D01*
X0088233Y0042838D01*
X0088110Y0043295D01*
X0088110Y0045317D01*
X0092226Y0045317D01*
X0092226Y0045685D01*
X0088110Y0045685D01*
X0088110Y0047706D01*
X0088233Y0048164D01*
X0088470Y0048575D01*
X0088798Y0048903D01*
X0087910Y0049790D01*
X0087910Y0053792D01*
X0086985Y0053792D01*
X0085514Y0054401D01*
X0084389Y0055526D01*
X0083780Y0056996D01*
X0083780Y0058588D01*
X0084375Y0060024D01*
X0072653Y0060024D01*
X0068872Y0056243D01*
X0073766Y0056243D01*
X0069400Y0056771D02*
X0083874Y0056771D01*
X0084743Y0055172D02*
X0075396Y0055172D01*
X0076994Y0053574D02*
X0087910Y0053574D01*
X0087910Y0051975D02*
X0078593Y0051975D01*
X0080191Y0050377D02*
X0087910Y0050377D01*
X0088674Y0048778D02*
X0081790Y0048778D01*
X0083389Y0047180D02*
X0088110Y0047180D01*
X0084987Y0045581D02*
X0092226Y0045581D01*
X0098280Y0046111D02*
X0100280Y0044111D01*
X0100280Y0041611D01*
X0103721Y0041611D01*
X0104556Y0040776D01*
X0110265Y0040776D01*
X0112430Y0038611D01*
X0132280Y0038611D01*
X0136839Y0043170D01*
X0136839Y0055737D01*
X0137713Y0056611D01*
X0147280Y0056611D01*
X0147410Y0056524D01*
X0151910Y0056771D02*
X0166650Y0056771D01*
X0171150Y0056524D02*
X0171280Y0056611D01*
X0176780Y0056611D01*
X0179280Y0054111D01*
X0179280Y0045611D01*
X0188280Y0036611D01*
X0181744Y0039187D02*
X0179164Y0039187D01*
X0180146Y0040786D02*
X0177565Y0040786D01*
X0178547Y0042384D02*
X0175967Y0042384D01*
X0171780Y0042611D02*
X0181095Y0033296D01*
X0215709Y0033296D01*
X0219887Y0037473D01*
X0223506Y0039187D02*
X0245636Y0039187D01*
X0249706Y0039187D02*
X0250075Y0039187D01*
X0250075Y0040786D02*
X0249706Y0040786D01*
X0245591Y0040786D02*
X0222231Y0040786D01*
X0230370Y0042384D02*
X0245591Y0042384D01*
X0245648Y0043983D02*
X0230650Y0043983D01*
X0211598Y0040786D02*
X0201280Y0040786D01*
X0200875Y0042384D02*
X0206623Y0042384D01*
X0210336Y0042384D02*
X0210705Y0042384D01*
X0210705Y0043983D02*
X0210336Y0043983D01*
X0206220Y0043983D02*
X0199880Y0043983D01*
X0194680Y0043983D02*
X0190780Y0043983D01*
X0190514Y0042384D02*
X0193685Y0042384D01*
X0193280Y0040786D02*
X0189399Y0040786D01*
X0176949Y0043983D02*
X0175542Y0043983D01*
X0176480Y0045581D02*
X0174467Y0045581D01*
X0169094Y0045581D02*
X0150890Y0045581D01*
X0151910Y0047180D02*
X0166864Y0047180D01*
X0166850Y0048778D02*
X0151910Y0048778D01*
X0151910Y0050377D02*
X0166850Y0050377D01*
X0166939Y0051975D02*
X0151910Y0051975D01*
X0151757Y0053574D02*
X0166804Y0053574D01*
X0166650Y0055172D02*
X0151910Y0055172D01*
X0145280Y0049611D02*
X0142280Y0052611D01*
X0141887Y0052611D01*
X0145280Y0049611D02*
X0146780Y0049611D01*
X0147410Y0049398D01*
X0147280Y0049111D01*
X0140687Y0048778D02*
X0139639Y0048778D01*
X0139639Y0047180D02*
X0142910Y0047180D01*
X0141342Y0045581D02*
X0139639Y0045581D01*
X0134039Y0045581D02*
X0118967Y0045581D01*
X0115389Y0047180D02*
X0127494Y0047180D01*
X0131596Y0047180D02*
X0131965Y0047180D01*
X0131965Y0048778D02*
X0131596Y0048778D01*
X0127480Y0048778D02*
X0112020Y0048778D01*
X0112540Y0050377D02*
X0127480Y0050377D01*
X0133692Y0043983D02*
X0120042Y0043983D01*
X0120280Y0042384D02*
X0132094Y0042384D01*
X0138415Y0040786D02*
X0141768Y0040786D01*
X0147793Y0040786D02*
X0168207Y0040786D01*
X0167780Y0042384D02*
X0148677Y0042384D01*
X0149010Y0043983D02*
X0168019Y0043983D01*
X0175436Y0047180D02*
X0176480Y0047180D01*
X0176480Y0048778D02*
X0175450Y0048778D01*
X0175450Y0050377D02*
X0176480Y0050377D01*
X0182080Y0050377D02*
X0182280Y0050377D01*
X0182280Y0048778D02*
X0182080Y0048778D01*
X0182080Y0047180D02*
X0182280Y0047180D01*
X0190382Y0045581D02*
X0194680Y0045581D01*
X0199880Y0045581D02*
X0210336Y0045581D01*
X0206220Y0047180D02*
X0199880Y0047180D01*
X0194680Y0047180D02*
X0191280Y0047180D01*
X0191280Y0048778D02*
X0194680Y0048778D01*
X0199880Y0048778D02*
X0206784Y0048778D01*
X0206020Y0050377D02*
X0199880Y0050377D01*
X0194680Y0050377D02*
X0191280Y0050377D01*
X0191280Y0051975D02*
X0194621Y0051975D01*
X0193530Y0053574D02*
X0190792Y0053574D01*
X0191080Y0055172D02*
X0193280Y0055172D01*
X0193695Y0056771D02*
X0191080Y0056771D01*
X0186965Y0056771D02*
X0186596Y0056771D01*
X0182480Y0056771D02*
X0180580Y0056771D01*
X0181871Y0055172D02*
X0182480Y0055172D01*
X0182769Y0053574D02*
X0182080Y0053574D01*
X0182080Y0051975D02*
X0182280Y0051975D01*
X0176480Y0051975D02*
X0175361Y0051975D01*
X0175497Y0053574D02*
X0175858Y0053574D01*
X0166650Y0058369D02*
X0151910Y0058369D01*
X0151264Y0059968D02*
X0167297Y0059968D01*
X0143557Y0059968D02*
X0135634Y0059968D01*
X0097938Y0063165D02*
X0218906Y0063165D01*
X0210780Y0052611D02*
X0210520Y0052587D01*
X0254191Y0040786D02*
X0257074Y0040786D01*
X0256376Y0039187D02*
X0254145Y0039187D01*
X0254778Y0037589D02*
X0228353Y0037589D01*
X0229557Y0035990D02*
X0253179Y0035990D01*
X0270020Y0039187D02*
X0284961Y0039187D01*
X0285405Y0040786D02*
X0270020Y0040786D01*
X0270020Y0042384D02*
X0284761Y0042384D01*
X0293761Y0045581D02*
X0300391Y0045581D01*
X0300391Y0047180D02*
X0293761Y0047180D01*
X0293561Y0035990D02*
X0295622Y0035990D01*
X0296843Y0034392D02*
X0293040Y0034392D01*
X0289445Y0034392D02*
X0289076Y0034392D01*
X0289076Y0035990D02*
X0289445Y0035990D01*
X0268318Y0031195D02*
X0311961Y0031195D01*
X0311961Y0029596D02*
X0270889Y0029596D01*
X0272122Y0027998D02*
X0311961Y0027998D01*
X0311961Y0026399D02*
X0272473Y0026399D01*
X0272159Y0024801D02*
X0311961Y0024801D01*
X0311961Y0023202D02*
X0299906Y0023202D01*
X0302254Y0021604D02*
X0311961Y0021604D01*
X0311961Y0020005D02*
X0303777Y0020005D01*
X0304700Y0018407D02*
X0311961Y0018407D01*
X0311961Y0016808D02*
X0305334Y0016808D01*
X0305762Y0015210D02*
X0311961Y0015210D01*
X0311961Y0013611D02*
X0305813Y0013611D01*
X0305762Y0012013D02*
X0311961Y0012013D01*
X0311961Y0010414D02*
X0305334Y0010414D01*
X0304700Y0008815D02*
X0311961Y0008815D01*
X0311961Y0007217D02*
X0303777Y0007217D01*
X0286437Y0007217D02*
X0282191Y0007217D01*
X0282191Y0008815D02*
X0285514Y0008815D01*
X0284881Y0010414D02*
X0282191Y0010414D01*
X0282191Y0012013D02*
X0284452Y0012013D01*
X0284402Y0013611D02*
X0282191Y0013611D01*
X0282191Y0015210D02*
X0284452Y0015210D01*
X0284881Y0016808D02*
X0282191Y0016808D01*
X0282191Y0018407D02*
X0285514Y0018407D01*
X0286437Y0020005D02*
X0282191Y0020005D01*
X0281722Y0021604D02*
X0287960Y0021604D01*
X0290308Y0023202D02*
X0280493Y0023202D01*
X0203422Y0023202D02*
X0115139Y0023202D01*
X0116367Y0021604D02*
X0202193Y0021604D01*
X0201724Y0020005D02*
X0116836Y0020005D01*
X0116836Y0018407D02*
X0201724Y0018407D01*
X0201724Y0016808D02*
X0116836Y0016808D01*
X0116836Y0015210D02*
X0201724Y0015210D01*
X0201724Y0013611D02*
X0116836Y0013611D01*
X0116836Y0012013D02*
X0201724Y0012013D01*
X0111440Y0035990D02*
X0111219Y0035990D01*
X0136816Y0039187D02*
X0169594Y0039187D01*
X0140884Y0042384D02*
X0139545Y0042384D01*
X0139639Y0043983D02*
X0140780Y0043983D01*
X0098280Y0046111D02*
X0098280Y0046611D01*
X0092780Y0052111D01*
X0092410Y0052587D01*
X0083780Y0058369D02*
X0070998Y0058369D01*
X0072597Y0059968D02*
X0084352Y0059968D01*
X0086586Y0043983D02*
X0088110Y0043983D01*
X0092226Y0043983D02*
X0092594Y0043983D01*
X0092594Y0042384D02*
X0092226Y0042384D01*
X0088513Y0042384D02*
X0088184Y0042384D01*
X0096308Y0042384D02*
X0097480Y0042384D01*
X0073480Y0042384D02*
X0073170Y0042384D01*
X0073170Y0040786D02*
X0073480Y0040786D01*
X0073480Y0039187D02*
X0073170Y0039187D01*
X0072298Y0037589D02*
X0072031Y0037589D01*
X0065309Y0037589D02*
X0049762Y0037589D01*
X0073170Y0043983D02*
X0073480Y0043983D01*
X0038067Y0023202D02*
X0028252Y0023202D01*
X0030601Y0021604D02*
X0036839Y0021604D01*
X0036370Y0020005D02*
X0032124Y0020005D01*
X0033046Y0018407D02*
X0036370Y0018407D01*
X0036370Y0016808D02*
X0033680Y0016808D01*
X0034108Y0015210D02*
X0036370Y0015210D01*
X0036370Y0013611D02*
X0034159Y0013611D01*
X0034108Y0012013D02*
X0036370Y0012013D01*
X0036370Y0010414D02*
X0033680Y0010414D01*
X0033046Y0008815D02*
X0036370Y0008815D01*
X0036370Y0007217D02*
X0032124Y0007217D01*
X0014783Y0007217D02*
X0006600Y0007217D01*
X0006600Y0008815D02*
X0013861Y0008815D01*
X0013227Y0010414D02*
X0006600Y0010414D01*
X0006600Y0012013D02*
X0012799Y0012013D01*
X0012748Y0013611D02*
X0006600Y0013611D01*
X0006600Y0015210D02*
X0012799Y0015210D01*
X0013227Y0016808D02*
X0006600Y0016808D01*
X0006600Y0018407D02*
X0013861Y0018407D01*
X0014783Y0020005D02*
X0006600Y0020005D01*
X0006600Y0021604D02*
X0016306Y0021604D01*
X0018655Y0023202D02*
X0006600Y0023202D01*
D12*
X0029780Y0032611D03*
X0063280Y0044580D03*
X0107355Y0034867D03*
X0103461Y0029792D03*
X0157312Y0037233D03*
X0171780Y0042611D03*
X0186780Y0043824D03*
X0197280Y0040611D03*
X0219887Y0037473D03*
X0225887Y0034398D03*
X0216599Y0027611D03*
X0196682Y0027391D03*
X0167780Y0014706D03*
X0264619Y0032717D03*
X0268473Y0026355D03*
X0295107Y0029359D03*
X0299280Y0037611D03*
X0256068Y0045930D03*
X0241957Y0052981D03*
X0220387Y0045217D03*
X0197280Y0054973D03*
X0159280Y0052981D03*
X0141887Y0052611D03*
X0126280Y0056611D03*
X0087780Y0057792D03*
X0078572Y0056918D03*
X0038808Y0058099D03*
X0116280Y0042611D03*
X0144780Y0043430D03*
X0304792Y0052879D03*
D13*
X0117942Y0052981D03*
D14*
X0126280Y0056611D02*
X0131780Y0056611D01*
X0131780Y0056524D01*
X0100780Y0051111D02*
X0094099Y0057792D01*
X0087780Y0057792D01*
X0073249Y0053643D02*
X0066812Y0053643D01*
X0064280Y0051111D01*
X0064280Y0050611D01*
X0061280Y0047611D01*
X0061280Y0046580D01*
X0063280Y0044580D01*
X0065615Y0044580D01*
X0068670Y0041524D01*
X0068280Y0041611D01*
X0073249Y0053643D02*
X0088280Y0038611D01*
X0099280Y0038611D01*
X0099280Y0038572D01*
X0102981Y0034871D01*
X0107351Y0034871D01*
X0107355Y0034867D01*
X0101099Y0029792D02*
X0100280Y0030611D01*
X0031280Y0030611D01*
X0029780Y0032111D01*
X0029780Y0032611D01*
X0029780Y0037111D01*
X0029300Y0037587D01*
X0100780Y0047111D02*
X0102280Y0045611D01*
X0107780Y0045611D01*
X0108040Y0045461D01*
X0108280Y0045611D01*
X0113280Y0045611D01*
X0116280Y0042611D01*
X0100780Y0047111D02*
X0100780Y0051111D01*
X0144780Y0043430D02*
X0147280Y0045930D01*
X0147280Y0049111D01*
X0186780Y0049398D02*
X0186780Y0043824D01*
X0197280Y0040611D02*
X0197280Y0054973D01*
X0220631Y0045461D02*
X0226150Y0045461D01*
X0225780Y0045611D01*
X0220631Y0045461D02*
X0220602Y0045459D01*
X0220573Y0045454D01*
X0220544Y0045445D01*
X0220518Y0045433D01*
X0220492Y0045418D01*
X0220469Y0045400D01*
X0220448Y0045379D01*
X0220430Y0045356D01*
X0220415Y0045330D01*
X0220403Y0045304D01*
X0220394Y0045275D01*
X0220389Y0045246D01*
X0220387Y0045217D01*
X0254162Y0033296D02*
X0259674Y0038808D01*
X0259674Y0042745D01*
X0262036Y0045107D01*
X0288867Y0045107D01*
X0289261Y0044713D01*
X0288780Y0044611D01*
X0265780Y0041111D02*
X0265780Y0033879D01*
X0264619Y0032717D01*
X0254162Y0033296D02*
X0226989Y0033296D01*
X0225887Y0034398D01*
X0226288Y0034398D01*
X0226997Y0033690D01*
X0227391Y0033690D01*
X0216599Y0027611D02*
X0260280Y0027611D01*
X0261387Y0026505D01*
X0268324Y0026505D01*
X0268473Y0026355D01*
X0299280Y0037611D02*
X0304780Y0037611D01*
X0304891Y0037587D01*
X0265780Y0041111D02*
X0265520Y0041524D01*
X0103461Y0029792D02*
X0101099Y0029792D01*
M02*
