%
M48
M72
T01C0.02400
T02C0.02756
T03C0.11811
%
T01
X103461Y29792
X107355Y34867
X116280Y42611
X144780Y43430
X157312Y37233
X171780Y42611
X186780Y43824
X197280Y40611
X219887Y37473
X225887Y34398
X216599Y27611
X196682Y27391
X167780Y14706
X264619Y32717
X268473Y26355
X295107Y29359
X299280Y37611
X256068Y45930
X241957Y52981
X220387Y45217
X197280Y54973
X159280Y52981
X141887Y52611
X126280Y56611
X87780Y57792
X78572Y56918
X38808Y58099
X63280Y44580
X29780Y32611
X304792Y52879
T02
X117942Y52981
T03
X23454Y13611
X295107Y13611
M30
