G75*
%MOIN*%
%OFA0B0*%
%FSLAX25Y25*%
%IPPOS*%
%LPD*%
%AMOC8*
5,1,8,0,0,1.08239X$1,22.5*
%
%ADD10C,0.00000*%
D10*
X0001800Y0001800D02*
X0001800Y0068729D01*
X0316761Y0068729D01*
X0316761Y0001800D01*
X0277391Y0001800D01*
X0277391Y0019517D01*
X0206524Y0019517D01*
X0206524Y0005737D01*
X0112036Y0005737D01*
X0112036Y0019517D01*
X0041170Y0019517D01*
X0041170Y0001800D01*
X0001800Y0001800D01*
X0017548Y0013611D02*
X0017550Y0013764D01*
X0017556Y0013918D01*
X0017566Y0014071D01*
X0017580Y0014223D01*
X0017598Y0014376D01*
X0017620Y0014527D01*
X0017645Y0014678D01*
X0017675Y0014829D01*
X0017709Y0014979D01*
X0017746Y0015127D01*
X0017787Y0015275D01*
X0017832Y0015421D01*
X0017881Y0015567D01*
X0017934Y0015711D01*
X0017990Y0015853D01*
X0018050Y0015994D01*
X0018114Y0016134D01*
X0018181Y0016272D01*
X0018252Y0016408D01*
X0018327Y0016542D01*
X0018404Y0016674D01*
X0018486Y0016804D01*
X0018570Y0016932D01*
X0018658Y0017058D01*
X0018749Y0017181D01*
X0018843Y0017302D01*
X0018941Y0017420D01*
X0019041Y0017536D01*
X0019145Y0017649D01*
X0019251Y0017760D01*
X0019360Y0017868D01*
X0019472Y0017973D01*
X0019586Y0018074D01*
X0019704Y0018173D01*
X0019823Y0018269D01*
X0019945Y0018362D01*
X0020070Y0018451D01*
X0020197Y0018538D01*
X0020326Y0018620D01*
X0020457Y0018700D01*
X0020590Y0018776D01*
X0020725Y0018849D01*
X0020862Y0018918D01*
X0021001Y0018983D01*
X0021141Y0019045D01*
X0021283Y0019103D01*
X0021426Y0019158D01*
X0021571Y0019209D01*
X0021717Y0019256D01*
X0021864Y0019299D01*
X0022012Y0019338D01*
X0022161Y0019374D01*
X0022311Y0019405D01*
X0022462Y0019433D01*
X0022613Y0019457D01*
X0022766Y0019477D01*
X0022918Y0019493D01*
X0023071Y0019505D01*
X0023224Y0019513D01*
X0023377Y0019517D01*
X0023531Y0019517D01*
X0023684Y0019513D01*
X0023837Y0019505D01*
X0023990Y0019493D01*
X0024142Y0019477D01*
X0024295Y0019457D01*
X0024446Y0019433D01*
X0024597Y0019405D01*
X0024747Y0019374D01*
X0024896Y0019338D01*
X0025044Y0019299D01*
X0025191Y0019256D01*
X0025337Y0019209D01*
X0025482Y0019158D01*
X0025625Y0019103D01*
X0025767Y0019045D01*
X0025907Y0018983D01*
X0026046Y0018918D01*
X0026183Y0018849D01*
X0026318Y0018776D01*
X0026451Y0018700D01*
X0026582Y0018620D01*
X0026711Y0018538D01*
X0026838Y0018451D01*
X0026963Y0018362D01*
X0027085Y0018269D01*
X0027204Y0018173D01*
X0027322Y0018074D01*
X0027436Y0017973D01*
X0027548Y0017868D01*
X0027657Y0017760D01*
X0027763Y0017649D01*
X0027867Y0017536D01*
X0027967Y0017420D01*
X0028065Y0017302D01*
X0028159Y0017181D01*
X0028250Y0017058D01*
X0028338Y0016932D01*
X0028422Y0016804D01*
X0028504Y0016674D01*
X0028581Y0016542D01*
X0028656Y0016408D01*
X0028727Y0016272D01*
X0028794Y0016134D01*
X0028858Y0015994D01*
X0028918Y0015853D01*
X0028974Y0015711D01*
X0029027Y0015567D01*
X0029076Y0015421D01*
X0029121Y0015275D01*
X0029162Y0015127D01*
X0029199Y0014979D01*
X0029233Y0014829D01*
X0029263Y0014678D01*
X0029288Y0014527D01*
X0029310Y0014376D01*
X0029328Y0014223D01*
X0029342Y0014071D01*
X0029352Y0013918D01*
X0029358Y0013764D01*
X0029360Y0013611D01*
X0029358Y0013458D01*
X0029352Y0013304D01*
X0029342Y0013151D01*
X0029328Y0012999D01*
X0029310Y0012846D01*
X0029288Y0012695D01*
X0029263Y0012544D01*
X0029233Y0012393D01*
X0029199Y0012243D01*
X0029162Y0012095D01*
X0029121Y0011947D01*
X0029076Y0011801D01*
X0029027Y0011655D01*
X0028974Y0011511D01*
X0028918Y0011369D01*
X0028858Y0011228D01*
X0028794Y0011088D01*
X0028727Y0010950D01*
X0028656Y0010814D01*
X0028581Y0010680D01*
X0028504Y0010548D01*
X0028422Y0010418D01*
X0028338Y0010290D01*
X0028250Y0010164D01*
X0028159Y0010041D01*
X0028065Y0009920D01*
X0027967Y0009802D01*
X0027867Y0009686D01*
X0027763Y0009573D01*
X0027657Y0009462D01*
X0027548Y0009354D01*
X0027436Y0009249D01*
X0027322Y0009148D01*
X0027204Y0009049D01*
X0027085Y0008953D01*
X0026963Y0008860D01*
X0026838Y0008771D01*
X0026711Y0008684D01*
X0026582Y0008602D01*
X0026451Y0008522D01*
X0026318Y0008446D01*
X0026183Y0008373D01*
X0026046Y0008304D01*
X0025907Y0008239D01*
X0025767Y0008177D01*
X0025625Y0008119D01*
X0025482Y0008064D01*
X0025337Y0008013D01*
X0025191Y0007966D01*
X0025044Y0007923D01*
X0024896Y0007884D01*
X0024747Y0007848D01*
X0024597Y0007817D01*
X0024446Y0007789D01*
X0024295Y0007765D01*
X0024142Y0007745D01*
X0023990Y0007729D01*
X0023837Y0007717D01*
X0023684Y0007709D01*
X0023531Y0007705D01*
X0023377Y0007705D01*
X0023224Y0007709D01*
X0023071Y0007717D01*
X0022918Y0007729D01*
X0022766Y0007745D01*
X0022613Y0007765D01*
X0022462Y0007789D01*
X0022311Y0007817D01*
X0022161Y0007848D01*
X0022012Y0007884D01*
X0021864Y0007923D01*
X0021717Y0007966D01*
X0021571Y0008013D01*
X0021426Y0008064D01*
X0021283Y0008119D01*
X0021141Y0008177D01*
X0021001Y0008239D01*
X0020862Y0008304D01*
X0020725Y0008373D01*
X0020590Y0008446D01*
X0020457Y0008522D01*
X0020326Y0008602D01*
X0020197Y0008684D01*
X0020070Y0008771D01*
X0019945Y0008860D01*
X0019823Y0008953D01*
X0019704Y0009049D01*
X0019586Y0009148D01*
X0019472Y0009249D01*
X0019360Y0009354D01*
X0019251Y0009462D01*
X0019145Y0009573D01*
X0019041Y0009686D01*
X0018941Y0009802D01*
X0018843Y0009920D01*
X0018749Y0010041D01*
X0018658Y0010164D01*
X0018570Y0010290D01*
X0018486Y0010418D01*
X0018404Y0010548D01*
X0018327Y0010680D01*
X0018252Y0010814D01*
X0018181Y0010950D01*
X0018114Y0011088D01*
X0018050Y0011228D01*
X0017990Y0011369D01*
X0017934Y0011511D01*
X0017881Y0011655D01*
X0017832Y0011801D01*
X0017787Y0011947D01*
X0017746Y0012095D01*
X0017709Y0012243D01*
X0017675Y0012393D01*
X0017645Y0012544D01*
X0017620Y0012695D01*
X0017598Y0012846D01*
X0017580Y0012999D01*
X0017566Y0013151D01*
X0017556Y0013304D01*
X0017550Y0013458D01*
X0017548Y0013611D01*
X0289201Y0013611D02*
X0289203Y0013764D01*
X0289209Y0013918D01*
X0289219Y0014071D01*
X0289233Y0014223D01*
X0289251Y0014376D01*
X0289273Y0014527D01*
X0289298Y0014678D01*
X0289328Y0014829D01*
X0289362Y0014979D01*
X0289399Y0015127D01*
X0289440Y0015275D01*
X0289485Y0015421D01*
X0289534Y0015567D01*
X0289587Y0015711D01*
X0289643Y0015853D01*
X0289703Y0015994D01*
X0289767Y0016134D01*
X0289834Y0016272D01*
X0289905Y0016408D01*
X0289980Y0016542D01*
X0290057Y0016674D01*
X0290139Y0016804D01*
X0290223Y0016932D01*
X0290311Y0017058D01*
X0290402Y0017181D01*
X0290496Y0017302D01*
X0290594Y0017420D01*
X0290694Y0017536D01*
X0290798Y0017649D01*
X0290904Y0017760D01*
X0291013Y0017868D01*
X0291125Y0017973D01*
X0291239Y0018074D01*
X0291357Y0018173D01*
X0291476Y0018269D01*
X0291598Y0018362D01*
X0291723Y0018451D01*
X0291850Y0018538D01*
X0291979Y0018620D01*
X0292110Y0018700D01*
X0292243Y0018776D01*
X0292378Y0018849D01*
X0292515Y0018918D01*
X0292654Y0018983D01*
X0292794Y0019045D01*
X0292936Y0019103D01*
X0293079Y0019158D01*
X0293224Y0019209D01*
X0293370Y0019256D01*
X0293517Y0019299D01*
X0293665Y0019338D01*
X0293814Y0019374D01*
X0293964Y0019405D01*
X0294115Y0019433D01*
X0294266Y0019457D01*
X0294419Y0019477D01*
X0294571Y0019493D01*
X0294724Y0019505D01*
X0294877Y0019513D01*
X0295030Y0019517D01*
X0295184Y0019517D01*
X0295337Y0019513D01*
X0295490Y0019505D01*
X0295643Y0019493D01*
X0295795Y0019477D01*
X0295948Y0019457D01*
X0296099Y0019433D01*
X0296250Y0019405D01*
X0296400Y0019374D01*
X0296549Y0019338D01*
X0296697Y0019299D01*
X0296844Y0019256D01*
X0296990Y0019209D01*
X0297135Y0019158D01*
X0297278Y0019103D01*
X0297420Y0019045D01*
X0297560Y0018983D01*
X0297699Y0018918D01*
X0297836Y0018849D01*
X0297971Y0018776D01*
X0298104Y0018700D01*
X0298235Y0018620D01*
X0298364Y0018538D01*
X0298491Y0018451D01*
X0298616Y0018362D01*
X0298738Y0018269D01*
X0298857Y0018173D01*
X0298975Y0018074D01*
X0299089Y0017973D01*
X0299201Y0017868D01*
X0299310Y0017760D01*
X0299416Y0017649D01*
X0299520Y0017536D01*
X0299620Y0017420D01*
X0299718Y0017302D01*
X0299812Y0017181D01*
X0299903Y0017058D01*
X0299991Y0016932D01*
X0300075Y0016804D01*
X0300157Y0016674D01*
X0300234Y0016542D01*
X0300309Y0016408D01*
X0300380Y0016272D01*
X0300447Y0016134D01*
X0300511Y0015994D01*
X0300571Y0015853D01*
X0300627Y0015711D01*
X0300680Y0015567D01*
X0300729Y0015421D01*
X0300774Y0015275D01*
X0300815Y0015127D01*
X0300852Y0014979D01*
X0300886Y0014829D01*
X0300916Y0014678D01*
X0300941Y0014527D01*
X0300963Y0014376D01*
X0300981Y0014223D01*
X0300995Y0014071D01*
X0301005Y0013918D01*
X0301011Y0013764D01*
X0301013Y0013611D01*
X0301011Y0013458D01*
X0301005Y0013304D01*
X0300995Y0013151D01*
X0300981Y0012999D01*
X0300963Y0012846D01*
X0300941Y0012695D01*
X0300916Y0012544D01*
X0300886Y0012393D01*
X0300852Y0012243D01*
X0300815Y0012095D01*
X0300774Y0011947D01*
X0300729Y0011801D01*
X0300680Y0011655D01*
X0300627Y0011511D01*
X0300571Y0011369D01*
X0300511Y0011228D01*
X0300447Y0011088D01*
X0300380Y0010950D01*
X0300309Y0010814D01*
X0300234Y0010680D01*
X0300157Y0010548D01*
X0300075Y0010418D01*
X0299991Y0010290D01*
X0299903Y0010164D01*
X0299812Y0010041D01*
X0299718Y0009920D01*
X0299620Y0009802D01*
X0299520Y0009686D01*
X0299416Y0009573D01*
X0299310Y0009462D01*
X0299201Y0009354D01*
X0299089Y0009249D01*
X0298975Y0009148D01*
X0298857Y0009049D01*
X0298738Y0008953D01*
X0298616Y0008860D01*
X0298491Y0008771D01*
X0298364Y0008684D01*
X0298235Y0008602D01*
X0298104Y0008522D01*
X0297971Y0008446D01*
X0297836Y0008373D01*
X0297699Y0008304D01*
X0297560Y0008239D01*
X0297420Y0008177D01*
X0297278Y0008119D01*
X0297135Y0008064D01*
X0296990Y0008013D01*
X0296844Y0007966D01*
X0296697Y0007923D01*
X0296549Y0007884D01*
X0296400Y0007848D01*
X0296250Y0007817D01*
X0296099Y0007789D01*
X0295948Y0007765D01*
X0295795Y0007745D01*
X0295643Y0007729D01*
X0295490Y0007717D01*
X0295337Y0007709D01*
X0295184Y0007705D01*
X0295030Y0007705D01*
X0294877Y0007709D01*
X0294724Y0007717D01*
X0294571Y0007729D01*
X0294419Y0007745D01*
X0294266Y0007765D01*
X0294115Y0007789D01*
X0293964Y0007817D01*
X0293814Y0007848D01*
X0293665Y0007884D01*
X0293517Y0007923D01*
X0293370Y0007966D01*
X0293224Y0008013D01*
X0293079Y0008064D01*
X0292936Y0008119D01*
X0292794Y0008177D01*
X0292654Y0008239D01*
X0292515Y0008304D01*
X0292378Y0008373D01*
X0292243Y0008446D01*
X0292110Y0008522D01*
X0291979Y0008602D01*
X0291850Y0008684D01*
X0291723Y0008771D01*
X0291598Y0008860D01*
X0291476Y0008953D01*
X0291357Y0009049D01*
X0291239Y0009148D01*
X0291125Y0009249D01*
X0291013Y0009354D01*
X0290904Y0009462D01*
X0290798Y0009573D01*
X0290694Y0009686D01*
X0290594Y0009802D01*
X0290496Y0009920D01*
X0290402Y0010041D01*
X0290311Y0010164D01*
X0290223Y0010290D01*
X0290139Y0010418D01*
X0290057Y0010548D01*
X0289980Y0010680D01*
X0289905Y0010814D01*
X0289834Y0010950D01*
X0289767Y0011088D01*
X0289703Y0011228D01*
X0289643Y0011369D01*
X0289587Y0011511D01*
X0289534Y0011655D01*
X0289485Y0011801D01*
X0289440Y0011947D01*
X0289399Y0012095D01*
X0289362Y0012243D01*
X0289328Y0012393D01*
X0289298Y0012544D01*
X0289273Y0012695D01*
X0289251Y0012846D01*
X0289233Y0012999D01*
X0289219Y0013151D01*
X0289209Y0013304D01*
X0289203Y0013458D01*
X0289201Y0013611D01*
M02*
