G75*
%MOIN*%
%OFA0B0*%
%FSLAX25Y25*%
%IPPOS*%
%LPD*%
%AMOC8*
5,1,8,0,0,1.08239X$1,22.5*
%
%ADD10C,0.00500*%
%ADD11C,0.00400*%
D10*
X0016170Y0034477D02*
X0026800Y0034477D01*
X0026800Y0047863D01*
X0018139Y0047863D01*
X0016170Y0045894D01*
X0016170Y0034477D01*
X0017942Y0036052D02*
X0017942Y0040383D01*
X0025028Y0040383D01*
X0025028Y0036052D01*
X0017942Y0036052D01*
X0017942Y0041957D02*
X0017942Y0046288D01*
X0025028Y0046288D01*
X0025028Y0041957D01*
X0017942Y0041957D01*
X0055540Y0038414D02*
X0055540Y0049831D01*
X0057509Y0051800D01*
X0066170Y0051800D01*
X0066170Y0038414D01*
X0055540Y0038414D01*
X0057312Y0039989D02*
X0057312Y0044320D01*
X0064398Y0044320D01*
X0064398Y0039989D01*
X0057312Y0039989D01*
X0057312Y0045894D02*
X0057312Y0050225D01*
X0064398Y0050225D01*
X0064398Y0045894D01*
X0057312Y0045894D01*
X0094910Y0042351D02*
X0094910Y0053769D01*
X0096879Y0055737D01*
X0105540Y0055737D01*
X0105540Y0042351D01*
X0094910Y0042351D01*
X0096682Y0043926D02*
X0096682Y0048257D01*
X0103769Y0048257D01*
X0103769Y0043926D01*
X0096682Y0043926D01*
X0096682Y0049831D02*
X0096682Y0054162D01*
X0103769Y0054162D01*
X0103769Y0049831D01*
X0096682Y0049831D01*
X0134280Y0046288D02*
X0134280Y0057706D01*
X0136249Y0059674D01*
X0144910Y0059674D01*
X0144910Y0046288D01*
X0134280Y0046288D01*
X0136052Y0047863D02*
X0136052Y0052194D01*
X0143139Y0052194D01*
X0143139Y0047863D01*
X0136052Y0047863D01*
X0136052Y0053769D02*
X0136052Y0058099D01*
X0143139Y0058099D01*
X0143139Y0053769D01*
X0136052Y0053769D01*
X0173650Y0057706D02*
X0173650Y0046288D01*
X0184280Y0046288D01*
X0184280Y0059674D01*
X0175619Y0059674D01*
X0173650Y0057706D01*
X0175422Y0058099D02*
X0175422Y0053769D01*
X0182509Y0053769D01*
X0182509Y0058099D01*
X0175422Y0058099D01*
X0175422Y0052194D02*
X0175422Y0047863D01*
X0182509Y0047863D01*
X0182509Y0052194D01*
X0175422Y0052194D01*
X0213020Y0053769D02*
X0214989Y0055737D01*
X0223650Y0055737D01*
X0223650Y0042351D01*
X0213020Y0042351D01*
X0213020Y0053769D01*
X0214792Y0054162D02*
X0214792Y0049831D01*
X0221879Y0049831D01*
X0221879Y0054162D01*
X0214792Y0054162D01*
X0214792Y0048257D02*
X0214792Y0043926D01*
X0221879Y0043926D01*
X0221879Y0048257D01*
X0214792Y0048257D01*
X0252391Y0049831D02*
X0254359Y0051800D01*
X0263020Y0051800D01*
X0263020Y0038414D01*
X0252391Y0038414D01*
X0252391Y0049831D01*
X0254162Y0050225D02*
X0254162Y0045894D01*
X0261249Y0045894D01*
X0261249Y0050225D01*
X0254162Y0050225D01*
X0254162Y0044320D02*
X0254162Y0039989D01*
X0261249Y0039989D01*
X0261249Y0044320D01*
X0254162Y0044320D01*
X0291761Y0045894D02*
X0293729Y0047863D01*
X0302391Y0047863D01*
X0302391Y0034477D01*
X0291761Y0034477D01*
X0291761Y0045894D01*
X0293532Y0046288D02*
X0293532Y0041957D01*
X0300619Y0041957D01*
X0300619Y0046288D01*
X0293532Y0046288D01*
X0293532Y0040383D02*
X0293532Y0036052D01*
X0300619Y0036052D01*
X0300619Y0040383D01*
X0293532Y0040383D01*
D11*
X0015122Y0026370D02*
X0013587Y0026370D01*
X0012820Y0027137D01*
X0012820Y0027905D01*
X0013587Y0028672D01*
X0015122Y0028672D01*
X0015889Y0029439D01*
X0015889Y0030207D01*
X0015122Y0030974D01*
X0013587Y0030974D01*
X0012820Y0030207D01*
X0012820Y0029439D01*
X0013587Y0028672D01*
X0015122Y0028672D02*
X0015889Y0027905D01*
X0015889Y0027137D01*
X0015122Y0026370D01*
X0017424Y0026370D02*
X0020493Y0026370D01*
X0020493Y0027137D01*
X0017424Y0030207D01*
X0017424Y0030974D01*
X0020493Y0030974D01*
X0022028Y0030207D02*
X0022795Y0030974D01*
X0024330Y0030974D01*
X0025097Y0030207D01*
X0025097Y0027137D01*
X0024330Y0026370D01*
X0022795Y0026370D01*
X0022028Y0027137D01*
X0052190Y0034144D02*
X0055259Y0031074D01*
X0055259Y0030307D01*
X0056794Y0030307D02*
X0059863Y0030307D01*
X0059863Y0031074D01*
X0056794Y0034144D01*
X0056794Y0034911D01*
X0059863Y0034911D01*
X0061398Y0034144D02*
X0062165Y0034911D01*
X0063700Y0034911D01*
X0064467Y0034144D01*
X0064467Y0031074D01*
X0063700Y0030307D01*
X0062165Y0030307D01*
X0061398Y0031074D01*
X0052190Y0034144D02*
X0052190Y0034911D01*
X0055259Y0034911D01*
X0091560Y0035011D02*
X0091560Y0035779D01*
X0092327Y0036546D01*
X0094629Y0036546D01*
X0094629Y0035011D01*
X0093862Y0034244D01*
X0092327Y0034244D01*
X0091560Y0035011D01*
X0094629Y0036546D02*
X0093095Y0038081D01*
X0091560Y0038848D01*
X0096164Y0038848D02*
X0096164Y0038081D01*
X0099233Y0035011D01*
X0099233Y0034244D01*
X0096164Y0034244D01*
X0100768Y0035011D02*
X0101535Y0034244D01*
X0103070Y0034244D01*
X0103837Y0035011D01*
X0103837Y0038081D01*
X0103070Y0038848D01*
X0101535Y0038848D01*
X0100768Y0038081D01*
X0099233Y0038848D02*
X0096164Y0038848D01*
X0130930Y0038948D02*
X0131697Y0038181D01*
X0133232Y0038181D01*
X0133999Y0038948D01*
X0135534Y0038181D02*
X0138603Y0038181D01*
X0138603Y0038948D01*
X0135534Y0042018D01*
X0135534Y0042785D01*
X0138603Y0042785D01*
X0140138Y0042018D02*
X0140905Y0042785D01*
X0142440Y0042785D01*
X0143207Y0042018D01*
X0143207Y0038948D01*
X0142440Y0038181D01*
X0140905Y0038181D01*
X0140138Y0038948D01*
X0133999Y0040483D02*
X0132465Y0041250D01*
X0131697Y0041250D01*
X0130930Y0040483D01*
X0130930Y0038948D01*
X0133999Y0040483D02*
X0133999Y0042785D01*
X0130930Y0042785D01*
X0170300Y0040483D02*
X0173369Y0040483D01*
X0171067Y0042785D01*
X0171067Y0038181D01*
X0174904Y0038181D02*
X0177973Y0038181D01*
X0177973Y0038948D01*
X0174904Y0042018D01*
X0174904Y0042785D01*
X0177973Y0042785D01*
X0179508Y0042018D02*
X0180275Y0042785D01*
X0181810Y0042785D01*
X0182577Y0042018D01*
X0182577Y0038948D01*
X0181810Y0038181D01*
X0180275Y0038181D01*
X0179508Y0038948D01*
X0209670Y0038081D02*
X0209670Y0037313D01*
X0210437Y0036546D01*
X0209670Y0035779D01*
X0209670Y0035011D01*
X0210437Y0034244D01*
X0211972Y0034244D01*
X0212739Y0035011D01*
X0214274Y0034244D02*
X0217343Y0034244D01*
X0217343Y0035011D01*
X0214274Y0038081D01*
X0214274Y0038848D01*
X0217343Y0038848D01*
X0218878Y0038081D02*
X0219645Y0038848D01*
X0221180Y0038848D01*
X0221947Y0038081D01*
X0221947Y0035011D01*
X0221180Y0034244D01*
X0219645Y0034244D01*
X0218878Y0035011D01*
X0211205Y0036546D02*
X0210437Y0036546D01*
X0209670Y0038081D02*
X0210437Y0038848D01*
X0211972Y0038848D01*
X0212739Y0038081D01*
X0249040Y0034144D02*
X0249040Y0033376D01*
X0252109Y0030307D01*
X0249040Y0030307D01*
X0253644Y0030307D02*
X0256713Y0030307D01*
X0256713Y0031074D01*
X0253644Y0034144D01*
X0253644Y0034911D01*
X0256713Y0034911D01*
X0258248Y0034144D02*
X0259015Y0034911D01*
X0260550Y0034911D01*
X0261317Y0034144D01*
X0261317Y0031074D01*
X0260550Y0030307D01*
X0259015Y0030307D01*
X0258248Y0031074D01*
X0252109Y0034144D02*
X0251342Y0034911D01*
X0249808Y0034911D01*
X0249040Y0034144D01*
X0288410Y0026370D02*
X0291480Y0026370D01*
X0293014Y0026370D02*
X0296083Y0026370D01*
X0296083Y0027137D01*
X0293014Y0030207D01*
X0293014Y0030974D01*
X0296083Y0030974D01*
X0297618Y0030207D02*
X0298385Y0030974D01*
X0299920Y0030974D01*
X0300687Y0030207D01*
X0300687Y0027137D01*
X0299920Y0026370D01*
X0298385Y0026370D01*
X0297618Y0027137D01*
X0291480Y0029439D02*
X0289945Y0030974D01*
X0289945Y0026370D01*
M02*
