G75*
%MOIN*%
%OFA0B0*%
%FSLAX25Y25*%
%IPPOS*%
%LPD*%
%AMOC8*
5,1,8,0,0,1.08239X$1,22.5*
%
%ADD10C,0.00400*%
%ADD11C,0.00500*%
D10*
X0044398Y0022184D02*
X0044398Y0024486D01*
X0045165Y0025254D01*
X0046700Y0025254D01*
X0047467Y0024486D01*
X0047467Y0022184D01*
X0049002Y0022184D02*
X0044398Y0022184D01*
X0047467Y0023719D02*
X0049002Y0025254D01*
X0049002Y0026788D02*
X0045932Y0029857D01*
X0045165Y0029857D01*
X0044398Y0029090D01*
X0044398Y0027555D01*
X0045165Y0026788D01*
X0049002Y0026788D02*
X0049002Y0029857D01*
X0049002Y0031392D02*
X0049002Y0034461D01*
X0049002Y0032927D02*
X0044398Y0032927D01*
X0045932Y0031392D01*
X0056209Y0032159D02*
X0056976Y0031392D01*
X0057743Y0031392D01*
X0058511Y0032159D01*
X0058511Y0034461D01*
X0060045Y0034461D02*
X0056976Y0034461D01*
X0056209Y0033694D01*
X0056209Y0032159D01*
X0060045Y0031392D02*
X0060813Y0032159D01*
X0060813Y0033694D01*
X0060045Y0034461D01*
X0068020Y0033694D02*
X0070322Y0031392D01*
X0070322Y0034461D01*
X0072624Y0033694D02*
X0068020Y0033694D01*
X0076642Y0033298D02*
X0077409Y0034065D01*
X0078944Y0034065D01*
X0079711Y0033298D01*
X0079711Y0030996D01*
X0081246Y0030996D02*
X0076642Y0030996D01*
X0076642Y0033298D01*
X0079711Y0032531D02*
X0081246Y0034065D01*
X0082133Y0033694D02*
X0082133Y0031392D01*
X0083667Y0031392D01*
X0084435Y0032159D01*
X0084435Y0033694D01*
X0083667Y0034461D01*
X0082900Y0034461D01*
X0082133Y0033694D01*
X0080598Y0032927D02*
X0082133Y0031392D01*
X0080598Y0032927D02*
X0079831Y0034461D01*
X0081246Y0035600D02*
X0081246Y0038669D01*
X0081246Y0037135D02*
X0076642Y0037135D01*
X0078176Y0035600D01*
X0077409Y0040204D02*
X0076642Y0040971D01*
X0076642Y0042506D01*
X0077409Y0043273D01*
X0078176Y0043273D01*
X0078944Y0042506D01*
X0079711Y0043273D01*
X0080478Y0043273D01*
X0081246Y0042506D01*
X0081246Y0040971D01*
X0080478Y0040204D01*
X0078944Y0041739D02*
X0078944Y0042506D01*
X0084435Y0029857D02*
X0084435Y0026788D01*
X0081365Y0026788D02*
X0079831Y0028323D01*
X0084435Y0028323D01*
X0072624Y0028323D02*
X0068020Y0028323D01*
X0069554Y0026788D01*
X0072624Y0026788D02*
X0072624Y0029857D01*
X0060813Y0029857D02*
X0060813Y0026788D01*
X0057743Y0026788D02*
X0056209Y0028323D01*
X0060813Y0028323D01*
X0060813Y0025254D02*
X0059278Y0023719D01*
X0059278Y0024486D02*
X0059278Y0022184D01*
X0060813Y0022184D02*
X0056209Y0022184D01*
X0056209Y0024486D01*
X0056976Y0025254D01*
X0058511Y0025254D01*
X0059278Y0024486D01*
X0068020Y0024486D02*
X0068020Y0022184D01*
X0072624Y0022184D01*
X0071089Y0022184D02*
X0071089Y0024486D01*
X0070322Y0025254D01*
X0068787Y0025254D01*
X0068020Y0024486D01*
X0071089Y0023719D02*
X0072624Y0025254D01*
X0079831Y0024486D02*
X0080598Y0025254D01*
X0082133Y0025254D01*
X0082900Y0024486D01*
X0082900Y0022184D01*
X0084435Y0022184D02*
X0079831Y0022184D01*
X0079831Y0024486D01*
X0082900Y0023719D02*
X0084435Y0025254D01*
X0222311Y0030996D02*
X0222311Y0033298D01*
X0223078Y0034065D01*
X0224613Y0034065D01*
X0225380Y0033298D01*
X0225380Y0030996D01*
X0226915Y0030996D02*
X0222311Y0030996D01*
X0225380Y0032531D02*
X0226915Y0034065D01*
X0226915Y0035600D02*
X0226915Y0038669D01*
X0226915Y0037135D02*
X0222311Y0037135D01*
X0223846Y0035600D01*
X0234122Y0037135D02*
X0235657Y0035600D01*
X0238726Y0035600D02*
X0238726Y0038669D01*
X0238726Y0037135D02*
X0234122Y0037135D01*
X0245933Y0037902D02*
X0245933Y0036367D01*
X0246700Y0035600D01*
X0247468Y0035600D01*
X0248235Y0036367D01*
X0248235Y0038669D01*
X0249770Y0038669D02*
X0246700Y0038669D01*
X0245933Y0037902D01*
X0249770Y0038669D02*
X0250537Y0037902D01*
X0250537Y0036367D01*
X0249770Y0035600D01*
X0250537Y0034065D02*
X0249002Y0032531D01*
X0249002Y0033298D02*
X0249002Y0030996D01*
X0250537Y0030996D02*
X0245933Y0030996D01*
X0245933Y0033298D01*
X0246700Y0034065D01*
X0248235Y0034065D01*
X0249002Y0033298D01*
X0238726Y0034065D02*
X0237191Y0032531D01*
X0237191Y0033298D02*
X0237191Y0030996D01*
X0238726Y0030996D02*
X0234122Y0030996D01*
X0234122Y0033298D01*
X0234889Y0034065D01*
X0236424Y0034065D01*
X0237191Y0033298D01*
X0263256Y0036114D02*
X0263256Y0038416D01*
X0264023Y0039183D01*
X0265558Y0039183D01*
X0266325Y0038416D01*
X0266325Y0036114D01*
X0267860Y0036114D02*
X0263256Y0036114D01*
X0266325Y0037649D02*
X0267860Y0039183D01*
X0265558Y0040718D02*
X0265558Y0043787D01*
X0267860Y0043020D02*
X0263256Y0043020D01*
X0265558Y0040718D01*
X0274673Y0041485D02*
X0274673Y0043020D01*
X0275441Y0043787D01*
X0276208Y0043787D01*
X0279277Y0040718D01*
X0279277Y0043787D01*
X0275441Y0040718D02*
X0274673Y0041485D01*
X0275441Y0039183D02*
X0276975Y0039183D01*
X0277743Y0038416D01*
X0277743Y0036114D01*
X0279277Y0036114D02*
X0274673Y0036114D01*
X0274673Y0038416D01*
X0275441Y0039183D01*
X0277743Y0037649D02*
X0279277Y0039183D01*
X0238726Y0040204D02*
X0238726Y0043273D01*
X0238726Y0041739D02*
X0234122Y0041739D01*
X0235657Y0040204D01*
D11*
X0191682Y0025422D02*
X0191682Y0013611D01*
X0185776Y0013611D01*
X0185776Y0019517D01*
X0130658Y0019517D01*
X0130658Y0013611D01*
X0185776Y0013611D01*
X0191682Y0025422D02*
X0124753Y0025422D01*
X0124753Y0013611D01*
X0130658Y0013611D01*
M02*
