G75*
%MOIN*%
%OFA0B0*%
%FSLAX25Y25*%
%IPPOS*%
%LPD*%
%AMOC8*
5,1,8,0,0,1.08239X$1,22.5*
%
%ADD10C,0.01100*%
%ADD11R,0.06299X0.05118*%
%ADD12R,0.05118X0.06299*%
%ADD13C,0.06600*%
%ADD14OC8,0.08500*%
%ADD15OC8,0.05600*%
%ADD16C,0.06000*%
%ADD17C,0.05600*%
%ADD18R,0.05906X0.05118*%
%ADD19R,0.05118X0.05906*%
%ADD20C,0.05543*%
%ADD21C,0.01600*%
%ADD22C,0.04750*%
%ADD23C,0.01200*%
D10*
X0059843Y0056335D02*
X0060827Y0055351D01*
X0061811Y0055351D01*
X0062795Y0057319D02*
X0059843Y0057319D01*
X0059843Y0056335D02*
X0059843Y0061256D01*
X0057334Y0063224D02*
X0057334Y0057319D01*
X0057334Y0059287D02*
X0054381Y0061256D01*
X0057334Y0059287D02*
X0054381Y0057319D01*
X0062795Y0057319D02*
X0063779Y0058303D01*
X0063779Y0061256D01*
X0066288Y0061256D02*
X0070225Y0057319D01*
X0066288Y0057319D01*
X0072734Y0057319D02*
X0075686Y0057319D01*
X0076670Y0058303D01*
X0076670Y0060272D01*
X0075686Y0061256D01*
X0072734Y0061256D01*
X0070225Y0061256D02*
X0066288Y0061256D01*
X0078999Y0057319D02*
X0080967Y0057319D01*
X0079983Y0057319D02*
X0079983Y0063224D01*
X0080967Y0063224D01*
X0083476Y0060272D02*
X0084460Y0061256D01*
X0086429Y0061256D01*
X0083476Y0060272D02*
X0083476Y0057319D01*
X0086429Y0057319D01*
X0087413Y0058303D01*
X0086429Y0059287D01*
X0083476Y0059287D01*
X0089922Y0058303D02*
X0090906Y0057319D01*
X0091890Y0058303D01*
X0092874Y0057319D01*
X0093858Y0058303D01*
X0093858Y0061256D01*
X0096367Y0060272D02*
X0097351Y0061256D01*
X0099320Y0061256D01*
X0100304Y0060272D01*
X0100304Y0058303D01*
X0099320Y0057319D01*
X0097351Y0057319D01*
X0096367Y0058303D01*
X0096367Y0060272D01*
X0089922Y0061256D02*
X0089922Y0058303D01*
X0102813Y0057319D02*
X0105765Y0060272D01*
X0106749Y0059287D02*
X0102813Y0063224D01*
X0106749Y0063224D02*
X0106749Y0057319D01*
X0089561Y0067634D02*
X0089561Y0073539D01*
X0086609Y0073539D01*
X0085625Y0072555D01*
X0085625Y0070587D01*
X0086609Y0069602D01*
X0089561Y0069602D01*
X0092070Y0069602D02*
X0092070Y0073539D01*
X0096007Y0073539D02*
X0096007Y0070587D01*
X0095023Y0069602D01*
X0092070Y0069602D01*
X0098335Y0069602D02*
X0100304Y0069602D01*
X0099320Y0069602D02*
X0099320Y0073539D01*
X0100304Y0073539D01*
X0099320Y0075508D02*
X0099320Y0076492D01*
X0102813Y0074523D02*
X0103797Y0075508D01*
X0105765Y0075508D01*
X0106749Y0074523D01*
X0106749Y0070587D01*
X0105765Y0069602D01*
X0103797Y0069602D01*
X0102813Y0070587D01*
X0083116Y0069602D02*
X0081147Y0069602D01*
X0082132Y0069602D02*
X0082132Y0073539D01*
X0083116Y0073539D01*
X0082132Y0075508D02*
X0082132Y0076492D01*
X0083116Y0080390D02*
X0083116Y0084327D01*
X0080163Y0084327D01*
X0079179Y0083342D01*
X0079179Y0080390D01*
X0075686Y0081374D02*
X0074702Y0080390D01*
X0075686Y0081374D02*
X0075686Y0085311D01*
X0076670Y0084327D02*
X0074702Y0084327D01*
X0072373Y0083342D02*
X0071389Y0084327D01*
X0069421Y0084327D01*
X0068437Y0083342D01*
X0068437Y0082358D01*
X0072373Y0082358D01*
X0072373Y0081374D02*
X0072373Y0083342D01*
X0072373Y0081374D02*
X0071389Y0080390D01*
X0069421Y0080390D01*
X0065928Y0081374D02*
X0064944Y0080390D01*
X0061991Y0080390D01*
X0061991Y0079406D02*
X0061991Y0084327D01*
X0064944Y0084327D01*
X0065928Y0083342D01*
X0065928Y0081374D01*
X0062975Y0078422D02*
X0061991Y0079406D01*
X0062975Y0078422D02*
X0063959Y0078422D01*
X0059482Y0080390D02*
X0059482Y0084327D01*
X0057514Y0084327D02*
X0056530Y0084327D01*
X0057514Y0084327D02*
X0059482Y0082358D01*
X0054111Y0081374D02*
X0053127Y0080390D01*
X0050174Y0080390D01*
X0050174Y0083342D01*
X0051158Y0084327D01*
X0053127Y0084327D01*
X0053127Y0082358D02*
X0050174Y0082358D01*
X0053127Y0082358D02*
X0054111Y0081374D01*
X0074882Y0073539D02*
X0077835Y0073539D01*
X0078819Y0072555D01*
X0077835Y0071571D01*
X0075866Y0071571D01*
X0074882Y0070587D01*
X0075866Y0069602D01*
X0078819Y0069602D01*
X0085444Y0080390D02*
X0087413Y0080390D01*
X0086429Y0080390D02*
X0086429Y0086295D01*
X0087413Y0086295D02*
X0085444Y0086295D01*
X0096367Y0086295D02*
X0096367Y0080390D01*
X0100304Y0086295D01*
X0100304Y0080390D01*
X0102813Y0080390D02*
X0105765Y0083342D01*
X0106749Y0082358D02*
X0102813Y0086295D01*
X0106749Y0086295D02*
X0106749Y0080390D01*
X0446558Y0057870D02*
X0448526Y0057870D01*
X0447542Y0057870D02*
X0447542Y0061807D01*
X0448526Y0061807D01*
X0447542Y0063775D02*
X0447542Y0064759D01*
X0450945Y0061807D02*
X0453897Y0059839D01*
X0450945Y0057870D01*
X0453897Y0057870D02*
X0453897Y0063775D01*
X0456406Y0061807D02*
X0459359Y0061807D01*
X0460343Y0060823D01*
X0459359Y0059839D01*
X0457390Y0059839D01*
X0456406Y0058854D01*
X0457390Y0057870D01*
X0460343Y0057870D01*
X0462852Y0058854D02*
X0462852Y0061807D01*
X0466788Y0061807D02*
X0466788Y0058854D01*
X0465804Y0057870D01*
X0464820Y0058854D01*
X0463836Y0057870D01*
X0462852Y0058854D01*
X0469297Y0058854D02*
X0469297Y0060823D01*
X0470281Y0061807D01*
X0472250Y0061807D01*
X0473234Y0060823D01*
X0473234Y0058854D01*
X0472250Y0057870D01*
X0470281Y0057870D01*
X0469297Y0058854D01*
X0475652Y0057870D02*
X0478605Y0059839D01*
X0475652Y0061807D01*
X0478605Y0063775D02*
X0478605Y0057870D01*
X0481114Y0057870D02*
X0485051Y0057870D01*
X0481114Y0061807D01*
X0485051Y0061807D01*
X0487559Y0061807D02*
X0490512Y0061807D01*
X0491496Y0060823D01*
X0491496Y0058854D01*
X0490512Y0057870D01*
X0487559Y0057870D01*
X0494005Y0057870D02*
X0496957Y0057870D01*
X0497942Y0058854D01*
X0497942Y0061807D01*
X0500450Y0062791D02*
X0504387Y0058854D01*
X0504387Y0057870D01*
X0500450Y0057870D01*
X0494989Y0055902D02*
X0494005Y0056886D01*
X0494005Y0061807D01*
X0500450Y0062791D02*
X0500450Y0063775D01*
X0504387Y0063775D01*
X0504387Y0068500D02*
X0500450Y0068500D01*
X0497942Y0068500D02*
X0495973Y0068500D01*
X0496957Y0068500D02*
X0496957Y0072437D01*
X0497942Y0072437D01*
X0500450Y0073421D02*
X0504387Y0069484D01*
X0504387Y0068500D01*
X0493645Y0069484D02*
X0493645Y0071453D01*
X0492660Y0072437D01*
X0490692Y0072437D01*
X0489708Y0071453D01*
X0489708Y0070468D01*
X0493645Y0070468D01*
X0493645Y0069484D02*
X0492660Y0068500D01*
X0490692Y0068500D01*
X0487199Y0068500D02*
X0487199Y0072437D01*
X0486215Y0072437D01*
X0485231Y0071453D01*
X0484246Y0072437D01*
X0483262Y0071453D01*
X0483262Y0068500D01*
X0485231Y0068500D02*
X0485231Y0071453D01*
X0480754Y0071453D02*
X0479769Y0070468D01*
X0477801Y0070468D01*
X0476817Y0069484D01*
X0477801Y0068500D01*
X0480754Y0068500D01*
X0474308Y0068500D02*
X0474308Y0074405D01*
X0467953Y0074405D02*
X0467953Y0075389D01*
X0467953Y0072437D02*
X0467953Y0068500D01*
X0468937Y0068500D02*
X0466968Y0068500D01*
X0471355Y0068500D02*
X0474308Y0070468D01*
X0471355Y0072437D01*
X0468937Y0072437D02*
X0467953Y0072437D01*
X0476817Y0072437D02*
X0479769Y0072437D01*
X0480754Y0071453D01*
X0496957Y0074405D02*
X0496957Y0075389D01*
X0500450Y0074405D02*
X0500450Y0073421D01*
X0500450Y0074405D02*
X0504387Y0074405D01*
X0504387Y0079945D02*
X0504387Y0085850D01*
X0502419Y0083882D01*
X0500450Y0085850D01*
X0500450Y0079945D01*
X0497942Y0080929D02*
X0496957Y0081913D01*
X0494005Y0081913D01*
X0494005Y0082898D02*
X0494005Y0079945D01*
X0496957Y0079945D01*
X0497942Y0080929D01*
X0496957Y0083882D02*
X0494989Y0083882D01*
X0494005Y0082898D01*
X0491496Y0083882D02*
X0491496Y0079945D01*
X0491496Y0081913D02*
X0489528Y0083882D01*
X0488543Y0083882D01*
X0486125Y0081913D02*
X0483172Y0083882D01*
X0480754Y0082898D02*
X0480754Y0080929D01*
X0479769Y0079945D01*
X0477801Y0079945D01*
X0476817Y0080929D01*
X0476817Y0082898D01*
X0477801Y0083882D01*
X0479769Y0083882D01*
X0480754Y0082898D01*
X0483172Y0079945D02*
X0486125Y0081913D01*
X0486125Y0079945D02*
X0486125Y0085850D01*
X0474308Y0083882D02*
X0474308Y0080929D01*
X0473324Y0079945D01*
X0472340Y0080929D01*
X0471355Y0079945D01*
X0470371Y0080929D01*
X0470371Y0083882D01*
X0467863Y0082898D02*
X0466878Y0081913D01*
X0464910Y0081913D01*
X0463926Y0080929D01*
X0464910Y0079945D01*
X0467863Y0079945D01*
X0461417Y0079945D02*
X0461417Y0085850D01*
X0455062Y0085850D02*
X0455062Y0086834D01*
X0455062Y0083882D02*
X0455062Y0079945D01*
X0456046Y0079945D02*
X0454077Y0079945D01*
X0458465Y0079945D02*
X0461417Y0081913D01*
X0458465Y0083882D01*
X0456046Y0083882D02*
X0455062Y0083882D01*
X0463926Y0083882D02*
X0466878Y0083882D01*
X0467863Y0082898D01*
X0494989Y0055902D02*
X0495973Y0055902D01*
D11*
X0383244Y0033517D03*
X0383244Y0021517D03*
X0238154Y0070875D03*
X0259846Y0078974D03*
X0238154Y0082875D03*
X0259846Y0090974D03*
D12*
X0250417Y0092320D03*
X0238417Y0092320D03*
X0247768Y0069738D03*
X0259768Y0069738D03*
X0265118Y0036360D03*
X0253118Y0036360D03*
X0240280Y0036348D03*
X0228280Y0036348D03*
X0329055Y0110470D03*
X0341055Y0110470D03*
X0361693Y0123108D03*
X0373693Y0123108D03*
D13*
X0355579Y0097619D03*
X0363272Y0082509D03*
X0355579Y0057619D03*
X0363272Y0042509D03*
D14*
X0371630Y0062202D03*
X0371630Y0092202D03*
D15*
X0256394Y0024167D03*
X0246394Y0024167D03*
X0236394Y0024167D03*
X0236394Y0014167D03*
X0246394Y0014167D03*
X0256394Y0014167D03*
D16*
X0204583Y0018336D02*
X0204583Y0024336D01*
X0194583Y0024336D02*
X0194583Y0018336D01*
X0184583Y0018336D02*
X0184583Y0024336D01*
X0174583Y0024336D02*
X0174583Y0018336D01*
X0135890Y0042360D02*
X0129890Y0042360D01*
X0129890Y0052360D02*
X0135890Y0052360D01*
X0135890Y0062360D02*
X0129890Y0062360D01*
X0129890Y0072360D02*
X0135890Y0072360D01*
X0135890Y0082360D02*
X0129890Y0082360D01*
X0129890Y0092360D02*
X0135890Y0092360D01*
X0417291Y0094328D02*
X0423291Y0094328D01*
X0423291Y0084328D02*
X0417291Y0084328D01*
X0417291Y0074328D02*
X0423291Y0074328D01*
X0423291Y0064328D02*
X0417291Y0064328D01*
X0417291Y0054328D02*
X0423291Y0054328D01*
X0423291Y0044328D02*
X0417291Y0044328D01*
D17*
X0372047Y0105335D02*
X0372047Y0110935D01*
X0362047Y0110935D02*
X0362047Y0105335D01*
D18*
X0289780Y0041533D03*
X0289780Y0034052D03*
X0359504Y0029328D03*
X0371394Y0029958D03*
X0371394Y0022478D03*
X0359504Y0021848D03*
D19*
X0337969Y0077123D03*
X0330488Y0077123D03*
X0333201Y0093513D03*
X0325720Y0093513D03*
D20*
X0201465Y0098100D02*
X0195921Y0098100D01*
X0195921Y0108100D02*
X0201465Y0108100D01*
X0151465Y0108100D02*
X0145921Y0108100D01*
X0145921Y0098100D02*
X0151465Y0098100D01*
X0151465Y0088100D02*
X0145921Y0088100D01*
X0145921Y0078100D02*
X0151465Y0078100D01*
X0151465Y0068100D02*
X0145921Y0068100D01*
X0145921Y0058100D02*
X0151465Y0058100D01*
X0151465Y0048100D02*
X0145921Y0048100D01*
X0145921Y0038100D02*
X0151465Y0038100D01*
X0195921Y0038100D02*
X0201465Y0038100D01*
X0201465Y0048100D02*
X0195921Y0048100D01*
X0195921Y0058100D02*
X0201465Y0058100D01*
X0201465Y0068100D02*
X0195921Y0068100D01*
X0195921Y0078100D02*
X0201465Y0078100D01*
X0201465Y0088100D02*
X0195921Y0088100D01*
D21*
X0123910Y0046661D02*
X0123910Y0007199D01*
X0180142Y0007199D01*
X0174005Y0013336D01*
X0173588Y0013336D01*
X0171750Y0014097D01*
X0170344Y0015504D01*
X0169583Y0017341D01*
X0169583Y0025331D01*
X0170344Y0027168D01*
X0171750Y0028575D01*
X0173588Y0029336D01*
X0175577Y0029336D01*
X0177415Y0028575D01*
X0178821Y0027168D01*
X0179583Y0025331D01*
X0179583Y0017341D01*
X0179095Y0016165D01*
X0184250Y0011010D01*
X0204931Y0011010D01*
X0217716Y0023795D01*
X0217716Y0025080D01*
X0218382Y0026688D01*
X0219612Y0027919D01*
X0221220Y0028585D01*
X0222961Y0028585D01*
X0224569Y0027919D01*
X0225799Y0026688D01*
X0226465Y0025080D01*
X0226465Y0023340D01*
X0225799Y0021732D01*
X0224569Y0020501D01*
X0222961Y0019835D01*
X0221676Y0019835D01*
X0209039Y0007199D01*
X0429271Y0007199D01*
X0429271Y0046661D01*
X0430002Y0048425D01*
X0431352Y0049775D01*
X0433116Y0050506D01*
X0434071Y0050506D01*
X0434071Y0088150D01*
X0433116Y0088150D01*
X0431352Y0088881D01*
X0430002Y0090231D01*
X0429271Y0091995D01*
X0429271Y0152005D01*
X0422973Y0152005D01*
X0423123Y0151446D01*
X0423123Y0148627D01*
X0422393Y0145905D01*
X0420984Y0143463D01*
X0418991Y0141470D01*
X0416549Y0140061D01*
X0413827Y0139331D01*
X0411008Y0139331D01*
X0408285Y0140061D01*
X0405844Y0141470D01*
X0403851Y0143463D01*
X0402441Y0145905D01*
X0401712Y0148627D01*
X0401712Y0151446D01*
X0401862Y0152005D01*
X0399501Y0152005D01*
X0399501Y0151050D01*
X0398770Y0149286D01*
X0397420Y0147936D01*
X0395656Y0147205D01*
X0157526Y0147205D01*
X0155761Y0147936D01*
X0154411Y0149286D01*
X0153680Y0151050D01*
X0153680Y0152005D01*
X0151319Y0152005D01*
X0151469Y0151446D01*
X0151469Y0148627D01*
X0150740Y0145905D01*
X0149330Y0143463D01*
X0147337Y0141470D01*
X0144896Y0140061D01*
X0142173Y0139331D01*
X0139354Y0139331D01*
X0136632Y0140061D01*
X0134190Y0141470D01*
X0132197Y0143463D01*
X0130788Y0145905D01*
X0130058Y0148627D01*
X0130058Y0151446D01*
X0130208Y0152005D01*
X0123910Y0152005D01*
X0123910Y0091995D01*
X0123179Y0090231D01*
X0121829Y0088881D01*
X0120065Y0088150D01*
X0119110Y0088150D01*
X0119110Y0050506D01*
X0120065Y0050506D01*
X0121829Y0049775D01*
X0123179Y0048425D01*
X0123910Y0046661D01*
X0123910Y0046180D02*
X0126639Y0046180D01*
X0127057Y0046598D02*
X0125651Y0045192D01*
X0124890Y0043354D01*
X0124890Y0041365D01*
X0125651Y0039527D01*
X0127057Y0038121D01*
X0128895Y0037360D01*
X0136884Y0037360D01*
X0138722Y0038121D01*
X0140129Y0039527D01*
X0140890Y0041365D01*
X0140890Y0043354D01*
X0140129Y0045192D01*
X0138722Y0046598D01*
X0136884Y0047360D01*
X0138722Y0048121D01*
X0140129Y0049527D01*
X0140890Y0051365D01*
X0140890Y0053354D01*
X0140129Y0055192D01*
X0138722Y0056598D01*
X0136884Y0057360D01*
X0138722Y0058121D01*
X0140129Y0059527D01*
X0140890Y0061365D01*
X0140890Y0063354D01*
X0140129Y0065192D01*
X0138722Y0066598D01*
X0136884Y0067360D01*
X0138722Y0068121D01*
X0140129Y0069527D01*
X0140370Y0070110D01*
X0141589Y0070110D01*
X0141150Y0069049D01*
X0141150Y0067151D01*
X0141876Y0065397D01*
X0143218Y0064055D01*
X0144972Y0063328D01*
X0152414Y0063328D01*
X0154167Y0064055D01*
X0155510Y0065397D01*
X0156236Y0067151D01*
X0156236Y0067396D01*
X0168677Y0079836D01*
X0169464Y0080624D01*
X0169891Y0081653D01*
X0169891Y0102248D01*
X0170799Y0103157D01*
X0171465Y0104765D01*
X0171465Y0106505D01*
X0170799Y0108113D01*
X0169569Y0109344D01*
X0167961Y0110010D01*
X0166220Y0110010D01*
X0164612Y0109344D01*
X0163382Y0108113D01*
X0162716Y0106505D01*
X0162716Y0104765D01*
X0163382Y0103157D01*
X0164291Y0102248D01*
X0164291Y0087043D01*
X0163502Y0087832D01*
X0161894Y0088498D01*
X0160153Y0088498D01*
X0158545Y0087832D01*
X0157315Y0086601D01*
X0156649Y0084994D01*
X0156649Y0083253D01*
X0157315Y0081645D01*
X0157897Y0081063D01*
X0156133Y0079299D01*
X0155510Y0080803D01*
X0154167Y0082145D01*
X0152414Y0082871D01*
X0144972Y0082871D01*
X0143218Y0082145D01*
X0141876Y0080803D01*
X0141150Y0079049D01*
X0141150Y0077151D01*
X0141876Y0075397D01*
X0141963Y0075310D01*
X0140010Y0075310D01*
X0138722Y0076598D01*
X0136884Y0077360D01*
X0138722Y0078121D01*
X0140129Y0079527D01*
X0140890Y0081365D01*
X0140890Y0083354D01*
X0140403Y0084528D01*
X0142745Y0084528D01*
X0143218Y0084055D01*
X0144972Y0083328D01*
X0152414Y0083328D01*
X0154167Y0084055D01*
X0155510Y0085397D01*
X0156236Y0087151D01*
X0156236Y0089049D01*
X0155510Y0090803D01*
X0154167Y0092145D01*
X0152414Y0092871D01*
X0144972Y0092871D01*
X0143218Y0092145D01*
X0141876Y0090803D01*
X0141811Y0090646D01*
X0141394Y0090473D01*
X0141049Y0090128D01*
X0140140Y0090128D01*
X0140338Y0090517D01*
X0140572Y0091236D01*
X0140690Y0091982D01*
X0140690Y0092160D01*
X0133090Y0092160D01*
X0133090Y0092560D01*
X0132690Y0092560D01*
X0132690Y0097160D01*
X0129512Y0097160D01*
X0128766Y0097041D01*
X0128047Y0096808D01*
X0127374Y0096465D01*
X0126763Y0096021D01*
X0126229Y0095487D01*
X0125784Y0094875D01*
X0125441Y0094202D01*
X0125208Y0093484D01*
X0125090Y0092737D01*
X0125090Y0092560D01*
X0132690Y0092560D01*
X0132690Y0092160D01*
X0125090Y0092160D01*
X0125090Y0091982D01*
X0125208Y0091236D01*
X0125441Y0090517D01*
X0125784Y0089844D01*
X0125814Y0089802D01*
X0125571Y0089702D01*
X0122217Y0086347D01*
X0121791Y0085318D01*
X0121791Y0059653D01*
X0122217Y0058624D01*
X0123004Y0057836D01*
X0123004Y0057836D01*
X0125650Y0055190D01*
X0124890Y0053354D01*
X0124890Y0051365D01*
X0125651Y0049527D01*
X0127057Y0048121D01*
X0128895Y0047360D01*
X0136884Y0047360D01*
X0128895Y0047360D01*
X0127057Y0046598D01*
X0127883Y0047779D02*
X0123447Y0047779D01*
X0122227Y0049377D02*
X0125801Y0049377D01*
X0125051Y0050976D02*
X0119110Y0050976D01*
X0119110Y0052574D02*
X0124890Y0052574D01*
X0125229Y0054173D02*
X0119110Y0054173D01*
X0119110Y0055771D02*
X0125069Y0055771D01*
X0123471Y0057370D02*
X0119110Y0057370D01*
X0119110Y0058968D02*
X0122074Y0058968D01*
X0121791Y0060567D02*
X0119110Y0060567D01*
X0119110Y0062165D02*
X0121791Y0062165D01*
X0121791Y0063764D02*
X0119110Y0063764D01*
X0119110Y0065362D02*
X0121791Y0065362D01*
X0121791Y0066961D02*
X0119110Y0066961D01*
X0119110Y0068559D02*
X0121791Y0068559D01*
X0121791Y0070158D02*
X0119110Y0070158D01*
X0119110Y0071756D02*
X0121791Y0071756D01*
X0121791Y0073355D02*
X0119110Y0073355D01*
X0119110Y0074953D02*
X0121791Y0074953D01*
X0121791Y0076552D02*
X0119110Y0076552D01*
X0119110Y0078150D02*
X0121791Y0078150D01*
X0121791Y0079749D02*
X0119110Y0079749D01*
X0119110Y0081347D02*
X0121791Y0081347D01*
X0121791Y0082946D02*
X0119110Y0082946D01*
X0119110Y0084544D02*
X0121791Y0084544D01*
X0122132Y0086143D02*
X0119110Y0086143D01*
X0119110Y0087741D02*
X0123611Y0087741D01*
X0122288Y0089340D02*
X0125210Y0089340D01*
X0125304Y0090939D02*
X0123472Y0090939D01*
X0123910Y0092537D02*
X0132690Y0092537D01*
X0133090Y0092537D02*
X0144165Y0092537D01*
X0144972Y0093328D02*
X0152414Y0093328D01*
X0154167Y0094055D01*
X0155510Y0095397D01*
X0156236Y0097151D01*
X0156236Y0099049D01*
X0155510Y0100803D01*
X0154167Y0102145D01*
X0152414Y0102871D01*
X0144972Y0102871D01*
X0143218Y0102145D01*
X0141876Y0100803D01*
X0141150Y0099049D01*
X0141150Y0097151D01*
X0141876Y0095397D01*
X0143218Y0094055D01*
X0144972Y0093328D01*
X0143137Y0094136D02*
X0140360Y0094136D01*
X0140338Y0094202D02*
X0139995Y0094875D01*
X0139551Y0095487D01*
X0139017Y0096021D01*
X0138405Y0096465D01*
X0137732Y0096808D01*
X0137014Y0097041D01*
X0136268Y0097160D01*
X0133090Y0097160D01*
X0133090Y0092560D01*
X0140690Y0092560D01*
X0140690Y0092737D01*
X0140572Y0093484D01*
X0140338Y0094202D01*
X0139303Y0095734D02*
X0141736Y0095734D01*
X0141150Y0097333D02*
X0123910Y0097333D01*
X0123910Y0098931D02*
X0141150Y0098931D01*
X0141763Y0100530D02*
X0123910Y0100530D01*
X0123910Y0102128D02*
X0143201Y0102128D01*
X0144166Y0103863D02*
X0144851Y0103641D01*
X0145561Y0103528D01*
X0148607Y0103528D01*
X0148607Y0108014D01*
X0141350Y0108014D01*
X0141350Y0107740D01*
X0141462Y0107029D01*
X0141685Y0106345D01*
X0142011Y0105704D01*
X0142434Y0105121D01*
X0142943Y0104613D01*
X0143525Y0104190D01*
X0144166Y0103863D01*
X0144586Y0103727D02*
X0123910Y0103727D01*
X0123910Y0105325D02*
X0142286Y0105325D01*
X0141496Y0106924D02*
X0123910Y0106924D01*
X0123910Y0108522D02*
X0141360Y0108522D01*
X0141350Y0108460D02*
X0141350Y0108186D01*
X0148607Y0108186D01*
X0148607Y0112671D01*
X0145561Y0112671D01*
X0144851Y0112559D01*
X0144166Y0112336D01*
X0143525Y0112010D01*
X0142943Y0111587D01*
X0142434Y0111078D01*
X0142011Y0110496D01*
X0141685Y0109855D01*
X0141462Y0109170D01*
X0141350Y0108460D01*
X0141820Y0110121D02*
X0123910Y0110121D01*
X0123910Y0111719D02*
X0143125Y0111719D01*
X0148607Y0111719D02*
X0148779Y0111719D01*
X0148779Y0112671D02*
X0148779Y0108186D01*
X0148607Y0108186D01*
X0148607Y0108014D01*
X0148779Y0108014D01*
X0148779Y0108186D01*
X0156036Y0108186D01*
X0156036Y0108460D01*
X0155924Y0109170D01*
X0155701Y0109855D01*
X0155375Y0110496D01*
X0154952Y0111078D01*
X0154443Y0111587D01*
X0153861Y0112010D01*
X0153219Y0112336D01*
X0152535Y0112559D01*
X0151824Y0112671D01*
X0148779Y0112671D01*
X0154261Y0111719D02*
X0184791Y0111719D01*
X0184791Y0111767D02*
X0184791Y0083870D01*
X0153388Y0052468D01*
X0152414Y0052871D01*
X0144972Y0052871D01*
X0143218Y0052145D01*
X0141876Y0050803D01*
X0141150Y0049049D01*
X0141150Y0047151D01*
X0141876Y0045397D01*
X0143218Y0044055D01*
X0144972Y0043328D01*
X0152414Y0043328D01*
X0154167Y0044055D01*
X0155510Y0045397D01*
X0156236Y0047151D01*
X0156236Y0047396D01*
X0189177Y0080336D01*
X0189964Y0081124D01*
X0190391Y0082153D01*
X0190391Y0110050D01*
X0193750Y0113410D01*
X0225950Y0113410D01*
X0227728Y0111633D01*
X0227728Y0102866D01*
X0228154Y0101836D01*
X0228941Y0101049D01*
X0233036Y0096954D01*
X0234065Y0096528D01*
X0234088Y0096528D01*
X0233858Y0096298D01*
X0233858Y0088342D01*
X0234766Y0087434D01*
X0234176Y0087434D01*
X0233004Y0086263D01*
X0233004Y0085510D01*
X0207034Y0085510D01*
X0206004Y0085084D01*
X0205217Y0084296D01*
X0203388Y0082468D01*
X0202414Y0082871D01*
X0194972Y0082871D01*
X0193218Y0082145D01*
X0191876Y0080803D01*
X0191150Y0079049D01*
X0191150Y0077151D01*
X0191876Y0075397D01*
X0193218Y0074055D01*
X0194972Y0073328D01*
X0202414Y0073328D01*
X0204167Y0074055D01*
X0205510Y0075397D01*
X0206236Y0077151D01*
X0206236Y0077396D01*
X0208750Y0079910D01*
X0225648Y0079910D01*
X0225216Y0078868D01*
X0225216Y0077127D01*
X0225882Y0075519D01*
X0226991Y0074410D01*
X0226991Y0066563D01*
X0204150Y0043722D01*
X0203754Y0042767D01*
X0203754Y0042064D01*
X0203219Y0042336D01*
X0202535Y0042559D01*
X0201824Y0042671D01*
X0198779Y0042671D01*
X0198779Y0038186D01*
X0198607Y0038186D01*
X0198607Y0042671D01*
X0195561Y0042671D01*
X0194851Y0042559D01*
X0194166Y0042336D01*
X0193525Y0042010D01*
X0192943Y0041587D01*
X0192434Y0041078D01*
X0192011Y0040496D01*
X0191685Y0039855D01*
X0191462Y0039170D01*
X0191350Y0038460D01*
X0191350Y0038186D01*
X0198607Y0038186D01*
X0198607Y0038014D01*
X0191350Y0038014D01*
X0191350Y0037740D01*
X0191462Y0037029D01*
X0191685Y0036345D01*
X0192011Y0035704D01*
X0192434Y0035121D01*
X0192943Y0034613D01*
X0193525Y0034190D01*
X0194166Y0033863D01*
X0194851Y0033641D01*
X0195561Y0033528D01*
X0198607Y0033528D01*
X0198607Y0038014D01*
X0198779Y0038014D01*
X0198779Y0033528D01*
X0201824Y0033528D01*
X0202402Y0033620D01*
X0197374Y0028592D01*
X0195577Y0029336D01*
X0193588Y0029336D01*
X0191750Y0028575D01*
X0190344Y0027168D01*
X0189583Y0025331D01*
X0189583Y0017341D01*
X0190344Y0015504D01*
X0191750Y0014097D01*
X0193588Y0013336D01*
X0195577Y0013336D01*
X0197415Y0014097D01*
X0198821Y0015504D01*
X0199583Y0017341D01*
X0200344Y0015504D01*
X0201750Y0014097D01*
X0203588Y0013336D01*
X0205577Y0013336D01*
X0207415Y0014097D01*
X0208821Y0015504D01*
X0209583Y0017341D01*
X0209583Y0025331D01*
X0208821Y0027168D01*
X0208031Y0027958D01*
X0211134Y0031061D01*
X0211134Y0031061D01*
X0211866Y0031792D01*
X0212261Y0032748D01*
X0212261Y0039905D01*
X0228265Y0055908D01*
X0228671Y0055501D01*
X0230279Y0054835D01*
X0232020Y0054835D01*
X0233628Y0055501D01*
X0234858Y0056732D01*
X0235524Y0058340D01*
X0235524Y0060080D01*
X0234858Y0061688D01*
X0233628Y0062919D01*
X0232020Y0063585D01*
X0231367Y0063585D01*
X0231834Y0064052D01*
X0232230Y0065008D01*
X0232230Y0066042D01*
X0232191Y0066137D01*
X0232191Y0074410D01*
X0233299Y0075519D01*
X0233965Y0077127D01*
X0233965Y0078526D01*
X0234176Y0078316D01*
X0235354Y0078316D01*
X0235354Y0077562D01*
X0235780Y0076533D01*
X0236567Y0075746D01*
X0237079Y0075234D01*
X0234767Y0075234D01*
X0234309Y0075112D01*
X0233899Y0074875D01*
X0233564Y0074540D01*
X0233327Y0074129D01*
X0233204Y0073671D01*
X0233204Y0071355D01*
X0237674Y0071355D01*
X0237674Y0070396D01*
X0233204Y0070396D01*
X0233204Y0068079D01*
X0233327Y0067621D01*
X0233564Y0067211D01*
X0233899Y0066876D01*
X0234309Y0066639D01*
X0234767Y0066516D01*
X0237674Y0066516D01*
X0237674Y0070396D01*
X0238633Y0070396D01*
X0238633Y0071355D01*
X0243103Y0071355D01*
X0243103Y0073378D01*
X0243477Y0073378D01*
X0243409Y0073124D01*
X0243409Y0070217D01*
X0247288Y0070217D01*
X0247288Y0069258D01*
X0243409Y0069258D01*
X0243409Y0066351D01*
X0243531Y0065893D01*
X0243768Y0065483D01*
X0244103Y0065148D01*
X0244514Y0064911D01*
X0244972Y0064788D01*
X0247288Y0064788D01*
X0247288Y0069258D01*
X0248247Y0069258D01*
X0248247Y0064788D01*
X0250564Y0064788D01*
X0251022Y0064911D01*
X0251432Y0065148D01*
X0251767Y0065483D01*
X0252004Y0065893D01*
X0252127Y0066351D01*
X0252127Y0069258D01*
X0248247Y0069258D01*
X0248247Y0070217D01*
X0252127Y0070217D01*
X0252127Y0073124D01*
X0252059Y0073378D01*
X0255209Y0073378D01*
X0255209Y0065759D01*
X0256380Y0064588D01*
X0257291Y0064588D01*
X0257291Y0050370D01*
X0252004Y0045084D01*
X0251217Y0044296D01*
X0250791Y0043267D01*
X0250791Y0041509D01*
X0249731Y0041509D01*
X0248559Y0040338D01*
X0248559Y0039510D01*
X0244839Y0039510D01*
X0244839Y0040326D01*
X0243667Y0041497D01*
X0236892Y0041497D01*
X0235720Y0040326D01*
X0235720Y0032370D01*
X0236892Y0031198D01*
X0237119Y0031198D01*
X0235004Y0029084D01*
X0234887Y0028967D01*
X0234405Y0028967D01*
X0231594Y0026155D01*
X0231594Y0022178D01*
X0234405Y0019367D01*
X0238382Y0019367D01*
X0241194Y0022178D01*
X0241194Y0026155D01*
X0240594Y0026754D01*
X0242964Y0029124D01*
X0243391Y0030153D01*
X0243391Y0031198D01*
X0243667Y0031198D01*
X0244839Y0032370D01*
X0244839Y0033910D01*
X0248559Y0033910D01*
X0248559Y0032382D01*
X0249731Y0031210D01*
X0256506Y0031210D01*
X0257677Y0032382D01*
X0257677Y0040338D01*
X0256506Y0041509D01*
X0256391Y0041509D01*
X0256391Y0041550D01*
X0262464Y0047624D01*
X0262891Y0048653D01*
X0262891Y0064588D01*
X0263155Y0064588D01*
X0264327Y0065759D01*
X0264327Y0073716D01*
X0263628Y0074415D01*
X0263824Y0074415D01*
X0264996Y0075586D01*
X0264996Y0081156D01*
X0270527Y0086687D01*
X0271315Y0087474D01*
X0271741Y0088503D01*
X0271741Y0092681D01*
X0272650Y0093590D01*
X0273316Y0095198D01*
X0273316Y0095725D01*
X0321161Y0095725D01*
X0321161Y0095310D01*
X0319573Y0095310D01*
X0318618Y0094914D01*
X0317183Y0093479D01*
X0292221Y0093479D01*
X0291112Y0094588D01*
X0289504Y0095254D01*
X0287764Y0095254D01*
X0286156Y0094588D01*
X0284925Y0093357D01*
X0284259Y0091749D01*
X0284259Y0090009D01*
X0284925Y0088401D01*
X0285015Y0088311D01*
X0279886Y0083183D01*
X0279491Y0082227D01*
X0279491Y0039287D01*
X0258776Y0018572D01*
X0258382Y0018967D01*
X0254405Y0018967D01*
X0251594Y0016155D01*
X0251594Y0012178D01*
X0254405Y0009367D01*
X0258382Y0009367D01*
X0261194Y0012178D01*
X0261194Y0013636D01*
X0283563Y0036006D01*
X0284295Y0036737D01*
X0284691Y0037693D01*
X0284691Y0080633D01*
X0290107Y0086049D01*
X0290838Y0086780D01*
X0290976Y0087114D01*
X0291112Y0087170D01*
X0292221Y0088279D01*
X0318777Y0088279D01*
X0319733Y0088675D01*
X0320464Y0089406D01*
X0321161Y0090104D01*
X0321161Y0089732D01*
X0322333Y0088560D01*
X0329108Y0088560D01*
X0329461Y0088913D01*
X0329813Y0088560D01*
X0331451Y0088560D01*
X0330700Y0087810D01*
X0322573Y0087810D01*
X0321618Y0087414D01*
X0320886Y0086683D01*
X0320886Y0086683D01*
X0317886Y0083683D01*
X0317491Y0082727D01*
X0317491Y0055193D01*
X0317886Y0054237D01*
X0318618Y0053506D01*
X0352118Y0020006D01*
X0353073Y0019610D01*
X0354551Y0019610D01*
X0354551Y0018460D01*
X0355723Y0017289D01*
X0363285Y0017289D01*
X0364457Y0018460D01*
X0364457Y0025235D01*
X0363945Y0025747D01*
X0364134Y0026074D01*
X0364257Y0026532D01*
X0364257Y0028849D01*
X0359984Y0028849D01*
X0359984Y0029808D01*
X0364257Y0029808D01*
X0364257Y0032124D01*
X0364134Y0032582D01*
X0363897Y0032992D01*
X0363562Y0033327D01*
X0363151Y0033564D01*
X0362694Y0033687D01*
X0359983Y0033687D01*
X0359983Y0029808D01*
X0359024Y0029808D01*
X0359024Y0033687D01*
X0356314Y0033687D01*
X0355856Y0033564D01*
X0355446Y0033327D01*
X0355111Y0032992D01*
X0354874Y0032582D01*
X0354751Y0032124D01*
X0354751Y0029808D01*
X0359024Y0029808D01*
X0359024Y0028849D01*
X0354751Y0028849D01*
X0354751Y0026532D01*
X0354874Y0026074D01*
X0355063Y0025747D01*
X0354551Y0025235D01*
X0354551Y0024926D01*
X0322691Y0056787D01*
X0322691Y0081133D01*
X0324167Y0082610D01*
X0330250Y0082610D01*
X0330311Y0082464D01*
X0330699Y0082076D01*
X0327101Y0082076D01*
X0325929Y0080905D01*
X0325929Y0076524D01*
X0325217Y0075812D01*
X0324791Y0074783D01*
X0324791Y0073770D01*
X0323724Y0072704D01*
X0323058Y0071096D01*
X0323058Y0069355D01*
X0323724Y0067748D01*
X0324955Y0066517D01*
X0326563Y0065851D01*
X0328303Y0065851D01*
X0328789Y0066052D01*
X0330492Y0064349D01*
X0330331Y0064349D01*
X0328723Y0063683D01*
X0327492Y0062452D01*
X0326826Y0060844D01*
X0326826Y0059104D01*
X0327492Y0057496D01*
X0328723Y0056265D01*
X0330331Y0055599D01*
X0332071Y0055599D01*
X0333452Y0056171D01*
X0355118Y0034506D01*
X0356073Y0034110D01*
X0363514Y0034110D01*
X0366441Y0031183D01*
X0366441Y0026571D01*
X0366953Y0026059D01*
X0366764Y0025732D01*
X0366641Y0025274D01*
X0366641Y0022957D01*
X0370914Y0022957D01*
X0370914Y0021998D01*
X0371873Y0021998D01*
X0371873Y0018119D01*
X0374583Y0018119D01*
X0375041Y0018241D01*
X0375452Y0018478D01*
X0375787Y0018813D01*
X0376024Y0019224D01*
X0376146Y0019682D01*
X0376146Y0021998D01*
X0371873Y0021998D01*
X0371873Y0022957D01*
X0376146Y0022957D01*
X0376146Y0025274D01*
X0376024Y0025732D01*
X0375835Y0026059D01*
X0376346Y0026571D01*
X0376346Y0033345D01*
X0375175Y0034517D01*
X0370460Y0034517D01*
X0366618Y0038360D01*
X0367765Y0039507D01*
X0368572Y0041455D01*
X0368572Y0043563D01*
X0367765Y0045511D01*
X0366274Y0047002D01*
X0364326Y0047809D01*
X0362217Y0047809D01*
X0360269Y0047002D01*
X0358779Y0045511D01*
X0358695Y0045309D01*
X0357451Y0045309D01*
X0331808Y0070952D01*
X0331808Y0071096D01*
X0331363Y0072171D01*
X0333876Y0072171D01*
X0334228Y0072523D01*
X0334581Y0072171D01*
X0341356Y0072171D01*
X0342528Y0073342D01*
X0342528Y0078313D01*
X0348291Y0072550D01*
X0348291Y0064153D01*
X0348717Y0063124D01*
X0351152Y0060688D01*
X0351086Y0060622D01*
X0350279Y0058674D01*
X0350279Y0056565D01*
X0351086Y0054617D01*
X0352577Y0053126D01*
X0354524Y0052319D01*
X0356633Y0052319D01*
X0356908Y0052433D01*
X0359504Y0049836D01*
X0360534Y0049410D01*
X0366716Y0049410D01*
X0366716Y0047840D01*
X0367382Y0046232D01*
X0368612Y0045001D01*
X0370220Y0044335D01*
X0371961Y0044335D01*
X0373053Y0044788D01*
X0379765Y0038076D01*
X0379266Y0038076D01*
X0378094Y0036905D01*
X0378094Y0030130D01*
X0379266Y0028958D01*
X0387222Y0028958D01*
X0388394Y0030130D01*
X0388394Y0036905D01*
X0387222Y0038076D01*
X0385891Y0038076D01*
X0385891Y0039267D01*
X0385464Y0040296D01*
X0374960Y0050800D01*
X0374799Y0051188D01*
X0373569Y0052419D01*
X0373181Y0052579D01*
X0371964Y0053796D01*
X0371177Y0054584D01*
X0370148Y0055010D01*
X0362250Y0055010D01*
X0360825Y0056435D01*
X0360879Y0056565D01*
X0360879Y0058674D01*
X0360072Y0060622D01*
X0358581Y0062113D01*
X0356633Y0062919D01*
X0356620Y0062919D01*
X0356464Y0063296D01*
X0355677Y0064084D01*
X0353891Y0065870D01*
X0353891Y0074267D01*
X0353464Y0075296D01*
X0352677Y0076084D01*
X0342391Y0086370D01*
X0342391Y0087680D01*
X0341964Y0088709D01*
X0337760Y0092914D01*
X0337760Y0097294D01*
X0336644Y0098410D01*
X0336931Y0098410D01*
X0348504Y0086836D01*
X0349534Y0086410D01*
X0358648Y0086410D01*
X0359677Y0086836D01*
X0360250Y0087410D01*
X0360648Y0087410D01*
X0361677Y0087836D01*
X0362464Y0088624D01*
X0365380Y0091540D01*
X0365380Y0089613D01*
X0369041Y0085952D01*
X0374219Y0085952D01*
X0377880Y0089613D01*
X0377880Y0094791D01*
X0374219Y0098452D01*
X0369041Y0098452D01*
X0366891Y0096302D01*
X0366891Y0101767D01*
X0366464Y0102796D01*
X0366271Y0102989D01*
X0366847Y0104380D01*
X0366847Y0111890D01*
X0366116Y0113654D01*
X0364766Y0115004D01*
X0363002Y0115735D01*
X0361092Y0115735D01*
X0359328Y0115004D01*
X0357978Y0113654D01*
X0357247Y0111890D01*
X0357247Y0104380D01*
X0357978Y0102616D01*
X0358411Y0102183D01*
X0356633Y0102919D01*
X0356620Y0102919D01*
X0356464Y0103296D01*
X0355677Y0104084D01*
X0353891Y0105870D01*
X0353891Y0116050D01*
X0357134Y0119293D01*
X0357134Y0119130D01*
X0358305Y0117958D01*
X0365080Y0117958D01*
X0366252Y0119130D01*
X0366252Y0127086D01*
X0365080Y0128257D01*
X0358305Y0128257D01*
X0357134Y0127086D01*
X0357134Y0125510D01*
X0356034Y0125510D01*
X0355004Y0125084D01*
X0350431Y0120510D01*
X0340250Y0120510D01*
X0320665Y0140095D01*
X0319636Y0140522D01*
X0272938Y0140522D01*
X0272029Y0141431D01*
X0270421Y0142097D01*
X0268681Y0142097D01*
X0267073Y0141431D01*
X0265842Y0140200D01*
X0265176Y0138592D01*
X0265176Y0136852D01*
X0265842Y0135244D01*
X0267073Y0134013D01*
X0268681Y0133347D01*
X0270421Y0133347D01*
X0272029Y0134013D01*
X0272938Y0134922D01*
X0317919Y0134922D01*
X0336717Y0116124D01*
X0337504Y0115336D01*
X0337717Y0115248D01*
X0337391Y0115060D01*
X0337056Y0114725D01*
X0336819Y0114314D01*
X0336696Y0113856D01*
X0336696Y0110949D01*
X0340576Y0110949D01*
X0340576Y0109990D01*
X0341535Y0109990D01*
X0341535Y0110949D01*
X0345414Y0110949D01*
X0345414Y0113856D01*
X0345291Y0114314D01*
X0345055Y0114725D01*
X0344869Y0114910D01*
X0348291Y0114910D01*
X0348291Y0104153D01*
X0348717Y0103124D01*
X0351152Y0100688D01*
X0351086Y0100622D01*
X0350279Y0098674D01*
X0350279Y0096565D01*
X0351086Y0094617D01*
X0352577Y0093126D01*
X0354524Y0092319D01*
X0356633Y0092319D01*
X0358581Y0093126D01*
X0360072Y0094617D01*
X0360879Y0096565D01*
X0360879Y0098674D01*
X0360072Y0100622D01*
X0359498Y0101196D01*
X0360603Y0100738D01*
X0361291Y0100050D01*
X0361291Y0095370D01*
X0358931Y0093010D01*
X0358534Y0093010D01*
X0357504Y0092584D01*
X0356931Y0092010D01*
X0351250Y0092010D01*
X0340464Y0102796D01*
X0339677Y0103584D01*
X0338648Y0104010D01*
X0328850Y0104010D01*
X0329358Y0104517D01*
X0330145Y0105305D01*
X0330152Y0105320D01*
X0332443Y0105320D01*
X0333614Y0106492D01*
X0333614Y0114448D01*
X0332443Y0115619D01*
X0325668Y0115619D01*
X0324496Y0114448D01*
X0324496Y0107585D01*
X0323220Y0107585D01*
X0321612Y0106919D01*
X0320382Y0105688D01*
X0320342Y0105593D01*
X0314734Y0105593D01*
X0313705Y0105166D01*
X0312714Y0104175D01*
X0244656Y0104175D01*
X0243627Y0103749D01*
X0243465Y0103588D01*
X0243465Y0104718D01*
X0242799Y0106326D01*
X0241691Y0107435D01*
X0241691Y0119133D01*
X0256501Y0133944D01*
X0256992Y0133741D01*
X0258732Y0133741D01*
X0260340Y0134407D01*
X0261571Y0135637D01*
X0262237Y0137245D01*
X0262237Y0138986D01*
X0261571Y0140594D01*
X0260340Y0141824D01*
X0258732Y0142490D01*
X0256992Y0142490D01*
X0255384Y0141824D01*
X0254153Y0140594D01*
X0253487Y0138986D01*
X0253487Y0138284D01*
X0236886Y0121683D01*
X0236491Y0120727D01*
X0236491Y0107435D01*
X0235382Y0106326D01*
X0234716Y0104718D01*
X0234716Y0103194D01*
X0233328Y0104582D01*
X0233328Y0113350D01*
X0232901Y0114379D01*
X0229484Y0117796D01*
X0228696Y0118584D01*
X0227667Y0119010D01*
X0192034Y0119010D01*
X0191004Y0118584D01*
X0190217Y0117796D01*
X0185217Y0112796D01*
X0184791Y0111767D01*
X0184791Y0110121D02*
X0155566Y0110121D01*
X0156026Y0108522D02*
X0163791Y0108522D01*
X0162889Y0106924D02*
X0155889Y0106924D01*
X0155924Y0107029D02*
X0156036Y0107740D01*
X0156036Y0108014D01*
X0148779Y0108014D01*
X0148779Y0103528D01*
X0151824Y0103528D01*
X0152535Y0103641D01*
X0153219Y0103863D01*
X0153861Y0104190D01*
X0154443Y0104613D01*
X0154952Y0105121D01*
X0155375Y0105704D01*
X0155701Y0106345D01*
X0155924Y0107029D01*
X0155100Y0105325D02*
X0162716Y0105325D01*
X0163146Y0103727D02*
X0152800Y0103727D01*
X0154184Y0102128D02*
X0164291Y0102128D01*
X0164291Y0100530D02*
X0155623Y0100530D01*
X0156236Y0098931D02*
X0164291Y0098931D01*
X0164291Y0097333D02*
X0156236Y0097333D01*
X0155649Y0095734D02*
X0164291Y0095734D01*
X0164291Y0094136D02*
X0154248Y0094136D01*
X0153221Y0092537D02*
X0164291Y0092537D01*
X0164291Y0090939D02*
X0155374Y0090939D01*
X0156116Y0089340D02*
X0164291Y0089340D01*
X0164291Y0087741D02*
X0163592Y0087741D01*
X0158455Y0087741D02*
X0156236Y0087741D01*
X0155819Y0086143D02*
X0157125Y0086143D01*
X0156649Y0084544D02*
X0154657Y0084544D01*
X0156776Y0082946D02*
X0140890Y0082946D01*
X0140882Y0081347D02*
X0142421Y0081347D01*
X0141440Y0079749D02*
X0140220Y0079749D01*
X0141150Y0078150D02*
X0138752Y0078150D01*
X0138768Y0076552D02*
X0141398Y0076552D01*
X0136884Y0077360D02*
X0128895Y0077360D01*
X0127391Y0077983D01*
X0127391Y0076736D01*
X0128895Y0077360D01*
X0136884Y0077360D01*
X0154965Y0081347D02*
X0157613Y0081347D01*
X0156583Y0079749D02*
X0155946Y0079749D01*
X0165392Y0076552D02*
X0177473Y0076552D01*
X0179071Y0078150D02*
X0166991Y0078150D01*
X0168589Y0079749D02*
X0180670Y0079749D01*
X0182268Y0081347D02*
X0169764Y0081347D01*
X0169891Y0082946D02*
X0183867Y0082946D01*
X0184791Y0084544D02*
X0169891Y0084544D01*
X0169891Y0086143D02*
X0184791Y0086143D01*
X0184791Y0087741D02*
X0169891Y0087741D01*
X0169891Y0089340D02*
X0184791Y0089340D01*
X0184791Y0090939D02*
X0169891Y0090939D01*
X0169891Y0092537D02*
X0184791Y0092537D01*
X0184791Y0094136D02*
X0169891Y0094136D01*
X0169891Y0095734D02*
X0184791Y0095734D01*
X0184791Y0097333D02*
X0169891Y0097333D01*
X0169891Y0098931D02*
X0184791Y0098931D01*
X0184791Y0100530D02*
X0169891Y0100530D01*
X0169891Y0102128D02*
X0184791Y0102128D01*
X0184791Y0103727D02*
X0171035Y0103727D01*
X0171465Y0105325D02*
X0184791Y0105325D01*
X0184791Y0106924D02*
X0171292Y0106924D01*
X0170390Y0108522D02*
X0184791Y0108522D01*
X0190391Y0108522D02*
X0191150Y0108522D01*
X0191150Y0109049D02*
X0191150Y0107151D01*
X0191876Y0105397D01*
X0193218Y0104055D01*
X0194972Y0103328D01*
X0202414Y0103328D01*
X0203191Y0103650D01*
X0205716Y0101125D01*
X0205716Y0100305D01*
X0205510Y0100803D01*
X0204167Y0102145D01*
X0202414Y0102871D01*
X0194972Y0102871D01*
X0193218Y0102145D01*
X0191876Y0100803D01*
X0191150Y0099049D01*
X0191150Y0097151D01*
X0191876Y0095397D01*
X0193218Y0094055D01*
X0194972Y0093328D01*
X0202414Y0093328D01*
X0204167Y0094055D01*
X0205510Y0095397D01*
X0206236Y0097151D01*
X0206236Y0098583D01*
X0206382Y0098232D01*
X0207612Y0097001D01*
X0209220Y0096335D01*
X0210961Y0096335D01*
X0212569Y0097001D01*
X0213799Y0098232D01*
X0214465Y0099840D01*
X0214465Y0101580D01*
X0213799Y0103188D01*
X0212569Y0104419D01*
X0210961Y0105085D01*
X0209676Y0105085D01*
X0206236Y0108524D01*
X0206236Y0109049D01*
X0205510Y0110803D01*
X0204167Y0112145D01*
X0202414Y0112871D01*
X0194972Y0112871D01*
X0193218Y0112145D01*
X0191876Y0110803D01*
X0191150Y0109049D01*
X0191594Y0110121D02*
X0190461Y0110121D01*
X0192060Y0111719D02*
X0192793Y0111719D01*
X0193658Y0113318D02*
X0226043Y0113318D01*
X0227641Y0111719D02*
X0204593Y0111719D01*
X0205792Y0110121D02*
X0227728Y0110121D01*
X0227728Y0108522D02*
X0206238Y0108522D01*
X0207837Y0106924D02*
X0227728Y0106924D01*
X0227728Y0105325D02*
X0209435Y0105325D01*
X0213261Y0103727D02*
X0227728Y0103727D01*
X0228033Y0102128D02*
X0214238Y0102128D01*
X0214465Y0100530D02*
X0229461Y0100530D01*
X0231059Y0098931D02*
X0214089Y0098931D01*
X0212900Y0097333D02*
X0232658Y0097333D01*
X0233858Y0095734D02*
X0205649Y0095734D01*
X0206236Y0097333D02*
X0207281Y0097333D01*
X0205716Y0100530D02*
X0205623Y0100530D01*
X0204713Y0102128D02*
X0204184Y0102128D01*
X0203091Y0107710D02*
X0210091Y0100710D01*
X0194010Y0103727D02*
X0190391Y0103727D01*
X0190391Y0105325D02*
X0191948Y0105325D01*
X0191244Y0106924D02*
X0190391Y0106924D01*
X0198693Y0108100D02*
X0199091Y0107710D01*
X0203091Y0107710D01*
X0192591Y0116210D02*
X0187591Y0111210D01*
X0187591Y0082710D01*
X0153091Y0048210D01*
X0149091Y0048210D01*
X0148693Y0048100D01*
X0142049Y0050976D02*
X0140729Y0050976D01*
X0140890Y0052574D02*
X0144255Y0052574D01*
X0144972Y0053328D02*
X0143218Y0054055D01*
X0141876Y0055397D01*
X0141150Y0057151D01*
X0141150Y0059049D01*
X0141876Y0060803D01*
X0143218Y0062145D01*
X0144972Y0062871D01*
X0152414Y0062871D01*
X0154167Y0062145D01*
X0155510Y0060803D01*
X0156236Y0059049D01*
X0156236Y0057151D01*
X0155510Y0055397D01*
X0154167Y0054055D01*
X0152414Y0053328D01*
X0144972Y0053328D01*
X0143100Y0054173D02*
X0140551Y0054173D01*
X0139549Y0055771D02*
X0141721Y0055771D01*
X0141150Y0057370D02*
X0136909Y0057370D01*
X0136884Y0057360D02*
X0131401Y0057360D01*
X0131401Y0057360D01*
X0136884Y0057360D01*
X0139570Y0058968D02*
X0141150Y0058968D01*
X0140559Y0060567D02*
X0141778Y0060567D01*
X0140890Y0062165D02*
X0143268Y0062165D01*
X0143920Y0063764D02*
X0140720Y0063764D01*
X0139958Y0065362D02*
X0141911Y0065362D01*
X0141228Y0066961D02*
X0137847Y0066961D01*
X0136884Y0067360D02*
X0128895Y0067360D01*
X0136884Y0067360D01*
X0139161Y0068559D02*
X0141150Y0068559D01*
X0148693Y0068100D02*
X0149091Y0068210D01*
X0153091Y0068210D01*
X0167091Y0082210D01*
X0167091Y0105635D01*
X0148779Y0105325D02*
X0148607Y0105325D01*
X0148607Y0103727D02*
X0148779Y0103727D01*
X0148779Y0106924D02*
X0148607Y0106924D01*
X0148607Y0108522D02*
X0148779Y0108522D01*
X0148779Y0110121D02*
X0148607Y0110121D01*
X0123910Y0113318D02*
X0185738Y0113318D01*
X0187337Y0114916D02*
X0123910Y0114916D01*
X0123910Y0116515D02*
X0188935Y0116515D01*
X0190217Y0117796D02*
X0190217Y0117796D01*
X0190534Y0118113D02*
X0123910Y0118113D01*
X0123910Y0119712D02*
X0236491Y0119712D01*
X0236491Y0118113D02*
X0229167Y0118113D01*
X0230765Y0116515D02*
X0236491Y0116515D01*
X0236491Y0114916D02*
X0232364Y0114916D01*
X0233328Y0113318D02*
X0236491Y0113318D01*
X0236491Y0111719D02*
X0233328Y0111719D01*
X0233328Y0110121D02*
X0236491Y0110121D01*
X0236491Y0108522D02*
X0233328Y0108522D01*
X0233328Y0106924D02*
X0235980Y0106924D01*
X0234967Y0105325D02*
X0233328Y0105325D01*
X0234183Y0103727D02*
X0234716Y0103727D01*
X0230528Y0103423D02*
X0230528Y0112793D01*
X0227110Y0116210D01*
X0192591Y0116210D01*
X0230528Y0103423D02*
X0234622Y0099328D01*
X0243165Y0099328D01*
X0245213Y0101375D01*
X0313874Y0101375D01*
X0315291Y0102793D01*
X0323835Y0102793D01*
X0324091Y0103210D01*
X0327772Y0106891D01*
X0327772Y0108698D01*
X0329055Y0110470D01*
X0324496Y0110121D02*
X0241691Y0110121D01*
X0241691Y0111719D02*
X0324496Y0111719D01*
X0324496Y0113318D02*
X0241691Y0113318D01*
X0241691Y0114916D02*
X0324964Y0114916D01*
X0333146Y0114916D02*
X0337247Y0114916D01*
X0336717Y0116124D02*
X0336717Y0116124D01*
X0336326Y0116515D02*
X0241691Y0116515D01*
X0241691Y0118113D02*
X0334728Y0118113D01*
X0333129Y0119712D02*
X0242269Y0119712D01*
X0243868Y0121310D02*
X0331530Y0121310D01*
X0329932Y0122909D02*
X0245466Y0122909D01*
X0247065Y0124507D02*
X0328333Y0124507D01*
X0326735Y0126106D02*
X0248663Y0126106D01*
X0250262Y0127704D02*
X0325136Y0127704D01*
X0323538Y0129303D02*
X0251860Y0129303D01*
X0253459Y0130901D02*
X0321939Y0130901D01*
X0320341Y0132500D02*
X0255057Y0132500D01*
X0259596Y0134098D02*
X0266988Y0134098D01*
X0265655Y0135697D02*
X0261596Y0135697D01*
X0262237Y0137295D02*
X0265176Y0137295D01*
X0265301Y0138894D02*
X0262237Y0138894D01*
X0261613Y0140492D02*
X0266135Y0140492D01*
X0268667Y0142091D02*
X0259697Y0142091D01*
X0256028Y0142091D02*
X0147958Y0142091D01*
X0149461Y0143689D02*
X0403720Y0143689D01*
X0402797Y0145288D02*
X0150384Y0145288D01*
X0151003Y0146886D02*
X0402178Y0146886D01*
X0401750Y0148485D02*
X0397969Y0148485D01*
X0399100Y0150083D02*
X0401712Y0150083D01*
X0401775Y0151682D02*
X0399501Y0151682D01*
X0422037Y0145288D02*
X0429271Y0145288D01*
X0429271Y0146886D02*
X0422656Y0146886D01*
X0423085Y0148485D02*
X0429271Y0148485D01*
X0429271Y0150083D02*
X0423123Y0150083D01*
X0423060Y0151682D02*
X0429271Y0151682D01*
X0429271Y0143689D02*
X0421114Y0143689D01*
X0419611Y0142091D02*
X0429271Y0142091D01*
X0429271Y0140492D02*
X0417297Y0140492D01*
X0407538Y0140492D02*
X0319707Y0140492D01*
X0321866Y0138894D02*
X0429271Y0138894D01*
X0429271Y0137295D02*
X0323465Y0137295D01*
X0325063Y0135697D02*
X0429271Y0135697D01*
X0429271Y0134098D02*
X0326662Y0134098D01*
X0328260Y0132500D02*
X0429271Y0132500D01*
X0429271Y0130901D02*
X0329859Y0130901D01*
X0331458Y0129303D02*
X0429271Y0129303D01*
X0429271Y0127704D02*
X0377346Y0127704D01*
X0377357Y0127698D02*
X0376947Y0127935D01*
X0376489Y0128057D01*
X0374172Y0128057D01*
X0374172Y0123587D01*
X0373213Y0123587D01*
X0373213Y0122628D01*
X0369334Y0122628D01*
X0369334Y0119721D01*
X0369457Y0119263D01*
X0369693Y0118853D01*
X0370029Y0118518D01*
X0370439Y0118281D01*
X0370897Y0118158D01*
X0373213Y0118158D01*
X0373213Y0122628D01*
X0374172Y0122628D01*
X0374172Y0118158D01*
X0376489Y0118158D01*
X0376947Y0118281D01*
X0377357Y0118518D01*
X0377692Y0118853D01*
X0377929Y0119263D01*
X0378052Y0119721D01*
X0378052Y0122628D01*
X0374173Y0122628D01*
X0374173Y0123587D01*
X0378052Y0123587D01*
X0378052Y0126494D01*
X0377929Y0126952D01*
X0377692Y0127362D01*
X0377357Y0127698D01*
X0378052Y0126106D02*
X0429271Y0126106D01*
X0429271Y0124507D02*
X0378052Y0124507D01*
X0374172Y0124507D02*
X0373213Y0124507D01*
X0373213Y0123587D02*
X0373213Y0128057D01*
X0370897Y0128057D01*
X0370439Y0127935D01*
X0370029Y0127698D01*
X0369693Y0127362D01*
X0369457Y0126952D01*
X0369334Y0126494D01*
X0369334Y0123587D01*
X0373213Y0123587D01*
X0373213Y0122909D02*
X0366252Y0122909D01*
X0366252Y0124507D02*
X0369334Y0124507D01*
X0369334Y0126106D02*
X0366252Y0126106D01*
X0365633Y0127704D02*
X0370040Y0127704D01*
X0373213Y0127704D02*
X0374172Y0127704D01*
X0374172Y0126106D02*
X0373213Y0126106D01*
X0374173Y0122909D02*
X0429271Y0122909D01*
X0429271Y0121310D02*
X0378052Y0121310D01*
X0378049Y0119712D02*
X0429271Y0119712D01*
X0429271Y0118113D02*
X0365236Y0118113D01*
X0366252Y0119712D02*
X0369336Y0119712D01*
X0369334Y0121310D02*
X0366252Y0121310D01*
X0361591Y0122710D02*
X0361693Y0123108D01*
X0361591Y0122710D02*
X0356591Y0122710D01*
X0351091Y0117210D01*
X0350591Y0117710D01*
X0339091Y0117710D01*
X0319079Y0137722D01*
X0269551Y0137722D01*
X0272115Y0134098D02*
X0318742Y0134098D01*
X0333056Y0127704D02*
X0357752Y0127704D01*
X0357134Y0126106D02*
X0334655Y0126106D01*
X0336253Y0124507D02*
X0354428Y0124507D01*
X0352830Y0122909D02*
X0337852Y0122909D01*
X0339450Y0121310D02*
X0351231Y0121310D01*
X0351091Y0117210D02*
X0351091Y0104710D01*
X0354091Y0101710D01*
X0354091Y0100710D01*
X0355091Y0099710D01*
X0355091Y0097710D01*
X0355579Y0097619D01*
X0360534Y0095734D02*
X0361291Y0095734D01*
X0361291Y0097333D02*
X0360879Y0097333D01*
X0360772Y0098931D02*
X0361291Y0098931D01*
X0360811Y0100530D02*
X0360110Y0100530D01*
X0362091Y0103210D02*
X0364091Y0101210D01*
X0364091Y0094210D01*
X0360091Y0090210D01*
X0359091Y0090210D01*
X0358091Y0089210D01*
X0350091Y0089210D01*
X0338091Y0101210D01*
X0326091Y0101210D01*
X0324091Y0103210D01*
X0321624Y0106924D02*
X0242202Y0106924D01*
X0241691Y0108522D02*
X0324496Y0108522D01*
X0332448Y0105325D02*
X0348291Y0105325D01*
X0348291Y0106924D02*
X0345371Y0106924D01*
X0345414Y0107083D02*
X0345414Y0109990D01*
X0341535Y0109990D01*
X0341535Y0105520D01*
X0343851Y0105520D01*
X0344309Y0105643D01*
X0344719Y0105880D01*
X0345055Y0106215D01*
X0345291Y0106625D01*
X0345414Y0107083D01*
X0345414Y0108522D02*
X0348291Y0108522D01*
X0348291Y0110121D02*
X0341535Y0110121D01*
X0340576Y0110121D02*
X0333614Y0110121D01*
X0333614Y0111719D02*
X0336696Y0111719D01*
X0336696Y0113318D02*
X0333614Y0113318D01*
X0336696Y0109990D02*
X0336696Y0107083D01*
X0336819Y0106625D01*
X0337056Y0106215D01*
X0337391Y0105880D01*
X0337801Y0105643D01*
X0338259Y0105520D01*
X0340576Y0105520D01*
X0340576Y0109990D01*
X0336696Y0109990D01*
X0336696Y0108522D02*
X0333614Y0108522D01*
X0333614Y0106924D02*
X0336739Y0106924D01*
X0340576Y0106924D02*
X0341535Y0106924D01*
X0341535Y0108522D02*
X0340576Y0108522D01*
X0345414Y0111719D02*
X0348291Y0111719D01*
X0348291Y0113318D02*
X0345414Y0113318D01*
X0353891Y0113318D02*
X0357839Y0113318D01*
X0357247Y0111719D02*
X0353891Y0111719D01*
X0353891Y0110121D02*
X0357247Y0110121D01*
X0357247Y0108522D02*
X0353891Y0108522D01*
X0353891Y0106924D02*
X0357247Y0106924D01*
X0357247Y0105325D02*
X0354435Y0105325D01*
X0356034Y0103727D02*
X0357518Y0103727D01*
X0362091Y0103210D02*
X0362091Y0107710D01*
X0362047Y0108135D01*
X0366847Y0108522D02*
X0367247Y0108522D01*
X0367247Y0106924D02*
X0366847Y0106924D01*
X0366847Y0105325D02*
X0367247Y0105325D01*
X0367247Y0104380D02*
X0367978Y0102616D01*
X0369328Y0101266D01*
X0371092Y0100535D01*
X0373002Y0100535D01*
X0374766Y0101266D01*
X0376116Y0102616D01*
X0376847Y0104380D01*
X0376847Y0111890D01*
X0376116Y0113654D01*
X0374766Y0115004D01*
X0373002Y0115735D01*
X0371092Y0115735D01*
X0369328Y0115004D01*
X0367978Y0113654D01*
X0367247Y0111890D01*
X0367247Y0104380D01*
X0367518Y0103727D02*
X0366576Y0103727D01*
X0366741Y0102128D02*
X0368466Y0102128D01*
X0366891Y0100530D02*
X0429271Y0100530D01*
X0429271Y0102128D02*
X0375628Y0102128D01*
X0376576Y0103727D02*
X0429271Y0103727D01*
X0429271Y0105325D02*
X0376847Y0105325D01*
X0376847Y0106924D02*
X0429271Y0106924D01*
X0429271Y0108522D02*
X0376847Y0108522D01*
X0376847Y0110121D02*
X0429271Y0110121D01*
X0429271Y0111719D02*
X0376847Y0111719D01*
X0376256Y0113318D02*
X0429271Y0113318D01*
X0429271Y0114916D02*
X0374854Y0114916D01*
X0369240Y0114916D02*
X0364854Y0114916D01*
X0366256Y0113318D02*
X0367839Y0113318D01*
X0367247Y0111719D02*
X0366847Y0111719D01*
X0366847Y0110121D02*
X0367247Y0110121D01*
X0359240Y0114916D02*
X0353891Y0114916D01*
X0354355Y0116515D02*
X0429271Y0116515D01*
X0429271Y0098931D02*
X0425244Y0098931D01*
X0426124Y0098567D02*
X0424286Y0099328D01*
X0416297Y0099328D01*
X0414459Y0098567D01*
X0413053Y0097160D01*
X0412291Y0095323D01*
X0412291Y0093334D01*
X0413053Y0091496D01*
X0414459Y0090089D01*
X0416297Y0089328D01*
X0424286Y0089328D01*
X0416297Y0089328D01*
X0414459Y0088567D01*
X0413053Y0087160D01*
X0412291Y0085323D01*
X0412291Y0083334D01*
X0413053Y0081496D01*
X0414459Y0080089D01*
X0416297Y0079328D01*
X0424286Y0079328D01*
X0416297Y0079328D01*
X0414459Y0078567D01*
X0413053Y0077160D01*
X0412291Y0075323D01*
X0412291Y0073334D01*
X0413053Y0071496D01*
X0414459Y0070089D01*
X0416297Y0069328D01*
X0424286Y0069328D01*
X0416297Y0069328D01*
X0414459Y0068567D01*
X0413053Y0067160D01*
X0412291Y0065323D01*
X0412291Y0063334D01*
X0413053Y0061496D01*
X0414459Y0060089D01*
X0416297Y0059328D01*
X0424286Y0059328D01*
X0416297Y0059328D01*
X0414459Y0058567D01*
X0413053Y0057160D01*
X0412291Y0055323D01*
X0412291Y0053334D01*
X0413053Y0051496D01*
X0414459Y0050089D01*
X0416297Y0049328D01*
X0424286Y0049328D01*
X0426124Y0050089D01*
X0427530Y0051496D01*
X0428291Y0053334D01*
X0428291Y0055323D01*
X0427530Y0057160D01*
X0426124Y0058567D01*
X0424286Y0059328D01*
X0426124Y0060089D01*
X0427530Y0061496D01*
X0428291Y0063334D01*
X0428291Y0065323D01*
X0427530Y0067160D01*
X0426124Y0068567D01*
X0424286Y0069328D01*
X0426124Y0070089D01*
X0427530Y0071496D01*
X0428291Y0073334D01*
X0428291Y0075323D01*
X0427530Y0077160D01*
X0426124Y0078567D01*
X0424286Y0079328D01*
X0426124Y0080089D01*
X0427530Y0081496D01*
X0428291Y0083334D01*
X0428291Y0085323D01*
X0427530Y0087160D01*
X0426124Y0088567D01*
X0424286Y0089328D01*
X0426124Y0090089D01*
X0427530Y0091496D01*
X0428291Y0093334D01*
X0428291Y0095323D01*
X0427530Y0097160D01*
X0426124Y0098567D01*
X0427358Y0097333D02*
X0429271Y0097333D01*
X0429271Y0095734D02*
X0428121Y0095734D01*
X0428291Y0094136D02*
X0429271Y0094136D01*
X0429271Y0092537D02*
X0427961Y0092537D01*
X0426973Y0090939D02*
X0429709Y0090939D01*
X0430893Y0089340D02*
X0424315Y0089340D01*
X0426949Y0087741D02*
X0434071Y0087741D01*
X0434071Y0086143D02*
X0427952Y0086143D01*
X0428291Y0084544D02*
X0434071Y0084544D01*
X0434071Y0082946D02*
X0428131Y0082946D01*
X0427382Y0081347D02*
X0434071Y0081347D01*
X0434071Y0079749D02*
X0425302Y0079749D01*
X0426540Y0078150D02*
X0434071Y0078150D01*
X0434071Y0076552D02*
X0427782Y0076552D01*
X0428291Y0074953D02*
X0434071Y0074953D01*
X0434071Y0073355D02*
X0428291Y0073355D01*
X0427638Y0071756D02*
X0434071Y0071756D01*
X0434071Y0070158D02*
X0426192Y0070158D01*
X0426131Y0068559D02*
X0434071Y0068559D01*
X0434071Y0066961D02*
X0427613Y0066961D01*
X0428275Y0065362D02*
X0434071Y0065362D01*
X0434071Y0063764D02*
X0428291Y0063764D01*
X0427807Y0062165D02*
X0434071Y0062165D01*
X0434071Y0060567D02*
X0426601Y0060567D01*
X0425154Y0058968D02*
X0434071Y0058968D01*
X0434071Y0057370D02*
X0427321Y0057370D01*
X0428106Y0055771D02*
X0434071Y0055771D01*
X0434071Y0054173D02*
X0428291Y0054173D01*
X0427977Y0052574D02*
X0434071Y0052574D01*
X0434071Y0050976D02*
X0427010Y0050976D01*
X0425807Y0048433D02*
X0425134Y0048776D01*
X0424415Y0049010D01*
X0423669Y0049128D01*
X0420491Y0049128D01*
X0420491Y0044528D01*
X0420091Y0044528D01*
X0420091Y0044128D01*
X0412491Y0044128D01*
X0412491Y0043950D01*
X0412610Y0043204D01*
X0412843Y0042486D01*
X0413186Y0041812D01*
X0413630Y0041201D01*
X0414164Y0040667D01*
X0414776Y0040223D01*
X0415449Y0039880D01*
X0416167Y0039646D01*
X0416914Y0039528D01*
X0420091Y0039528D01*
X0420091Y0044128D01*
X0420491Y0044128D01*
X0420491Y0039528D01*
X0423669Y0039528D01*
X0424415Y0039646D01*
X0425134Y0039880D01*
X0425807Y0040223D01*
X0426418Y0040667D01*
X0426953Y0041201D01*
X0427397Y0041812D01*
X0427740Y0042486D01*
X0427973Y0043204D01*
X0428091Y0043950D01*
X0428091Y0044128D01*
X0420491Y0044128D01*
X0420491Y0044528D01*
X0428091Y0044528D01*
X0428091Y0044706D01*
X0427973Y0045452D01*
X0427740Y0046171D01*
X0427397Y0046844D01*
X0426953Y0047455D01*
X0426418Y0047989D01*
X0425807Y0048433D01*
X0426629Y0047779D02*
X0429734Y0047779D01*
X0429271Y0046180D02*
X0427735Y0046180D01*
X0428091Y0044582D02*
X0429271Y0044582D01*
X0429271Y0042983D02*
X0427901Y0042983D01*
X0427086Y0041385D02*
X0429271Y0041385D01*
X0429271Y0039786D02*
X0424846Y0039786D01*
X0420491Y0039786D02*
X0420091Y0039786D01*
X0420091Y0041385D02*
X0420491Y0041385D01*
X0420491Y0042983D02*
X0420091Y0042983D01*
X0420091Y0044528D02*
X0412491Y0044528D01*
X0412491Y0044706D01*
X0412610Y0045452D01*
X0412843Y0046171D01*
X0413186Y0046844D01*
X0413630Y0047455D01*
X0414164Y0047989D01*
X0414776Y0048433D01*
X0415449Y0048776D01*
X0416167Y0049010D01*
X0416914Y0049128D01*
X0420091Y0049128D01*
X0420091Y0044528D01*
X0420091Y0044582D02*
X0420491Y0044582D01*
X0420491Y0046180D02*
X0420091Y0046180D01*
X0420091Y0047779D02*
X0420491Y0047779D01*
X0424405Y0049377D02*
X0430954Y0049377D01*
X0416178Y0049377D02*
X0392091Y0049377D01*
X0391891Y0049577D02*
X0391891Y0059267D01*
X0391464Y0060296D01*
X0368572Y0083189D01*
X0368572Y0083563D01*
X0367765Y0085511D01*
X0366274Y0087002D01*
X0364326Y0087809D01*
X0362217Y0087809D01*
X0360269Y0087002D01*
X0358779Y0085511D01*
X0357972Y0083563D01*
X0357972Y0081455D01*
X0358779Y0079507D01*
X0360269Y0078016D01*
X0362217Y0077209D01*
X0364326Y0077209D01*
X0365956Y0077884D01*
X0386291Y0057550D01*
X0386291Y0049577D01*
X0385382Y0048668D01*
X0384716Y0047060D01*
X0384716Y0045320D01*
X0385382Y0043712D01*
X0386612Y0042481D01*
X0388220Y0041815D01*
X0389961Y0041815D01*
X0391569Y0042481D01*
X0392799Y0043712D01*
X0393465Y0045320D01*
X0393465Y0047060D01*
X0392799Y0048668D01*
X0391891Y0049577D01*
X0391891Y0050976D02*
X0413573Y0050976D01*
X0412606Y0052574D02*
X0391891Y0052574D01*
X0391891Y0054173D02*
X0412291Y0054173D01*
X0412477Y0055771D02*
X0391891Y0055771D01*
X0391891Y0057370D02*
X0413262Y0057370D01*
X0415428Y0058968D02*
X0391891Y0058968D01*
X0391194Y0060567D02*
X0413982Y0060567D01*
X0412775Y0062165D02*
X0389595Y0062165D01*
X0387996Y0063764D02*
X0412291Y0063764D01*
X0412308Y0065362D02*
X0386398Y0065362D01*
X0384799Y0066961D02*
X0412970Y0066961D01*
X0414452Y0068559D02*
X0383201Y0068559D01*
X0381602Y0070158D02*
X0414390Y0070158D01*
X0412945Y0071756D02*
X0380004Y0071756D01*
X0378405Y0073355D02*
X0412291Y0073355D01*
X0412291Y0074953D02*
X0376807Y0074953D01*
X0375208Y0076552D02*
X0412801Y0076552D01*
X0414043Y0078150D02*
X0373610Y0078150D01*
X0372011Y0079749D02*
X0415281Y0079749D01*
X0413201Y0081347D02*
X0370413Y0081347D01*
X0368814Y0082946D02*
X0412452Y0082946D01*
X0412291Y0084544D02*
X0368165Y0084544D01*
X0368850Y0086143D02*
X0367133Y0086143D01*
X0367252Y0087741D02*
X0364489Y0087741D01*
X0365653Y0089340D02*
X0363180Y0089340D01*
X0362054Y0087741D02*
X0361448Y0087741D01*
X0359410Y0086143D02*
X0342617Y0086143D01*
X0342365Y0087741D02*
X0347599Y0087741D01*
X0346001Y0089340D02*
X0341334Y0089340D01*
X0339735Y0090939D02*
X0344402Y0090939D01*
X0342804Y0092537D02*
X0338137Y0092537D01*
X0337760Y0094136D02*
X0341205Y0094136D01*
X0339607Y0095734D02*
X0337760Y0095734D01*
X0337722Y0097333D02*
X0338008Y0097333D01*
X0342731Y0100530D02*
X0351048Y0100530D01*
X0350385Y0098931D02*
X0344329Y0098931D01*
X0345928Y0097333D02*
X0350279Y0097333D01*
X0350623Y0095734D02*
X0347526Y0095734D01*
X0349125Y0094136D02*
X0351567Y0094136D01*
X0350723Y0092537D02*
X0353999Y0092537D01*
X0357158Y0092537D02*
X0357458Y0092537D01*
X0359590Y0094136D02*
X0360056Y0094136D01*
X0364779Y0090939D02*
X0365380Y0090939D01*
X0376008Y0087741D02*
X0413634Y0087741D01*
X0412631Y0086143D02*
X0374410Y0086143D01*
X0377607Y0089340D02*
X0416268Y0089340D01*
X0413610Y0090939D02*
X0377880Y0090939D01*
X0377880Y0092537D02*
X0412621Y0092537D01*
X0412291Y0094136D02*
X0377880Y0094136D01*
X0376937Y0095734D02*
X0412462Y0095734D01*
X0413225Y0097333D02*
X0375338Y0097333D01*
X0367922Y0097333D02*
X0366891Y0097333D01*
X0366891Y0098931D02*
X0415338Y0098931D01*
X0389091Y0058710D02*
X0364591Y0083210D01*
X0363972Y0083210D01*
X0363272Y0082509D01*
X0358378Y0084544D02*
X0344216Y0084544D01*
X0345814Y0082946D02*
X0357972Y0082946D01*
X0358016Y0081347D02*
X0347413Y0081347D01*
X0349011Y0079749D02*
X0358678Y0079749D01*
X0360135Y0078150D02*
X0350610Y0078150D01*
X0352208Y0076552D02*
X0367289Y0076552D01*
X0368887Y0074953D02*
X0353606Y0074953D01*
X0353891Y0073355D02*
X0370486Y0073355D01*
X0372084Y0071756D02*
X0353891Y0071756D01*
X0353891Y0070158D02*
X0373683Y0070158D01*
X0374136Y0068252D02*
X0371830Y0068252D01*
X0371830Y0062402D01*
X0377680Y0062402D01*
X0377680Y0064708D01*
X0374136Y0068252D01*
X0375281Y0068559D02*
X0353891Y0068559D01*
X0353891Y0066961D02*
X0367833Y0066961D01*
X0369124Y0068252D02*
X0365580Y0064708D01*
X0365580Y0062402D01*
X0371430Y0062402D01*
X0371430Y0062002D01*
X0371830Y0062002D01*
X0371830Y0062402D01*
X0371430Y0062402D01*
X0371430Y0068252D01*
X0369124Y0068252D01*
X0371430Y0066961D02*
X0371830Y0066961D01*
X0371830Y0065362D02*
X0371430Y0065362D01*
X0371430Y0063764D02*
X0371830Y0063764D01*
X0371830Y0062165D02*
X0381675Y0062165D01*
X0380077Y0063764D02*
X0377680Y0063764D01*
X0377026Y0065362D02*
X0378478Y0065362D01*
X0376880Y0066961D02*
X0375427Y0066961D01*
X0366234Y0065362D02*
X0354398Y0065362D01*
X0355996Y0063764D02*
X0365580Y0063764D01*
X0365580Y0062002D02*
X0365580Y0059696D01*
X0369124Y0056152D01*
X0371430Y0056152D01*
X0371430Y0062002D01*
X0365580Y0062002D01*
X0365580Y0060567D02*
X0360095Y0060567D01*
X0360757Y0058968D02*
X0366308Y0058968D01*
X0367906Y0057370D02*
X0360879Y0057370D01*
X0361489Y0055771D02*
X0386291Y0055771D01*
X0386291Y0054173D02*
X0371588Y0054173D01*
X0371964Y0053796D02*
X0371964Y0053796D01*
X0373193Y0052574D02*
X0386291Y0052574D01*
X0386291Y0050976D02*
X0374887Y0050976D01*
X0376383Y0049377D02*
X0386091Y0049377D01*
X0385013Y0047779D02*
X0377982Y0047779D01*
X0379580Y0046180D02*
X0384716Y0046180D01*
X0385022Y0044582D02*
X0381179Y0044582D01*
X0382777Y0042983D02*
X0386111Y0042983D01*
X0384376Y0041385D02*
X0413497Y0041385D01*
X0412681Y0042983D02*
X0392070Y0042983D01*
X0393159Y0044582D02*
X0412491Y0044582D01*
X0412848Y0046180D02*
X0393465Y0046180D01*
X0393168Y0047779D02*
X0413954Y0047779D01*
X0415737Y0039786D02*
X0385675Y0039786D01*
X0385891Y0038188D02*
X0429271Y0038188D01*
X0429271Y0036589D02*
X0388394Y0036589D01*
X0388394Y0034991D02*
X0429271Y0034991D01*
X0429271Y0033392D02*
X0388394Y0033392D01*
X0388394Y0031794D02*
X0429271Y0031794D01*
X0429271Y0030195D02*
X0388394Y0030195D01*
X0383244Y0033517D02*
X0383091Y0033710D01*
X0383091Y0038710D01*
X0372091Y0049710D01*
X0371091Y0048710D01*
X0372091Y0049710D02*
X0369591Y0052210D01*
X0361091Y0052210D01*
X0356091Y0057210D01*
X0355579Y0057619D01*
X0355091Y0057710D01*
X0355091Y0059710D01*
X0354091Y0060710D01*
X0354091Y0061710D01*
X0351091Y0064710D01*
X0351091Y0073710D01*
X0339591Y0085210D01*
X0339591Y0087123D01*
X0333201Y0093513D01*
X0333201Y0094493D01*
X0329169Y0098525D01*
X0271161Y0098525D01*
X0268941Y0096304D01*
X0268941Y0096068D01*
X0268941Y0089060D01*
X0259591Y0079710D01*
X0259846Y0078974D01*
X0257051Y0076178D01*
X0240094Y0076178D01*
X0238154Y0078119D01*
X0238154Y0082875D01*
X0237591Y0082710D01*
X0207591Y0082710D01*
X0203091Y0078210D01*
X0199091Y0078210D01*
X0198693Y0078100D01*
X0191440Y0079749D02*
X0188589Y0079749D01*
X0189177Y0080336D02*
X0189177Y0080336D01*
X0190057Y0081347D02*
X0192421Y0081347D01*
X0190391Y0082946D02*
X0203867Y0082946D01*
X0204167Y0084055D02*
X0205510Y0085397D01*
X0206236Y0087151D01*
X0206236Y0089049D01*
X0205510Y0090803D01*
X0204167Y0092145D01*
X0202414Y0092871D01*
X0194972Y0092871D01*
X0193218Y0092145D01*
X0191876Y0090803D01*
X0191150Y0089049D01*
X0191150Y0087151D01*
X0191876Y0085397D01*
X0193218Y0084055D01*
X0194972Y0083328D01*
X0202414Y0083328D01*
X0204167Y0084055D01*
X0204657Y0084544D02*
X0205465Y0084544D01*
X0205819Y0086143D02*
X0233004Y0086143D01*
X0234459Y0087741D02*
X0206236Y0087741D01*
X0206116Y0089340D02*
X0233858Y0089340D01*
X0233858Y0090939D02*
X0205374Y0090939D01*
X0203221Y0092537D02*
X0233858Y0092537D01*
X0233858Y0094136D02*
X0204248Y0094136D01*
X0194165Y0092537D02*
X0190391Y0092537D01*
X0190391Y0090939D02*
X0192012Y0090939D01*
X0191270Y0089340D02*
X0190391Y0089340D01*
X0190391Y0087741D02*
X0191150Y0087741D01*
X0191567Y0086143D02*
X0190391Y0086143D01*
X0190391Y0084544D02*
X0192728Y0084544D01*
X0208589Y0079749D02*
X0225581Y0079749D01*
X0225216Y0078150D02*
X0206991Y0078150D01*
X0205988Y0076552D02*
X0225454Y0076552D01*
X0226448Y0074953D02*
X0205066Y0074953D01*
X0204167Y0072145D02*
X0202414Y0072871D01*
X0194972Y0072871D01*
X0193218Y0072145D01*
X0191876Y0070803D01*
X0191150Y0069049D01*
X0191150Y0067151D01*
X0191876Y0065397D01*
X0193218Y0064055D01*
X0194972Y0063328D01*
X0202414Y0063328D01*
X0204167Y0064055D01*
X0205510Y0065397D01*
X0206236Y0067151D01*
X0206236Y0069049D01*
X0205510Y0070803D01*
X0204167Y0072145D01*
X0204556Y0071756D02*
X0226991Y0071756D01*
X0226991Y0070158D02*
X0205777Y0070158D01*
X0206236Y0068559D02*
X0226991Y0068559D01*
X0226991Y0066961D02*
X0206158Y0066961D01*
X0205475Y0065362D02*
X0225790Y0065362D01*
X0224192Y0063764D02*
X0203466Y0063764D01*
X0202414Y0062871D02*
X0204167Y0062145D01*
X0205510Y0060803D01*
X0206236Y0059049D01*
X0206236Y0057151D01*
X0205510Y0055397D01*
X0204167Y0054055D01*
X0202414Y0053328D01*
X0194972Y0053328D01*
X0193218Y0054055D01*
X0191876Y0055397D01*
X0191150Y0057151D01*
X0191150Y0059049D01*
X0191876Y0060803D01*
X0193218Y0062145D01*
X0194972Y0062871D01*
X0202414Y0062871D01*
X0204118Y0062165D02*
X0222593Y0062165D01*
X0220995Y0060567D02*
X0205607Y0060567D01*
X0206236Y0058968D02*
X0219396Y0058968D01*
X0217798Y0057370D02*
X0206236Y0057370D01*
X0205665Y0055771D02*
X0216199Y0055771D01*
X0214601Y0054173D02*
X0204286Y0054173D01*
X0203131Y0052574D02*
X0213002Y0052574D01*
X0211404Y0050976D02*
X0205337Y0050976D01*
X0205510Y0050803D02*
X0204167Y0052145D01*
X0202414Y0052871D01*
X0194972Y0052871D01*
X0193218Y0052145D01*
X0191876Y0050803D01*
X0191150Y0049049D01*
X0191150Y0047151D01*
X0191876Y0045397D01*
X0193218Y0044055D01*
X0194972Y0043328D01*
X0202414Y0043328D01*
X0204167Y0044055D01*
X0205510Y0045397D01*
X0206236Y0047151D01*
X0206236Y0049049D01*
X0205510Y0050803D01*
X0206100Y0049377D02*
X0209805Y0049377D01*
X0208207Y0047779D02*
X0206236Y0047779D01*
X0206608Y0046180D02*
X0205834Y0046180D01*
X0205010Y0044582D02*
X0204695Y0044582D01*
X0203844Y0042983D02*
X0140890Y0042983D01*
X0140890Y0041385D02*
X0142741Y0041385D01*
X0142943Y0041587D02*
X0142434Y0041078D01*
X0142011Y0040496D01*
X0141685Y0039855D01*
X0141462Y0039170D01*
X0141350Y0038460D01*
X0141350Y0038186D01*
X0148607Y0038186D01*
X0148607Y0042671D01*
X0145561Y0042671D01*
X0144851Y0042559D01*
X0144166Y0042336D01*
X0143525Y0042010D01*
X0142943Y0041587D01*
X0141662Y0039786D02*
X0140236Y0039786D01*
X0141350Y0038188D02*
X0138789Y0038188D01*
X0141350Y0038014D02*
X0141350Y0037740D01*
X0141462Y0037029D01*
X0141685Y0036345D01*
X0142011Y0035704D01*
X0142434Y0035121D01*
X0142943Y0034613D01*
X0143525Y0034190D01*
X0144166Y0033863D01*
X0144851Y0033641D01*
X0145561Y0033528D01*
X0148607Y0033528D01*
X0148607Y0038014D01*
X0141350Y0038014D01*
X0141605Y0036589D02*
X0123910Y0036589D01*
X0123910Y0034991D02*
X0142565Y0034991D01*
X0148607Y0034991D02*
X0148779Y0034991D01*
X0148779Y0033528D02*
X0151824Y0033528D01*
X0152535Y0033641D01*
X0153219Y0033863D01*
X0153861Y0034190D01*
X0154443Y0034613D01*
X0154952Y0035121D01*
X0155375Y0035704D01*
X0155701Y0036345D01*
X0155924Y0037029D01*
X0156036Y0037740D01*
X0156036Y0038014D01*
X0148779Y0038014D01*
X0148779Y0038186D01*
X0148607Y0038186D01*
X0148607Y0038014D01*
X0148779Y0038014D01*
X0148779Y0033528D01*
X0154821Y0034991D02*
X0192565Y0034991D01*
X0191605Y0036589D02*
X0155781Y0036589D01*
X0156036Y0038186D02*
X0156036Y0038460D01*
X0155924Y0039170D01*
X0155701Y0039855D01*
X0155375Y0040496D01*
X0154952Y0041078D01*
X0154443Y0041587D01*
X0153861Y0042010D01*
X0153219Y0042336D01*
X0152535Y0042559D01*
X0151824Y0042671D01*
X0148779Y0042671D01*
X0148779Y0038186D01*
X0156036Y0038186D01*
X0156036Y0038188D02*
X0191350Y0038188D01*
X0191662Y0039786D02*
X0155724Y0039786D01*
X0154645Y0041385D02*
X0192741Y0041385D01*
X0198607Y0041385D02*
X0198779Y0041385D01*
X0198779Y0039786D02*
X0198607Y0039786D01*
X0198607Y0038188D02*
X0198779Y0038188D01*
X0198779Y0036589D02*
X0198607Y0036589D01*
X0198607Y0034991D02*
X0198779Y0034991D01*
X0202174Y0033392D02*
X0123910Y0033392D01*
X0123910Y0031794D02*
X0200576Y0031794D01*
X0198977Y0030195D02*
X0123910Y0030195D01*
X0123910Y0028597D02*
X0171803Y0028597D01*
X0170273Y0026998D02*
X0123910Y0026998D01*
X0123910Y0025400D02*
X0169611Y0025400D01*
X0169583Y0023801D02*
X0123910Y0023801D01*
X0123910Y0022203D02*
X0169583Y0022203D01*
X0169583Y0020604D02*
X0123910Y0020604D01*
X0123910Y0019005D02*
X0169583Y0019005D01*
X0169583Y0017407D02*
X0123910Y0017407D01*
X0123910Y0015808D02*
X0170218Y0015808D01*
X0171638Y0014210D02*
X0123910Y0014210D01*
X0123910Y0012611D02*
X0174729Y0012611D01*
X0176328Y0011013D02*
X0123910Y0011013D01*
X0123910Y0009414D02*
X0177926Y0009414D01*
X0179525Y0007816D02*
X0123910Y0007816D01*
X0174591Y0016710D02*
X0183091Y0008210D01*
X0206091Y0008210D01*
X0222091Y0024210D01*
X0225994Y0022203D02*
X0231594Y0022203D01*
X0231594Y0023801D02*
X0226465Y0023801D01*
X0226333Y0025400D02*
X0231594Y0025400D01*
X0232437Y0026998D02*
X0225489Y0026998D01*
X0218692Y0026998D02*
X0208892Y0026998D01*
X0208670Y0028597D02*
X0234035Y0028597D01*
X0236116Y0030195D02*
X0210268Y0030195D01*
X0211866Y0031794D02*
X0224579Y0031794D01*
X0224615Y0031758D02*
X0225026Y0031521D01*
X0225483Y0031398D01*
X0227800Y0031398D01*
X0227800Y0035868D01*
X0228759Y0035868D01*
X0228759Y0031398D01*
X0231076Y0031398D01*
X0231533Y0031521D01*
X0231944Y0031758D01*
X0232279Y0032093D01*
X0232516Y0032503D01*
X0232639Y0032961D01*
X0232639Y0035868D01*
X0228759Y0035868D01*
X0228759Y0036827D01*
X0232639Y0036827D01*
X0232639Y0039734D01*
X0232516Y0040192D01*
X0232279Y0040603D01*
X0231944Y0040938D01*
X0231533Y0041175D01*
X0231076Y0041297D01*
X0228759Y0041297D01*
X0228759Y0036827D01*
X0227800Y0036827D01*
X0227800Y0035868D01*
X0223920Y0035868D01*
X0223920Y0032961D01*
X0224043Y0032503D01*
X0224280Y0032093D01*
X0224615Y0031758D01*
X0223920Y0033392D02*
X0212261Y0033392D01*
X0212261Y0034991D02*
X0223920Y0034991D01*
X0223920Y0036827D02*
X0227800Y0036827D01*
X0227800Y0041297D01*
X0225483Y0041297D01*
X0225026Y0041175D01*
X0224615Y0040938D01*
X0224280Y0040603D01*
X0224043Y0040192D01*
X0223920Y0039734D01*
X0223920Y0036827D01*
X0223920Y0038188D02*
X0212261Y0038188D01*
X0212261Y0039786D02*
X0223934Y0039786D01*
X0227800Y0039786D02*
X0228759Y0039786D01*
X0228759Y0038188D02*
X0227800Y0038188D01*
X0227800Y0036589D02*
X0212261Y0036589D01*
X0213741Y0041385D02*
X0236779Y0041385D01*
X0235720Y0039786D02*
X0232625Y0039786D01*
X0232639Y0038188D02*
X0235720Y0038188D01*
X0235720Y0036589D02*
X0228759Y0036589D01*
X0228759Y0034991D02*
X0227800Y0034991D01*
X0227800Y0033392D02*
X0228759Y0033392D01*
X0228759Y0031794D02*
X0227800Y0031794D01*
X0231980Y0031794D02*
X0236297Y0031794D01*
X0235720Y0033392D02*
X0232639Y0033392D01*
X0232639Y0034991D02*
X0235720Y0034991D01*
X0240280Y0036348D02*
X0240591Y0035710D01*
X0240591Y0030710D01*
X0236591Y0026710D01*
X0236591Y0024210D01*
X0236394Y0024167D01*
X0241194Y0023801D02*
X0241594Y0023801D01*
X0241594Y0022203D02*
X0241194Y0022203D01*
X0241594Y0022178D02*
X0244405Y0019367D01*
X0248382Y0019367D01*
X0251194Y0022178D01*
X0251194Y0026155D01*
X0248382Y0028967D01*
X0244405Y0028967D01*
X0241594Y0026155D01*
X0241594Y0022178D01*
X0243168Y0020604D02*
X0239619Y0020604D01*
X0238382Y0018967D02*
X0234405Y0018967D01*
X0231594Y0016155D01*
X0231594Y0012178D01*
X0234405Y0009367D01*
X0238382Y0009367D01*
X0241194Y0012178D01*
X0241194Y0016155D01*
X0238382Y0018967D01*
X0239942Y0017407D02*
X0242846Y0017407D01*
X0241594Y0016155D02*
X0241594Y0012178D01*
X0244405Y0009367D01*
X0248382Y0009367D01*
X0251194Y0012178D01*
X0251194Y0016155D01*
X0248382Y0018967D01*
X0244405Y0018967D01*
X0241594Y0016155D01*
X0241594Y0015808D02*
X0241194Y0015808D01*
X0241194Y0014210D02*
X0241594Y0014210D01*
X0241594Y0012611D02*
X0241194Y0012611D01*
X0240028Y0011013D02*
X0242759Y0011013D01*
X0244358Y0009414D02*
X0238430Y0009414D01*
X0234358Y0009414D02*
X0211255Y0009414D01*
X0209656Y0007816D02*
X0429271Y0007816D01*
X0429271Y0009414D02*
X0258430Y0009414D01*
X0260028Y0011013D02*
X0429271Y0011013D01*
X0429271Y0012611D02*
X0261194Y0012611D01*
X0261767Y0014210D02*
X0429271Y0014210D01*
X0429271Y0015808D02*
X0263366Y0015808D01*
X0264965Y0017407D02*
X0355604Y0017407D01*
X0354551Y0019005D02*
X0266563Y0019005D01*
X0268162Y0020604D02*
X0351520Y0020604D01*
X0349921Y0022203D02*
X0269760Y0022203D01*
X0271359Y0023801D02*
X0348323Y0023801D01*
X0346724Y0025400D02*
X0272957Y0025400D01*
X0274556Y0026998D02*
X0345126Y0026998D01*
X0343527Y0028597D02*
X0276154Y0028597D01*
X0277753Y0030195D02*
X0285580Y0030195D01*
X0285722Y0030053D02*
X0286132Y0029816D01*
X0286590Y0029693D01*
X0289300Y0029693D01*
X0289300Y0033573D01*
X0285027Y0033573D01*
X0285027Y0031256D01*
X0285149Y0030799D01*
X0285386Y0030388D01*
X0285722Y0030053D01*
X0285027Y0031794D02*
X0279351Y0031794D01*
X0280950Y0033392D02*
X0285027Y0033392D01*
X0285027Y0034532D02*
X0289300Y0034532D01*
X0289300Y0033573D01*
X0290259Y0033573D01*
X0290259Y0029693D01*
X0292969Y0029693D01*
X0293427Y0029816D01*
X0293838Y0030053D01*
X0294173Y0030388D01*
X0294410Y0030799D01*
X0294532Y0031256D01*
X0294532Y0033573D01*
X0290259Y0033573D01*
X0290259Y0034532D01*
X0294532Y0034532D01*
X0294532Y0036849D01*
X0294410Y0037306D01*
X0294221Y0037634D01*
X0294732Y0038145D01*
X0294732Y0044920D01*
X0293561Y0046092D01*
X0292691Y0046092D01*
X0292691Y0047668D01*
X0293393Y0048371D01*
X0294961Y0048371D01*
X0296569Y0049037D01*
X0297799Y0050267D01*
X0298465Y0051875D01*
X0298465Y0053616D01*
X0297799Y0055224D01*
X0296569Y0056454D01*
X0294961Y0057120D01*
X0293220Y0057120D01*
X0291612Y0056454D01*
X0290382Y0055224D01*
X0289716Y0053616D01*
X0289716Y0052048D01*
X0288618Y0050950D01*
X0287886Y0050218D01*
X0287491Y0049263D01*
X0287491Y0046092D01*
X0285998Y0046092D01*
X0284827Y0044920D01*
X0284827Y0038145D01*
X0285338Y0037634D01*
X0285149Y0037306D01*
X0285027Y0036849D01*
X0285027Y0034532D01*
X0285027Y0034991D02*
X0282548Y0034991D01*
X0284147Y0036589D02*
X0285027Y0036589D01*
X0284827Y0038188D02*
X0284691Y0038188D01*
X0284691Y0039786D02*
X0284827Y0039786D01*
X0284827Y0041385D02*
X0284691Y0041385D01*
X0284691Y0042983D02*
X0284827Y0042983D01*
X0284827Y0044582D02*
X0284691Y0044582D01*
X0284691Y0046180D02*
X0287491Y0046180D01*
X0287491Y0047779D02*
X0284691Y0047779D01*
X0284691Y0049377D02*
X0287538Y0049377D01*
X0288644Y0050976D02*
X0284691Y0050976D01*
X0284691Y0052574D02*
X0289716Y0052574D01*
X0289947Y0054173D02*
X0284691Y0054173D01*
X0284691Y0055771D02*
X0290930Y0055771D01*
X0297252Y0055771D02*
X0317491Y0055771D01*
X0317491Y0057370D02*
X0284691Y0057370D01*
X0284691Y0058968D02*
X0317491Y0058968D01*
X0317491Y0060567D02*
X0284691Y0060567D01*
X0284691Y0062165D02*
X0317491Y0062165D01*
X0317491Y0063764D02*
X0284691Y0063764D01*
X0284691Y0065362D02*
X0317491Y0065362D01*
X0317491Y0066961D02*
X0284691Y0066961D01*
X0284691Y0068559D02*
X0317491Y0068559D01*
X0317491Y0070158D02*
X0284691Y0070158D01*
X0284691Y0071756D02*
X0317491Y0071756D01*
X0317491Y0073355D02*
X0284691Y0073355D01*
X0284691Y0074953D02*
X0317491Y0074953D01*
X0317491Y0076552D02*
X0284691Y0076552D01*
X0284691Y0078150D02*
X0317491Y0078150D01*
X0317491Y0079749D02*
X0284691Y0079749D01*
X0285405Y0081347D02*
X0317491Y0081347D01*
X0317581Y0082946D02*
X0287003Y0082946D01*
X0288602Y0084544D02*
X0318748Y0084544D01*
X0320347Y0086143D02*
X0290201Y0086143D01*
X0291683Y0087741D02*
X0322408Y0087741D01*
X0321553Y0089340D02*
X0320398Y0089340D01*
X0317839Y0094136D02*
X0291564Y0094136D01*
X0285703Y0094136D02*
X0272876Y0094136D01*
X0271741Y0092537D02*
X0284585Y0092537D01*
X0284259Y0090939D02*
X0271741Y0090939D01*
X0271741Y0089340D02*
X0284536Y0089340D01*
X0284445Y0087741D02*
X0271425Y0087741D01*
X0269983Y0086143D02*
X0282847Y0086143D01*
X0281248Y0084544D02*
X0268385Y0084544D01*
X0266786Y0082946D02*
X0279788Y0082946D01*
X0279491Y0081347D02*
X0265188Y0081347D01*
X0264996Y0079749D02*
X0279491Y0079749D01*
X0279491Y0078150D02*
X0264996Y0078150D01*
X0264996Y0076552D02*
X0279491Y0076552D01*
X0279491Y0074953D02*
X0264363Y0074953D01*
X0264327Y0073355D02*
X0279491Y0073355D01*
X0279491Y0071756D02*
X0264327Y0071756D01*
X0264327Y0070158D02*
X0279491Y0070158D01*
X0279491Y0068559D02*
X0264327Y0068559D01*
X0264327Y0066961D02*
X0279491Y0066961D01*
X0279491Y0065362D02*
X0263930Y0065362D01*
X0262891Y0063764D02*
X0279491Y0063764D01*
X0279491Y0062165D02*
X0262891Y0062165D01*
X0262891Y0060567D02*
X0279491Y0060567D01*
X0279491Y0058968D02*
X0262891Y0058968D01*
X0262891Y0057370D02*
X0279491Y0057370D01*
X0279491Y0055771D02*
X0262891Y0055771D01*
X0262891Y0054173D02*
X0279491Y0054173D01*
X0279491Y0052574D02*
X0262891Y0052574D01*
X0262891Y0050976D02*
X0279491Y0050976D01*
X0279491Y0049377D02*
X0262891Y0049377D01*
X0262528Y0047779D02*
X0279491Y0047779D01*
X0279491Y0046180D02*
X0261021Y0046180D01*
X0259422Y0044582D02*
X0279491Y0044582D01*
X0279491Y0042983D02*
X0257824Y0042983D01*
X0256630Y0041385D02*
X0279491Y0041385D01*
X0279491Y0039786D02*
X0269466Y0039786D01*
X0269477Y0039746D02*
X0269354Y0040204D01*
X0269118Y0040614D01*
X0268782Y0040950D01*
X0268372Y0041187D01*
X0267914Y0041309D01*
X0265598Y0041309D01*
X0265598Y0036839D01*
X0269477Y0036839D01*
X0269477Y0039746D01*
X0269477Y0038188D02*
X0278391Y0038188D01*
X0276793Y0036589D02*
X0265598Y0036589D01*
X0265598Y0036839D02*
X0265598Y0035880D01*
X0269477Y0035880D01*
X0269477Y0032973D01*
X0269354Y0032515D01*
X0269118Y0032105D01*
X0268782Y0031770D01*
X0268372Y0031533D01*
X0267914Y0031410D01*
X0265598Y0031410D01*
X0265598Y0035880D01*
X0264639Y0035880D01*
X0264639Y0031410D01*
X0262322Y0031410D01*
X0261864Y0031533D01*
X0261454Y0031770D01*
X0261119Y0032105D01*
X0260882Y0032515D01*
X0260759Y0032973D01*
X0260759Y0035880D01*
X0264638Y0035880D01*
X0264638Y0036839D01*
X0260759Y0036839D01*
X0260759Y0039746D01*
X0260882Y0040204D01*
X0261119Y0040614D01*
X0261454Y0040950D01*
X0261864Y0041187D01*
X0262322Y0041309D01*
X0264639Y0041309D01*
X0264639Y0036839D01*
X0265598Y0036839D01*
X0264638Y0036589D02*
X0257677Y0036589D01*
X0257677Y0034991D02*
X0260759Y0034991D01*
X0260759Y0033392D02*
X0257677Y0033392D01*
X0257089Y0031794D02*
X0261430Y0031794D01*
X0264639Y0031794D02*
X0265598Y0031794D01*
X0265598Y0033392D02*
X0264639Y0033392D01*
X0264639Y0034991D02*
X0265598Y0034991D01*
X0269477Y0034991D02*
X0275194Y0034991D01*
X0273596Y0033392D02*
X0269477Y0033392D01*
X0268806Y0031794D02*
X0271997Y0031794D01*
X0270399Y0030195D02*
X0243391Y0030195D01*
X0244035Y0028597D02*
X0242437Y0028597D01*
X0242437Y0026998D02*
X0240838Y0026998D01*
X0241194Y0025400D02*
X0241594Y0025400D01*
X0248752Y0028597D02*
X0254318Y0028597D01*
X0254488Y0028767D02*
X0251794Y0026072D01*
X0251794Y0024267D01*
X0256294Y0024267D01*
X0256294Y0028767D01*
X0254488Y0028767D01*
X0256294Y0028597D02*
X0256494Y0028597D01*
X0256494Y0028767D02*
X0258299Y0028767D01*
X0260994Y0026072D01*
X0260994Y0024267D01*
X0256494Y0024267D01*
X0256294Y0024267D01*
X0256294Y0024067D01*
X0256494Y0024067D01*
X0256494Y0024267D01*
X0256494Y0028767D01*
X0256494Y0026998D02*
X0256294Y0026998D01*
X0256294Y0025400D02*
X0256494Y0025400D01*
X0256494Y0024067D02*
X0260994Y0024067D01*
X0260994Y0022261D01*
X0258299Y0019567D01*
X0256494Y0019567D01*
X0256494Y0024067D01*
X0256294Y0024067D02*
X0256294Y0019567D01*
X0254488Y0019567D01*
X0251794Y0022261D01*
X0251794Y0024067D01*
X0256294Y0024067D01*
X0256294Y0023801D02*
X0256494Y0023801D01*
X0256494Y0022203D02*
X0256294Y0022203D01*
X0256294Y0020604D02*
X0256494Y0020604D01*
X0259336Y0020604D02*
X0260808Y0020604D01*
X0260935Y0022203D02*
X0262406Y0022203D01*
X0260994Y0023801D02*
X0264005Y0023801D01*
X0265603Y0025400D02*
X0260994Y0025400D01*
X0260068Y0026998D02*
X0267202Y0026998D01*
X0268800Y0028597D02*
X0258469Y0028597D01*
X0252720Y0026998D02*
X0250351Y0026998D01*
X0251194Y0025400D02*
X0251794Y0025400D01*
X0251794Y0023801D02*
X0251194Y0023801D01*
X0251194Y0022203D02*
X0251852Y0022203D01*
X0253451Y0020604D02*
X0249619Y0020604D01*
X0259209Y0019005D02*
X0220846Y0019005D01*
X0219247Y0017407D02*
X0232846Y0017407D01*
X0231594Y0015808D02*
X0217649Y0015808D01*
X0216050Y0014210D02*
X0231594Y0014210D01*
X0231594Y0012611D02*
X0214452Y0012611D01*
X0212853Y0011013D02*
X0232759Y0011013D01*
X0248430Y0009414D02*
X0254358Y0009414D01*
X0252759Y0011013D02*
X0250028Y0011013D01*
X0251194Y0012611D02*
X0251594Y0012611D01*
X0251594Y0014210D02*
X0251194Y0014210D01*
X0251194Y0015808D02*
X0251594Y0015808D01*
X0252846Y0017407D02*
X0249942Y0017407D01*
X0233168Y0020604D02*
X0224672Y0020604D01*
X0216123Y0022203D02*
X0209583Y0022203D01*
X0209583Y0023801D02*
X0217716Y0023801D01*
X0217848Y0025400D02*
X0209554Y0025400D01*
X0199583Y0023446D02*
X0199583Y0017341D01*
X0199583Y0023446D01*
X0199583Y0023446D01*
X0199583Y0022203D02*
X0199583Y0022203D01*
X0199583Y0020604D02*
X0199583Y0020604D01*
X0199583Y0019005D02*
X0199583Y0019005D01*
X0199583Y0017407D02*
X0199583Y0017407D01*
X0198948Y0015808D02*
X0200218Y0015808D01*
X0201638Y0014210D02*
X0197528Y0014210D01*
X0191638Y0014210D02*
X0187058Y0014210D01*
X0187098Y0014231D02*
X0187710Y0014675D01*
X0188244Y0015209D01*
X0188688Y0015820D01*
X0189031Y0016493D01*
X0189264Y0017212D01*
X0189383Y0017958D01*
X0189383Y0021136D01*
X0184783Y0021136D01*
X0184783Y0021536D01*
X0189383Y0021536D01*
X0189383Y0024714D01*
X0189264Y0025460D01*
X0189031Y0026179D01*
X0188688Y0026852D01*
X0188244Y0027463D01*
X0187710Y0027997D01*
X0187098Y0028441D01*
X0186425Y0028784D01*
X0185707Y0029018D01*
X0184960Y0029136D01*
X0184783Y0029136D01*
X0184783Y0021536D01*
X0184383Y0021536D01*
X0184383Y0029136D01*
X0184205Y0029136D01*
X0183459Y0029018D01*
X0182740Y0028784D01*
X0182067Y0028441D01*
X0181456Y0027997D01*
X0180921Y0027463D01*
X0180477Y0026852D01*
X0180134Y0026179D01*
X0179901Y0025460D01*
X0179783Y0024714D01*
X0179783Y0021536D01*
X0184383Y0021536D01*
X0184383Y0021136D01*
X0184783Y0021136D01*
X0184783Y0013536D01*
X0184960Y0013536D01*
X0185707Y0013654D01*
X0186425Y0013888D01*
X0187098Y0014231D01*
X0188679Y0015808D02*
X0190218Y0015808D01*
X0189583Y0017407D02*
X0189295Y0017407D01*
X0189383Y0019005D02*
X0189583Y0019005D01*
X0189583Y0020604D02*
X0189383Y0020604D01*
X0189383Y0022203D02*
X0189583Y0022203D01*
X0189583Y0023801D02*
X0189383Y0023801D01*
X0189274Y0025400D02*
X0189611Y0025400D01*
X0190273Y0026998D02*
X0188582Y0026998D01*
X0186794Y0028597D02*
X0191803Y0028597D01*
X0197362Y0028597D02*
X0197379Y0028597D01*
X0184783Y0028597D02*
X0184383Y0028597D01*
X0184383Y0026998D02*
X0184783Y0026998D01*
X0184783Y0025400D02*
X0184383Y0025400D01*
X0184383Y0023801D02*
X0184783Y0023801D01*
X0184783Y0022203D02*
X0184383Y0022203D01*
X0184383Y0021136D02*
X0179783Y0021136D01*
X0179783Y0017958D01*
X0179901Y0017212D01*
X0180134Y0016493D01*
X0180477Y0015820D01*
X0180921Y0015209D01*
X0181456Y0014675D01*
X0182067Y0014231D01*
X0182740Y0013888D01*
X0183459Y0013654D01*
X0184205Y0013536D01*
X0184383Y0013536D01*
X0184383Y0021136D01*
X0184383Y0020604D02*
X0184783Y0020604D01*
X0184783Y0019005D02*
X0184383Y0019005D01*
X0184383Y0017407D02*
X0184783Y0017407D01*
X0184783Y0015808D02*
X0184383Y0015808D01*
X0184383Y0014210D02*
X0184783Y0014210D01*
X0182649Y0012611D02*
X0206532Y0012611D01*
X0207528Y0014210D02*
X0208131Y0014210D01*
X0208948Y0015808D02*
X0209729Y0015808D01*
X0209583Y0017407D02*
X0211328Y0017407D01*
X0212926Y0019005D02*
X0209583Y0019005D01*
X0209583Y0020604D02*
X0214525Y0020604D01*
X0204934Y0011013D02*
X0184247Y0011013D01*
X0182107Y0014210D02*
X0181050Y0014210D01*
X0180486Y0015808D02*
X0179452Y0015808D01*
X0179583Y0017407D02*
X0179870Y0017407D01*
X0179783Y0019005D02*
X0179583Y0019005D01*
X0179583Y0020604D02*
X0179783Y0020604D01*
X0179783Y0022203D02*
X0179583Y0022203D01*
X0179583Y0023801D02*
X0179783Y0023801D01*
X0179891Y0025400D02*
X0179554Y0025400D01*
X0178892Y0026998D02*
X0180584Y0026998D01*
X0182372Y0028597D02*
X0177362Y0028597D01*
X0174583Y0021336D02*
X0174591Y0021210D01*
X0174591Y0016710D01*
X0148779Y0036589D02*
X0148607Y0036589D01*
X0148607Y0038188D02*
X0148779Y0038188D01*
X0148779Y0039786D02*
X0148607Y0039786D01*
X0148607Y0041385D02*
X0148779Y0041385D01*
X0154695Y0044582D02*
X0192691Y0044582D01*
X0191552Y0046180D02*
X0155834Y0046180D01*
X0156619Y0047779D02*
X0191150Y0047779D01*
X0191286Y0049377D02*
X0158218Y0049377D01*
X0159816Y0050976D02*
X0192049Y0050976D01*
X0194255Y0052574D02*
X0161415Y0052574D01*
X0163013Y0054173D02*
X0193100Y0054173D01*
X0191721Y0055771D02*
X0164612Y0055771D01*
X0166210Y0057370D02*
X0191150Y0057370D01*
X0191150Y0058968D02*
X0167809Y0058968D01*
X0169407Y0060567D02*
X0191778Y0060567D01*
X0193268Y0062165D02*
X0171006Y0062165D01*
X0172604Y0063764D02*
X0193920Y0063764D01*
X0191911Y0065362D02*
X0174203Y0065362D01*
X0175801Y0066961D02*
X0191228Y0066961D01*
X0191150Y0068559D02*
X0177400Y0068559D01*
X0178998Y0070158D02*
X0191609Y0070158D01*
X0192830Y0071756D02*
X0180597Y0071756D01*
X0182195Y0073355D02*
X0194907Y0073355D01*
X0192319Y0074953D02*
X0183794Y0074953D01*
X0185392Y0076552D02*
X0191398Y0076552D01*
X0191150Y0078150D02*
X0186991Y0078150D01*
X0175874Y0074953D02*
X0163794Y0074953D01*
X0162195Y0073355D02*
X0174276Y0073355D01*
X0172677Y0071756D02*
X0160597Y0071756D01*
X0158998Y0070158D02*
X0171079Y0070158D01*
X0169480Y0068559D02*
X0157400Y0068559D01*
X0156158Y0066961D02*
X0167882Y0066961D01*
X0166283Y0065362D02*
X0155475Y0065362D01*
X0153466Y0063764D02*
X0164685Y0063764D01*
X0163086Y0062165D02*
X0154118Y0062165D01*
X0155607Y0060567D02*
X0161488Y0060567D01*
X0159889Y0058968D02*
X0156236Y0058968D01*
X0156236Y0057370D02*
X0158291Y0057370D01*
X0156692Y0055771D02*
X0155665Y0055771D01*
X0155094Y0054173D02*
X0154286Y0054173D01*
X0153495Y0052574D02*
X0153131Y0052574D01*
X0141286Y0049377D02*
X0139978Y0049377D01*
X0141150Y0047779D02*
X0137896Y0047779D01*
X0139140Y0046180D02*
X0141552Y0046180D01*
X0142691Y0044582D02*
X0140381Y0044582D01*
X0125398Y0044582D02*
X0123910Y0044582D01*
X0123910Y0042983D02*
X0124890Y0042983D01*
X0124890Y0041385D02*
X0123910Y0041385D01*
X0123910Y0039786D02*
X0125544Y0039786D01*
X0126991Y0038188D02*
X0123910Y0038188D01*
X0132591Y0052210D02*
X0132890Y0052360D01*
X0132591Y0052210D02*
X0124591Y0060210D01*
X0124591Y0084761D01*
X0127157Y0087328D01*
X0142209Y0087328D01*
X0142980Y0088100D01*
X0148693Y0088100D01*
X0148591Y0087710D01*
X0142012Y0090939D02*
X0140475Y0090939D01*
X0133090Y0094136D02*
X0132690Y0094136D01*
X0132690Y0095734D02*
X0133090Y0095734D01*
X0126476Y0095734D02*
X0123910Y0095734D01*
X0123910Y0094136D02*
X0125420Y0094136D01*
X0190391Y0094136D02*
X0193137Y0094136D01*
X0191736Y0095734D02*
X0190391Y0095734D01*
X0190391Y0097333D02*
X0191150Y0097333D01*
X0191150Y0098931D02*
X0190391Y0098931D01*
X0190391Y0100530D02*
X0191763Y0100530D01*
X0190391Y0102128D02*
X0193201Y0102128D01*
X0238091Y0092210D02*
X0238417Y0092320D01*
X0238091Y0092210D02*
X0238091Y0083210D01*
X0238154Y0082875D01*
X0243303Y0082946D02*
X0255282Y0082946D01*
X0254697Y0082361D02*
X0255868Y0083533D01*
X0259454Y0083533D01*
X0262535Y0086615D01*
X0260326Y0086615D01*
X0260326Y0090494D01*
X0259367Y0090494D01*
X0259367Y0086615D01*
X0256460Y0086615D01*
X0256002Y0086737D01*
X0255592Y0086974D01*
X0255256Y0087309D01*
X0255020Y0087720D01*
X0254897Y0088178D01*
X0254897Y0090494D01*
X0259367Y0090494D01*
X0259367Y0091453D01*
X0254897Y0091453D01*
X0254897Y0093770D01*
X0255020Y0094228D01*
X0255256Y0094638D01*
X0255592Y0094973D01*
X0256002Y0095210D01*
X0256460Y0095333D01*
X0259367Y0095333D01*
X0259367Y0091453D01*
X0260326Y0091453D01*
X0264796Y0091453D01*
X0264796Y0093770D01*
X0264673Y0094228D01*
X0264436Y0094638D01*
X0264101Y0094973D01*
X0263691Y0095210D01*
X0263233Y0095333D01*
X0260326Y0095333D01*
X0260326Y0091453D01*
X0260326Y0090494D01*
X0264796Y0090494D01*
X0264796Y0088875D01*
X0266141Y0090220D01*
X0266141Y0092681D01*
X0265232Y0093590D01*
X0264566Y0095198D01*
X0264566Y0096938D01*
X0265232Y0098546D01*
X0265261Y0098575D01*
X0246372Y0098575D01*
X0245539Y0097742D01*
X0244751Y0096954D01*
X0243722Y0096528D01*
X0242747Y0096528D01*
X0242976Y0096298D01*
X0242976Y0088342D01*
X0242069Y0087434D01*
X0242132Y0087434D01*
X0243303Y0086263D01*
X0243303Y0079488D01*
X0242794Y0078978D01*
X0254697Y0078978D01*
X0254697Y0082361D01*
X0254697Y0081347D02*
X0243303Y0081347D01*
X0243303Y0079749D02*
X0254697Y0079749D01*
X0259846Y0078974D02*
X0260091Y0078710D01*
X0260091Y0070210D01*
X0259768Y0069738D01*
X0260091Y0069210D01*
X0260091Y0049210D01*
X0253591Y0042710D01*
X0253591Y0037210D01*
X0253118Y0036360D01*
X0253091Y0036710D01*
X0240591Y0036710D01*
X0240280Y0036348D01*
X0244839Y0033392D02*
X0248559Y0033392D01*
X0249147Y0031794D02*
X0244262Y0031794D01*
X0257677Y0038188D02*
X0260759Y0038188D01*
X0260770Y0039786D02*
X0257677Y0039786D01*
X0264639Y0039786D02*
X0265598Y0039786D01*
X0265598Y0038188D02*
X0264639Y0038188D01*
X0249606Y0041385D02*
X0243780Y0041385D01*
X0244839Y0039786D02*
X0248559Y0039786D01*
X0250791Y0042983D02*
X0215340Y0042983D01*
X0216938Y0044582D02*
X0251502Y0044582D01*
X0253101Y0046180D02*
X0218537Y0046180D01*
X0220135Y0047779D02*
X0254699Y0047779D01*
X0256298Y0049377D02*
X0221734Y0049377D01*
X0223332Y0050976D02*
X0257291Y0050976D01*
X0257291Y0052574D02*
X0224931Y0052574D01*
X0226529Y0054173D02*
X0257291Y0054173D01*
X0257291Y0055771D02*
X0233898Y0055771D01*
X0235123Y0057370D02*
X0257291Y0057370D01*
X0257291Y0058968D02*
X0235524Y0058968D01*
X0235323Y0060567D02*
X0257291Y0060567D01*
X0257291Y0062165D02*
X0234381Y0062165D01*
X0231546Y0063764D02*
X0257291Y0063764D01*
X0255606Y0065362D02*
X0251647Y0065362D01*
X0252127Y0066961D02*
X0255209Y0066961D01*
X0255209Y0068559D02*
X0252127Y0068559D01*
X0255209Y0070158D02*
X0248247Y0070158D01*
X0247288Y0070158D02*
X0243103Y0070158D01*
X0243103Y0070396D02*
X0238633Y0070396D01*
X0238633Y0066516D01*
X0241540Y0066516D01*
X0241998Y0066639D01*
X0242408Y0066876D01*
X0242744Y0067211D01*
X0242980Y0067621D01*
X0243103Y0068079D01*
X0243103Y0070396D01*
X0243103Y0071756D02*
X0243409Y0071756D01*
X0243471Y0073355D02*
X0243103Y0073355D01*
X0234035Y0074953D02*
X0232733Y0074953D01*
X0233204Y0073355D02*
X0232191Y0073355D01*
X0232191Y0071756D02*
X0233204Y0071756D01*
X0233204Y0070158D02*
X0232191Y0070158D01*
X0232191Y0068559D02*
X0233204Y0068559D01*
X0233814Y0066961D02*
X0232191Y0066961D01*
X0232230Y0065362D02*
X0243889Y0065362D01*
X0243409Y0066961D02*
X0242493Y0066961D01*
X0243103Y0068559D02*
X0243409Y0068559D01*
X0247288Y0068559D02*
X0248247Y0068559D01*
X0248247Y0066961D02*
X0247288Y0066961D01*
X0247288Y0065362D02*
X0248247Y0065362D01*
X0238633Y0066961D02*
X0237674Y0066961D01*
X0237674Y0068559D02*
X0238633Y0068559D01*
X0238633Y0070158D02*
X0237674Y0070158D01*
X0226991Y0073355D02*
X0202478Y0073355D01*
X0233727Y0076552D02*
X0235772Y0076552D01*
X0235354Y0078150D02*
X0233965Y0078150D01*
X0252065Y0073355D02*
X0255209Y0073355D01*
X0255209Y0071756D02*
X0252127Y0071756D01*
X0260465Y0084544D02*
X0243303Y0084544D01*
X0243303Y0086143D02*
X0262064Y0086143D01*
X0260326Y0087741D02*
X0259367Y0087741D01*
X0259367Y0089340D02*
X0260326Y0089340D01*
X0260326Y0090939D02*
X0266141Y0090939D01*
X0266141Y0092537D02*
X0264796Y0092537D01*
X0264698Y0094136D02*
X0265006Y0094136D01*
X0264566Y0095734D02*
X0254769Y0095734D01*
X0254776Y0095707D02*
X0254654Y0096165D01*
X0254417Y0096575D01*
X0254082Y0096910D01*
X0253671Y0097147D01*
X0253213Y0097270D01*
X0250897Y0097270D01*
X0250897Y0092800D01*
X0249938Y0092800D01*
X0249938Y0097270D01*
X0247621Y0097270D01*
X0247163Y0097147D01*
X0246753Y0096910D01*
X0246418Y0096575D01*
X0246181Y0096165D01*
X0246058Y0095707D01*
X0246058Y0092800D01*
X0249938Y0092800D01*
X0249938Y0091841D01*
X0246058Y0091841D01*
X0246058Y0088934D01*
X0246181Y0088476D01*
X0246418Y0088065D01*
X0246753Y0087730D01*
X0247163Y0087493D01*
X0247621Y0087371D01*
X0249938Y0087371D01*
X0249938Y0091841D01*
X0250897Y0091841D01*
X0250897Y0092800D01*
X0254776Y0092800D01*
X0254776Y0095707D01*
X0254776Y0094136D02*
X0254995Y0094136D01*
X0254897Y0092537D02*
X0250897Y0092537D01*
X0250897Y0091841D02*
X0254776Y0091841D01*
X0254776Y0088934D01*
X0254654Y0088476D01*
X0254417Y0088065D01*
X0254082Y0087730D01*
X0253671Y0087493D01*
X0253213Y0087371D01*
X0250897Y0087371D01*
X0250897Y0091841D01*
X0250897Y0090939D02*
X0249938Y0090939D01*
X0249938Y0092537D02*
X0242976Y0092537D01*
X0242976Y0090939D02*
X0246058Y0090939D01*
X0246058Y0089340D02*
X0242976Y0089340D01*
X0242376Y0087741D02*
X0246742Y0087741D01*
X0249938Y0087741D02*
X0250897Y0087741D01*
X0250897Y0089340D02*
X0249938Y0089340D01*
X0254093Y0087741D02*
X0255014Y0087741D01*
X0254897Y0089340D02*
X0254776Y0089340D01*
X0254776Y0090939D02*
X0259367Y0090939D01*
X0259367Y0092537D02*
X0260326Y0092537D01*
X0260326Y0094136D02*
X0259367Y0094136D01*
X0250897Y0094136D02*
X0249938Y0094136D01*
X0249938Y0095734D02*
X0250897Y0095734D01*
X0246066Y0095734D02*
X0242976Y0095734D01*
X0242976Y0094136D02*
X0246058Y0094136D01*
X0245130Y0097333D02*
X0264729Y0097333D01*
X0243604Y0103727D02*
X0243465Y0103727D01*
X0243214Y0105325D02*
X0314089Y0105325D01*
X0339332Y0103727D02*
X0348467Y0103727D01*
X0349713Y0102128D02*
X0341132Y0102128D01*
X0340464Y0102796D02*
X0340464Y0102796D01*
X0333091Y0094210D02*
X0333201Y0093513D01*
X0333591Y0093210D01*
X0326372Y0081347D02*
X0322905Y0081347D01*
X0322691Y0079749D02*
X0325929Y0079749D01*
X0325929Y0078150D02*
X0322691Y0078150D01*
X0322691Y0076552D02*
X0325929Y0076552D01*
X0324861Y0074953D02*
X0322691Y0074953D01*
X0322691Y0073355D02*
X0324375Y0073355D01*
X0323332Y0071756D02*
X0322691Y0071756D01*
X0322691Y0070158D02*
X0323058Y0070158D01*
X0323388Y0068559D02*
X0322691Y0068559D01*
X0322691Y0066961D02*
X0324511Y0066961D01*
X0322691Y0065362D02*
X0329478Y0065362D01*
X0328919Y0063764D02*
X0322691Y0063764D01*
X0322691Y0062165D02*
X0327373Y0062165D01*
X0326826Y0060567D02*
X0322691Y0060567D01*
X0322691Y0058968D02*
X0326882Y0058968D01*
X0327618Y0057370D02*
X0322691Y0057370D01*
X0323706Y0055771D02*
X0329915Y0055771D01*
X0332487Y0055771D02*
X0333852Y0055771D01*
X0335451Y0054173D02*
X0325305Y0054173D01*
X0326903Y0052574D02*
X0337049Y0052574D01*
X0338648Y0050976D02*
X0328502Y0050976D01*
X0330100Y0049377D02*
X0340246Y0049377D01*
X0341845Y0047779D02*
X0331699Y0047779D01*
X0333297Y0046180D02*
X0343443Y0046180D01*
X0345042Y0044582D02*
X0334896Y0044582D01*
X0336494Y0042983D02*
X0346640Y0042983D01*
X0348239Y0041385D02*
X0338093Y0041385D01*
X0339691Y0039786D02*
X0349837Y0039786D01*
X0351436Y0038188D02*
X0341290Y0038188D01*
X0342888Y0036589D02*
X0353034Y0036589D01*
X0354633Y0034991D02*
X0344487Y0034991D01*
X0346085Y0033392D02*
X0355558Y0033392D01*
X0354751Y0031794D02*
X0347684Y0031794D01*
X0349282Y0030195D02*
X0354751Y0030195D01*
X0354751Y0028597D02*
X0350881Y0028597D01*
X0352479Y0026998D02*
X0354751Y0026998D01*
X0354716Y0025400D02*
X0354078Y0025400D01*
X0364292Y0025400D02*
X0366675Y0025400D01*
X0366641Y0023801D02*
X0364457Y0023801D01*
X0364457Y0022203D02*
X0370914Y0022203D01*
X0370914Y0021998D02*
X0366641Y0021998D01*
X0366641Y0019682D01*
X0366764Y0019224D01*
X0367001Y0018813D01*
X0367336Y0018478D01*
X0367746Y0018241D01*
X0368204Y0018119D01*
X0370914Y0018119D01*
X0370914Y0021998D01*
X0371873Y0022203D02*
X0378294Y0022203D01*
X0378294Y0021997D02*
X0382764Y0021997D01*
X0382764Y0021038D01*
X0378294Y0021038D01*
X0378294Y0018721D01*
X0378417Y0018263D01*
X0378654Y0017853D01*
X0378989Y0017518D01*
X0379400Y0017281D01*
X0379858Y0017158D01*
X0382765Y0017158D01*
X0382765Y0021037D01*
X0383724Y0021037D01*
X0383724Y0017158D01*
X0386631Y0017158D01*
X0387088Y0017281D01*
X0387499Y0017518D01*
X0387834Y0017853D01*
X0388071Y0018263D01*
X0388194Y0018721D01*
X0388194Y0021038D01*
X0383724Y0021038D01*
X0383724Y0021997D01*
X0382765Y0021997D01*
X0382765Y0025876D01*
X0379858Y0025876D01*
X0379400Y0025753D01*
X0378989Y0025516D01*
X0378654Y0025181D01*
X0378417Y0024771D01*
X0378294Y0024313D01*
X0378294Y0021997D01*
X0378294Y0020604D02*
X0376146Y0020604D01*
X0375898Y0019005D02*
X0378294Y0019005D01*
X0379181Y0017407D02*
X0363403Y0017407D01*
X0364457Y0019005D02*
X0366890Y0019005D01*
X0366641Y0020604D02*
X0364457Y0020604D01*
X0370914Y0020604D02*
X0371873Y0020604D01*
X0371873Y0019005D02*
X0370914Y0019005D01*
X0382765Y0019005D02*
X0383724Y0019005D01*
X0383724Y0017407D02*
X0382765Y0017407D01*
X0387307Y0017407D02*
X0429271Y0017407D01*
X0429271Y0019005D02*
X0388194Y0019005D01*
X0388194Y0020604D02*
X0429271Y0020604D01*
X0429271Y0022203D02*
X0388194Y0022203D01*
X0388194Y0021997D02*
X0388194Y0024313D01*
X0388071Y0024771D01*
X0387834Y0025181D01*
X0387499Y0025516D01*
X0387088Y0025753D01*
X0386631Y0025876D01*
X0383724Y0025876D01*
X0383724Y0021997D01*
X0388194Y0021997D01*
X0388194Y0023801D02*
X0429271Y0023801D01*
X0429271Y0025400D02*
X0387616Y0025400D01*
X0383724Y0025400D02*
X0382765Y0025400D01*
X0382765Y0023801D02*
X0383724Y0023801D01*
X0383724Y0022203D02*
X0382765Y0022203D01*
X0382765Y0020604D02*
X0383724Y0020604D01*
X0378294Y0023801D02*
X0376146Y0023801D01*
X0376113Y0025400D02*
X0378872Y0025400D01*
X0376346Y0026998D02*
X0429271Y0026998D01*
X0429271Y0028597D02*
X0376346Y0028597D01*
X0376346Y0030195D02*
X0378094Y0030195D01*
X0378094Y0031794D02*
X0376346Y0031794D01*
X0376300Y0033392D02*
X0378094Y0033392D01*
X0378094Y0034991D02*
X0369987Y0034991D01*
X0368388Y0036589D02*
X0378094Y0036589D01*
X0379653Y0038188D02*
X0366790Y0038188D01*
X0367880Y0039786D02*
X0378055Y0039786D01*
X0376456Y0041385D02*
X0368543Y0041385D01*
X0368572Y0042983D02*
X0374858Y0042983D01*
X0373259Y0044582D02*
X0372556Y0044582D01*
X0369625Y0044582D02*
X0368150Y0044582D01*
X0367433Y0046180D02*
X0367096Y0046180D01*
X0366741Y0047779D02*
X0364399Y0047779D01*
X0362144Y0047779D02*
X0354982Y0047779D01*
X0356580Y0046180D02*
X0359447Y0046180D01*
X0353383Y0049377D02*
X0366716Y0049377D01*
X0358365Y0050976D02*
X0351785Y0050976D01*
X0350186Y0052574D02*
X0353909Y0052574D01*
X0351530Y0054173D02*
X0348588Y0054173D01*
X0346989Y0055771D02*
X0350608Y0055771D01*
X0350279Y0057370D02*
X0345391Y0057370D01*
X0343792Y0058968D02*
X0350401Y0058968D01*
X0351063Y0060567D02*
X0342194Y0060567D01*
X0340595Y0062165D02*
X0349675Y0062165D01*
X0348452Y0063764D02*
X0338996Y0063764D01*
X0337398Y0065362D02*
X0348291Y0065362D01*
X0348291Y0066961D02*
X0335799Y0066961D01*
X0334201Y0068559D02*
X0348291Y0068559D01*
X0348291Y0070158D02*
X0332602Y0070158D01*
X0331534Y0071756D02*
X0348291Y0071756D01*
X0347486Y0073355D02*
X0342528Y0073355D01*
X0342528Y0074953D02*
X0345887Y0074953D01*
X0344289Y0076552D02*
X0342528Y0076552D01*
X0342528Y0078150D02*
X0342690Y0078150D01*
X0330488Y0077123D02*
X0327591Y0074226D01*
X0327591Y0070383D01*
X0327433Y0070226D01*
X0328575Y0070226D01*
X0356291Y0042509D01*
X0363272Y0042509D01*
X0363450Y0033392D02*
X0364231Y0033392D01*
X0364257Y0031794D02*
X0365830Y0031794D01*
X0366441Y0030195D02*
X0364257Y0030195D01*
X0364257Y0028597D02*
X0366441Y0028597D01*
X0366441Y0026998D02*
X0364257Y0026998D01*
X0359983Y0030195D02*
X0359024Y0030195D01*
X0359024Y0031794D02*
X0359983Y0031794D01*
X0359983Y0033392D02*
X0359024Y0033392D01*
X0341928Y0030195D02*
X0293980Y0030195D01*
X0294532Y0031794D02*
X0340330Y0031794D01*
X0338731Y0033392D02*
X0294532Y0033392D01*
X0294532Y0034991D02*
X0337133Y0034991D01*
X0335534Y0036589D02*
X0294532Y0036589D01*
X0294732Y0038188D02*
X0333936Y0038188D01*
X0332337Y0039786D02*
X0294732Y0039786D01*
X0294732Y0041385D02*
X0330739Y0041385D01*
X0329140Y0042983D02*
X0294732Y0042983D01*
X0294732Y0044582D02*
X0327542Y0044582D01*
X0325943Y0046180D02*
X0292691Y0046180D01*
X0292801Y0047779D02*
X0324345Y0047779D01*
X0322746Y0049377D02*
X0296909Y0049377D01*
X0298093Y0050976D02*
X0321148Y0050976D01*
X0319549Y0052574D02*
X0298465Y0052574D01*
X0298235Y0054173D02*
X0317951Y0054173D01*
X0318618Y0053506D02*
X0318618Y0053506D01*
X0358454Y0062165D02*
X0371430Y0062165D01*
X0371830Y0062002D02*
X0371830Y0056152D01*
X0374136Y0056152D01*
X0377680Y0059696D01*
X0377680Y0062002D01*
X0371830Y0062002D01*
X0371830Y0060567D02*
X0371430Y0060567D01*
X0371430Y0058968D02*
X0371830Y0058968D01*
X0371830Y0057370D02*
X0371430Y0057370D01*
X0375354Y0057370D02*
X0386291Y0057370D01*
X0384872Y0058968D02*
X0376952Y0058968D01*
X0377680Y0060567D02*
X0383274Y0060567D01*
X0389091Y0058710D02*
X0389091Y0046190D01*
X0290259Y0033392D02*
X0289300Y0033392D01*
X0289300Y0031794D02*
X0290259Y0031794D01*
X0290259Y0030195D02*
X0289300Y0030195D01*
X0228401Y0055771D02*
X0228128Y0055771D01*
X0128895Y0067360D02*
X0127391Y0067983D01*
X0127391Y0066736D01*
X0128895Y0067360D01*
X0127933Y0066961D02*
X0127391Y0066961D01*
X0264796Y0089340D02*
X0265261Y0089340D01*
X0355954Y0118113D02*
X0358150Y0118113D01*
X0373213Y0119712D02*
X0374172Y0119712D01*
X0374172Y0121310D02*
X0373213Y0121310D01*
X0405223Y0142091D02*
X0270435Y0142091D01*
X0254111Y0140492D02*
X0145643Y0140492D01*
X0135884Y0140492D02*
X0123910Y0140492D01*
X0123910Y0138894D02*
X0253487Y0138894D01*
X0252499Y0137295D02*
X0123910Y0137295D01*
X0123910Y0135697D02*
X0250900Y0135697D01*
X0249302Y0134098D02*
X0123910Y0134098D01*
X0123910Y0132500D02*
X0247703Y0132500D01*
X0246105Y0130901D02*
X0123910Y0130901D01*
X0123910Y0129303D02*
X0244506Y0129303D01*
X0242908Y0127704D02*
X0123910Y0127704D01*
X0123910Y0126106D02*
X0241309Y0126106D01*
X0239711Y0124507D02*
X0123910Y0124507D01*
X0123910Y0122909D02*
X0238112Y0122909D01*
X0236732Y0121310D02*
X0123910Y0121310D01*
X0123910Y0142091D02*
X0133570Y0142091D01*
X0132067Y0143689D02*
X0123910Y0143689D01*
X0123910Y0145288D02*
X0131144Y0145288D01*
X0130525Y0146886D02*
X0123910Y0146886D01*
X0123910Y0148485D02*
X0130096Y0148485D01*
X0130058Y0150083D02*
X0123910Y0150083D01*
X0123910Y0151682D02*
X0130121Y0151682D01*
X0151406Y0151682D02*
X0153680Y0151682D01*
X0154081Y0150083D02*
X0151469Y0150083D01*
X0151431Y0148485D02*
X0155212Y0148485D01*
D22*
X0229701Y0122005D03*
X0257850Y0118029D03*
X0239091Y0103848D03*
X0268941Y0096068D03*
X0288634Y0090879D03*
X0324091Y0103210D03*
X0321157Y0119486D03*
X0269551Y0137722D03*
X0257862Y0138115D03*
X0167091Y0105635D03*
X0210091Y0100710D03*
X0222378Y0087399D03*
X0249346Y0082596D03*
X0229591Y0077997D03*
X0269189Y0060076D03*
X0294091Y0052745D03*
X0302299Y0057045D03*
X0331201Y0059974D03*
X0327433Y0070226D03*
X0334020Y0084942D03*
X0231150Y0059210D03*
X0220173Y0034486D03*
X0222091Y0024210D03*
X0275567Y0015234D03*
X0329307Y0018895D03*
X0329189Y0038777D03*
X0371091Y0048710D03*
X0389091Y0046190D03*
X0402654Y0019486D03*
X0161024Y0084123D03*
D23*
X0161024Y0080513D01*
X0153630Y0073119D01*
X0143630Y0073119D01*
X0143220Y0072710D01*
X0133091Y0072710D01*
X0132890Y0072360D01*
X0206354Y0042249D02*
X0229630Y0065525D01*
X0229591Y0065564D01*
X0229591Y0077997D01*
X0282091Y0081710D02*
X0288634Y0088253D01*
X0288634Y0090879D01*
X0318260Y0090879D01*
X0320091Y0092710D01*
X0325091Y0092710D01*
X0325591Y0093210D01*
X0325720Y0093513D01*
X0323091Y0085210D02*
X0333752Y0085210D01*
X0334020Y0084942D01*
X0337969Y0080993D01*
X0337969Y0077123D01*
X0323091Y0085210D02*
X0320091Y0082210D01*
X0320091Y0055710D01*
X0353591Y0022210D01*
X0359091Y0022210D01*
X0359504Y0021848D01*
X0371091Y0030210D02*
X0364591Y0036710D01*
X0356591Y0036710D01*
X0333327Y0059974D01*
X0331201Y0059974D01*
X0294091Y0052745D02*
X0290091Y0048745D01*
X0290091Y0041710D01*
X0289780Y0041533D01*
X0282091Y0038210D02*
X0282091Y0081710D01*
X0239091Y0103848D02*
X0239091Y0120210D01*
X0256996Y0138115D01*
X0257862Y0138115D01*
X0231150Y0059210D02*
X0227890Y0059210D01*
X0209661Y0040982D01*
X0209661Y0033265D01*
X0204583Y0028186D01*
X0204583Y0021336D01*
X0204591Y0021710D01*
X0204591Y0024210D01*
X0206354Y0033895D02*
X0194583Y0022123D01*
X0194583Y0021336D01*
X0194591Y0021710D01*
X0206354Y0033895D02*
X0206354Y0042249D01*
X0258091Y0014210D02*
X0282091Y0038210D01*
X0258091Y0014210D02*
X0256591Y0014210D01*
X0256394Y0014167D01*
X0371091Y0030210D02*
X0371394Y0029958D01*
M02*
