%
M48
M72
T01C0.03150
T02C0.03543
T03C0.03600
T04C0.04000
T05C0.04400
T06C0.09843
T07C0.11811
%
T01
X220173Y34486
X222091Y24210
X275567Y15234
X329307Y18895
X329189Y38777
X371091Y48710
X389091Y46190
X331201Y59974
X302299Y57045
X294091Y52745
X269189Y60076
X231150Y59210
X229591Y77997
X249346Y82596
X222378Y87399
X210091Y100710
X239091Y103848
X268941Y96068
X288634Y90879
X324091Y103210
X321157Y119486
X269551Y137722
X257862Y138115
X229701Y122005
X257850Y118029
X167091Y105635
X161024Y84123
X327433Y70226
X334020Y84942
X402654Y19486
T02
X198693Y38100
X198693Y48100
X198693Y58100
X198693Y68100
X198693Y78100
X198693Y88100
X198693Y98100
X198693Y108100
X148693Y108100
X148693Y98100
X148693Y88100
X148693Y78100
X148693Y68100
X148693Y58100
X148693Y48100
X148693Y38100
T03
X236394Y24167
X246394Y24167
X256394Y24167
X256394Y14167
X246394Y14167
X236394Y14167
X362047Y108135
X372047Y108135
T04
X420291Y94328
X420291Y84328
X420291Y74328
X420291Y64328
X420291Y54328
X420291Y44328
X371630Y62202
X371630Y92202
X204583Y21336
X194583Y21336
X184583Y21336
X174583Y21336
X132890Y42360
X132890Y52360
X132890Y62360
X132890Y72360
X132890Y82360
X132890Y92360
T05
X355579Y97619
X363272Y82509
X355579Y57619
X363272Y42509
T06
X16748Y33895
X16748Y104761
X536433Y104761
X536433Y33895
T07
X412417Y150037
X140764Y150037
M30
