G75*
%MOIN*%
%OFA0B0*%
%FSLAX25Y25*%
%IPPOS*%
%LPD*%
%AMOC8*
5,1,8,0,0,1.08239X$1,22.5*
%
%ADD10C,0.00000*%
D10*
X0001000Y0014210D02*
X0001000Y0124446D01*
X0032496Y0124446D01*
X0032496Y0092950D01*
X0119110Y0092950D01*
X0119110Y0163816D01*
X0158480Y0163816D01*
X0158480Y0152005D01*
X0394701Y0152005D01*
X0394701Y0163816D01*
X0434071Y0163816D01*
X0434071Y0092950D01*
X0520685Y0092950D01*
X0520685Y0124446D01*
X0552181Y0124446D01*
X0552181Y0014210D01*
X0520685Y0014210D01*
X0520685Y0045706D01*
X0434071Y0045706D01*
X0434071Y0002399D01*
X0119110Y0002399D01*
X0119110Y0045706D01*
X0032496Y0045706D01*
X0032496Y0014210D01*
X0001000Y0014210D01*
X0011827Y0033895D02*
X0011829Y0034035D01*
X0011835Y0034175D01*
X0011845Y0034314D01*
X0011859Y0034453D01*
X0011877Y0034592D01*
X0011898Y0034730D01*
X0011924Y0034868D01*
X0011954Y0035005D01*
X0011987Y0035140D01*
X0012025Y0035275D01*
X0012066Y0035409D01*
X0012111Y0035542D01*
X0012159Y0035673D01*
X0012212Y0035802D01*
X0012268Y0035931D01*
X0012327Y0036057D01*
X0012391Y0036182D01*
X0012457Y0036305D01*
X0012528Y0036426D01*
X0012601Y0036545D01*
X0012678Y0036662D01*
X0012759Y0036776D01*
X0012842Y0036888D01*
X0012929Y0036998D01*
X0013019Y0037106D01*
X0013111Y0037210D01*
X0013207Y0037312D01*
X0013306Y0037412D01*
X0013407Y0037508D01*
X0013511Y0037602D01*
X0013618Y0037692D01*
X0013727Y0037779D01*
X0013839Y0037864D01*
X0013953Y0037945D01*
X0014069Y0038023D01*
X0014187Y0038097D01*
X0014308Y0038168D01*
X0014430Y0038236D01*
X0014555Y0038300D01*
X0014681Y0038361D01*
X0014808Y0038418D01*
X0014938Y0038471D01*
X0015069Y0038521D01*
X0015201Y0038566D01*
X0015334Y0038609D01*
X0015469Y0038647D01*
X0015604Y0038681D01*
X0015741Y0038712D01*
X0015878Y0038739D01*
X0016016Y0038761D01*
X0016155Y0038780D01*
X0016294Y0038795D01*
X0016433Y0038806D01*
X0016573Y0038813D01*
X0016713Y0038816D01*
X0016853Y0038815D01*
X0016993Y0038810D01*
X0017132Y0038801D01*
X0017272Y0038788D01*
X0017411Y0038771D01*
X0017549Y0038750D01*
X0017687Y0038726D01*
X0017824Y0038697D01*
X0017960Y0038665D01*
X0018095Y0038628D01*
X0018229Y0038588D01*
X0018362Y0038544D01*
X0018493Y0038496D01*
X0018623Y0038445D01*
X0018752Y0038390D01*
X0018879Y0038331D01*
X0019004Y0038268D01*
X0019127Y0038203D01*
X0019249Y0038133D01*
X0019368Y0038060D01*
X0019486Y0037984D01*
X0019601Y0037905D01*
X0019714Y0037822D01*
X0019824Y0037736D01*
X0019932Y0037647D01*
X0020037Y0037555D01*
X0020140Y0037460D01*
X0020240Y0037362D01*
X0020337Y0037262D01*
X0020431Y0037158D01*
X0020523Y0037052D01*
X0020611Y0036944D01*
X0020696Y0036833D01*
X0020778Y0036719D01*
X0020857Y0036603D01*
X0020932Y0036486D01*
X0021004Y0036366D01*
X0021072Y0036244D01*
X0021137Y0036120D01*
X0021199Y0035994D01*
X0021257Y0035867D01*
X0021311Y0035738D01*
X0021362Y0035607D01*
X0021408Y0035475D01*
X0021451Y0035342D01*
X0021491Y0035208D01*
X0021526Y0035073D01*
X0021558Y0034936D01*
X0021585Y0034799D01*
X0021609Y0034661D01*
X0021629Y0034523D01*
X0021645Y0034384D01*
X0021657Y0034244D01*
X0021665Y0034105D01*
X0021669Y0033965D01*
X0021669Y0033825D01*
X0021665Y0033685D01*
X0021657Y0033546D01*
X0021645Y0033406D01*
X0021629Y0033267D01*
X0021609Y0033129D01*
X0021585Y0032991D01*
X0021558Y0032854D01*
X0021526Y0032717D01*
X0021491Y0032582D01*
X0021451Y0032448D01*
X0021408Y0032315D01*
X0021362Y0032183D01*
X0021311Y0032052D01*
X0021257Y0031923D01*
X0021199Y0031796D01*
X0021137Y0031670D01*
X0021072Y0031546D01*
X0021004Y0031424D01*
X0020932Y0031304D01*
X0020857Y0031187D01*
X0020778Y0031071D01*
X0020696Y0030957D01*
X0020611Y0030846D01*
X0020523Y0030738D01*
X0020431Y0030632D01*
X0020337Y0030528D01*
X0020240Y0030428D01*
X0020140Y0030330D01*
X0020037Y0030235D01*
X0019932Y0030143D01*
X0019824Y0030054D01*
X0019714Y0029968D01*
X0019601Y0029885D01*
X0019486Y0029806D01*
X0019368Y0029730D01*
X0019249Y0029657D01*
X0019127Y0029587D01*
X0019004Y0029522D01*
X0018879Y0029459D01*
X0018752Y0029400D01*
X0018623Y0029345D01*
X0018493Y0029294D01*
X0018362Y0029246D01*
X0018229Y0029202D01*
X0018095Y0029162D01*
X0017960Y0029125D01*
X0017824Y0029093D01*
X0017687Y0029064D01*
X0017549Y0029040D01*
X0017411Y0029019D01*
X0017272Y0029002D01*
X0017132Y0028989D01*
X0016993Y0028980D01*
X0016853Y0028975D01*
X0016713Y0028974D01*
X0016573Y0028977D01*
X0016433Y0028984D01*
X0016294Y0028995D01*
X0016155Y0029010D01*
X0016016Y0029029D01*
X0015878Y0029051D01*
X0015741Y0029078D01*
X0015604Y0029109D01*
X0015469Y0029143D01*
X0015334Y0029181D01*
X0015201Y0029224D01*
X0015069Y0029269D01*
X0014938Y0029319D01*
X0014808Y0029372D01*
X0014681Y0029429D01*
X0014555Y0029490D01*
X0014430Y0029554D01*
X0014308Y0029622D01*
X0014187Y0029693D01*
X0014069Y0029767D01*
X0013953Y0029845D01*
X0013839Y0029926D01*
X0013727Y0030011D01*
X0013618Y0030098D01*
X0013511Y0030188D01*
X0013407Y0030282D01*
X0013306Y0030378D01*
X0013207Y0030478D01*
X0013111Y0030580D01*
X0013019Y0030684D01*
X0012929Y0030792D01*
X0012842Y0030902D01*
X0012759Y0031014D01*
X0012678Y0031128D01*
X0012601Y0031245D01*
X0012528Y0031364D01*
X0012457Y0031485D01*
X0012391Y0031608D01*
X0012327Y0031733D01*
X0012268Y0031859D01*
X0012212Y0031988D01*
X0012159Y0032117D01*
X0012111Y0032248D01*
X0012066Y0032381D01*
X0012025Y0032515D01*
X0011987Y0032650D01*
X0011954Y0032785D01*
X0011924Y0032922D01*
X0011898Y0033060D01*
X0011877Y0033198D01*
X0011859Y0033337D01*
X0011845Y0033476D01*
X0011835Y0033615D01*
X0011829Y0033755D01*
X0011827Y0033895D01*
X0011827Y0104761D02*
X0011829Y0104901D01*
X0011835Y0105041D01*
X0011845Y0105180D01*
X0011859Y0105319D01*
X0011877Y0105458D01*
X0011898Y0105596D01*
X0011924Y0105734D01*
X0011954Y0105871D01*
X0011987Y0106006D01*
X0012025Y0106141D01*
X0012066Y0106275D01*
X0012111Y0106408D01*
X0012159Y0106539D01*
X0012212Y0106668D01*
X0012268Y0106797D01*
X0012327Y0106923D01*
X0012391Y0107048D01*
X0012457Y0107171D01*
X0012528Y0107292D01*
X0012601Y0107411D01*
X0012678Y0107528D01*
X0012759Y0107642D01*
X0012842Y0107754D01*
X0012929Y0107864D01*
X0013019Y0107972D01*
X0013111Y0108076D01*
X0013207Y0108178D01*
X0013306Y0108278D01*
X0013407Y0108374D01*
X0013511Y0108468D01*
X0013618Y0108558D01*
X0013727Y0108645D01*
X0013839Y0108730D01*
X0013953Y0108811D01*
X0014069Y0108889D01*
X0014187Y0108963D01*
X0014308Y0109034D01*
X0014430Y0109102D01*
X0014555Y0109166D01*
X0014681Y0109227D01*
X0014808Y0109284D01*
X0014938Y0109337D01*
X0015069Y0109387D01*
X0015201Y0109432D01*
X0015334Y0109475D01*
X0015469Y0109513D01*
X0015604Y0109547D01*
X0015741Y0109578D01*
X0015878Y0109605D01*
X0016016Y0109627D01*
X0016155Y0109646D01*
X0016294Y0109661D01*
X0016433Y0109672D01*
X0016573Y0109679D01*
X0016713Y0109682D01*
X0016853Y0109681D01*
X0016993Y0109676D01*
X0017132Y0109667D01*
X0017272Y0109654D01*
X0017411Y0109637D01*
X0017549Y0109616D01*
X0017687Y0109592D01*
X0017824Y0109563D01*
X0017960Y0109531D01*
X0018095Y0109494D01*
X0018229Y0109454D01*
X0018362Y0109410D01*
X0018493Y0109362D01*
X0018623Y0109311D01*
X0018752Y0109256D01*
X0018879Y0109197D01*
X0019004Y0109134D01*
X0019127Y0109069D01*
X0019249Y0108999D01*
X0019368Y0108926D01*
X0019486Y0108850D01*
X0019601Y0108771D01*
X0019714Y0108688D01*
X0019824Y0108602D01*
X0019932Y0108513D01*
X0020037Y0108421D01*
X0020140Y0108326D01*
X0020240Y0108228D01*
X0020337Y0108128D01*
X0020431Y0108024D01*
X0020523Y0107918D01*
X0020611Y0107810D01*
X0020696Y0107699D01*
X0020778Y0107585D01*
X0020857Y0107469D01*
X0020932Y0107352D01*
X0021004Y0107232D01*
X0021072Y0107110D01*
X0021137Y0106986D01*
X0021199Y0106860D01*
X0021257Y0106733D01*
X0021311Y0106604D01*
X0021362Y0106473D01*
X0021408Y0106341D01*
X0021451Y0106208D01*
X0021491Y0106074D01*
X0021526Y0105939D01*
X0021558Y0105802D01*
X0021585Y0105665D01*
X0021609Y0105527D01*
X0021629Y0105389D01*
X0021645Y0105250D01*
X0021657Y0105110D01*
X0021665Y0104971D01*
X0021669Y0104831D01*
X0021669Y0104691D01*
X0021665Y0104551D01*
X0021657Y0104412D01*
X0021645Y0104272D01*
X0021629Y0104133D01*
X0021609Y0103995D01*
X0021585Y0103857D01*
X0021558Y0103720D01*
X0021526Y0103583D01*
X0021491Y0103448D01*
X0021451Y0103314D01*
X0021408Y0103181D01*
X0021362Y0103049D01*
X0021311Y0102918D01*
X0021257Y0102789D01*
X0021199Y0102662D01*
X0021137Y0102536D01*
X0021072Y0102412D01*
X0021004Y0102290D01*
X0020932Y0102170D01*
X0020857Y0102053D01*
X0020778Y0101937D01*
X0020696Y0101823D01*
X0020611Y0101712D01*
X0020523Y0101604D01*
X0020431Y0101498D01*
X0020337Y0101394D01*
X0020240Y0101294D01*
X0020140Y0101196D01*
X0020037Y0101101D01*
X0019932Y0101009D01*
X0019824Y0100920D01*
X0019714Y0100834D01*
X0019601Y0100751D01*
X0019486Y0100672D01*
X0019368Y0100596D01*
X0019249Y0100523D01*
X0019127Y0100453D01*
X0019004Y0100388D01*
X0018879Y0100325D01*
X0018752Y0100266D01*
X0018623Y0100211D01*
X0018493Y0100160D01*
X0018362Y0100112D01*
X0018229Y0100068D01*
X0018095Y0100028D01*
X0017960Y0099991D01*
X0017824Y0099959D01*
X0017687Y0099930D01*
X0017549Y0099906D01*
X0017411Y0099885D01*
X0017272Y0099868D01*
X0017132Y0099855D01*
X0016993Y0099846D01*
X0016853Y0099841D01*
X0016713Y0099840D01*
X0016573Y0099843D01*
X0016433Y0099850D01*
X0016294Y0099861D01*
X0016155Y0099876D01*
X0016016Y0099895D01*
X0015878Y0099917D01*
X0015741Y0099944D01*
X0015604Y0099975D01*
X0015469Y0100009D01*
X0015334Y0100047D01*
X0015201Y0100090D01*
X0015069Y0100135D01*
X0014938Y0100185D01*
X0014808Y0100238D01*
X0014681Y0100295D01*
X0014555Y0100356D01*
X0014430Y0100420D01*
X0014308Y0100488D01*
X0014187Y0100559D01*
X0014069Y0100633D01*
X0013953Y0100711D01*
X0013839Y0100792D01*
X0013727Y0100877D01*
X0013618Y0100964D01*
X0013511Y0101054D01*
X0013407Y0101148D01*
X0013306Y0101244D01*
X0013207Y0101344D01*
X0013111Y0101446D01*
X0013019Y0101550D01*
X0012929Y0101658D01*
X0012842Y0101768D01*
X0012759Y0101880D01*
X0012678Y0101994D01*
X0012601Y0102111D01*
X0012528Y0102230D01*
X0012457Y0102351D01*
X0012391Y0102474D01*
X0012327Y0102599D01*
X0012268Y0102725D01*
X0012212Y0102854D01*
X0012159Y0102983D01*
X0012111Y0103114D01*
X0012066Y0103247D01*
X0012025Y0103381D01*
X0011987Y0103516D01*
X0011954Y0103651D01*
X0011924Y0103788D01*
X0011898Y0103926D01*
X0011877Y0104064D01*
X0011859Y0104203D01*
X0011845Y0104342D01*
X0011835Y0104481D01*
X0011829Y0104621D01*
X0011827Y0104761D01*
X0134858Y0150037D02*
X0134860Y0150190D01*
X0134866Y0150344D01*
X0134876Y0150497D01*
X0134890Y0150649D01*
X0134908Y0150802D01*
X0134930Y0150953D01*
X0134955Y0151104D01*
X0134985Y0151255D01*
X0135019Y0151405D01*
X0135056Y0151553D01*
X0135097Y0151701D01*
X0135142Y0151847D01*
X0135191Y0151993D01*
X0135244Y0152137D01*
X0135300Y0152279D01*
X0135360Y0152420D01*
X0135424Y0152560D01*
X0135491Y0152698D01*
X0135562Y0152834D01*
X0135637Y0152968D01*
X0135714Y0153100D01*
X0135796Y0153230D01*
X0135880Y0153358D01*
X0135968Y0153484D01*
X0136059Y0153607D01*
X0136153Y0153728D01*
X0136251Y0153846D01*
X0136351Y0153962D01*
X0136455Y0154075D01*
X0136561Y0154186D01*
X0136670Y0154294D01*
X0136782Y0154399D01*
X0136896Y0154500D01*
X0137014Y0154599D01*
X0137133Y0154695D01*
X0137255Y0154788D01*
X0137380Y0154877D01*
X0137507Y0154964D01*
X0137636Y0155046D01*
X0137767Y0155126D01*
X0137900Y0155202D01*
X0138035Y0155275D01*
X0138172Y0155344D01*
X0138311Y0155409D01*
X0138451Y0155471D01*
X0138593Y0155529D01*
X0138736Y0155584D01*
X0138881Y0155635D01*
X0139027Y0155682D01*
X0139174Y0155725D01*
X0139322Y0155764D01*
X0139471Y0155800D01*
X0139621Y0155831D01*
X0139772Y0155859D01*
X0139923Y0155883D01*
X0140076Y0155903D01*
X0140228Y0155919D01*
X0140381Y0155931D01*
X0140534Y0155939D01*
X0140687Y0155943D01*
X0140841Y0155943D01*
X0140994Y0155939D01*
X0141147Y0155931D01*
X0141300Y0155919D01*
X0141452Y0155903D01*
X0141605Y0155883D01*
X0141756Y0155859D01*
X0141907Y0155831D01*
X0142057Y0155800D01*
X0142206Y0155764D01*
X0142354Y0155725D01*
X0142501Y0155682D01*
X0142647Y0155635D01*
X0142792Y0155584D01*
X0142935Y0155529D01*
X0143077Y0155471D01*
X0143217Y0155409D01*
X0143356Y0155344D01*
X0143493Y0155275D01*
X0143628Y0155202D01*
X0143761Y0155126D01*
X0143892Y0155046D01*
X0144021Y0154964D01*
X0144148Y0154877D01*
X0144273Y0154788D01*
X0144395Y0154695D01*
X0144514Y0154599D01*
X0144632Y0154500D01*
X0144746Y0154399D01*
X0144858Y0154294D01*
X0144967Y0154186D01*
X0145073Y0154075D01*
X0145177Y0153962D01*
X0145277Y0153846D01*
X0145375Y0153728D01*
X0145469Y0153607D01*
X0145560Y0153484D01*
X0145648Y0153358D01*
X0145732Y0153230D01*
X0145814Y0153100D01*
X0145891Y0152968D01*
X0145966Y0152834D01*
X0146037Y0152698D01*
X0146104Y0152560D01*
X0146168Y0152420D01*
X0146228Y0152279D01*
X0146284Y0152137D01*
X0146337Y0151993D01*
X0146386Y0151847D01*
X0146431Y0151701D01*
X0146472Y0151553D01*
X0146509Y0151405D01*
X0146543Y0151255D01*
X0146573Y0151104D01*
X0146598Y0150953D01*
X0146620Y0150802D01*
X0146638Y0150649D01*
X0146652Y0150497D01*
X0146662Y0150344D01*
X0146668Y0150190D01*
X0146670Y0150037D01*
X0146668Y0149884D01*
X0146662Y0149730D01*
X0146652Y0149577D01*
X0146638Y0149425D01*
X0146620Y0149272D01*
X0146598Y0149121D01*
X0146573Y0148970D01*
X0146543Y0148819D01*
X0146509Y0148669D01*
X0146472Y0148521D01*
X0146431Y0148373D01*
X0146386Y0148227D01*
X0146337Y0148081D01*
X0146284Y0147937D01*
X0146228Y0147795D01*
X0146168Y0147654D01*
X0146104Y0147514D01*
X0146037Y0147376D01*
X0145966Y0147240D01*
X0145891Y0147106D01*
X0145814Y0146974D01*
X0145732Y0146844D01*
X0145648Y0146716D01*
X0145560Y0146590D01*
X0145469Y0146467D01*
X0145375Y0146346D01*
X0145277Y0146228D01*
X0145177Y0146112D01*
X0145073Y0145999D01*
X0144967Y0145888D01*
X0144858Y0145780D01*
X0144746Y0145675D01*
X0144632Y0145574D01*
X0144514Y0145475D01*
X0144395Y0145379D01*
X0144273Y0145286D01*
X0144148Y0145197D01*
X0144021Y0145110D01*
X0143892Y0145028D01*
X0143761Y0144948D01*
X0143628Y0144872D01*
X0143493Y0144799D01*
X0143356Y0144730D01*
X0143217Y0144665D01*
X0143077Y0144603D01*
X0142935Y0144545D01*
X0142792Y0144490D01*
X0142647Y0144439D01*
X0142501Y0144392D01*
X0142354Y0144349D01*
X0142206Y0144310D01*
X0142057Y0144274D01*
X0141907Y0144243D01*
X0141756Y0144215D01*
X0141605Y0144191D01*
X0141452Y0144171D01*
X0141300Y0144155D01*
X0141147Y0144143D01*
X0140994Y0144135D01*
X0140841Y0144131D01*
X0140687Y0144131D01*
X0140534Y0144135D01*
X0140381Y0144143D01*
X0140228Y0144155D01*
X0140076Y0144171D01*
X0139923Y0144191D01*
X0139772Y0144215D01*
X0139621Y0144243D01*
X0139471Y0144274D01*
X0139322Y0144310D01*
X0139174Y0144349D01*
X0139027Y0144392D01*
X0138881Y0144439D01*
X0138736Y0144490D01*
X0138593Y0144545D01*
X0138451Y0144603D01*
X0138311Y0144665D01*
X0138172Y0144730D01*
X0138035Y0144799D01*
X0137900Y0144872D01*
X0137767Y0144948D01*
X0137636Y0145028D01*
X0137507Y0145110D01*
X0137380Y0145197D01*
X0137255Y0145286D01*
X0137133Y0145379D01*
X0137014Y0145475D01*
X0136896Y0145574D01*
X0136782Y0145675D01*
X0136670Y0145780D01*
X0136561Y0145888D01*
X0136455Y0145999D01*
X0136351Y0146112D01*
X0136251Y0146228D01*
X0136153Y0146346D01*
X0136059Y0146467D01*
X0135968Y0146590D01*
X0135880Y0146716D01*
X0135796Y0146844D01*
X0135714Y0146974D01*
X0135637Y0147106D01*
X0135562Y0147240D01*
X0135491Y0147376D01*
X0135424Y0147514D01*
X0135360Y0147654D01*
X0135300Y0147795D01*
X0135244Y0147937D01*
X0135191Y0148081D01*
X0135142Y0148227D01*
X0135097Y0148373D01*
X0135056Y0148521D01*
X0135019Y0148669D01*
X0134985Y0148819D01*
X0134955Y0148970D01*
X0134930Y0149121D01*
X0134908Y0149272D01*
X0134890Y0149425D01*
X0134876Y0149577D01*
X0134866Y0149730D01*
X0134860Y0149884D01*
X0134858Y0150037D01*
X0406511Y0150037D02*
X0406513Y0150190D01*
X0406519Y0150344D01*
X0406529Y0150497D01*
X0406543Y0150649D01*
X0406561Y0150802D01*
X0406583Y0150953D01*
X0406608Y0151104D01*
X0406638Y0151255D01*
X0406672Y0151405D01*
X0406709Y0151553D01*
X0406750Y0151701D01*
X0406795Y0151847D01*
X0406844Y0151993D01*
X0406897Y0152137D01*
X0406953Y0152279D01*
X0407013Y0152420D01*
X0407077Y0152560D01*
X0407144Y0152698D01*
X0407215Y0152834D01*
X0407290Y0152968D01*
X0407367Y0153100D01*
X0407449Y0153230D01*
X0407533Y0153358D01*
X0407621Y0153484D01*
X0407712Y0153607D01*
X0407806Y0153728D01*
X0407904Y0153846D01*
X0408004Y0153962D01*
X0408108Y0154075D01*
X0408214Y0154186D01*
X0408323Y0154294D01*
X0408435Y0154399D01*
X0408549Y0154500D01*
X0408667Y0154599D01*
X0408786Y0154695D01*
X0408908Y0154788D01*
X0409033Y0154877D01*
X0409160Y0154964D01*
X0409289Y0155046D01*
X0409420Y0155126D01*
X0409553Y0155202D01*
X0409688Y0155275D01*
X0409825Y0155344D01*
X0409964Y0155409D01*
X0410104Y0155471D01*
X0410246Y0155529D01*
X0410389Y0155584D01*
X0410534Y0155635D01*
X0410680Y0155682D01*
X0410827Y0155725D01*
X0410975Y0155764D01*
X0411124Y0155800D01*
X0411274Y0155831D01*
X0411425Y0155859D01*
X0411576Y0155883D01*
X0411729Y0155903D01*
X0411881Y0155919D01*
X0412034Y0155931D01*
X0412187Y0155939D01*
X0412340Y0155943D01*
X0412494Y0155943D01*
X0412647Y0155939D01*
X0412800Y0155931D01*
X0412953Y0155919D01*
X0413105Y0155903D01*
X0413258Y0155883D01*
X0413409Y0155859D01*
X0413560Y0155831D01*
X0413710Y0155800D01*
X0413859Y0155764D01*
X0414007Y0155725D01*
X0414154Y0155682D01*
X0414300Y0155635D01*
X0414445Y0155584D01*
X0414588Y0155529D01*
X0414730Y0155471D01*
X0414870Y0155409D01*
X0415009Y0155344D01*
X0415146Y0155275D01*
X0415281Y0155202D01*
X0415414Y0155126D01*
X0415545Y0155046D01*
X0415674Y0154964D01*
X0415801Y0154877D01*
X0415926Y0154788D01*
X0416048Y0154695D01*
X0416167Y0154599D01*
X0416285Y0154500D01*
X0416399Y0154399D01*
X0416511Y0154294D01*
X0416620Y0154186D01*
X0416726Y0154075D01*
X0416830Y0153962D01*
X0416930Y0153846D01*
X0417028Y0153728D01*
X0417122Y0153607D01*
X0417213Y0153484D01*
X0417301Y0153358D01*
X0417385Y0153230D01*
X0417467Y0153100D01*
X0417544Y0152968D01*
X0417619Y0152834D01*
X0417690Y0152698D01*
X0417757Y0152560D01*
X0417821Y0152420D01*
X0417881Y0152279D01*
X0417937Y0152137D01*
X0417990Y0151993D01*
X0418039Y0151847D01*
X0418084Y0151701D01*
X0418125Y0151553D01*
X0418162Y0151405D01*
X0418196Y0151255D01*
X0418226Y0151104D01*
X0418251Y0150953D01*
X0418273Y0150802D01*
X0418291Y0150649D01*
X0418305Y0150497D01*
X0418315Y0150344D01*
X0418321Y0150190D01*
X0418323Y0150037D01*
X0418321Y0149884D01*
X0418315Y0149730D01*
X0418305Y0149577D01*
X0418291Y0149425D01*
X0418273Y0149272D01*
X0418251Y0149121D01*
X0418226Y0148970D01*
X0418196Y0148819D01*
X0418162Y0148669D01*
X0418125Y0148521D01*
X0418084Y0148373D01*
X0418039Y0148227D01*
X0417990Y0148081D01*
X0417937Y0147937D01*
X0417881Y0147795D01*
X0417821Y0147654D01*
X0417757Y0147514D01*
X0417690Y0147376D01*
X0417619Y0147240D01*
X0417544Y0147106D01*
X0417467Y0146974D01*
X0417385Y0146844D01*
X0417301Y0146716D01*
X0417213Y0146590D01*
X0417122Y0146467D01*
X0417028Y0146346D01*
X0416930Y0146228D01*
X0416830Y0146112D01*
X0416726Y0145999D01*
X0416620Y0145888D01*
X0416511Y0145780D01*
X0416399Y0145675D01*
X0416285Y0145574D01*
X0416167Y0145475D01*
X0416048Y0145379D01*
X0415926Y0145286D01*
X0415801Y0145197D01*
X0415674Y0145110D01*
X0415545Y0145028D01*
X0415414Y0144948D01*
X0415281Y0144872D01*
X0415146Y0144799D01*
X0415009Y0144730D01*
X0414870Y0144665D01*
X0414730Y0144603D01*
X0414588Y0144545D01*
X0414445Y0144490D01*
X0414300Y0144439D01*
X0414154Y0144392D01*
X0414007Y0144349D01*
X0413859Y0144310D01*
X0413710Y0144274D01*
X0413560Y0144243D01*
X0413409Y0144215D01*
X0413258Y0144191D01*
X0413105Y0144171D01*
X0412953Y0144155D01*
X0412800Y0144143D01*
X0412647Y0144135D01*
X0412494Y0144131D01*
X0412340Y0144131D01*
X0412187Y0144135D01*
X0412034Y0144143D01*
X0411881Y0144155D01*
X0411729Y0144171D01*
X0411576Y0144191D01*
X0411425Y0144215D01*
X0411274Y0144243D01*
X0411124Y0144274D01*
X0410975Y0144310D01*
X0410827Y0144349D01*
X0410680Y0144392D01*
X0410534Y0144439D01*
X0410389Y0144490D01*
X0410246Y0144545D01*
X0410104Y0144603D01*
X0409964Y0144665D01*
X0409825Y0144730D01*
X0409688Y0144799D01*
X0409553Y0144872D01*
X0409420Y0144948D01*
X0409289Y0145028D01*
X0409160Y0145110D01*
X0409033Y0145197D01*
X0408908Y0145286D01*
X0408786Y0145379D01*
X0408667Y0145475D01*
X0408549Y0145574D01*
X0408435Y0145675D01*
X0408323Y0145780D01*
X0408214Y0145888D01*
X0408108Y0145999D01*
X0408004Y0146112D01*
X0407904Y0146228D01*
X0407806Y0146346D01*
X0407712Y0146467D01*
X0407621Y0146590D01*
X0407533Y0146716D01*
X0407449Y0146844D01*
X0407367Y0146974D01*
X0407290Y0147106D01*
X0407215Y0147240D01*
X0407144Y0147376D01*
X0407077Y0147514D01*
X0407013Y0147654D01*
X0406953Y0147795D01*
X0406897Y0147937D01*
X0406844Y0148081D01*
X0406795Y0148227D01*
X0406750Y0148373D01*
X0406709Y0148521D01*
X0406672Y0148669D01*
X0406638Y0148819D01*
X0406608Y0148970D01*
X0406583Y0149121D01*
X0406561Y0149272D01*
X0406543Y0149425D01*
X0406529Y0149577D01*
X0406519Y0149730D01*
X0406513Y0149884D01*
X0406511Y0150037D01*
X0531512Y0104761D02*
X0531514Y0104901D01*
X0531520Y0105041D01*
X0531530Y0105180D01*
X0531544Y0105319D01*
X0531562Y0105458D01*
X0531583Y0105596D01*
X0531609Y0105734D01*
X0531639Y0105871D01*
X0531672Y0106006D01*
X0531710Y0106141D01*
X0531751Y0106275D01*
X0531796Y0106408D01*
X0531844Y0106539D01*
X0531897Y0106668D01*
X0531953Y0106797D01*
X0532012Y0106923D01*
X0532076Y0107048D01*
X0532142Y0107171D01*
X0532213Y0107292D01*
X0532286Y0107411D01*
X0532363Y0107528D01*
X0532444Y0107642D01*
X0532527Y0107754D01*
X0532614Y0107864D01*
X0532704Y0107972D01*
X0532796Y0108076D01*
X0532892Y0108178D01*
X0532991Y0108278D01*
X0533092Y0108374D01*
X0533196Y0108468D01*
X0533303Y0108558D01*
X0533412Y0108645D01*
X0533524Y0108730D01*
X0533638Y0108811D01*
X0533754Y0108889D01*
X0533872Y0108963D01*
X0533993Y0109034D01*
X0534115Y0109102D01*
X0534240Y0109166D01*
X0534366Y0109227D01*
X0534493Y0109284D01*
X0534623Y0109337D01*
X0534754Y0109387D01*
X0534886Y0109432D01*
X0535019Y0109475D01*
X0535154Y0109513D01*
X0535289Y0109547D01*
X0535426Y0109578D01*
X0535563Y0109605D01*
X0535701Y0109627D01*
X0535840Y0109646D01*
X0535979Y0109661D01*
X0536118Y0109672D01*
X0536258Y0109679D01*
X0536398Y0109682D01*
X0536538Y0109681D01*
X0536678Y0109676D01*
X0536817Y0109667D01*
X0536957Y0109654D01*
X0537096Y0109637D01*
X0537234Y0109616D01*
X0537372Y0109592D01*
X0537509Y0109563D01*
X0537645Y0109531D01*
X0537780Y0109494D01*
X0537914Y0109454D01*
X0538047Y0109410D01*
X0538178Y0109362D01*
X0538308Y0109311D01*
X0538437Y0109256D01*
X0538564Y0109197D01*
X0538689Y0109134D01*
X0538812Y0109069D01*
X0538934Y0108999D01*
X0539053Y0108926D01*
X0539171Y0108850D01*
X0539286Y0108771D01*
X0539399Y0108688D01*
X0539509Y0108602D01*
X0539617Y0108513D01*
X0539722Y0108421D01*
X0539825Y0108326D01*
X0539925Y0108228D01*
X0540022Y0108128D01*
X0540116Y0108024D01*
X0540208Y0107918D01*
X0540296Y0107810D01*
X0540381Y0107699D01*
X0540463Y0107585D01*
X0540542Y0107469D01*
X0540617Y0107352D01*
X0540689Y0107232D01*
X0540757Y0107110D01*
X0540822Y0106986D01*
X0540884Y0106860D01*
X0540942Y0106733D01*
X0540996Y0106604D01*
X0541047Y0106473D01*
X0541093Y0106341D01*
X0541136Y0106208D01*
X0541176Y0106074D01*
X0541211Y0105939D01*
X0541243Y0105802D01*
X0541270Y0105665D01*
X0541294Y0105527D01*
X0541314Y0105389D01*
X0541330Y0105250D01*
X0541342Y0105110D01*
X0541350Y0104971D01*
X0541354Y0104831D01*
X0541354Y0104691D01*
X0541350Y0104551D01*
X0541342Y0104412D01*
X0541330Y0104272D01*
X0541314Y0104133D01*
X0541294Y0103995D01*
X0541270Y0103857D01*
X0541243Y0103720D01*
X0541211Y0103583D01*
X0541176Y0103448D01*
X0541136Y0103314D01*
X0541093Y0103181D01*
X0541047Y0103049D01*
X0540996Y0102918D01*
X0540942Y0102789D01*
X0540884Y0102662D01*
X0540822Y0102536D01*
X0540757Y0102412D01*
X0540689Y0102290D01*
X0540617Y0102170D01*
X0540542Y0102053D01*
X0540463Y0101937D01*
X0540381Y0101823D01*
X0540296Y0101712D01*
X0540208Y0101604D01*
X0540116Y0101498D01*
X0540022Y0101394D01*
X0539925Y0101294D01*
X0539825Y0101196D01*
X0539722Y0101101D01*
X0539617Y0101009D01*
X0539509Y0100920D01*
X0539399Y0100834D01*
X0539286Y0100751D01*
X0539171Y0100672D01*
X0539053Y0100596D01*
X0538934Y0100523D01*
X0538812Y0100453D01*
X0538689Y0100388D01*
X0538564Y0100325D01*
X0538437Y0100266D01*
X0538308Y0100211D01*
X0538178Y0100160D01*
X0538047Y0100112D01*
X0537914Y0100068D01*
X0537780Y0100028D01*
X0537645Y0099991D01*
X0537509Y0099959D01*
X0537372Y0099930D01*
X0537234Y0099906D01*
X0537096Y0099885D01*
X0536957Y0099868D01*
X0536817Y0099855D01*
X0536678Y0099846D01*
X0536538Y0099841D01*
X0536398Y0099840D01*
X0536258Y0099843D01*
X0536118Y0099850D01*
X0535979Y0099861D01*
X0535840Y0099876D01*
X0535701Y0099895D01*
X0535563Y0099917D01*
X0535426Y0099944D01*
X0535289Y0099975D01*
X0535154Y0100009D01*
X0535019Y0100047D01*
X0534886Y0100090D01*
X0534754Y0100135D01*
X0534623Y0100185D01*
X0534493Y0100238D01*
X0534366Y0100295D01*
X0534240Y0100356D01*
X0534115Y0100420D01*
X0533993Y0100488D01*
X0533872Y0100559D01*
X0533754Y0100633D01*
X0533638Y0100711D01*
X0533524Y0100792D01*
X0533412Y0100877D01*
X0533303Y0100964D01*
X0533196Y0101054D01*
X0533092Y0101148D01*
X0532991Y0101244D01*
X0532892Y0101344D01*
X0532796Y0101446D01*
X0532704Y0101550D01*
X0532614Y0101658D01*
X0532527Y0101768D01*
X0532444Y0101880D01*
X0532363Y0101994D01*
X0532286Y0102111D01*
X0532213Y0102230D01*
X0532142Y0102351D01*
X0532076Y0102474D01*
X0532012Y0102599D01*
X0531953Y0102725D01*
X0531897Y0102854D01*
X0531844Y0102983D01*
X0531796Y0103114D01*
X0531751Y0103247D01*
X0531710Y0103381D01*
X0531672Y0103516D01*
X0531639Y0103651D01*
X0531609Y0103788D01*
X0531583Y0103926D01*
X0531562Y0104064D01*
X0531544Y0104203D01*
X0531530Y0104342D01*
X0531520Y0104481D01*
X0531514Y0104621D01*
X0531512Y0104761D01*
X0531512Y0033895D02*
X0531514Y0034035D01*
X0531520Y0034175D01*
X0531530Y0034314D01*
X0531544Y0034453D01*
X0531562Y0034592D01*
X0531583Y0034730D01*
X0531609Y0034868D01*
X0531639Y0035005D01*
X0531672Y0035140D01*
X0531710Y0035275D01*
X0531751Y0035409D01*
X0531796Y0035542D01*
X0531844Y0035673D01*
X0531897Y0035802D01*
X0531953Y0035931D01*
X0532012Y0036057D01*
X0532076Y0036182D01*
X0532142Y0036305D01*
X0532213Y0036426D01*
X0532286Y0036545D01*
X0532363Y0036662D01*
X0532444Y0036776D01*
X0532527Y0036888D01*
X0532614Y0036998D01*
X0532704Y0037106D01*
X0532796Y0037210D01*
X0532892Y0037312D01*
X0532991Y0037412D01*
X0533092Y0037508D01*
X0533196Y0037602D01*
X0533303Y0037692D01*
X0533412Y0037779D01*
X0533524Y0037864D01*
X0533638Y0037945D01*
X0533754Y0038023D01*
X0533872Y0038097D01*
X0533993Y0038168D01*
X0534115Y0038236D01*
X0534240Y0038300D01*
X0534366Y0038361D01*
X0534493Y0038418D01*
X0534623Y0038471D01*
X0534754Y0038521D01*
X0534886Y0038566D01*
X0535019Y0038609D01*
X0535154Y0038647D01*
X0535289Y0038681D01*
X0535426Y0038712D01*
X0535563Y0038739D01*
X0535701Y0038761D01*
X0535840Y0038780D01*
X0535979Y0038795D01*
X0536118Y0038806D01*
X0536258Y0038813D01*
X0536398Y0038816D01*
X0536538Y0038815D01*
X0536678Y0038810D01*
X0536817Y0038801D01*
X0536957Y0038788D01*
X0537096Y0038771D01*
X0537234Y0038750D01*
X0537372Y0038726D01*
X0537509Y0038697D01*
X0537645Y0038665D01*
X0537780Y0038628D01*
X0537914Y0038588D01*
X0538047Y0038544D01*
X0538178Y0038496D01*
X0538308Y0038445D01*
X0538437Y0038390D01*
X0538564Y0038331D01*
X0538689Y0038268D01*
X0538812Y0038203D01*
X0538934Y0038133D01*
X0539053Y0038060D01*
X0539171Y0037984D01*
X0539286Y0037905D01*
X0539399Y0037822D01*
X0539509Y0037736D01*
X0539617Y0037647D01*
X0539722Y0037555D01*
X0539825Y0037460D01*
X0539925Y0037362D01*
X0540022Y0037262D01*
X0540116Y0037158D01*
X0540208Y0037052D01*
X0540296Y0036944D01*
X0540381Y0036833D01*
X0540463Y0036719D01*
X0540542Y0036603D01*
X0540617Y0036486D01*
X0540689Y0036366D01*
X0540757Y0036244D01*
X0540822Y0036120D01*
X0540884Y0035994D01*
X0540942Y0035867D01*
X0540996Y0035738D01*
X0541047Y0035607D01*
X0541093Y0035475D01*
X0541136Y0035342D01*
X0541176Y0035208D01*
X0541211Y0035073D01*
X0541243Y0034936D01*
X0541270Y0034799D01*
X0541294Y0034661D01*
X0541314Y0034523D01*
X0541330Y0034384D01*
X0541342Y0034244D01*
X0541350Y0034105D01*
X0541354Y0033965D01*
X0541354Y0033825D01*
X0541350Y0033685D01*
X0541342Y0033546D01*
X0541330Y0033406D01*
X0541314Y0033267D01*
X0541294Y0033129D01*
X0541270Y0032991D01*
X0541243Y0032854D01*
X0541211Y0032717D01*
X0541176Y0032582D01*
X0541136Y0032448D01*
X0541093Y0032315D01*
X0541047Y0032183D01*
X0540996Y0032052D01*
X0540942Y0031923D01*
X0540884Y0031796D01*
X0540822Y0031670D01*
X0540757Y0031546D01*
X0540689Y0031424D01*
X0540617Y0031304D01*
X0540542Y0031187D01*
X0540463Y0031071D01*
X0540381Y0030957D01*
X0540296Y0030846D01*
X0540208Y0030738D01*
X0540116Y0030632D01*
X0540022Y0030528D01*
X0539925Y0030428D01*
X0539825Y0030330D01*
X0539722Y0030235D01*
X0539617Y0030143D01*
X0539509Y0030054D01*
X0539399Y0029968D01*
X0539286Y0029885D01*
X0539171Y0029806D01*
X0539053Y0029730D01*
X0538934Y0029657D01*
X0538812Y0029587D01*
X0538689Y0029522D01*
X0538564Y0029459D01*
X0538437Y0029400D01*
X0538308Y0029345D01*
X0538178Y0029294D01*
X0538047Y0029246D01*
X0537914Y0029202D01*
X0537780Y0029162D01*
X0537645Y0029125D01*
X0537509Y0029093D01*
X0537372Y0029064D01*
X0537234Y0029040D01*
X0537096Y0029019D01*
X0536957Y0029002D01*
X0536817Y0028989D01*
X0536678Y0028980D01*
X0536538Y0028975D01*
X0536398Y0028974D01*
X0536258Y0028977D01*
X0536118Y0028984D01*
X0535979Y0028995D01*
X0535840Y0029010D01*
X0535701Y0029029D01*
X0535563Y0029051D01*
X0535426Y0029078D01*
X0535289Y0029109D01*
X0535154Y0029143D01*
X0535019Y0029181D01*
X0534886Y0029224D01*
X0534754Y0029269D01*
X0534623Y0029319D01*
X0534493Y0029372D01*
X0534366Y0029429D01*
X0534240Y0029490D01*
X0534115Y0029554D01*
X0533993Y0029622D01*
X0533872Y0029693D01*
X0533754Y0029767D01*
X0533638Y0029845D01*
X0533524Y0029926D01*
X0533412Y0030011D01*
X0533303Y0030098D01*
X0533196Y0030188D01*
X0533092Y0030282D01*
X0532991Y0030378D01*
X0532892Y0030478D01*
X0532796Y0030580D01*
X0532704Y0030684D01*
X0532614Y0030792D01*
X0532527Y0030902D01*
X0532444Y0031014D01*
X0532363Y0031128D01*
X0532286Y0031245D01*
X0532213Y0031364D01*
X0532142Y0031485D01*
X0532076Y0031608D01*
X0532012Y0031733D01*
X0531953Y0031859D01*
X0531897Y0031988D01*
X0531844Y0032117D01*
X0531796Y0032248D01*
X0531751Y0032381D01*
X0531710Y0032515D01*
X0531672Y0032650D01*
X0531639Y0032785D01*
X0531609Y0032922D01*
X0531583Y0033060D01*
X0531562Y0033198D01*
X0531544Y0033337D01*
X0531530Y0033476D01*
X0531520Y0033615D01*
X0531514Y0033755D01*
X0531512Y0033895D01*
M02*
