G75*
%MOIN*%
%OFA0B0*%
%FSLAX25Y25*%
%IPPOS*%
%LPD*%
%AMOC8*
5,1,8,0,0,1.08239X$1,22.5*
%
%ADD10C,0.00800*%
%ADD11C,0.00600*%
%ADD12C,0.00400*%
D10*
X0224480Y0031848D02*
X0224480Y0040848D01*
X0244080Y0040848D01*
X0244080Y0031848D01*
X0224480Y0031848D01*
X0249318Y0031860D02*
X0249318Y0040860D01*
X0268918Y0040860D01*
X0268918Y0031860D01*
X0249318Y0031860D01*
X0243968Y0065238D02*
X0243968Y0074238D01*
X0263568Y0074238D01*
X0263568Y0065238D01*
X0243968Y0065238D01*
X0242654Y0067075D02*
X0233654Y0067075D01*
X0233654Y0086675D01*
X0242654Y0086675D01*
X0242654Y0067075D01*
X0255346Y0075174D02*
X0264346Y0075174D01*
X0264346Y0094774D01*
X0255346Y0094774D01*
X0255346Y0075174D01*
X0254217Y0087820D02*
X0234617Y0087820D01*
X0234617Y0096820D01*
X0254217Y0096820D01*
X0254217Y0087820D01*
X0325255Y0105970D02*
X0325255Y0114970D01*
X0344855Y0114970D01*
X0344855Y0105970D01*
X0325255Y0105970D01*
X0357893Y0118608D02*
X0357893Y0127608D01*
X0377493Y0127608D01*
X0377493Y0118608D01*
X0357893Y0118608D01*
X0378744Y0037317D02*
X0387744Y0037317D01*
X0387744Y0017717D01*
X0378744Y0017717D01*
X0378744Y0037317D01*
D11*
X0376946Y0035172D02*
X0376513Y0035605D01*
X0374778Y0033871D01*
X0374344Y0034304D01*
X0374344Y0035172D01*
X0374778Y0035605D01*
X0376513Y0035605D01*
X0376946Y0035172D02*
X0376946Y0034304D01*
X0376513Y0033871D01*
X0374778Y0033871D01*
X0374344Y0032659D02*
X0374344Y0030924D01*
X0374344Y0031791D02*
X0376946Y0031791D01*
X0376079Y0030924D01*
X0376513Y0029712D02*
X0376946Y0029279D01*
X0376946Y0028411D01*
X0376513Y0027977D01*
X0374778Y0027977D01*
X0374344Y0028411D01*
X0374344Y0029279D01*
X0374778Y0029712D01*
X0267818Y0043093D02*
X0267384Y0042660D01*
X0266517Y0042660D01*
X0266083Y0043093D01*
X0264872Y0042660D02*
X0263137Y0042660D01*
X0264004Y0042660D02*
X0264004Y0045262D01*
X0264872Y0044394D01*
X0266083Y0044828D02*
X0266517Y0045262D01*
X0267384Y0045262D01*
X0267818Y0044828D01*
X0267818Y0043093D01*
X0261925Y0043093D02*
X0261491Y0042660D01*
X0260624Y0042660D01*
X0260190Y0043093D01*
X0260190Y0043527D01*
X0260624Y0043961D01*
X0261491Y0043961D01*
X0261925Y0044394D01*
X0261925Y0044828D01*
X0261491Y0045262D01*
X0260624Y0045262D01*
X0260190Y0044828D01*
X0260190Y0044394D01*
X0260624Y0043961D01*
X0261491Y0043961D02*
X0261925Y0043527D01*
X0261925Y0043093D01*
X0233819Y0029616D02*
X0233385Y0030050D01*
X0232518Y0030050D01*
X0232084Y0029616D01*
X0230873Y0029616D02*
X0230439Y0030050D01*
X0229571Y0030050D01*
X0229138Y0029616D01*
X0229138Y0029183D01*
X0230873Y0027448D01*
X0229138Y0027448D01*
X0227926Y0027448D02*
X0226191Y0029183D01*
X0226191Y0029616D01*
X0226625Y0030050D01*
X0227492Y0030050D01*
X0227926Y0029616D01*
X0227926Y0027448D02*
X0226191Y0027448D01*
X0232084Y0027881D02*
X0232518Y0027448D01*
X0233385Y0027448D01*
X0233819Y0027881D01*
X0233819Y0029616D01*
X0246113Y0060838D02*
X0246981Y0060838D01*
X0247414Y0061271D01*
X0247414Y0061705D01*
X0246981Y0062139D01*
X0246113Y0062139D01*
X0245679Y0061705D01*
X0245679Y0061271D01*
X0246113Y0060838D01*
X0246113Y0062139D02*
X0245679Y0062572D01*
X0245679Y0063006D01*
X0246113Y0063440D01*
X0246981Y0063440D01*
X0247414Y0063006D01*
X0247414Y0062572D01*
X0246981Y0062139D01*
X0248626Y0063006D02*
X0249060Y0063440D01*
X0249927Y0063440D01*
X0250361Y0063006D01*
X0250361Y0061271D01*
X0249927Y0060838D01*
X0249060Y0060838D01*
X0248626Y0061271D01*
X0246622Y0068175D02*
X0244887Y0068175D01*
X0244454Y0068609D01*
X0244454Y0069476D01*
X0244887Y0069910D01*
X0244454Y0071122D02*
X0244454Y0072857D01*
X0244454Y0071989D02*
X0247056Y0071989D01*
X0246188Y0071122D01*
X0246622Y0069910D02*
X0247056Y0069476D01*
X0247056Y0068609D01*
X0246622Y0068175D01*
X0246622Y0074068D02*
X0246188Y0074068D01*
X0245755Y0074502D01*
X0245755Y0075803D01*
X0246622Y0075803D02*
X0247056Y0075369D01*
X0247056Y0074502D01*
X0246622Y0074068D01*
X0244887Y0074068D02*
X0244454Y0074502D01*
X0244454Y0075369D01*
X0244887Y0075803D01*
X0246622Y0075803D01*
X0251380Y0085434D02*
X0250946Y0085868D01*
X0250946Y0086735D01*
X0251380Y0087169D01*
X0250946Y0088381D02*
X0252681Y0090116D01*
X0253115Y0090116D01*
X0253549Y0089682D01*
X0253549Y0088814D01*
X0253115Y0088381D01*
X0253115Y0087169D02*
X0253549Y0086735D01*
X0253549Y0085868D01*
X0253115Y0085434D01*
X0251380Y0085434D01*
X0250946Y0088381D02*
X0250946Y0090116D01*
X0251380Y0091327D02*
X0253115Y0093062D01*
X0251380Y0093062D01*
X0250946Y0092628D01*
X0250946Y0091761D01*
X0251380Y0091327D01*
X0253115Y0091327D01*
X0253549Y0091761D01*
X0253549Y0092628D01*
X0253115Y0093062D01*
X0252684Y0098620D02*
X0251816Y0098620D01*
X0251383Y0099054D01*
X0250171Y0098620D02*
X0248436Y0098620D01*
X0247224Y0098620D02*
X0245489Y0098620D01*
X0246357Y0098620D02*
X0246357Y0101222D01*
X0247224Y0100355D01*
X0248436Y0100355D02*
X0248436Y0100789D01*
X0248870Y0101222D01*
X0249737Y0101222D01*
X0250171Y0100789D01*
X0251383Y0100789D02*
X0251816Y0101222D01*
X0252684Y0101222D01*
X0253117Y0100789D01*
X0253117Y0099054D01*
X0252684Y0098620D01*
X0250171Y0098620D02*
X0248436Y0100355D01*
X0326967Y0101570D02*
X0328702Y0101570D01*
X0326967Y0103305D01*
X0326967Y0103738D01*
X0327401Y0104172D01*
X0328268Y0104172D01*
X0328702Y0103738D01*
X0330781Y0104172D02*
X0331648Y0103305D01*
X0330781Y0104172D02*
X0330781Y0101570D01*
X0331648Y0101570D02*
X0329913Y0101570D01*
X0332860Y0102004D02*
X0333294Y0101570D01*
X0334161Y0101570D01*
X0334595Y0102004D01*
X0334595Y0103738D01*
X0334161Y0104172D01*
X0333294Y0104172D01*
X0332860Y0103738D01*
X0359605Y0114208D02*
X0361339Y0114208D01*
X0360472Y0114208D02*
X0360472Y0116810D01*
X0361339Y0115942D01*
X0362551Y0114208D02*
X0364286Y0114208D01*
X0363419Y0114208D02*
X0363419Y0116810D01*
X0364286Y0115942D01*
X0365498Y0116376D02*
X0365931Y0116810D01*
X0366799Y0116810D01*
X0367232Y0116376D01*
X0367232Y0114641D01*
X0366799Y0114208D01*
X0365931Y0114208D01*
X0365498Y0114641D01*
D12*
X0335968Y0088317D02*
X0333667Y0088317D01*
X0332899Y0087550D01*
X0332899Y0086015D01*
X0333667Y0085248D01*
X0335968Y0085248D01*
X0336528Y0083858D02*
X0334226Y0083858D01*
X0333459Y0084625D01*
X0333459Y0086160D01*
X0334226Y0086927D01*
X0336528Y0086927D01*
X0336528Y0082323D01*
X0335968Y0083713D02*
X0335968Y0088317D01*
X0331365Y0088317D02*
X0331365Y0086015D01*
X0329830Y0086782D01*
X0329063Y0086782D01*
X0328295Y0086015D01*
X0328295Y0084480D01*
X0329063Y0083713D01*
X0330597Y0083713D01*
X0331365Y0084480D01*
X0331924Y0084625D02*
X0329622Y0084625D01*
X0328855Y0083858D01*
X0328855Y0083091D01*
X0329622Y0082323D01*
X0331157Y0082323D01*
X0331924Y0083091D01*
X0331924Y0084625D01*
X0330390Y0086160D01*
X0328855Y0086927D01*
X0328295Y0088317D02*
X0331365Y0088317D01*
X0334434Y0085248D02*
X0332899Y0083713D01*
X0333459Y0082323D02*
X0334994Y0083858D01*
X0284583Y0038958D02*
X0284583Y0035889D01*
X0282281Y0035889D01*
X0283049Y0037423D01*
X0283049Y0038191D01*
X0282281Y0038958D01*
X0280747Y0038958D01*
X0279980Y0038191D01*
X0279980Y0036656D01*
X0280747Y0035889D01*
X0279980Y0034354D02*
X0279980Y0031285D01*
X0279980Y0032819D02*
X0284583Y0032819D01*
X0283049Y0031285D01*
X0283816Y0029750D02*
X0282281Y0029750D01*
X0281514Y0028983D01*
X0281514Y0026681D01*
X0279980Y0026681D02*
X0284583Y0026681D01*
X0284583Y0028983D01*
X0283816Y0029750D01*
X0281514Y0028215D02*
X0279980Y0029750D01*
X0349704Y0023684D02*
X0350471Y0023684D01*
X0353541Y0026753D01*
X0354308Y0026753D01*
X0354308Y0023684D01*
X0353541Y0022149D02*
X0352006Y0022149D01*
X0351239Y0021382D01*
X0351239Y0019080D01*
X0351239Y0020615D02*
X0349704Y0022149D01*
X0353541Y0022149D02*
X0354308Y0021382D01*
X0354308Y0019080D01*
X0349704Y0019080D01*
X0361594Y0019710D02*
X0366198Y0019710D01*
X0366198Y0022012D01*
X0365430Y0022779D01*
X0363896Y0022779D01*
X0363128Y0022012D01*
X0363128Y0019710D01*
X0363128Y0021245D02*
X0361594Y0022779D01*
X0361594Y0024314D02*
X0364663Y0027383D01*
X0365430Y0027383D01*
X0366198Y0026616D01*
X0366198Y0025081D01*
X0365430Y0024314D01*
X0361594Y0024314D02*
X0361594Y0027383D01*
M02*
