G75*
%MOIN*%
%OFA0B0*%
%FSLAX25Y25*%
%IPPOS*%
%LPD*%
%AMOC8*
5,1,8,0,0,1.08239X$1,22.5*
%
%ADD10C,0.00600*%
%ADD11C,0.00500*%
%ADD12R,0.10000X0.02000*%
%ADD13R,0.03000X0.07500*%
%ADD14C,0.01000*%
%ADD15R,0.10000X0.02500*%
%ADD16C,0.00800*%
%ADD17C,0.00400*%
%ADD18R,0.03400X0.03000*%
%ADD19R,0.00787X0.00787*%
%ADD20R,0.00591X0.00984*%
%ADD21C,0.00512*%
D10*
X0127890Y0039860D02*
X0130390Y0037360D01*
X0135390Y0037360D01*
X0137890Y0039860D01*
X0137890Y0044860D01*
X0135390Y0047360D01*
X0130390Y0047360D01*
X0127890Y0044860D01*
X0127890Y0039860D01*
X0130390Y0047360D02*
X0127890Y0049860D01*
X0127890Y0054860D01*
X0130390Y0057360D01*
X0127890Y0059860D01*
X0127890Y0064860D01*
X0130390Y0067360D01*
X0127890Y0069860D01*
X0127890Y0074860D01*
X0130390Y0077360D01*
X0127890Y0079860D01*
X0127890Y0084860D01*
X0130390Y0087360D01*
X0127890Y0089860D01*
X0127890Y0094860D01*
X0130390Y0097360D01*
X0135390Y0097360D01*
X0137890Y0094860D01*
X0137890Y0089860D01*
X0135390Y0087360D01*
X0137890Y0084860D01*
X0137890Y0079860D01*
X0135390Y0077360D01*
X0130390Y0077360D01*
X0135390Y0077360D02*
X0137890Y0074860D01*
X0137890Y0069860D01*
X0135390Y0067360D01*
X0137890Y0064860D01*
X0137890Y0059860D01*
X0135390Y0057360D01*
X0137890Y0054860D01*
X0137890Y0049860D01*
X0135390Y0047360D01*
X0135390Y0057360D02*
X0130390Y0057360D01*
X0130390Y0067360D02*
X0135390Y0067360D01*
X0135390Y0087360D02*
X0130390Y0087360D01*
X0219272Y0108423D02*
X0272972Y0108423D01*
X0274673Y0106722D01*
X0274673Y0053021D01*
X0219272Y0053021D01*
X0219272Y0108423D01*
X0267922Y0103872D02*
X0267924Y0103965D01*
X0267930Y0104059D01*
X0267940Y0104151D01*
X0267954Y0104244D01*
X0267971Y0104335D01*
X0267993Y0104426D01*
X0268018Y0104516D01*
X0268048Y0104605D01*
X0268081Y0104692D01*
X0268117Y0104778D01*
X0268158Y0104862D01*
X0268201Y0104945D01*
X0268249Y0105025D01*
X0268299Y0105104D01*
X0268353Y0105180D01*
X0268410Y0105254D01*
X0268471Y0105325D01*
X0268534Y0105394D01*
X0268600Y0105460D01*
X0268669Y0105523D01*
X0268740Y0105584D01*
X0268814Y0105641D01*
X0268890Y0105695D01*
X0268969Y0105745D01*
X0269049Y0105793D01*
X0269132Y0105836D01*
X0269216Y0105877D01*
X0269302Y0105913D01*
X0269389Y0105946D01*
X0269478Y0105976D01*
X0269568Y0106001D01*
X0269659Y0106023D01*
X0269750Y0106040D01*
X0269843Y0106054D01*
X0269935Y0106064D01*
X0270029Y0106070D01*
X0270122Y0106072D01*
X0270215Y0106070D01*
X0270309Y0106064D01*
X0270401Y0106054D01*
X0270494Y0106040D01*
X0270585Y0106023D01*
X0270676Y0106001D01*
X0270766Y0105976D01*
X0270855Y0105946D01*
X0270942Y0105913D01*
X0271028Y0105877D01*
X0271112Y0105836D01*
X0271195Y0105793D01*
X0271275Y0105745D01*
X0271354Y0105695D01*
X0271430Y0105641D01*
X0271504Y0105584D01*
X0271575Y0105523D01*
X0271644Y0105460D01*
X0271710Y0105394D01*
X0271773Y0105325D01*
X0271834Y0105254D01*
X0271891Y0105180D01*
X0271945Y0105104D01*
X0271995Y0105025D01*
X0272043Y0104945D01*
X0272086Y0104862D01*
X0272127Y0104778D01*
X0272163Y0104692D01*
X0272196Y0104605D01*
X0272226Y0104516D01*
X0272251Y0104426D01*
X0272273Y0104335D01*
X0272290Y0104244D01*
X0272304Y0104151D01*
X0272314Y0104059D01*
X0272320Y0103965D01*
X0272322Y0103872D01*
X0272320Y0103779D01*
X0272314Y0103685D01*
X0272304Y0103593D01*
X0272290Y0103500D01*
X0272273Y0103409D01*
X0272251Y0103318D01*
X0272226Y0103228D01*
X0272196Y0103139D01*
X0272163Y0103052D01*
X0272127Y0102966D01*
X0272086Y0102882D01*
X0272043Y0102799D01*
X0271995Y0102719D01*
X0271945Y0102640D01*
X0271891Y0102564D01*
X0271834Y0102490D01*
X0271773Y0102419D01*
X0271710Y0102350D01*
X0271644Y0102284D01*
X0271575Y0102221D01*
X0271504Y0102160D01*
X0271430Y0102103D01*
X0271354Y0102049D01*
X0271275Y0101999D01*
X0271195Y0101951D01*
X0271112Y0101908D01*
X0271028Y0101867D01*
X0270942Y0101831D01*
X0270855Y0101798D01*
X0270766Y0101768D01*
X0270676Y0101743D01*
X0270585Y0101721D01*
X0270494Y0101704D01*
X0270401Y0101690D01*
X0270309Y0101680D01*
X0270215Y0101674D01*
X0270122Y0101672D01*
X0270029Y0101674D01*
X0269935Y0101680D01*
X0269843Y0101690D01*
X0269750Y0101704D01*
X0269659Y0101721D01*
X0269568Y0101743D01*
X0269478Y0101768D01*
X0269389Y0101798D01*
X0269302Y0101831D01*
X0269216Y0101867D01*
X0269132Y0101908D01*
X0269049Y0101951D01*
X0268969Y0101999D01*
X0268890Y0102049D01*
X0268814Y0102103D01*
X0268740Y0102160D01*
X0268669Y0102221D01*
X0268600Y0102284D01*
X0268534Y0102350D01*
X0268471Y0102419D01*
X0268410Y0102490D01*
X0268353Y0102564D01*
X0268299Y0102640D01*
X0268249Y0102719D01*
X0268201Y0102799D01*
X0268158Y0102882D01*
X0268117Y0102966D01*
X0268081Y0103052D01*
X0268048Y0103139D01*
X0268018Y0103228D01*
X0267993Y0103318D01*
X0267971Y0103409D01*
X0267954Y0103500D01*
X0267940Y0103593D01*
X0267930Y0103685D01*
X0267924Y0103779D01*
X0267922Y0103872D01*
X0350579Y0085619D02*
X0360579Y0085619D01*
X0360579Y0069619D01*
X0350579Y0069619D01*
X0350579Y0085619D01*
X0355579Y0080119D02*
X0355579Y0077619D01*
X0353079Y0077619D01*
X0355579Y0077619D02*
X0358079Y0077619D01*
X0355579Y0077619D02*
X0358079Y0073619D01*
X0353079Y0073619D01*
X0355579Y0077619D01*
X0355579Y0071619D01*
X0358272Y0070509D02*
X0358272Y0054509D01*
X0368272Y0054509D01*
X0368272Y0070509D01*
X0358272Y0070509D01*
X0363272Y0068509D02*
X0363272Y0062509D01*
X0365772Y0062509D01*
X0363272Y0062509D02*
X0363272Y0060009D01*
X0363272Y0062509D02*
X0360772Y0062509D01*
X0363272Y0062509D02*
X0360772Y0066509D01*
X0365772Y0066509D01*
X0363272Y0062509D01*
X0371630Y0070202D02*
X0371630Y0074202D01*
X0371630Y0080202D02*
X0371630Y0084202D01*
X0373630Y0082202D02*
X0369630Y0082202D01*
X0335130Y0092202D02*
X0335141Y0093098D01*
X0335174Y0093993D01*
X0335229Y0094887D01*
X0335306Y0095780D01*
X0335404Y0096670D01*
X0335525Y0097558D01*
X0335667Y0098442D01*
X0335831Y0099323D01*
X0336017Y0100199D01*
X0336224Y0101071D01*
X0336452Y0101937D01*
X0336702Y0102797D01*
X0336972Y0103651D01*
X0337264Y0104498D01*
X0337576Y0105338D01*
X0337908Y0106170D01*
X0338261Y0106993D01*
X0338634Y0107808D01*
X0339027Y0108613D01*
X0339440Y0109408D01*
X0339872Y0110193D01*
X0340323Y0110967D01*
X0340793Y0111729D01*
X0341281Y0112480D01*
X0341788Y0113219D01*
X0342313Y0113945D01*
X0342855Y0114658D01*
X0343415Y0115357D01*
X0343992Y0116043D01*
X0344585Y0116714D01*
X0345195Y0117370D01*
X0345821Y0118011D01*
X0346462Y0118637D01*
X0347118Y0119247D01*
X0347789Y0119840D01*
X0348475Y0120417D01*
X0349174Y0120977D01*
X0349887Y0121519D01*
X0350613Y0122044D01*
X0351352Y0122551D01*
X0352103Y0123039D01*
X0352865Y0123509D01*
X0353639Y0123960D01*
X0354424Y0124392D01*
X0355219Y0124805D01*
X0356024Y0125198D01*
X0356839Y0125571D01*
X0357662Y0125924D01*
X0358494Y0126256D01*
X0359334Y0126568D01*
X0360181Y0126860D01*
X0361035Y0127130D01*
X0361895Y0127380D01*
X0362761Y0127608D01*
X0363633Y0127815D01*
X0364509Y0128001D01*
X0365390Y0128165D01*
X0366274Y0128307D01*
X0367162Y0128428D01*
X0368052Y0128526D01*
X0368945Y0128603D01*
X0369839Y0128658D01*
X0370734Y0128691D01*
X0371630Y0128702D01*
X0372526Y0128691D01*
X0373421Y0128658D01*
X0374315Y0128603D01*
X0375208Y0128526D01*
X0376098Y0128428D01*
X0376986Y0128307D01*
X0377870Y0128165D01*
X0378751Y0128001D01*
X0379627Y0127815D01*
X0380499Y0127608D01*
X0381365Y0127380D01*
X0382225Y0127130D01*
X0383079Y0126860D01*
X0383926Y0126568D01*
X0384766Y0126256D01*
X0385598Y0125924D01*
X0386421Y0125571D01*
X0387236Y0125198D01*
X0388041Y0124805D01*
X0388836Y0124392D01*
X0389621Y0123960D01*
X0390395Y0123509D01*
X0391157Y0123039D01*
X0391908Y0122551D01*
X0392647Y0122044D01*
X0393373Y0121519D01*
X0394086Y0120977D01*
X0394785Y0120417D01*
X0395471Y0119840D01*
X0396142Y0119247D01*
X0396798Y0118637D01*
X0397439Y0118011D01*
X0398065Y0117370D01*
X0398675Y0116714D01*
X0399268Y0116043D01*
X0399845Y0115357D01*
X0400405Y0114658D01*
X0400947Y0113945D01*
X0401472Y0113219D01*
X0401979Y0112480D01*
X0402467Y0111729D01*
X0402937Y0110967D01*
X0403388Y0110193D01*
X0403820Y0109408D01*
X0404233Y0108613D01*
X0404626Y0107808D01*
X0404999Y0106993D01*
X0405352Y0106170D01*
X0405684Y0105338D01*
X0405996Y0104498D01*
X0406288Y0103651D01*
X0406558Y0102797D01*
X0406808Y0101937D01*
X0407036Y0101071D01*
X0407243Y0100199D01*
X0407429Y0099323D01*
X0407593Y0098442D01*
X0407735Y0097558D01*
X0407856Y0096670D01*
X0407954Y0095780D01*
X0408031Y0094887D01*
X0408086Y0093993D01*
X0408119Y0093098D01*
X0408130Y0092202D01*
X0408119Y0091306D01*
X0408086Y0090411D01*
X0408031Y0089517D01*
X0407954Y0088624D01*
X0407856Y0087734D01*
X0407735Y0086846D01*
X0407593Y0085962D01*
X0407429Y0085081D01*
X0407243Y0084205D01*
X0407036Y0083333D01*
X0406808Y0082467D01*
X0406558Y0081607D01*
X0406288Y0080753D01*
X0405996Y0079906D01*
X0405684Y0079066D01*
X0405352Y0078234D01*
X0404999Y0077411D01*
X0404626Y0076596D01*
X0404233Y0075791D01*
X0403820Y0074996D01*
X0403388Y0074211D01*
X0402937Y0073437D01*
X0402467Y0072675D01*
X0401979Y0071924D01*
X0401472Y0071185D01*
X0400947Y0070459D01*
X0400405Y0069746D01*
X0399845Y0069047D01*
X0399268Y0068361D01*
X0398675Y0067690D01*
X0398065Y0067034D01*
X0397439Y0066393D01*
X0396798Y0065767D01*
X0396142Y0065157D01*
X0395471Y0064564D01*
X0394785Y0063987D01*
X0394086Y0063427D01*
X0393373Y0062885D01*
X0392647Y0062360D01*
X0391908Y0061853D01*
X0391157Y0061365D01*
X0390395Y0060895D01*
X0389621Y0060444D01*
X0388836Y0060012D01*
X0388041Y0059599D01*
X0387236Y0059206D01*
X0386421Y0058833D01*
X0385598Y0058480D01*
X0384766Y0058148D01*
X0383926Y0057836D01*
X0383079Y0057544D01*
X0382225Y0057274D01*
X0381365Y0057024D01*
X0380499Y0056796D01*
X0379627Y0056589D01*
X0378751Y0056403D01*
X0377870Y0056239D01*
X0376986Y0056097D01*
X0376098Y0055976D01*
X0375208Y0055878D01*
X0374315Y0055801D01*
X0373421Y0055746D01*
X0372526Y0055713D01*
X0371630Y0055702D01*
X0370734Y0055713D01*
X0369839Y0055746D01*
X0368945Y0055801D01*
X0368052Y0055878D01*
X0367162Y0055976D01*
X0366274Y0056097D01*
X0365390Y0056239D01*
X0364509Y0056403D01*
X0363633Y0056589D01*
X0362761Y0056796D01*
X0361895Y0057024D01*
X0361035Y0057274D01*
X0360181Y0057544D01*
X0359334Y0057836D01*
X0358494Y0058148D01*
X0357662Y0058480D01*
X0356839Y0058833D01*
X0356024Y0059206D01*
X0355219Y0059599D01*
X0354424Y0060012D01*
X0353639Y0060444D01*
X0352865Y0060895D01*
X0352103Y0061365D01*
X0351352Y0061853D01*
X0350613Y0062360D01*
X0349887Y0062885D01*
X0349174Y0063427D01*
X0348475Y0063987D01*
X0347789Y0064564D01*
X0347118Y0065157D01*
X0346462Y0065767D01*
X0345821Y0066393D01*
X0345195Y0067034D01*
X0344585Y0067690D01*
X0343992Y0068361D01*
X0343415Y0069047D01*
X0342855Y0069746D01*
X0342313Y0070459D01*
X0341788Y0071185D01*
X0341281Y0071924D01*
X0340793Y0072675D01*
X0340323Y0073437D01*
X0339872Y0074211D01*
X0339440Y0074996D01*
X0339027Y0075791D01*
X0338634Y0076596D01*
X0338261Y0077411D01*
X0337908Y0078234D01*
X0337576Y0079066D01*
X0337264Y0079906D01*
X0336972Y0080753D01*
X0336702Y0081607D01*
X0336452Y0082467D01*
X0336224Y0083333D01*
X0336017Y0084205D01*
X0335831Y0085081D01*
X0335667Y0085962D01*
X0335525Y0086846D01*
X0335404Y0087734D01*
X0335306Y0088624D01*
X0335229Y0089517D01*
X0335174Y0090411D01*
X0335141Y0091306D01*
X0335130Y0092202D01*
X0357047Y0104135D02*
X0358047Y0103135D01*
X0366047Y0103135D01*
X0367047Y0104135D01*
X0368047Y0103135D01*
X0376047Y0103135D01*
X0377047Y0104135D01*
X0377047Y0112135D01*
X0376047Y0113135D01*
X0368047Y0113135D01*
X0367047Y0112135D01*
X0366047Y0113135D01*
X0358047Y0113135D01*
X0357047Y0112135D01*
X0357047Y0104135D01*
X0371630Y0102202D02*
X0371630Y0109702D01*
X0371630Y0114702D02*
X0371630Y0122202D01*
X0365630Y0120702D02*
X0365630Y0116702D01*
X0363630Y0118702D02*
X0367630Y0118702D01*
X0415291Y0096828D02*
X0417791Y0099328D01*
X0422791Y0099328D01*
X0425291Y0096828D01*
X0425291Y0091828D01*
X0422791Y0089328D01*
X0425291Y0086828D01*
X0425291Y0081828D01*
X0422791Y0079328D01*
X0425291Y0076828D01*
X0425291Y0071828D01*
X0422791Y0069328D01*
X0425291Y0066828D01*
X0425291Y0061828D01*
X0422791Y0059328D01*
X0425291Y0056828D01*
X0425291Y0051828D01*
X0422791Y0049328D01*
X0425291Y0046828D01*
X0425291Y0041828D01*
X0422791Y0039328D01*
X0417791Y0039328D01*
X0415291Y0041828D01*
X0415291Y0046828D01*
X0417791Y0049328D01*
X0415291Y0051828D01*
X0415291Y0056828D01*
X0417791Y0059328D01*
X0422791Y0059328D01*
X0417791Y0059328D02*
X0415291Y0061828D01*
X0415291Y0066828D01*
X0417791Y0069328D01*
X0415291Y0071828D01*
X0415291Y0076828D01*
X0417791Y0079328D01*
X0415291Y0081828D01*
X0415291Y0086828D01*
X0417791Y0089328D01*
X0415291Y0091828D01*
X0415291Y0096828D01*
X0417791Y0089328D02*
X0422791Y0089328D01*
X0422791Y0079328D02*
X0417791Y0079328D01*
X0417791Y0069328D02*
X0422791Y0069328D01*
X0422791Y0049328D02*
X0417791Y0049328D01*
X0327130Y0092202D02*
X0327143Y0093294D01*
X0327184Y0094386D01*
X0327251Y0095476D01*
X0327344Y0096564D01*
X0327465Y0097649D01*
X0327612Y0098732D01*
X0327785Y0099810D01*
X0327985Y0100884D01*
X0328211Y0101952D01*
X0328464Y0103015D01*
X0328742Y0104071D01*
X0329046Y0105120D01*
X0329376Y0106161D01*
X0329731Y0107194D01*
X0330112Y0108217D01*
X0330517Y0109231D01*
X0330948Y0110235D01*
X0331402Y0111228D01*
X0331882Y0112210D01*
X0332385Y0113179D01*
X0332911Y0114136D01*
X0333461Y0115080D01*
X0334034Y0116009D01*
X0334630Y0116925D01*
X0335247Y0117825D01*
X0335887Y0118711D01*
X0336549Y0119580D01*
X0337231Y0120433D01*
X0337934Y0121268D01*
X0338658Y0122086D01*
X0339401Y0122887D01*
X0340164Y0123668D01*
X0340945Y0124431D01*
X0341746Y0125174D01*
X0342564Y0125898D01*
X0343399Y0126601D01*
X0344252Y0127283D01*
X0345121Y0127945D01*
X0346007Y0128585D01*
X0346907Y0129202D01*
X0347823Y0129798D01*
X0348752Y0130371D01*
X0349696Y0130921D01*
X0350653Y0131447D01*
X0351622Y0131950D01*
X0352604Y0132430D01*
X0353597Y0132884D01*
X0354601Y0133315D01*
X0355615Y0133720D01*
X0356638Y0134101D01*
X0357671Y0134456D01*
X0358712Y0134786D01*
X0359761Y0135090D01*
X0360817Y0135368D01*
X0361880Y0135621D01*
X0362948Y0135847D01*
X0364022Y0136047D01*
X0365100Y0136220D01*
X0366183Y0136367D01*
X0367268Y0136488D01*
X0368356Y0136581D01*
X0369446Y0136648D01*
X0370538Y0136689D01*
X0371630Y0136702D01*
X0372722Y0136689D01*
X0373814Y0136648D01*
X0374904Y0136581D01*
X0375992Y0136488D01*
X0377077Y0136367D01*
X0378160Y0136220D01*
X0379238Y0136047D01*
X0380312Y0135847D01*
X0381380Y0135621D01*
X0382443Y0135368D01*
X0383499Y0135090D01*
X0384548Y0134786D01*
X0385589Y0134456D01*
X0386622Y0134101D01*
X0387645Y0133720D01*
X0388659Y0133315D01*
X0389663Y0132884D01*
X0390656Y0132430D01*
X0391638Y0131950D01*
X0392607Y0131447D01*
X0393564Y0130921D01*
X0394508Y0130371D01*
X0395437Y0129798D01*
X0396353Y0129202D01*
X0397253Y0128585D01*
X0398139Y0127945D01*
X0399008Y0127283D01*
X0399861Y0126601D01*
X0400696Y0125898D01*
X0401514Y0125174D01*
X0402315Y0124431D01*
X0403096Y0123668D01*
X0403859Y0122887D01*
X0404602Y0122086D01*
X0405326Y0121268D01*
X0406029Y0120433D01*
X0406711Y0119580D01*
X0407373Y0118711D01*
X0408013Y0117825D01*
X0408630Y0116925D01*
X0409226Y0116009D01*
X0409799Y0115080D01*
X0410349Y0114136D01*
X0410875Y0113179D01*
X0411378Y0112210D01*
X0411858Y0111228D01*
X0412312Y0110235D01*
X0412743Y0109231D01*
X0413148Y0108217D01*
X0413529Y0107194D01*
X0413884Y0106161D01*
X0414214Y0105120D01*
X0414518Y0104071D01*
X0414796Y0103015D01*
X0415049Y0101952D01*
X0415275Y0100884D01*
X0415475Y0099810D01*
X0415648Y0098732D01*
X0415795Y0097649D01*
X0415916Y0096564D01*
X0416009Y0095476D01*
X0416076Y0094386D01*
X0416117Y0093294D01*
X0416130Y0092202D01*
X0416117Y0091110D01*
X0416076Y0090018D01*
X0416009Y0088928D01*
X0415916Y0087840D01*
X0415795Y0086755D01*
X0415648Y0085672D01*
X0415475Y0084594D01*
X0415275Y0083520D01*
X0415049Y0082452D01*
X0414796Y0081389D01*
X0414518Y0080333D01*
X0414214Y0079284D01*
X0413884Y0078243D01*
X0413529Y0077210D01*
X0413148Y0076187D01*
X0412743Y0075173D01*
X0412312Y0074169D01*
X0411858Y0073176D01*
X0411378Y0072194D01*
X0410875Y0071225D01*
X0410349Y0070268D01*
X0409799Y0069324D01*
X0409226Y0068395D01*
X0408630Y0067479D01*
X0408013Y0066579D01*
X0407373Y0065693D01*
X0406711Y0064824D01*
X0406029Y0063971D01*
X0405326Y0063136D01*
X0404602Y0062318D01*
X0403859Y0061517D01*
X0403096Y0060736D01*
X0402315Y0059973D01*
X0401514Y0059230D01*
X0400696Y0058506D01*
X0399861Y0057803D01*
X0399008Y0057121D01*
X0398139Y0056459D01*
X0397253Y0055819D01*
X0396353Y0055202D01*
X0395437Y0054606D01*
X0394508Y0054033D01*
X0393564Y0053483D01*
X0392607Y0052957D01*
X0391638Y0052454D01*
X0390656Y0051974D01*
X0389663Y0051520D01*
X0388659Y0051089D01*
X0387645Y0050684D01*
X0386622Y0050303D01*
X0385589Y0049948D01*
X0384548Y0049618D01*
X0383499Y0049314D01*
X0382443Y0049036D01*
X0381380Y0048783D01*
X0380312Y0048557D01*
X0379238Y0048357D01*
X0378160Y0048184D01*
X0377077Y0048037D01*
X0375992Y0047916D01*
X0374904Y0047823D01*
X0373814Y0047756D01*
X0372722Y0047715D01*
X0371630Y0047702D01*
X0370538Y0047715D01*
X0369446Y0047756D01*
X0368356Y0047823D01*
X0367268Y0047916D01*
X0366183Y0048037D01*
X0365100Y0048184D01*
X0364022Y0048357D01*
X0362948Y0048557D01*
X0361880Y0048783D01*
X0360817Y0049036D01*
X0359761Y0049314D01*
X0358712Y0049618D01*
X0357671Y0049948D01*
X0356638Y0050303D01*
X0355615Y0050684D01*
X0354601Y0051089D01*
X0353597Y0051520D01*
X0352604Y0051974D01*
X0351622Y0052454D01*
X0350653Y0052957D01*
X0349696Y0053483D01*
X0348752Y0054033D01*
X0347823Y0054606D01*
X0346907Y0055202D01*
X0346007Y0055819D01*
X0345121Y0056459D01*
X0344252Y0057121D01*
X0343399Y0057803D01*
X0342564Y0058506D01*
X0341746Y0059230D01*
X0340945Y0059973D01*
X0340164Y0060736D01*
X0339401Y0061517D01*
X0338658Y0062318D01*
X0337934Y0063136D01*
X0337231Y0063971D01*
X0336549Y0064824D01*
X0335887Y0065693D01*
X0335247Y0066579D01*
X0334630Y0067479D01*
X0334034Y0068395D01*
X0333461Y0069324D01*
X0332911Y0070268D01*
X0332385Y0071225D01*
X0331882Y0072194D01*
X0331402Y0073176D01*
X0330948Y0074169D01*
X0330517Y0075173D01*
X0330112Y0076187D01*
X0329731Y0077210D01*
X0329376Y0078243D01*
X0329046Y0079284D01*
X0328742Y0080333D01*
X0328464Y0081389D01*
X0328211Y0082452D01*
X0327985Y0083520D01*
X0327785Y0084594D01*
X0327612Y0085672D01*
X0327465Y0086755D01*
X0327344Y0087840D01*
X0327251Y0088928D01*
X0327184Y0090018D01*
X0327143Y0091110D01*
X0327130Y0092202D01*
X0261394Y0027667D02*
X0259894Y0029167D01*
X0252894Y0029167D01*
X0251394Y0027667D01*
X0249894Y0029167D01*
X0242894Y0029167D01*
X0241394Y0027667D01*
X0239894Y0029167D01*
X0232894Y0029167D01*
X0231394Y0027667D01*
X0231394Y0010667D01*
X0232894Y0009167D01*
X0239894Y0009167D01*
X0241394Y0010667D01*
X0242894Y0009167D01*
X0249894Y0009167D01*
X0251394Y0010667D01*
X0252894Y0009167D01*
X0259894Y0009167D01*
X0261394Y0010667D01*
X0261394Y0027667D01*
X0209583Y0023836D02*
X0209583Y0018836D01*
X0207083Y0016336D01*
X0202083Y0016336D01*
X0199583Y0018836D01*
X0197083Y0016336D01*
X0192083Y0016336D01*
X0189583Y0018836D01*
X0187083Y0016336D01*
X0182083Y0016336D01*
X0179583Y0018836D01*
X0177083Y0016336D01*
X0172083Y0016336D01*
X0169583Y0018836D01*
X0169583Y0023836D01*
X0172083Y0026336D01*
X0177083Y0026336D01*
X0179583Y0023836D01*
X0182083Y0026336D01*
X0187083Y0026336D01*
X0189583Y0023836D01*
X0189583Y0018836D01*
X0199583Y0018836D02*
X0199583Y0023836D01*
X0202083Y0026336D01*
X0207083Y0026336D01*
X0209583Y0023836D01*
X0199583Y0023836D02*
X0197083Y0026336D01*
X0192083Y0026336D01*
X0189583Y0023836D01*
X0179583Y0023836D02*
X0179583Y0018836D01*
D11*
X0178741Y0028786D02*
X0181743Y0031789D01*
X0181743Y0032539D01*
X0180992Y0033290D01*
X0179491Y0033290D01*
X0178741Y0032539D01*
X0177139Y0032539D02*
X0177139Y0031038D01*
X0176389Y0030287D01*
X0174137Y0030287D01*
X0174137Y0028786D02*
X0174137Y0033290D01*
X0176389Y0033290D01*
X0177139Y0032539D01*
X0172535Y0033290D02*
X0171034Y0033290D01*
X0171785Y0033290D02*
X0171785Y0029537D01*
X0171034Y0028786D01*
X0170283Y0028786D01*
X0169533Y0029537D01*
X0178741Y0028786D02*
X0181743Y0028786D01*
X0234040Y0031667D02*
X0234790Y0030917D01*
X0236292Y0030917D01*
X0237042Y0031667D01*
X0237042Y0032418D01*
X0236292Y0033169D01*
X0235541Y0033169D01*
X0236292Y0033169D02*
X0237042Y0033919D01*
X0237042Y0034670D01*
X0236292Y0035420D01*
X0234790Y0035420D01*
X0234040Y0034670D01*
X0244040Y0034670D02*
X0244790Y0035420D01*
X0246292Y0035420D01*
X0247042Y0034670D01*
X0247042Y0033919D01*
X0244040Y0030917D01*
X0247042Y0030917D01*
X0254040Y0030917D02*
X0257042Y0030917D01*
X0255541Y0030917D02*
X0255541Y0035420D01*
X0254040Y0033919D01*
X0253188Y0007420D02*
X0253938Y0006670D01*
X0253938Y0005169D01*
X0253188Y0004418D01*
X0250936Y0004418D01*
X0250936Y0002917D02*
X0250936Y0007420D01*
X0253188Y0007420D01*
X0255540Y0005919D02*
X0257041Y0007420D01*
X0257041Y0002917D01*
X0255540Y0002917D02*
X0258542Y0002917D01*
X0248584Y0003667D02*
X0247833Y0002917D01*
X0247083Y0002917D01*
X0246332Y0003667D01*
X0248584Y0003667D02*
X0248584Y0007420D01*
X0249334Y0007420D02*
X0247833Y0007420D01*
X0352018Y0054759D02*
X0352018Y0057011D01*
X0352768Y0057762D01*
X0355771Y0057762D01*
X0356522Y0057011D01*
X0356522Y0054759D01*
X0352018Y0054759D01*
X0354270Y0059363D02*
X0352768Y0060864D01*
X0352018Y0062366D01*
X0354270Y0061615D02*
X0354270Y0059363D01*
X0355771Y0059363D01*
X0356522Y0060114D01*
X0356522Y0061615D01*
X0355771Y0062366D01*
X0355020Y0062366D01*
X0354270Y0061615D01*
X0351380Y0069952D02*
X0346876Y0069952D01*
X0351380Y0069952D02*
X0351380Y0072955D01*
X0351380Y0074556D02*
X0351380Y0076057D01*
X0351380Y0075307D02*
X0348377Y0075307D01*
X0348377Y0074556D01*
X0346876Y0075307D02*
X0346125Y0075307D01*
X0348377Y0077625D02*
X0348377Y0079127D01*
X0347627Y0078376D02*
X0350629Y0078376D01*
X0351380Y0079127D01*
X0351380Y0080695D02*
X0346876Y0080695D01*
X0348377Y0081445D02*
X0348377Y0082946D01*
X0349128Y0083697D01*
X0351380Y0083697D01*
X0351380Y0085298D02*
X0351380Y0086800D01*
X0351380Y0086049D02*
X0348377Y0086049D01*
X0348377Y0085298D01*
X0346876Y0086049D02*
X0346125Y0086049D01*
X0348377Y0088368D02*
X0350629Y0088368D01*
X0351380Y0089118D01*
X0351380Y0091370D01*
X0348377Y0091370D01*
X0348377Y0092972D02*
X0348377Y0093722D01*
X0349128Y0094473D01*
X0348377Y0095224D01*
X0349128Y0095974D01*
X0351380Y0095974D01*
X0351380Y0094473D02*
X0349128Y0094473D01*
X0348377Y0092972D02*
X0351380Y0092972D01*
X0363485Y0097636D02*
X0364236Y0096885D01*
X0364987Y0096885D01*
X0365737Y0097636D01*
X0365737Y0101389D01*
X0364987Y0101389D02*
X0366488Y0101389D01*
X0368089Y0101389D02*
X0370341Y0101389D01*
X0371092Y0100638D01*
X0371092Y0099137D01*
X0370341Y0098386D01*
X0368089Y0098386D01*
X0368089Y0096885D02*
X0368089Y0101389D01*
X0372693Y0101389D02*
X0375696Y0101389D01*
X0375696Y0100638D01*
X0372693Y0097636D01*
X0372693Y0096885D01*
X0366078Y0084268D02*
X0364577Y0084268D01*
X0363826Y0083517D01*
X0363826Y0082767D01*
X0364577Y0081265D01*
X0362325Y0081265D01*
X0362325Y0084268D01*
X0366078Y0084268D02*
X0366829Y0083517D01*
X0366829Y0082016D01*
X0366078Y0081265D01*
X0366078Y0079664D02*
X0363076Y0079664D01*
X0362325Y0078913D01*
X0362325Y0076662D01*
X0366829Y0076662D01*
X0366829Y0078913D01*
X0366078Y0079664D01*
X0361380Y0079911D02*
X0361380Y0081412D01*
X0360629Y0082163D01*
X0359879Y0082163D01*
X0359128Y0081412D01*
X0359128Y0079160D01*
X0360629Y0079160D01*
X0361380Y0079911D01*
X0359128Y0079160D02*
X0357627Y0080661D01*
X0356876Y0082163D01*
X0349128Y0080695D02*
X0348377Y0081445D01*
X0356876Y0077559D02*
X0359879Y0077559D01*
X0361380Y0076057D01*
X0359879Y0074556D01*
X0356876Y0074556D01*
X0357627Y0072955D02*
X0358377Y0072955D01*
X0359128Y0072204D01*
X0359879Y0072955D01*
X0360629Y0072955D01*
X0361380Y0072204D01*
X0361380Y0070703D01*
X0360629Y0069952D01*
X0359128Y0071453D02*
X0359128Y0072204D01*
X0357627Y0072955D02*
X0356876Y0072204D01*
X0356876Y0070703D01*
X0357627Y0069952D01*
X0324880Y0083203D02*
X0324880Y0084704D01*
X0324129Y0085455D01*
X0322628Y0085455D01*
X0322628Y0083953D01*
X0324129Y0082452D02*
X0324880Y0083203D01*
X0324129Y0082452D02*
X0321127Y0082452D01*
X0320376Y0083203D01*
X0320376Y0084704D01*
X0321127Y0085455D01*
X0321877Y0087056D02*
X0320376Y0088557D01*
X0324880Y0088557D01*
X0324880Y0087056D02*
X0324880Y0090059D01*
X0408337Y0051488D02*
X0408337Y0048486D01*
X0410589Y0048486D01*
X0409839Y0049987D01*
X0409839Y0050738D01*
X0410589Y0051488D01*
X0412091Y0051488D01*
X0412841Y0050738D01*
X0412841Y0049237D01*
X0412091Y0048486D01*
X0410589Y0046885D02*
X0409088Y0046885D01*
X0408337Y0046134D01*
X0408337Y0043882D01*
X0412841Y0043882D01*
X0411340Y0043882D02*
X0411340Y0046134D01*
X0410589Y0046885D01*
X0408337Y0042281D02*
X0408337Y0040779D01*
X0408337Y0041530D02*
X0412091Y0041530D01*
X0412841Y0040779D01*
X0412841Y0040029D01*
X0412091Y0039278D01*
X0144840Y0084848D02*
X0144840Y0085599D01*
X0144089Y0086350D01*
X0140336Y0086350D01*
X0140336Y0087100D02*
X0140336Y0085599D01*
X0144089Y0084098D02*
X0144840Y0084848D01*
X0144840Y0088702D02*
X0140336Y0088702D01*
X0140336Y0090954D01*
X0141087Y0091704D01*
X0142588Y0091704D01*
X0143338Y0090954D01*
X0143338Y0088702D01*
X0142588Y0093306D02*
X0142588Y0096308D01*
X0144840Y0095558D02*
X0140336Y0095558D01*
X0142588Y0093306D01*
X0244189Y0132320D02*
X0244189Y0144131D01*
X0250094Y0144131D01*
X0250094Y0138226D01*
X0305213Y0138226D01*
X0305213Y0144131D01*
X0250094Y0144131D01*
X0244189Y0132320D02*
X0311118Y0132320D01*
X0311118Y0144131D01*
X0305213Y0144131D01*
D12*
X0355579Y0083119D03*
X0363272Y0057009D03*
D13*
X0363272Y0050759D03*
X0355579Y0065869D03*
X0363272Y0074259D03*
X0355579Y0089369D03*
D14*
X0361630Y0114702D02*
X0371630Y0114702D01*
X0381630Y0114702D01*
D15*
X0371630Y0110952D03*
D16*
X0379962Y0120838D02*
X0379961Y0097238D01*
X0405764Y0097238D01*
X0405762Y0120838D01*
X0346591Y0071927D02*
X0343047Y0075470D01*
X0313520Y0075470D01*
X0313520Y0064840D01*
X0315685Y0064446D02*
X0315823Y0064794D01*
X0315970Y0065138D01*
X0316125Y0065479D01*
X0316288Y0065816D01*
X0316460Y0066149D01*
X0316640Y0066478D01*
X0316827Y0066802D01*
X0317022Y0067122D01*
X0317226Y0067436D01*
X0317436Y0067746D01*
X0317654Y0068050D01*
X0317880Y0068349D01*
X0318113Y0068643D01*
X0318352Y0068931D01*
X0318599Y0069212D01*
X0318853Y0069488D01*
X0319113Y0069757D01*
X0319379Y0070021D01*
X0319652Y0070277D01*
X0319931Y0070527D01*
X0320216Y0070770D01*
X0320507Y0071006D01*
X0320804Y0071234D01*
X0321106Y0071456D01*
X0321413Y0071670D01*
X0321726Y0071876D01*
X0322043Y0072075D01*
X0322365Y0072266D01*
X0322692Y0072449D01*
X0323023Y0072625D01*
X0323358Y0072792D01*
X0323697Y0072950D01*
X0324040Y0073101D01*
X0324387Y0073243D01*
X0324736Y0073377D01*
X0325089Y0073502D01*
X0325445Y0073618D01*
X0325804Y0073726D01*
X0326165Y0073825D01*
X0326529Y0073916D01*
X0326894Y0073997D01*
X0327262Y0074069D01*
X0327631Y0074133D01*
X0328001Y0074187D01*
X0328373Y0074233D01*
X0328746Y0074269D01*
X0329119Y0074297D01*
X0329493Y0074315D01*
X0329868Y0074324D01*
X0330242Y0074324D01*
X0330617Y0074315D01*
X0330991Y0074297D01*
X0331364Y0074269D01*
X0331737Y0074233D01*
X0332109Y0074187D01*
X0332479Y0074133D01*
X0332848Y0074069D01*
X0333216Y0073997D01*
X0333581Y0073916D01*
X0333945Y0073825D01*
X0334306Y0073726D01*
X0334665Y0073618D01*
X0335021Y0073502D01*
X0335374Y0073377D01*
X0335723Y0073243D01*
X0336070Y0073101D01*
X0336413Y0072950D01*
X0336752Y0072792D01*
X0337087Y0072625D01*
X0337418Y0072449D01*
X0337745Y0072266D01*
X0338067Y0072075D01*
X0338384Y0071876D01*
X0338697Y0071670D01*
X0339004Y0071456D01*
X0339306Y0071234D01*
X0339603Y0071006D01*
X0339894Y0070770D01*
X0340179Y0070527D01*
X0340458Y0070277D01*
X0340731Y0070021D01*
X0340997Y0069757D01*
X0341257Y0069488D01*
X0341511Y0069212D01*
X0341758Y0068931D01*
X0341997Y0068643D01*
X0342230Y0068349D01*
X0342456Y0068050D01*
X0342674Y0067746D01*
X0342884Y0067436D01*
X0343088Y0067122D01*
X0343283Y0066802D01*
X0343470Y0066478D01*
X0343650Y0066149D01*
X0343822Y0065816D01*
X0343985Y0065479D01*
X0344140Y0065138D01*
X0344287Y0064794D01*
X0344425Y0064446D01*
X0346591Y0064840D02*
X0346591Y0071927D01*
X0378722Y0071885D02*
X0378720Y0048285D01*
X0404524Y0048285D01*
X0404522Y0071885D01*
X0346591Y0053029D02*
X0346591Y0045942D01*
X0343047Y0042399D01*
X0313520Y0042399D01*
X0313520Y0053029D01*
X0313008Y0055627D02*
X0342535Y0055627D01*
X0346079Y0052084D01*
X0346079Y0044997D01*
X0343913Y0044604D02*
X0343775Y0044952D01*
X0343628Y0045296D01*
X0343473Y0045637D01*
X0343310Y0045974D01*
X0343138Y0046307D01*
X0342958Y0046636D01*
X0342771Y0046960D01*
X0342576Y0047280D01*
X0342372Y0047594D01*
X0342162Y0047904D01*
X0341944Y0048208D01*
X0341718Y0048507D01*
X0341485Y0048801D01*
X0341246Y0049089D01*
X0340999Y0049370D01*
X0340745Y0049646D01*
X0340485Y0049915D01*
X0340219Y0050179D01*
X0339946Y0050435D01*
X0339667Y0050685D01*
X0339382Y0050928D01*
X0339091Y0051164D01*
X0338794Y0051392D01*
X0338492Y0051614D01*
X0338185Y0051828D01*
X0337872Y0052034D01*
X0337555Y0052233D01*
X0337233Y0052424D01*
X0336906Y0052607D01*
X0336575Y0052783D01*
X0336240Y0052950D01*
X0335901Y0053108D01*
X0335558Y0053259D01*
X0335211Y0053401D01*
X0334862Y0053535D01*
X0334509Y0053660D01*
X0334153Y0053776D01*
X0333794Y0053884D01*
X0333433Y0053983D01*
X0333069Y0054074D01*
X0332704Y0054155D01*
X0332336Y0054227D01*
X0331967Y0054291D01*
X0331597Y0054345D01*
X0331225Y0054391D01*
X0330852Y0054427D01*
X0330479Y0054455D01*
X0330105Y0054473D01*
X0329730Y0054482D01*
X0329356Y0054482D01*
X0328981Y0054473D01*
X0328607Y0054455D01*
X0328234Y0054427D01*
X0327861Y0054391D01*
X0327489Y0054345D01*
X0327119Y0054291D01*
X0326750Y0054227D01*
X0326382Y0054155D01*
X0326017Y0054074D01*
X0325653Y0053983D01*
X0325292Y0053884D01*
X0324933Y0053776D01*
X0324577Y0053660D01*
X0324224Y0053535D01*
X0323875Y0053401D01*
X0323528Y0053259D01*
X0323185Y0053108D01*
X0322846Y0052950D01*
X0322511Y0052783D01*
X0322180Y0052607D01*
X0321853Y0052424D01*
X0321531Y0052233D01*
X0321214Y0052034D01*
X0320901Y0051828D01*
X0320594Y0051614D01*
X0320292Y0051392D01*
X0319995Y0051164D01*
X0319704Y0050928D01*
X0319419Y0050685D01*
X0319140Y0050435D01*
X0318867Y0050179D01*
X0318601Y0049915D01*
X0318341Y0049646D01*
X0318087Y0049370D01*
X0317840Y0049089D01*
X0317601Y0048801D01*
X0317368Y0048507D01*
X0317142Y0048208D01*
X0316924Y0047904D01*
X0316714Y0047594D01*
X0316510Y0047280D01*
X0316315Y0046960D01*
X0316128Y0046636D01*
X0315948Y0046307D01*
X0315776Y0045974D01*
X0315613Y0045637D01*
X0315458Y0045296D01*
X0315311Y0044952D01*
X0315173Y0044604D01*
X0313008Y0044997D02*
X0313008Y0055627D01*
X0315685Y0053422D02*
X0315823Y0053074D01*
X0315970Y0052730D01*
X0316125Y0052389D01*
X0316288Y0052052D01*
X0316460Y0051719D01*
X0316640Y0051390D01*
X0316827Y0051066D01*
X0317022Y0050746D01*
X0317226Y0050432D01*
X0317436Y0050122D01*
X0317654Y0049818D01*
X0317880Y0049519D01*
X0318113Y0049225D01*
X0318352Y0048937D01*
X0318599Y0048656D01*
X0318853Y0048380D01*
X0319113Y0048111D01*
X0319379Y0047847D01*
X0319652Y0047591D01*
X0319931Y0047341D01*
X0320216Y0047098D01*
X0320507Y0046862D01*
X0320804Y0046634D01*
X0321106Y0046412D01*
X0321413Y0046198D01*
X0321726Y0045992D01*
X0322043Y0045793D01*
X0322365Y0045602D01*
X0322692Y0045419D01*
X0323023Y0045243D01*
X0323358Y0045076D01*
X0323697Y0044918D01*
X0324040Y0044767D01*
X0324387Y0044625D01*
X0324736Y0044491D01*
X0325089Y0044366D01*
X0325445Y0044250D01*
X0325804Y0044142D01*
X0326165Y0044043D01*
X0326529Y0043952D01*
X0326894Y0043871D01*
X0327262Y0043799D01*
X0327631Y0043735D01*
X0328001Y0043681D01*
X0328373Y0043635D01*
X0328746Y0043599D01*
X0329119Y0043571D01*
X0329493Y0043553D01*
X0329868Y0043544D01*
X0330242Y0043544D01*
X0330617Y0043553D01*
X0330991Y0043571D01*
X0331364Y0043599D01*
X0331737Y0043635D01*
X0332109Y0043681D01*
X0332479Y0043735D01*
X0332848Y0043799D01*
X0333216Y0043871D01*
X0333581Y0043952D01*
X0333945Y0044043D01*
X0334306Y0044142D01*
X0334665Y0044250D01*
X0335021Y0044366D01*
X0335374Y0044491D01*
X0335723Y0044625D01*
X0336070Y0044767D01*
X0336413Y0044918D01*
X0336752Y0045076D01*
X0337087Y0045243D01*
X0337418Y0045419D01*
X0337745Y0045602D01*
X0338067Y0045793D01*
X0338384Y0045992D01*
X0338697Y0046198D01*
X0339004Y0046412D01*
X0339306Y0046634D01*
X0339603Y0046862D01*
X0339894Y0047098D01*
X0340179Y0047341D01*
X0340458Y0047591D01*
X0340731Y0047847D01*
X0340997Y0048111D01*
X0341257Y0048380D01*
X0341511Y0048656D01*
X0341758Y0048937D01*
X0341997Y0049225D01*
X0342230Y0049519D01*
X0342456Y0049818D01*
X0342674Y0050122D01*
X0342884Y0050432D01*
X0343088Y0050746D01*
X0343283Y0051066D01*
X0343470Y0051390D01*
X0343650Y0051719D01*
X0343822Y0052052D01*
X0343985Y0052389D01*
X0344140Y0052730D01*
X0344287Y0053074D01*
X0344425Y0053422D01*
X0343913Y0033580D02*
X0343775Y0033232D01*
X0343628Y0032888D01*
X0343473Y0032547D01*
X0343310Y0032210D01*
X0343138Y0031877D01*
X0342958Y0031548D01*
X0342771Y0031224D01*
X0342576Y0030904D01*
X0342372Y0030590D01*
X0342162Y0030280D01*
X0341944Y0029976D01*
X0341718Y0029677D01*
X0341485Y0029383D01*
X0341246Y0029095D01*
X0340999Y0028814D01*
X0340745Y0028538D01*
X0340485Y0028269D01*
X0340219Y0028005D01*
X0339946Y0027749D01*
X0339667Y0027499D01*
X0339382Y0027256D01*
X0339091Y0027020D01*
X0338794Y0026792D01*
X0338492Y0026570D01*
X0338185Y0026356D01*
X0337872Y0026150D01*
X0337555Y0025951D01*
X0337233Y0025760D01*
X0336906Y0025577D01*
X0336575Y0025401D01*
X0336240Y0025234D01*
X0335901Y0025076D01*
X0335558Y0024925D01*
X0335211Y0024783D01*
X0334862Y0024649D01*
X0334509Y0024524D01*
X0334153Y0024408D01*
X0333794Y0024300D01*
X0333433Y0024201D01*
X0333069Y0024110D01*
X0332704Y0024029D01*
X0332336Y0023957D01*
X0331967Y0023893D01*
X0331597Y0023839D01*
X0331225Y0023793D01*
X0330852Y0023757D01*
X0330479Y0023729D01*
X0330105Y0023711D01*
X0329730Y0023702D01*
X0329356Y0023702D01*
X0328981Y0023711D01*
X0328607Y0023729D01*
X0328234Y0023757D01*
X0327861Y0023793D01*
X0327489Y0023839D01*
X0327119Y0023893D01*
X0326750Y0023957D01*
X0326382Y0024029D01*
X0326017Y0024110D01*
X0325653Y0024201D01*
X0325292Y0024300D01*
X0324933Y0024408D01*
X0324577Y0024524D01*
X0324224Y0024649D01*
X0323875Y0024783D01*
X0323528Y0024925D01*
X0323185Y0025076D01*
X0322846Y0025234D01*
X0322511Y0025401D01*
X0322180Y0025577D01*
X0321853Y0025760D01*
X0321531Y0025951D01*
X0321214Y0026150D01*
X0320901Y0026356D01*
X0320594Y0026570D01*
X0320292Y0026792D01*
X0319995Y0027020D01*
X0319704Y0027256D01*
X0319419Y0027499D01*
X0319140Y0027749D01*
X0318867Y0028005D01*
X0318601Y0028269D01*
X0318341Y0028538D01*
X0318087Y0028814D01*
X0317840Y0029095D01*
X0317601Y0029383D01*
X0317368Y0029677D01*
X0317142Y0029976D01*
X0316924Y0030280D01*
X0316714Y0030590D01*
X0316510Y0030904D01*
X0316315Y0031224D01*
X0316128Y0031548D01*
X0315948Y0031877D01*
X0315776Y0032210D01*
X0315613Y0032547D01*
X0315458Y0032888D01*
X0315311Y0033232D01*
X0315173Y0033580D01*
X0313008Y0033186D02*
X0313008Y0022556D01*
X0342535Y0022556D01*
X0346079Y0026100D01*
X0346079Y0033186D01*
X0345843Y0031651D02*
X0342299Y0035194D01*
X0312772Y0035194D01*
X0312772Y0024564D01*
X0314937Y0024171D02*
X0315075Y0024519D01*
X0315222Y0024863D01*
X0315377Y0025204D01*
X0315540Y0025541D01*
X0315712Y0025874D01*
X0315892Y0026203D01*
X0316079Y0026527D01*
X0316274Y0026847D01*
X0316478Y0027161D01*
X0316688Y0027471D01*
X0316906Y0027775D01*
X0317132Y0028074D01*
X0317365Y0028368D01*
X0317604Y0028656D01*
X0317851Y0028937D01*
X0318105Y0029213D01*
X0318365Y0029482D01*
X0318631Y0029746D01*
X0318904Y0030002D01*
X0319183Y0030252D01*
X0319468Y0030495D01*
X0319759Y0030731D01*
X0320056Y0030959D01*
X0320358Y0031181D01*
X0320665Y0031395D01*
X0320978Y0031601D01*
X0321295Y0031800D01*
X0321617Y0031991D01*
X0321944Y0032174D01*
X0322275Y0032350D01*
X0322610Y0032517D01*
X0322949Y0032675D01*
X0323292Y0032826D01*
X0323639Y0032968D01*
X0323988Y0033102D01*
X0324341Y0033227D01*
X0324697Y0033343D01*
X0325056Y0033451D01*
X0325417Y0033550D01*
X0325781Y0033641D01*
X0326146Y0033722D01*
X0326514Y0033794D01*
X0326883Y0033858D01*
X0327253Y0033912D01*
X0327625Y0033958D01*
X0327998Y0033994D01*
X0328371Y0034022D01*
X0328745Y0034040D01*
X0329120Y0034049D01*
X0329494Y0034049D01*
X0329869Y0034040D01*
X0330243Y0034022D01*
X0330616Y0033994D01*
X0330989Y0033958D01*
X0331361Y0033912D01*
X0331731Y0033858D01*
X0332100Y0033794D01*
X0332468Y0033722D01*
X0332833Y0033641D01*
X0333197Y0033550D01*
X0333558Y0033451D01*
X0333917Y0033343D01*
X0334273Y0033227D01*
X0334626Y0033102D01*
X0334975Y0032968D01*
X0335322Y0032826D01*
X0335665Y0032675D01*
X0336004Y0032517D01*
X0336339Y0032350D01*
X0336670Y0032174D01*
X0336997Y0031991D01*
X0337319Y0031800D01*
X0337636Y0031601D01*
X0337949Y0031395D01*
X0338256Y0031181D01*
X0338558Y0030959D01*
X0338855Y0030731D01*
X0339146Y0030495D01*
X0339431Y0030252D01*
X0339710Y0030002D01*
X0339983Y0029746D01*
X0340249Y0029482D01*
X0340509Y0029213D01*
X0340763Y0028937D01*
X0341010Y0028656D01*
X0341249Y0028368D01*
X0341482Y0028074D01*
X0341708Y0027775D01*
X0341926Y0027471D01*
X0342136Y0027161D01*
X0342340Y0026847D01*
X0342535Y0026527D01*
X0342722Y0026203D01*
X0342902Y0025874D01*
X0343074Y0025541D01*
X0343237Y0025204D01*
X0343392Y0024863D01*
X0343539Y0024519D01*
X0343677Y0024171D01*
X0345843Y0024564D02*
X0345843Y0031651D01*
X0386157Y0036218D02*
X0386157Y0025588D01*
X0388323Y0014170D02*
X0388461Y0013822D01*
X0388608Y0013478D01*
X0388763Y0013137D01*
X0388926Y0012800D01*
X0389098Y0012467D01*
X0389278Y0012138D01*
X0389465Y0011814D01*
X0389660Y0011494D01*
X0389864Y0011180D01*
X0390074Y0010870D01*
X0390292Y0010566D01*
X0390518Y0010267D01*
X0390751Y0009973D01*
X0390990Y0009685D01*
X0391237Y0009404D01*
X0391491Y0009128D01*
X0391751Y0008859D01*
X0392017Y0008595D01*
X0392290Y0008339D01*
X0392569Y0008089D01*
X0392854Y0007846D01*
X0393145Y0007610D01*
X0393442Y0007382D01*
X0393744Y0007160D01*
X0394051Y0006946D01*
X0394364Y0006740D01*
X0394681Y0006541D01*
X0395003Y0006350D01*
X0395330Y0006167D01*
X0395661Y0005991D01*
X0395996Y0005824D01*
X0396335Y0005666D01*
X0396678Y0005515D01*
X0397025Y0005373D01*
X0397374Y0005239D01*
X0397727Y0005114D01*
X0398083Y0004998D01*
X0398442Y0004890D01*
X0398803Y0004791D01*
X0399167Y0004700D01*
X0399532Y0004619D01*
X0399900Y0004547D01*
X0400269Y0004483D01*
X0400639Y0004429D01*
X0401011Y0004383D01*
X0401384Y0004347D01*
X0401757Y0004319D01*
X0402131Y0004301D01*
X0402506Y0004292D01*
X0402880Y0004292D01*
X0403255Y0004301D01*
X0403629Y0004319D01*
X0404002Y0004347D01*
X0404375Y0004383D01*
X0404747Y0004429D01*
X0405117Y0004483D01*
X0405486Y0004547D01*
X0405854Y0004619D01*
X0406219Y0004700D01*
X0406583Y0004791D01*
X0406944Y0004890D01*
X0407303Y0004998D01*
X0407659Y0005114D01*
X0408012Y0005239D01*
X0408361Y0005373D01*
X0408708Y0005515D01*
X0409051Y0005666D01*
X0409390Y0005824D01*
X0409725Y0005991D01*
X0410056Y0006167D01*
X0410383Y0006350D01*
X0410705Y0006541D01*
X0411022Y0006740D01*
X0411335Y0006946D01*
X0411642Y0007160D01*
X0411944Y0007382D01*
X0412241Y0007610D01*
X0412532Y0007846D01*
X0412817Y0008089D01*
X0413096Y0008339D01*
X0413369Y0008595D01*
X0413635Y0008859D01*
X0413895Y0009128D01*
X0414149Y0009404D01*
X0414396Y0009685D01*
X0414635Y0009973D01*
X0414868Y0010267D01*
X0415094Y0010566D01*
X0415312Y0010870D01*
X0415522Y0011180D01*
X0415726Y0011494D01*
X0415921Y0011814D01*
X0416108Y0012138D01*
X0416288Y0012467D01*
X0416460Y0012800D01*
X0416623Y0013137D01*
X0416778Y0013478D01*
X0416925Y0013822D01*
X0417063Y0014170D01*
X0419228Y0013777D02*
X0419228Y0006690D01*
X0415685Y0003147D01*
X0386157Y0003147D01*
X0386157Y0013777D01*
X0388323Y0025194D02*
X0388461Y0025542D01*
X0388608Y0025886D01*
X0388763Y0026227D01*
X0388926Y0026564D01*
X0389098Y0026897D01*
X0389278Y0027226D01*
X0389465Y0027550D01*
X0389660Y0027870D01*
X0389864Y0028184D01*
X0390074Y0028494D01*
X0390292Y0028798D01*
X0390518Y0029097D01*
X0390751Y0029391D01*
X0390990Y0029679D01*
X0391237Y0029960D01*
X0391491Y0030236D01*
X0391751Y0030505D01*
X0392017Y0030769D01*
X0392290Y0031025D01*
X0392569Y0031275D01*
X0392854Y0031518D01*
X0393145Y0031754D01*
X0393442Y0031982D01*
X0393744Y0032204D01*
X0394051Y0032418D01*
X0394364Y0032624D01*
X0394681Y0032823D01*
X0395003Y0033014D01*
X0395330Y0033197D01*
X0395661Y0033373D01*
X0395996Y0033540D01*
X0396335Y0033698D01*
X0396678Y0033849D01*
X0397025Y0033991D01*
X0397374Y0034125D01*
X0397727Y0034250D01*
X0398083Y0034366D01*
X0398442Y0034474D01*
X0398803Y0034573D01*
X0399167Y0034664D01*
X0399532Y0034745D01*
X0399900Y0034817D01*
X0400269Y0034881D01*
X0400639Y0034935D01*
X0401011Y0034981D01*
X0401384Y0035017D01*
X0401757Y0035045D01*
X0402131Y0035063D01*
X0402506Y0035072D01*
X0402880Y0035072D01*
X0403255Y0035063D01*
X0403629Y0035045D01*
X0404002Y0035017D01*
X0404375Y0034981D01*
X0404747Y0034935D01*
X0405117Y0034881D01*
X0405486Y0034817D01*
X0405854Y0034745D01*
X0406219Y0034664D01*
X0406583Y0034573D01*
X0406944Y0034474D01*
X0407303Y0034366D01*
X0407659Y0034250D01*
X0408012Y0034125D01*
X0408361Y0033991D01*
X0408708Y0033849D01*
X0409051Y0033698D01*
X0409390Y0033540D01*
X0409725Y0033373D01*
X0410056Y0033197D01*
X0410383Y0033014D01*
X0410705Y0032823D01*
X0411022Y0032624D01*
X0411335Y0032418D01*
X0411642Y0032204D01*
X0411944Y0031982D01*
X0412241Y0031754D01*
X0412532Y0031518D01*
X0412817Y0031275D01*
X0413096Y0031025D01*
X0413369Y0030769D01*
X0413635Y0030505D01*
X0413895Y0030236D01*
X0414149Y0029960D01*
X0414396Y0029679D01*
X0414635Y0029391D01*
X0414868Y0029097D01*
X0415094Y0028798D01*
X0415312Y0028494D01*
X0415522Y0028184D01*
X0415726Y0027870D01*
X0415921Y0027550D01*
X0416108Y0027226D01*
X0416288Y0026897D01*
X0416460Y0026564D01*
X0416623Y0026227D01*
X0416778Y0025886D01*
X0416925Y0025542D01*
X0417063Y0025194D01*
X0419228Y0025588D02*
X0419228Y0032675D01*
X0415685Y0036218D01*
X0386157Y0036218D01*
X0343677Y0013147D02*
X0343539Y0012799D01*
X0343392Y0012455D01*
X0343237Y0012114D01*
X0343074Y0011777D01*
X0342902Y0011444D01*
X0342722Y0011115D01*
X0342535Y0010791D01*
X0342340Y0010471D01*
X0342136Y0010157D01*
X0341926Y0009847D01*
X0341708Y0009543D01*
X0341482Y0009244D01*
X0341249Y0008950D01*
X0341010Y0008662D01*
X0340763Y0008381D01*
X0340509Y0008105D01*
X0340249Y0007836D01*
X0339983Y0007572D01*
X0339710Y0007316D01*
X0339431Y0007066D01*
X0339146Y0006823D01*
X0338855Y0006587D01*
X0338558Y0006359D01*
X0338256Y0006137D01*
X0337949Y0005923D01*
X0337636Y0005717D01*
X0337319Y0005518D01*
X0336997Y0005327D01*
X0336670Y0005144D01*
X0336339Y0004968D01*
X0336004Y0004801D01*
X0335665Y0004643D01*
X0335322Y0004492D01*
X0334975Y0004350D01*
X0334626Y0004216D01*
X0334273Y0004091D01*
X0333917Y0003975D01*
X0333558Y0003867D01*
X0333197Y0003768D01*
X0332833Y0003677D01*
X0332468Y0003596D01*
X0332100Y0003524D01*
X0331731Y0003460D01*
X0331361Y0003406D01*
X0330989Y0003360D01*
X0330616Y0003324D01*
X0330243Y0003296D01*
X0329869Y0003278D01*
X0329494Y0003269D01*
X0329120Y0003269D01*
X0328745Y0003278D01*
X0328371Y0003296D01*
X0327998Y0003324D01*
X0327625Y0003360D01*
X0327253Y0003406D01*
X0326883Y0003460D01*
X0326514Y0003524D01*
X0326146Y0003596D01*
X0325781Y0003677D01*
X0325417Y0003768D01*
X0325056Y0003867D01*
X0324697Y0003975D01*
X0324341Y0004091D01*
X0323988Y0004216D01*
X0323639Y0004350D01*
X0323292Y0004492D01*
X0322949Y0004643D01*
X0322610Y0004801D01*
X0322275Y0004968D01*
X0321944Y0005144D01*
X0321617Y0005327D01*
X0321295Y0005518D01*
X0320978Y0005717D01*
X0320665Y0005923D01*
X0320358Y0006137D01*
X0320056Y0006359D01*
X0319759Y0006587D01*
X0319468Y0006823D01*
X0319183Y0007066D01*
X0318904Y0007316D01*
X0318631Y0007572D01*
X0318365Y0007836D01*
X0318105Y0008105D01*
X0317851Y0008381D01*
X0317604Y0008662D01*
X0317365Y0008950D01*
X0317132Y0009244D01*
X0316906Y0009543D01*
X0316688Y0009847D01*
X0316478Y0010157D01*
X0316274Y0010471D01*
X0316079Y0010791D01*
X0315892Y0011115D01*
X0315712Y0011444D01*
X0315540Y0011777D01*
X0315377Y0012114D01*
X0315222Y0012455D01*
X0315075Y0012799D01*
X0314937Y0013147D01*
X0312772Y0012753D02*
X0312772Y0002123D01*
X0342299Y0002123D01*
X0345843Y0005667D01*
X0345843Y0012753D01*
D17*
X0297972Y0012184D02*
X0297972Y0010649D01*
X0297205Y0009882D01*
X0294903Y0009882D01*
X0296438Y0009882D02*
X0297972Y0008347D01*
X0294903Y0008347D02*
X0294903Y0012951D01*
X0297205Y0012951D01*
X0297972Y0012184D01*
X0293368Y0012951D02*
X0293368Y0008347D01*
X0291834Y0009882D01*
X0290299Y0008347D01*
X0290299Y0012951D01*
X0288765Y0012184D02*
X0287997Y0012951D01*
X0286463Y0012951D01*
X0285695Y0012184D01*
X0285695Y0011416D01*
X0286463Y0010649D01*
X0287997Y0010649D01*
X0288765Y0009882D01*
X0288765Y0009114D01*
X0287997Y0008347D01*
X0286463Y0008347D01*
X0285695Y0009114D01*
X0290274Y0037127D02*
X0289507Y0037894D01*
X0290274Y0037127D02*
X0291809Y0037127D01*
X0292576Y0037894D01*
X0292576Y0038661D01*
X0291809Y0039428D01*
X0290274Y0039428D01*
X0289507Y0040196D01*
X0289507Y0040963D01*
X0290274Y0041730D01*
X0291809Y0041730D01*
X0292576Y0040963D01*
X0294111Y0041730D02*
X0294111Y0037127D01*
X0295646Y0038661D01*
X0297180Y0037127D01*
X0297180Y0041730D01*
X0298715Y0040196D02*
X0300250Y0041730D01*
X0300250Y0037127D01*
X0301784Y0037127D02*
X0298715Y0037127D01*
X0312617Y0037461D02*
X0313385Y0036693D01*
X0314919Y0036693D01*
X0315687Y0037461D01*
X0317221Y0036693D02*
X0320291Y0036693D01*
X0318756Y0036693D02*
X0318756Y0041297D01*
X0317221Y0039763D01*
X0315687Y0040530D02*
X0314919Y0041297D01*
X0313385Y0041297D01*
X0312617Y0040530D01*
X0312617Y0037461D01*
X0301784Y0050906D02*
X0298715Y0050906D01*
X0301784Y0053975D01*
X0301784Y0054743D01*
X0301017Y0055510D01*
X0299482Y0055510D01*
X0298715Y0054743D01*
X0297180Y0055510D02*
X0297180Y0050906D01*
X0295646Y0052441D01*
X0294111Y0050906D01*
X0294111Y0055510D01*
X0292576Y0054743D02*
X0291809Y0055510D01*
X0290274Y0055510D01*
X0289507Y0054743D01*
X0289507Y0053975D01*
X0290274Y0053208D01*
X0291809Y0053208D01*
X0292576Y0052441D01*
X0292576Y0051673D01*
X0291809Y0050906D01*
X0290274Y0050906D01*
X0289507Y0051673D01*
X0312854Y0057894D02*
X0313621Y0057127D01*
X0315155Y0057127D01*
X0315923Y0057894D01*
X0317457Y0057894D02*
X0318225Y0057127D01*
X0319759Y0057127D01*
X0320527Y0057894D01*
X0320527Y0058661D01*
X0319759Y0059428D01*
X0318992Y0059428D01*
X0319759Y0059428D02*
X0320527Y0060196D01*
X0320527Y0060963D01*
X0319759Y0061730D01*
X0318225Y0061730D01*
X0317457Y0060963D01*
X0315923Y0060963D02*
X0315155Y0061730D01*
X0313621Y0061730D01*
X0312854Y0060963D01*
X0312854Y0057894D01*
X0286822Y0071194D02*
X0282219Y0074264D01*
X0282219Y0075798D02*
X0283753Y0077333D01*
X0282219Y0078867D01*
X0286822Y0078867D01*
X0286822Y0080402D02*
X0286822Y0083471D01*
X0286055Y0085006D02*
X0286822Y0085773D01*
X0286822Y0087308D01*
X0286055Y0088075D01*
X0284520Y0088075D01*
X0284520Y0086541D01*
X0282986Y0088075D02*
X0282219Y0087308D01*
X0282219Y0085773D01*
X0282986Y0085006D01*
X0286055Y0085006D01*
X0282219Y0083471D02*
X0282219Y0080402D01*
X0286822Y0080402D01*
X0284520Y0080402D02*
X0284520Y0081937D01*
X0290934Y0083817D02*
X0290934Y0079213D01*
X0294003Y0079213D01*
X0295538Y0079213D02*
X0298607Y0079213D01*
X0300142Y0079213D02*
X0302444Y0079213D01*
X0303211Y0079980D01*
X0303211Y0083050D01*
X0302444Y0083817D01*
X0300142Y0083817D01*
X0300142Y0079213D01*
X0299350Y0082402D02*
X0302419Y0082402D01*
X0303954Y0082402D02*
X0307023Y0082402D01*
X0307815Y0082282D02*
X0307815Y0083050D01*
X0307048Y0083817D01*
X0305513Y0083817D01*
X0304746Y0083050D01*
X0303954Y0082402D02*
X0303954Y0087006D01*
X0307023Y0087006D01*
X0308557Y0087006D02*
X0310859Y0087006D01*
X0311627Y0086239D01*
X0311627Y0083169D01*
X0310859Y0082402D01*
X0308557Y0082402D01*
X0308557Y0087006D01*
X0305488Y0084704D02*
X0303954Y0084704D01*
X0299350Y0087006D02*
X0299350Y0082402D01*
X0298607Y0083817D02*
X0295538Y0083817D01*
X0295538Y0079213D01*
X0295538Y0081515D02*
X0297072Y0081515D01*
X0304746Y0079213D02*
X0307815Y0082282D01*
X0307815Y0079213D02*
X0304746Y0079213D01*
X0313365Y0077736D02*
X0314133Y0076969D01*
X0315667Y0076969D01*
X0316435Y0077736D01*
X0317969Y0079271D02*
X0321039Y0079271D01*
X0320271Y0081573D02*
X0317969Y0079271D01*
X0316435Y0080806D02*
X0315667Y0081573D01*
X0314133Y0081573D01*
X0313365Y0080806D01*
X0313365Y0077736D01*
X0320271Y0076969D02*
X0320271Y0081573D01*
X0316231Y0082402D02*
X0313161Y0082402D01*
X0314696Y0082402D02*
X0314696Y0087006D01*
X0313161Y0085471D01*
X0306315Y0087045D02*
X0306242Y0086968D01*
X0306167Y0086893D01*
X0306089Y0086822D01*
X0306008Y0086753D01*
X0305925Y0086687D01*
X0305840Y0086624D01*
X0305752Y0086565D01*
X0305663Y0086508D01*
X0305571Y0086455D01*
X0305477Y0086405D01*
X0305382Y0086359D01*
X0305285Y0086316D01*
X0305187Y0086277D01*
X0305087Y0086241D01*
X0304986Y0086209D01*
X0304884Y0086181D01*
X0304781Y0086156D01*
X0304677Y0086135D01*
X0304572Y0086118D01*
X0304467Y0086104D01*
X0304362Y0086095D01*
X0304256Y0086089D01*
X0304150Y0086087D01*
X0304044Y0086089D01*
X0303938Y0086095D01*
X0303833Y0086104D01*
X0303728Y0086118D01*
X0303623Y0086135D01*
X0303519Y0086156D01*
X0303416Y0086181D01*
X0303314Y0086209D01*
X0303213Y0086241D01*
X0303113Y0086277D01*
X0303015Y0086316D01*
X0302918Y0086359D01*
X0302823Y0086405D01*
X0302729Y0086455D01*
X0302637Y0086508D01*
X0302548Y0086565D01*
X0302460Y0086624D01*
X0302375Y0086687D01*
X0302292Y0086753D01*
X0302211Y0086822D01*
X0302133Y0086893D01*
X0302058Y0086968D01*
X0301985Y0087045D01*
X0301985Y0090981D02*
X0302058Y0091058D01*
X0302133Y0091133D01*
X0302211Y0091204D01*
X0302292Y0091273D01*
X0302375Y0091339D01*
X0302460Y0091402D01*
X0302548Y0091461D01*
X0302637Y0091518D01*
X0302729Y0091571D01*
X0302823Y0091621D01*
X0302918Y0091667D01*
X0303015Y0091710D01*
X0303113Y0091749D01*
X0303213Y0091785D01*
X0303314Y0091817D01*
X0303416Y0091845D01*
X0303519Y0091870D01*
X0303623Y0091891D01*
X0303728Y0091908D01*
X0303833Y0091922D01*
X0303938Y0091931D01*
X0304044Y0091937D01*
X0304150Y0091939D01*
X0304256Y0091937D01*
X0304362Y0091931D01*
X0304467Y0091922D01*
X0304572Y0091908D01*
X0304677Y0091891D01*
X0304781Y0091870D01*
X0304884Y0091845D01*
X0304986Y0091817D01*
X0305087Y0091785D01*
X0305187Y0091749D01*
X0305285Y0091710D01*
X0305382Y0091667D01*
X0305477Y0091621D01*
X0305571Y0091571D01*
X0305663Y0091518D01*
X0305752Y0091461D01*
X0305840Y0091402D01*
X0305925Y0091339D01*
X0306008Y0091273D01*
X0306089Y0091204D01*
X0306167Y0091133D01*
X0306242Y0091058D01*
X0306315Y0090981D01*
X0286822Y0089610D02*
X0283753Y0089610D01*
X0282219Y0091145D01*
X0283753Y0092679D01*
X0286822Y0092679D01*
X0286055Y0094214D02*
X0286822Y0094981D01*
X0286822Y0096516D01*
X0286055Y0097283D01*
X0285288Y0097283D01*
X0284520Y0096516D01*
X0284520Y0094214D01*
X0286055Y0094214D01*
X0284520Y0094214D02*
X0282986Y0095748D01*
X0282219Y0097283D01*
X0284520Y0098818D02*
X0284520Y0101887D01*
X0282219Y0101120D02*
X0284520Y0098818D01*
X0282219Y0101120D02*
X0286822Y0101120D01*
X0299350Y0106024D02*
X0302419Y0106024D01*
X0303954Y0106024D02*
X0307023Y0106024D01*
X0308557Y0106024D02*
X0310859Y0106024D01*
X0311627Y0106791D01*
X0311627Y0109861D01*
X0310859Y0110628D01*
X0308557Y0110628D01*
X0308557Y0106024D01*
X0305488Y0108326D02*
X0303954Y0108326D01*
X0303954Y0110628D02*
X0303954Y0106024D01*
X0299350Y0106024D02*
X0299350Y0110628D01*
X0303954Y0110628D02*
X0307023Y0110628D01*
X0313161Y0109861D02*
X0313929Y0110628D01*
X0315463Y0110628D01*
X0316231Y0109861D01*
X0316231Y0109093D01*
X0315463Y0108326D01*
X0316231Y0107559D01*
X0316231Y0106791D01*
X0315463Y0106024D01*
X0313929Y0106024D01*
X0313161Y0106791D01*
X0314696Y0108326D02*
X0315463Y0108326D01*
X0306315Y0102792D02*
X0306242Y0102869D01*
X0306167Y0102944D01*
X0306089Y0103015D01*
X0306008Y0103084D01*
X0305925Y0103150D01*
X0305840Y0103213D01*
X0305752Y0103272D01*
X0305663Y0103329D01*
X0305571Y0103382D01*
X0305477Y0103432D01*
X0305382Y0103478D01*
X0305285Y0103521D01*
X0305187Y0103560D01*
X0305087Y0103596D01*
X0304986Y0103628D01*
X0304884Y0103656D01*
X0304781Y0103681D01*
X0304677Y0103702D01*
X0304572Y0103719D01*
X0304467Y0103733D01*
X0304362Y0103742D01*
X0304256Y0103748D01*
X0304150Y0103750D01*
X0304044Y0103748D01*
X0303938Y0103742D01*
X0303833Y0103733D01*
X0303728Y0103719D01*
X0303623Y0103702D01*
X0303519Y0103681D01*
X0303416Y0103656D01*
X0303314Y0103628D01*
X0303213Y0103596D01*
X0303113Y0103560D01*
X0303015Y0103521D01*
X0302918Y0103478D01*
X0302823Y0103432D01*
X0302729Y0103382D01*
X0302637Y0103329D01*
X0302548Y0103272D01*
X0302460Y0103213D01*
X0302375Y0103150D01*
X0302292Y0103084D01*
X0302211Y0103015D01*
X0302133Y0102944D01*
X0302058Y0102869D01*
X0301985Y0102792D01*
X0301985Y0098856D02*
X0302058Y0098779D01*
X0302133Y0098704D01*
X0302211Y0098633D01*
X0302292Y0098564D01*
X0302375Y0098498D01*
X0302460Y0098435D01*
X0302548Y0098376D01*
X0302637Y0098319D01*
X0302729Y0098266D01*
X0302823Y0098216D01*
X0302918Y0098170D01*
X0303015Y0098127D01*
X0303113Y0098088D01*
X0303213Y0098052D01*
X0303314Y0098020D01*
X0303416Y0097992D01*
X0303519Y0097967D01*
X0303623Y0097946D01*
X0303728Y0097929D01*
X0303833Y0097915D01*
X0303938Y0097906D01*
X0304044Y0097900D01*
X0304150Y0097898D01*
X0304256Y0097900D01*
X0304362Y0097906D01*
X0304467Y0097915D01*
X0304572Y0097929D01*
X0304677Y0097946D01*
X0304781Y0097967D01*
X0304884Y0097992D01*
X0304986Y0098020D01*
X0305087Y0098052D01*
X0305187Y0098088D01*
X0305285Y0098127D01*
X0305382Y0098170D01*
X0305477Y0098216D01*
X0305571Y0098266D01*
X0305663Y0098319D01*
X0305752Y0098376D01*
X0305840Y0098435D01*
X0305925Y0098498D01*
X0306008Y0098564D01*
X0306089Y0098633D01*
X0306167Y0098704D01*
X0306242Y0098779D01*
X0306315Y0098856D01*
X0284520Y0092679D02*
X0284520Y0089610D01*
X0301985Y0079170D02*
X0302058Y0079247D01*
X0302133Y0079322D01*
X0302211Y0079393D01*
X0302292Y0079462D01*
X0302375Y0079528D01*
X0302460Y0079591D01*
X0302548Y0079650D01*
X0302637Y0079707D01*
X0302729Y0079760D01*
X0302823Y0079810D01*
X0302918Y0079856D01*
X0303015Y0079899D01*
X0303113Y0079938D01*
X0303213Y0079974D01*
X0303314Y0080006D01*
X0303416Y0080034D01*
X0303519Y0080059D01*
X0303623Y0080080D01*
X0303728Y0080097D01*
X0303833Y0080111D01*
X0303938Y0080120D01*
X0304044Y0080126D01*
X0304150Y0080128D01*
X0304256Y0080126D01*
X0304362Y0080120D01*
X0304467Y0080111D01*
X0304572Y0080097D01*
X0304677Y0080080D01*
X0304781Y0080059D01*
X0304884Y0080034D01*
X0304986Y0080006D01*
X0305087Y0079974D01*
X0305187Y0079938D01*
X0305285Y0079899D01*
X0305382Y0079856D01*
X0305477Y0079810D01*
X0305571Y0079760D01*
X0305663Y0079707D01*
X0305752Y0079650D01*
X0305840Y0079591D01*
X0305925Y0079528D01*
X0306008Y0079462D01*
X0306089Y0079393D01*
X0306167Y0079322D01*
X0306242Y0079247D01*
X0306315Y0079170D01*
X0306315Y0075234D02*
X0306242Y0075157D01*
X0306167Y0075082D01*
X0306089Y0075011D01*
X0306008Y0074942D01*
X0305925Y0074876D01*
X0305840Y0074813D01*
X0305752Y0074754D01*
X0305663Y0074697D01*
X0305571Y0074644D01*
X0305477Y0074594D01*
X0305382Y0074548D01*
X0305285Y0074505D01*
X0305187Y0074466D01*
X0305087Y0074430D01*
X0304986Y0074398D01*
X0304884Y0074370D01*
X0304781Y0074345D01*
X0304677Y0074324D01*
X0304572Y0074307D01*
X0304467Y0074293D01*
X0304362Y0074284D01*
X0304256Y0074278D01*
X0304150Y0074276D01*
X0304044Y0074278D01*
X0303938Y0074284D01*
X0303833Y0074293D01*
X0303728Y0074307D01*
X0303623Y0074324D01*
X0303519Y0074345D01*
X0303416Y0074370D01*
X0303314Y0074398D01*
X0303213Y0074430D01*
X0303113Y0074466D01*
X0303015Y0074505D01*
X0302918Y0074548D01*
X0302823Y0074594D01*
X0302729Y0074644D01*
X0302637Y0074697D01*
X0302548Y0074754D01*
X0302460Y0074813D01*
X0302375Y0074876D01*
X0302292Y0074942D01*
X0302211Y0075011D01*
X0302133Y0075082D01*
X0302058Y0075157D01*
X0301985Y0075234D01*
X0286822Y0075798D02*
X0282219Y0075798D01*
X0282219Y0071194D02*
X0286822Y0074264D01*
X0221731Y0074033D02*
X0220964Y0073265D01*
X0220196Y0073265D01*
X0219429Y0074033D01*
X0219429Y0075567D01*
X0220196Y0076334D01*
X0220964Y0076334D01*
X0221731Y0075567D01*
X0221731Y0074033D01*
X0219429Y0074033D02*
X0218662Y0073265D01*
X0217895Y0073265D01*
X0217127Y0074033D01*
X0217127Y0075567D01*
X0217895Y0076334D01*
X0218662Y0076334D01*
X0219429Y0075567D01*
X0217895Y0077869D02*
X0217127Y0078636D01*
X0217127Y0080171D01*
X0217895Y0080938D01*
X0220964Y0077869D01*
X0221731Y0078636D01*
X0221731Y0080171D01*
X0220964Y0080938D01*
X0217895Y0080938D01*
X0217895Y0077869D02*
X0220964Y0077869D01*
X0220964Y0071731D02*
X0221731Y0071731D01*
X0221731Y0070963D01*
X0220964Y0070963D01*
X0220964Y0071731D01*
X0220964Y0069429D02*
X0221731Y0068661D01*
X0221731Y0067127D01*
X0220964Y0066359D01*
X0217895Y0069429D01*
X0220964Y0069429D01*
X0217895Y0069429D02*
X0217127Y0068661D01*
X0217127Y0067127D01*
X0217895Y0066359D01*
X0220964Y0066359D01*
X0371818Y0057727D02*
X0372585Y0056193D01*
X0374120Y0054658D01*
X0374120Y0056960D01*
X0374887Y0057727D01*
X0375655Y0057727D01*
X0376422Y0056960D01*
X0376422Y0055425D01*
X0375655Y0054658D01*
X0374120Y0054658D01*
X0372585Y0053123D02*
X0371818Y0052356D01*
X0371818Y0050821D01*
X0372585Y0050054D01*
X0375655Y0050054D01*
X0376422Y0050821D01*
X0376422Y0052356D01*
X0375655Y0053123D01*
X0376422Y0048519D02*
X0376422Y0046985D01*
X0376422Y0047752D02*
X0371818Y0047752D01*
X0371818Y0046985D02*
X0371818Y0048519D01*
X0386003Y0041554D02*
X0386003Y0038484D01*
X0386770Y0037717D01*
X0388305Y0037717D01*
X0389072Y0038484D01*
X0390607Y0037717D02*
X0393676Y0040786D01*
X0393676Y0041554D01*
X0392909Y0042321D01*
X0391374Y0042321D01*
X0390607Y0041554D01*
X0389072Y0041554D02*
X0388305Y0042321D01*
X0386770Y0042321D01*
X0386003Y0041554D01*
X0390607Y0037717D02*
X0393676Y0037717D01*
X0377662Y0095938D02*
X0377662Y0097472D01*
X0377662Y0096705D02*
X0373058Y0096705D01*
X0373058Y0095938D02*
X0373058Y0097472D01*
X0373826Y0099007D02*
X0376895Y0099007D01*
X0377662Y0099774D01*
X0377662Y0101309D01*
X0376895Y0102076D01*
X0376895Y0103611D02*
X0377662Y0104378D01*
X0377662Y0105913D01*
X0376895Y0106680D01*
X0375360Y0106680D01*
X0374593Y0105913D01*
X0374593Y0105145D01*
X0375360Y0103611D01*
X0373058Y0103611D01*
X0373058Y0106680D01*
X0373826Y0102076D02*
X0373058Y0101309D01*
X0373058Y0099774D01*
X0373826Y0099007D01*
X0313578Y0118859D02*
X0310509Y0118859D01*
X0312043Y0118859D02*
X0312043Y0123463D01*
X0310509Y0121928D01*
X0308974Y0122695D02*
X0308974Y0121161D01*
X0308207Y0120393D01*
X0305905Y0120393D01*
X0305905Y0118859D02*
X0305905Y0123463D01*
X0308207Y0123463D01*
X0308974Y0122695D01*
X0307439Y0120393D02*
X0308974Y0118859D01*
X0181532Y0130829D02*
X0180764Y0130062D01*
X0179230Y0130062D01*
X0178462Y0130829D01*
X0181532Y0133898D01*
X0181532Y0130829D01*
X0178462Y0130829D02*
X0178462Y0133898D01*
X0179230Y0134665D01*
X0180764Y0134665D01*
X0181532Y0133898D01*
X0176928Y0134665D02*
X0175393Y0133898D01*
X0173858Y0132363D01*
X0176160Y0132363D01*
X0176928Y0131596D01*
X0176928Y0130829D01*
X0176160Y0130062D01*
X0174626Y0130062D01*
X0173858Y0130829D01*
X0173858Y0132363D01*
X0172324Y0130829D02*
X0172324Y0130062D01*
X0171556Y0130062D01*
X0171556Y0130829D01*
X0172324Y0130829D01*
X0170022Y0130829D02*
X0169254Y0130062D01*
X0167720Y0130062D01*
X0166953Y0130829D01*
X0170022Y0133898D01*
X0170022Y0130829D01*
X0166953Y0130829D02*
X0166953Y0133898D01*
X0167720Y0134665D01*
X0169254Y0134665D01*
X0170022Y0133898D01*
D18*
X0392862Y0095338D03*
X0391622Y0046385D03*
D19*
X0304150Y0077202D03*
X0304150Y0089013D03*
X0304150Y0100824D03*
D20*
X0306217Y0098560D03*
X0302083Y0091277D03*
X0306217Y0074938D03*
D21*
X0224950Y0102864D02*
X0223693Y0112844D01*
X0224717Y0102864D01*
X0224950Y0102864D02*
X0222436Y0102864D01*
X0223693Y0112844D01*
X0222669Y0102864D01*
X0223181Y0102864D02*
X0223693Y0112844D01*
X0224205Y0102864D01*
X0203693Y0108100D02*
X0203693Y0135777D01*
X0203437Y0128100D02*
X0193457Y0129123D01*
X0193457Y0129357D02*
X0193457Y0126843D01*
X0203437Y0128100D01*
X0193457Y0127076D01*
X0193457Y0127588D02*
X0203437Y0128100D01*
X0193457Y0128612D01*
X0193457Y0129357D02*
X0203437Y0128100D01*
X0143949Y0128100D01*
X0153929Y0127076D01*
X0153929Y0126843D02*
X0143949Y0128100D01*
X0153929Y0129123D01*
X0153929Y0129357D02*
X0153929Y0126843D01*
X0153929Y0127588D02*
X0143949Y0128100D01*
X0153929Y0128612D01*
X0153929Y0129357D02*
X0143949Y0128100D01*
X0143693Y0135777D02*
X0143693Y0108100D01*
X0198693Y0113100D02*
X0231370Y0113100D01*
X0223693Y0112844D02*
X0223693Y0033356D01*
X0224717Y0043336D01*
X0224950Y0043336D02*
X0223693Y0033356D01*
X0222669Y0043336D01*
X0222436Y0043336D02*
X0224950Y0043336D01*
X0224205Y0043336D02*
X0223693Y0033356D01*
X0223181Y0043336D01*
X0222436Y0043336D02*
X0223693Y0033356D01*
X0231370Y0033100D02*
X0198693Y0033100D01*
M02*
