G75*
%MOIN*%
%OFA0B0*%
%FSLAX25Y25*%
%IPPOS*%
%LPD*%
%AMOC8*
5,1,8,0,0,1.08239X$1,22.5*
%
%ADD10C,0.06600*%
%ADD11OC8,0.08500*%
%ADD12R,0.21260X0.24409*%
%ADD13R,0.03937X0.06299*%
%ADD14OC8,0.05600*%
%ADD15C,0.06000*%
%ADD16C,0.05600*%
%ADD17R,0.06299X0.07098*%
%ADD18C,0.05543*%
%ADD19R,0.04700X0.02200*%
%ADD20R,0.02200X0.04700*%
%ADD21R,0.01969X0.07874*%
%ADD22R,0.07087X0.07874*%
%ADD23R,0.05118X0.05906*%
%ADD24R,0.13780X0.09843*%
%ADD25C,0.01600*%
%ADD26C,0.04750*%
%ADD27C,0.01200*%
D10*
X0355579Y0057619D03*
X0363272Y0042509D03*
X0363272Y0082509D03*
X0355579Y0097619D03*
D11*
X0371630Y0092202D03*
X0371630Y0062202D03*
D12*
X0391622Y0066627D03*
X0392862Y0115580D03*
D13*
X0383886Y0086840D03*
X0401839Y0086840D03*
X0400598Y0037887D03*
X0382646Y0037887D03*
D14*
X0256394Y0024167D03*
X0246394Y0024167D03*
X0236394Y0024167D03*
X0236394Y0014167D03*
X0246394Y0014167D03*
X0256394Y0014167D03*
D15*
X0204583Y0018336D02*
X0204583Y0024336D01*
X0194583Y0024336D02*
X0194583Y0018336D01*
X0184583Y0018336D02*
X0184583Y0024336D01*
X0174583Y0024336D02*
X0174583Y0018336D01*
X0135890Y0042360D02*
X0129890Y0042360D01*
X0129890Y0052360D02*
X0135890Y0052360D01*
X0135890Y0062360D02*
X0129890Y0062360D01*
X0129890Y0072360D02*
X0135890Y0072360D01*
X0135890Y0082360D02*
X0129890Y0082360D01*
X0129890Y0092360D02*
X0135890Y0092360D01*
X0417291Y0094328D02*
X0423291Y0094328D01*
X0423291Y0084328D02*
X0417291Y0084328D01*
X0417291Y0074328D02*
X0423291Y0074328D01*
X0423291Y0064328D02*
X0417291Y0064328D01*
X0417291Y0054328D02*
X0423291Y0054328D01*
X0423291Y0044328D02*
X0417291Y0044328D01*
D16*
X0372047Y0105335D02*
X0372047Y0110935D01*
X0362047Y0110935D02*
X0362047Y0105335D01*
D17*
X0309748Y0100824D03*
X0298551Y0100824D03*
X0298551Y0089013D03*
X0309748Y0089013D03*
X0309748Y0077202D03*
X0298551Y0077202D03*
X0299906Y0045706D03*
X0288709Y0045706D03*
X0288709Y0031927D03*
X0299906Y0031927D03*
X0299906Y0018147D03*
X0288709Y0018147D03*
D18*
X0201465Y0038100D02*
X0195921Y0038100D01*
X0195921Y0048100D02*
X0201465Y0048100D01*
X0201465Y0058100D02*
X0195921Y0058100D01*
X0195921Y0068100D02*
X0201465Y0068100D01*
X0201465Y0078100D02*
X0195921Y0078100D01*
X0195921Y0088100D02*
X0201465Y0088100D01*
X0201465Y0098100D02*
X0195921Y0098100D01*
X0195921Y0108100D02*
X0201465Y0108100D01*
X0151465Y0108100D02*
X0145921Y0108100D01*
X0145921Y0098100D02*
X0151465Y0098100D01*
X0151465Y0088100D02*
X0145921Y0088100D01*
X0145921Y0078100D02*
X0151465Y0078100D01*
X0151465Y0068100D02*
X0145921Y0068100D01*
X0145921Y0058100D02*
X0151465Y0058100D01*
X0151465Y0048100D02*
X0145921Y0048100D01*
X0145921Y0038100D02*
X0151465Y0038100D01*
D19*
X0216264Y0057100D03*
X0216264Y0060249D03*
X0216264Y0063399D03*
X0216264Y0066549D03*
X0216264Y0069698D03*
X0216264Y0072848D03*
X0216264Y0075997D03*
X0216264Y0079147D03*
X0216264Y0082297D03*
X0216264Y0085446D03*
X0216264Y0088596D03*
X0216264Y0091745D03*
X0216264Y0094895D03*
X0216264Y0098045D03*
X0216264Y0101194D03*
X0216264Y0104344D03*
X0277681Y0104344D03*
X0277681Y0101194D03*
X0277681Y0098045D03*
X0277681Y0094895D03*
X0277681Y0091745D03*
X0277681Y0088596D03*
X0277681Y0085446D03*
X0277681Y0082297D03*
X0277681Y0079147D03*
X0277681Y0075997D03*
X0277681Y0072848D03*
X0277681Y0069698D03*
X0277681Y0066549D03*
X0277681Y0063399D03*
X0277681Y0060249D03*
X0277681Y0057100D03*
D20*
X0270594Y0050013D03*
X0267445Y0050013D03*
X0264295Y0050013D03*
X0261146Y0050013D03*
X0257996Y0050013D03*
X0254846Y0050013D03*
X0251697Y0050013D03*
X0248547Y0050013D03*
X0245398Y0050013D03*
X0242248Y0050013D03*
X0239098Y0050013D03*
X0235949Y0050013D03*
X0232799Y0050013D03*
X0229650Y0050013D03*
X0226500Y0050013D03*
X0223350Y0050013D03*
X0223350Y0111430D03*
X0226500Y0111430D03*
X0229650Y0111430D03*
X0232799Y0111430D03*
X0235949Y0111430D03*
X0239098Y0111430D03*
X0242248Y0111430D03*
X0245398Y0111430D03*
X0248547Y0111430D03*
X0251697Y0111430D03*
X0254846Y0111430D03*
X0257996Y0111430D03*
X0261146Y0111430D03*
X0264295Y0111430D03*
X0267445Y0111430D03*
X0270594Y0111430D03*
D21*
X0271748Y0130352D03*
X0267811Y0130352D03*
X0263874Y0130352D03*
X0259937Y0130352D03*
X0256000Y0130352D03*
X0252063Y0130352D03*
X0275685Y0130352D03*
X0279622Y0130352D03*
X0283559Y0130352D03*
X0287496Y0130352D03*
X0291433Y0130352D03*
X0295370Y0130352D03*
X0299307Y0130352D03*
X0303244Y0130352D03*
D22*
X0315055Y0138226D03*
X0240252Y0138226D03*
D23*
X0304465Y0113659D03*
X0311945Y0113659D03*
D24*
X0317260Y0058934D03*
X0342850Y0058934D03*
X0342339Y0039092D03*
X0316748Y0039092D03*
X0316512Y0018659D03*
X0342102Y0018659D03*
X0389898Y0019682D03*
X0415488Y0019682D03*
D25*
X0123910Y0007199D02*
X0123910Y0046661D01*
X0123179Y0048425D01*
X0121829Y0049775D01*
X0120065Y0050506D01*
X0119110Y0050506D01*
X0119110Y0088150D01*
X0120065Y0088150D01*
X0121829Y0088881D01*
X0123179Y0090231D01*
X0123910Y0091995D01*
X0123910Y0152005D01*
X0130208Y0152005D01*
X0130058Y0151446D01*
X0130058Y0148627D01*
X0130788Y0145905D01*
X0132197Y0143463D01*
X0134190Y0141470D01*
X0136632Y0140061D01*
X0139354Y0139331D01*
X0142173Y0139331D01*
X0144896Y0140061D01*
X0147337Y0141470D01*
X0149330Y0143463D01*
X0150740Y0145905D01*
X0151469Y0148627D01*
X0151469Y0151446D01*
X0151319Y0152005D01*
X0153680Y0152005D01*
X0153680Y0151050D01*
X0154411Y0149286D01*
X0155761Y0147936D01*
X0157526Y0147205D01*
X0233553Y0147205D01*
X0233193Y0147056D01*
X0232406Y0146268D01*
X0228469Y0142331D01*
X0228043Y0141302D01*
X0228043Y0140122D01*
X0220931Y0133010D01*
X0191108Y0133010D01*
X0190079Y0132584D01*
X0189292Y0131796D01*
X0167506Y0110010D01*
X0166220Y0110010D01*
X0164612Y0109344D01*
X0163382Y0108113D01*
X0162716Y0106505D01*
X0162716Y0104765D01*
X0163382Y0103157D01*
X0164612Y0101926D01*
X0166220Y0101260D01*
X0167957Y0101260D01*
X0167746Y0101049D01*
X0155263Y0101049D01*
X0154167Y0102145D01*
X0152414Y0102871D01*
X0144972Y0102871D01*
X0143218Y0102145D01*
X0141876Y0100803D01*
X0141150Y0099049D01*
X0141150Y0097151D01*
X0141876Y0095397D01*
X0142222Y0095050D01*
X0141893Y0094914D01*
X0140545Y0093566D01*
X0140338Y0094202D01*
X0139995Y0094875D01*
X0139551Y0095487D01*
X0139017Y0096021D01*
X0138405Y0096465D01*
X0137732Y0096808D01*
X0137014Y0097041D01*
X0136268Y0097160D01*
X0133090Y0097160D01*
X0133090Y0092560D01*
X0132690Y0092560D01*
X0132690Y0097160D01*
X0129512Y0097160D01*
X0128766Y0097041D01*
X0128047Y0096808D01*
X0127374Y0096465D01*
X0126763Y0096021D01*
X0126229Y0095487D01*
X0125784Y0094875D01*
X0125441Y0094202D01*
X0125208Y0093484D01*
X0125090Y0092737D01*
X0125090Y0092560D01*
X0132690Y0092560D01*
X0132690Y0097160D01*
X0129512Y0097160D01*
X0128766Y0097041D01*
X0128047Y0096808D01*
X0127374Y0096465D01*
X0126763Y0096021D01*
X0126229Y0095487D01*
X0125784Y0094875D01*
X0125441Y0094202D01*
X0125208Y0093484D01*
X0125090Y0092737D01*
X0125090Y0092560D01*
X0132690Y0092560D01*
X0133090Y0092560D01*
X0133090Y0097160D01*
X0136268Y0097160D01*
X0137014Y0097041D01*
X0137732Y0096808D01*
X0138405Y0096465D01*
X0139017Y0096021D01*
X0139551Y0095487D01*
X0139995Y0094875D01*
X0140338Y0094202D01*
X0140545Y0093566D01*
X0141893Y0094914D01*
X0142222Y0095050D01*
X0141876Y0095397D01*
X0141150Y0097151D01*
X0141150Y0099049D01*
X0141876Y0100803D01*
X0143218Y0102145D01*
X0144972Y0102871D01*
X0152414Y0102871D01*
X0154167Y0102145D01*
X0155263Y0101049D01*
X0167746Y0101049D01*
X0167957Y0101260D01*
X0166220Y0101260D01*
X0164612Y0101926D01*
X0163382Y0103157D01*
X0162716Y0104765D01*
X0162716Y0106505D01*
X0163382Y0108113D01*
X0164612Y0109344D01*
X0166220Y0110010D01*
X0167506Y0110010D01*
X0189292Y0131796D01*
X0189816Y0132320D01*
X0123910Y0132320D01*
X0123910Y0091995D01*
X0123179Y0090231D01*
X0123047Y0090099D01*
X0123047Y0077225D01*
X0125563Y0079740D01*
X0122642Y0076820D01*
X0121855Y0076032D01*
X0121428Y0075003D01*
X0121428Y0069637D01*
X0121855Y0068608D01*
X0124932Y0065530D01*
X0124932Y0063457D01*
X0124890Y0063354D01*
X0124890Y0061365D01*
X0125651Y0059527D01*
X0127057Y0058121D01*
X0128895Y0057360D01*
X0136884Y0057360D01*
X0138200Y0057905D01*
X0138200Y0056815D01*
X0136884Y0057360D01*
X0138200Y0057905D01*
X0138200Y0056815D01*
X0136884Y0057360D01*
X0128895Y0057360D01*
X0127057Y0058121D01*
X0125651Y0059527D01*
X0124890Y0061365D01*
X0124890Y0063354D01*
X0124932Y0063457D01*
X0124932Y0065530D01*
X0123047Y0067416D01*
X0123047Y0048557D01*
X0123179Y0048425D01*
X0123910Y0046661D01*
X0123910Y0007199D01*
X0217476Y0007199D01*
X0213193Y0011482D01*
X0212406Y0012270D01*
X0211980Y0013299D01*
X0211980Y0024861D01*
X0209931Y0026910D01*
X0208928Y0026910D01*
X0209583Y0025331D01*
X0209583Y0017341D01*
X0208821Y0015504D01*
X0207415Y0014097D01*
X0205577Y0013336D01*
X0203588Y0013336D01*
X0201750Y0014097D01*
X0200344Y0015504D01*
X0199583Y0017341D01*
X0199583Y0025331D01*
X0200237Y0026910D01*
X0198928Y0026910D01*
X0199583Y0025331D01*
X0199583Y0017341D01*
X0200344Y0015504D01*
X0201750Y0014097D01*
X0203588Y0013336D01*
X0205577Y0013336D01*
X0207415Y0014097D01*
X0208821Y0015504D01*
X0209583Y0017341D01*
X0209583Y0025331D01*
X0208928Y0026910D01*
X0209931Y0026910D01*
X0211980Y0024861D01*
X0211980Y0013299D01*
X0212406Y0012270D01*
X0213193Y0011482D01*
X0217476Y0007199D01*
X0123910Y0007199D01*
X0123910Y0007816D02*
X0216859Y0007816D01*
X0123910Y0007816D01*
X0123910Y0009414D02*
X0215261Y0009414D01*
X0123910Y0009414D01*
X0123910Y0011013D02*
X0213662Y0011013D01*
X0123910Y0011013D01*
X0123910Y0012611D02*
X0212264Y0012611D01*
X0123910Y0012611D01*
X0123910Y0014210D02*
X0171638Y0014210D01*
X0123910Y0014210D01*
X0123910Y0015808D02*
X0170218Y0015808D01*
X0123910Y0015808D01*
X0123910Y0017407D02*
X0169583Y0017407D01*
X0123910Y0017407D01*
X0123910Y0019005D02*
X0169583Y0019005D01*
X0123910Y0019005D01*
X0123910Y0020604D02*
X0169583Y0020604D01*
X0123910Y0020604D01*
X0123910Y0022203D02*
X0169583Y0022203D01*
X0123910Y0022203D01*
X0123910Y0023801D02*
X0169583Y0023801D01*
X0123910Y0023801D01*
X0123910Y0025400D02*
X0169611Y0025400D01*
X0123910Y0025400D01*
X0123910Y0026998D02*
X0170273Y0026998D01*
X0123910Y0026998D01*
X0123910Y0028597D02*
X0171803Y0028597D01*
X0123910Y0028597D01*
X0123910Y0030195D02*
X0186606Y0030195D01*
X0123910Y0030195D01*
X0123910Y0031794D02*
X0185282Y0031794D01*
X0123910Y0031794D01*
X0123910Y0033392D02*
X0185050Y0033392D01*
X0123910Y0033392D01*
X0123910Y0034991D02*
X0142565Y0034991D01*
X0123910Y0034991D01*
X0123910Y0036589D02*
X0141605Y0036589D01*
X0123910Y0036589D01*
X0123910Y0038188D02*
X0126991Y0038188D01*
X0123910Y0038188D01*
X0123910Y0039786D02*
X0125544Y0039786D01*
X0123910Y0039786D01*
X0123910Y0041385D02*
X0124890Y0041385D01*
X0123910Y0041385D01*
X0124890Y0041365D02*
X0125651Y0039527D01*
X0127057Y0038121D01*
X0128895Y0037360D01*
X0136884Y0037360D01*
X0138722Y0038121D01*
X0140129Y0039527D01*
X0140890Y0041365D01*
X0140890Y0043354D01*
X0140228Y0044951D01*
X0141524Y0046247D01*
X0141876Y0045397D01*
X0143218Y0044055D01*
X0144972Y0043328D01*
X0152414Y0043328D01*
X0154167Y0044055D01*
X0155510Y0045397D01*
X0156236Y0047151D01*
X0156236Y0049049D01*
X0155510Y0050803D01*
X0154167Y0052145D01*
X0152414Y0052871D01*
X0144972Y0052871D01*
X0143800Y0052386D01*
X0143800Y0053814D01*
X0144972Y0053328D01*
X0152414Y0053328D01*
X0154167Y0054055D01*
X0155023Y0054910D01*
X0168431Y0054910D01*
X0185050Y0038290D01*
X0185050Y0032354D01*
X0185477Y0031325D01*
X0188677Y0028124D01*
X0189465Y0027336D01*
X0190275Y0027001D01*
X0189583Y0025331D01*
X0189583Y0017341D01*
X0190344Y0015504D01*
X0191750Y0014097D01*
X0193588Y0013336D01*
X0195577Y0013336D01*
X0197415Y0014097D01*
X0198821Y0015504D01*
X0199583Y0017341D01*
X0199583Y0025331D01*
X0200237Y0026910D01*
X0198928Y0026910D01*
X0199583Y0025331D01*
X0199583Y0017341D01*
X0198821Y0015504D01*
X0197415Y0014097D01*
X0195577Y0013336D01*
X0193588Y0013336D01*
X0191750Y0014097D01*
X0190344Y0015504D01*
X0189583Y0017341D01*
X0189583Y0025331D01*
X0190275Y0027001D01*
X0189465Y0027336D01*
X0188677Y0028124D01*
X0185477Y0031325D01*
X0185050Y0032354D01*
X0185050Y0038290D01*
X0168431Y0054910D01*
X0155023Y0054910D01*
X0154167Y0054055D01*
X0152414Y0053328D01*
X0144972Y0053328D01*
X0143800Y0053814D01*
X0143800Y0052386D01*
X0144972Y0052871D01*
X0152414Y0052871D01*
X0154167Y0052145D01*
X0155510Y0050803D01*
X0156236Y0049049D01*
X0156236Y0047151D01*
X0155510Y0045397D01*
X0154167Y0044055D01*
X0152414Y0043328D01*
X0144972Y0043328D01*
X0143218Y0044055D01*
X0141876Y0045397D01*
X0141524Y0046247D01*
X0140228Y0044951D01*
X0140890Y0043354D01*
X0140890Y0041365D01*
X0140129Y0039527D01*
X0138722Y0038121D01*
X0136884Y0037360D01*
X0128895Y0037360D01*
X0127057Y0038121D01*
X0125651Y0039527D01*
X0124890Y0041365D01*
X0124890Y0043354D01*
X0125651Y0045192D01*
X0127057Y0046598D01*
X0128895Y0047360D01*
X0134717Y0047360D01*
X0128895Y0047360D01*
X0127057Y0048121D01*
X0125651Y0049527D01*
X0124890Y0051365D01*
X0124890Y0053354D01*
X0125651Y0055192D01*
X0127057Y0056598D01*
X0128895Y0057360D01*
X0136884Y0057360D01*
X0128895Y0057360D01*
X0127057Y0056598D01*
X0125651Y0055192D01*
X0124890Y0053354D01*
X0124890Y0051365D01*
X0125651Y0049527D01*
X0127057Y0048121D01*
X0128895Y0047360D01*
X0134717Y0047360D01*
X0134717Y0047360D01*
X0128895Y0047360D01*
X0127057Y0046598D01*
X0125651Y0045192D01*
X0124890Y0043354D01*
X0124890Y0041365D01*
X0124890Y0042983D02*
X0123910Y0042983D01*
X0124890Y0042983D01*
X0125398Y0044582D02*
X0123910Y0044582D01*
X0125398Y0044582D01*
X0126639Y0046180D02*
X0123910Y0046180D01*
X0126639Y0046180D01*
X0127883Y0047779D02*
X0123447Y0047779D01*
X0127883Y0047779D01*
X0125801Y0049377D02*
X0122227Y0049377D01*
X0123047Y0049377D02*
X0125801Y0049377D01*
X0125051Y0050976D02*
X0119110Y0050976D01*
X0119110Y0052574D02*
X0124890Y0052574D01*
X0123047Y0052574D01*
X0123047Y0050976D02*
X0125051Y0050976D01*
X0125229Y0054173D02*
X0119110Y0054173D01*
X0119110Y0055771D02*
X0126230Y0055771D01*
X0123047Y0055771D01*
X0123047Y0054173D02*
X0125229Y0054173D01*
X0123047Y0057370D02*
X0128871Y0057370D01*
X0119110Y0057370D01*
X0119110Y0058968D02*
X0126210Y0058968D01*
X0123047Y0058968D01*
X0123047Y0060567D02*
X0125220Y0060567D01*
X0119110Y0060567D01*
X0119110Y0062165D02*
X0124890Y0062165D01*
X0123047Y0062165D01*
X0123047Y0063764D02*
X0124932Y0063764D01*
X0119110Y0063764D01*
X0119110Y0065362D02*
X0124932Y0065362D01*
X0123047Y0065362D01*
X0123047Y0066961D02*
X0123502Y0066961D01*
X0119110Y0066961D01*
X0119110Y0068559D02*
X0121903Y0068559D01*
X0121428Y0070158D02*
X0119110Y0070158D01*
X0119110Y0071756D02*
X0121428Y0071756D01*
X0121428Y0073355D02*
X0119110Y0073355D01*
X0119110Y0074953D02*
X0121428Y0074953D01*
X0122374Y0076552D02*
X0119110Y0076552D01*
X0119110Y0078150D02*
X0123973Y0078150D01*
X0123047Y0078150D01*
X0123047Y0079749D02*
X0125559Y0079749D01*
X0119110Y0079749D01*
X0119110Y0081347D02*
X0124897Y0081347D01*
X0123047Y0081347D01*
X0123047Y0082946D02*
X0124890Y0082946D01*
X0119110Y0082946D01*
X0119110Y0084544D02*
X0125383Y0084544D01*
X0123047Y0084544D01*
X0123047Y0086143D02*
X0126602Y0086143D01*
X0119110Y0086143D01*
X0119110Y0087741D02*
X0128570Y0087741D01*
X0123047Y0087741D01*
X0123047Y0089340D02*
X0126150Y0089340D01*
X0122288Y0089340D01*
X0123472Y0090939D02*
X0125304Y0090939D01*
X0123472Y0090939D01*
X0123910Y0092537D02*
X0132690Y0092537D01*
X0123910Y0092537D01*
X0125090Y0092160D02*
X0125090Y0091982D01*
X0125208Y0091236D01*
X0125441Y0090517D01*
X0125784Y0089844D01*
X0126229Y0089233D01*
X0126763Y0088698D01*
X0127374Y0088254D01*
X0128047Y0087911D01*
X0128766Y0087678D01*
X0129512Y0087560D01*
X0132690Y0087560D01*
X0132690Y0092159D01*
X0133090Y0092159D01*
X0133090Y0087560D01*
X0134539Y0087560D01*
X0134339Y0087360D01*
X0128895Y0087360D01*
X0127057Y0086598D01*
X0125651Y0085192D01*
X0124890Y0083354D01*
X0124890Y0081365D01*
X0125563Y0079740D01*
X0124890Y0081365D01*
X0124890Y0083354D01*
X0125651Y0085192D01*
X0127057Y0086598D01*
X0128895Y0087360D01*
X0134339Y0087360D01*
X0134539Y0087560D01*
X0133090Y0087560D01*
X0133090Y0092159D01*
X0132690Y0092159D01*
X0132690Y0087560D01*
X0129512Y0087560D01*
X0128766Y0087678D01*
X0128047Y0087911D01*
X0127374Y0088254D01*
X0126763Y0088698D01*
X0126229Y0089233D01*
X0125784Y0089844D01*
X0125441Y0090517D01*
X0125208Y0091236D01*
X0125090Y0091982D01*
X0125090Y0092160D01*
X0132690Y0092160D01*
X0132690Y0092560D01*
X0132690Y0092160D01*
X0125090Y0092160D01*
X0132690Y0090939D02*
X0133090Y0090939D01*
X0132690Y0090939D01*
X0132690Y0089340D02*
X0133090Y0089340D01*
X0132690Y0089340D01*
X0132690Y0087741D02*
X0133090Y0087741D01*
X0132690Y0087741D01*
X0141197Y0081493D02*
X0142693Y0082989D01*
X0153598Y0082989D01*
X0185961Y0050627D01*
X0185961Y0048108D01*
X0190610Y0043458D01*
X0190610Y0043210D01*
X0205346Y0043210D01*
X0208441Y0040115D01*
X0208441Y0036808D01*
X0216079Y0029171D01*
X0229839Y0029171D01*
X0229839Y0049151D01*
X0229650Y0050013D01*
X0229591Y0050710D01*
X0229591Y0053257D01*
X0224504Y0058344D01*
X0224504Y0073541D01*
X0221157Y0076887D01*
X0221157Y0078029D01*
X0220291Y0078895D01*
X0216516Y0078895D01*
X0216264Y0079147D01*
X0216472Y0079104D01*
X0216091Y0076210D02*
X0213091Y0076210D01*
X0210091Y0079210D01*
X0210091Y0100710D01*
X0220614Y0103782D02*
X0220614Y0106272D01*
X0219442Y0107444D01*
X0216841Y0107444D01*
X0216059Y0108225D01*
X0215104Y0108621D01*
X0207845Y0108621D01*
X0206889Y0108225D01*
X0206236Y0107572D01*
X0206236Y0109049D01*
X0206211Y0109110D01*
X0220250Y0109110D01*
X0220250Y0108252D01*
X0221422Y0107080D01*
X0224260Y0107080D01*
X0225004Y0106336D01*
X0226034Y0105910D01*
X0227148Y0105910D01*
X0228177Y0106336D01*
X0228964Y0107124D01*
X0229029Y0107280D01*
X0229650Y0107280D01*
X0230671Y0107280D01*
X0230871Y0107080D01*
X0236136Y0107080D01*
X0235382Y0106326D01*
X0234716Y0104718D01*
X0234716Y0102978D01*
X0235382Y0101370D01*
X0236612Y0100139D01*
X0238220Y0099473D01*
X0239961Y0099473D01*
X0241569Y0100139D01*
X0242799Y0101370D01*
X0243465Y0102978D01*
X0243465Y0104718D01*
X0242799Y0106326D01*
X0242045Y0107080D01*
X0272523Y0107080D01*
X0273694Y0108252D01*
X0273694Y0108834D01*
X0288038Y0108834D01*
X0286514Y0107310D01*
X0280993Y0107310D01*
X0280860Y0107444D01*
X0274503Y0107444D01*
X0273331Y0106272D01*
X0273331Y0097695D01*
X0273002Y0097695D01*
X0272650Y0098546D01*
X0271419Y0099777D01*
X0269811Y0100443D01*
X0268071Y0100443D01*
X0266463Y0099777D01*
X0265232Y0098546D01*
X0264566Y0096938D01*
X0264566Y0095198D01*
X0265232Y0093590D01*
X0266463Y0092359D01*
X0268071Y0091693D01*
X0269811Y0091693D01*
X0270781Y0092095D01*
X0273531Y0092095D01*
X0273531Y0091745D01*
X0273531Y0090724D01*
X0273331Y0090524D01*
X0273331Y0072510D01*
X0268896Y0072510D01*
X0267867Y0072084D01*
X0258772Y0062989D01*
X0258346Y0061960D01*
X0258346Y0054163D01*
X0257996Y0054163D01*
X0256975Y0054163D01*
X0256775Y0054363D01*
X0232163Y0054363D01*
X0231968Y0054835D01*
X0232020Y0054835D01*
X0233628Y0055501D01*
X0234858Y0056732D01*
X0235524Y0058340D01*
X0235524Y0060080D01*
X0234858Y0061688D01*
X0233750Y0062797D01*
X0233750Y0070814D01*
X0233354Y0071769D01*
X0232622Y0072501D01*
X0231196Y0073927D01*
X0232069Y0074289D01*
X0233299Y0075519D01*
X0233965Y0077127D01*
X0233965Y0078868D01*
X0233299Y0080475D01*
X0232191Y0081584D01*
X0232191Y0094011D01*
X0231795Y0094966D01*
X0231063Y0095698D01*
X0223374Y0103387D01*
X0222419Y0103782D01*
X0220614Y0103782D01*
X0220614Y0106272D01*
X0219442Y0107444D01*
X0216841Y0107444D01*
X0216059Y0108225D01*
X0215104Y0108621D01*
X0207845Y0108621D01*
X0206889Y0108225D01*
X0206236Y0107572D01*
X0206236Y0109049D01*
X0206211Y0109110D01*
X0220250Y0109110D01*
X0220250Y0108252D01*
X0221422Y0107080D01*
X0224260Y0107080D01*
X0225004Y0106336D01*
X0226034Y0105910D01*
X0227148Y0105910D01*
X0228177Y0106336D01*
X0228964Y0107124D01*
X0229029Y0107280D01*
X0229650Y0107280D01*
X0229650Y0111430D01*
X0229650Y0111430D01*
X0229650Y0107280D01*
X0230671Y0107280D01*
X0230871Y0107080D01*
X0236136Y0107080D01*
X0235382Y0106326D01*
X0234716Y0104718D01*
X0234716Y0102978D01*
X0235382Y0101370D01*
X0236612Y0100139D01*
X0238220Y0099473D01*
X0239961Y0099473D01*
X0241569Y0100139D01*
X0242799Y0101370D01*
X0243465Y0102978D01*
X0243465Y0104718D01*
X0242799Y0106326D01*
X0242045Y0107080D01*
X0272523Y0107080D01*
X0273694Y0108252D01*
X0273694Y0108834D01*
X0288038Y0108834D01*
X0286514Y0107310D01*
X0280993Y0107310D01*
X0280860Y0107444D01*
X0274503Y0107444D01*
X0273331Y0106272D01*
X0273331Y0097695D01*
X0273002Y0097695D01*
X0272650Y0098546D01*
X0271419Y0099777D01*
X0269811Y0100443D01*
X0268071Y0100443D01*
X0266463Y0099777D01*
X0265232Y0098546D01*
X0264566Y0096938D01*
X0264566Y0095198D01*
X0265232Y0093590D01*
X0266463Y0092359D01*
X0268071Y0091693D01*
X0269811Y0091693D01*
X0270781Y0092095D01*
X0273531Y0092095D01*
X0273531Y0091745D01*
X0277681Y0091745D01*
X0277681Y0091745D01*
X0273531Y0091745D01*
X0273531Y0090724D01*
X0273331Y0090524D01*
X0273331Y0072510D01*
X0268896Y0072510D01*
X0267867Y0072084D01*
X0258772Y0062989D01*
X0258346Y0061960D01*
X0258346Y0054163D01*
X0257996Y0054163D01*
X0257996Y0050013D01*
X0257996Y0050013D01*
X0257996Y0054163D01*
X0256975Y0054163D01*
X0256775Y0054363D01*
X0232163Y0054363D01*
X0231968Y0054835D01*
X0232020Y0054835D01*
X0233628Y0055501D01*
X0234858Y0056732D01*
X0235524Y0058340D01*
X0235524Y0060080D01*
X0234858Y0061688D01*
X0233750Y0062797D01*
X0233750Y0070814D01*
X0233354Y0071769D01*
X0232622Y0072501D01*
X0231196Y0073927D01*
X0232069Y0074289D01*
X0233299Y0075519D01*
X0233965Y0077127D01*
X0233965Y0078868D01*
X0233299Y0080475D01*
X0232191Y0081584D01*
X0232191Y0094011D01*
X0231795Y0094966D01*
X0231063Y0095698D01*
X0223374Y0103387D01*
X0222419Y0103782D01*
X0220614Y0103782D01*
X0220614Y0105325D02*
X0234967Y0105325D01*
X0220614Y0105325D01*
X0219962Y0106924D02*
X0224417Y0106924D01*
X0219962Y0106924D01*
X0220250Y0108522D02*
X0215342Y0108522D01*
X0220250Y0108522D01*
X0226591Y0108710D02*
X0226591Y0111210D01*
X0226500Y0111430D01*
X0226591Y0112210D01*
X0226591Y0114210D01*
X0225091Y0115710D01*
X0212378Y0115710D01*
X0212339Y0115749D01*
X0186406Y0115749D01*
X0168906Y0098249D01*
X0148843Y0098249D01*
X0148693Y0098100D01*
X0149091Y0098210D01*
X0141763Y0100530D02*
X0123910Y0100530D01*
X0141763Y0100530D01*
X0141150Y0098931D02*
X0123910Y0098931D01*
X0141150Y0098931D01*
X0141150Y0097333D02*
X0123910Y0097333D01*
X0141150Y0097333D01*
X0141736Y0095734D02*
X0139303Y0095734D01*
X0141736Y0095734D01*
X0141115Y0094136D02*
X0140360Y0094136D01*
X0141115Y0094136D01*
X0133090Y0094136D02*
X0132690Y0094136D01*
X0133090Y0094136D01*
X0133090Y0095734D02*
X0132690Y0095734D01*
X0133090Y0095734D01*
X0126476Y0095734D02*
X0123910Y0095734D01*
X0126476Y0095734D01*
X0125420Y0094136D02*
X0123910Y0094136D01*
X0125420Y0094136D01*
X0123910Y0102128D02*
X0143201Y0102128D01*
X0123910Y0102128D01*
X0123910Y0103727D02*
X0144586Y0103727D01*
X0123910Y0103727D01*
X0123910Y0105325D02*
X0142286Y0105325D01*
X0123910Y0105325D01*
X0123910Y0106924D02*
X0141496Y0106924D01*
X0123910Y0106924D01*
X0123910Y0108522D02*
X0141360Y0108522D01*
X0123910Y0108522D01*
X0123910Y0110121D02*
X0141820Y0110121D01*
X0123910Y0110121D01*
X0123910Y0111719D02*
X0143125Y0111719D01*
X0123910Y0111719D01*
X0123910Y0113318D02*
X0170813Y0113318D01*
X0123910Y0113318D01*
X0123910Y0114916D02*
X0172412Y0114916D01*
X0123910Y0114916D01*
X0123910Y0116515D02*
X0174010Y0116515D01*
X0123910Y0116515D01*
X0123910Y0118113D02*
X0175609Y0118113D01*
X0123910Y0118113D01*
X0123910Y0119712D02*
X0177207Y0119712D01*
X0123910Y0119712D01*
X0123910Y0121310D02*
X0178806Y0121310D01*
X0123910Y0121310D01*
X0123910Y0122909D02*
X0180404Y0122909D01*
X0123910Y0122909D01*
X0123910Y0124507D02*
X0182003Y0124507D01*
X0123910Y0124507D01*
X0123910Y0126106D02*
X0183601Y0126106D01*
X0123910Y0126106D01*
X0123910Y0127704D02*
X0185200Y0127704D01*
X0123910Y0127704D01*
X0123910Y0129303D02*
X0186798Y0129303D01*
X0123910Y0129303D01*
X0123910Y0130901D02*
X0188397Y0130901D01*
X0123910Y0130901D01*
X0123910Y0132500D02*
X0189995Y0132500D01*
X0191665Y0130210D02*
X0222091Y0130210D01*
X0230843Y0138962D01*
X0230843Y0140745D01*
X0234780Y0144682D01*
X0250646Y0144682D01*
X0252024Y0146060D01*
X0318185Y0146060D01*
X0320945Y0143301D01*
X0320945Y0140789D01*
X0331618Y0130115D01*
X0403638Y0130115D01*
X0420043Y0113710D01*
X0420091Y0113710D01*
X0420091Y0094710D01*
X0420291Y0094328D01*
X0414459Y0098567D02*
X0413053Y0097160D01*
X0412291Y0095323D01*
X0412291Y0093334D01*
X0413053Y0091496D01*
X0414459Y0090089D01*
X0416297Y0089328D01*
X0414459Y0088567D01*
X0413053Y0087160D01*
X0412291Y0085323D01*
X0412291Y0083334D01*
X0413053Y0081496D01*
X0414459Y0080089D01*
X0416297Y0079328D01*
X0414459Y0078567D01*
X0413053Y0077160D01*
X0412990Y0077010D01*
X0404252Y0077010D01*
X0404252Y0079660D01*
X0403080Y0080832D01*
X0380164Y0080832D01*
X0378992Y0079660D01*
X0378992Y0063713D01*
X0377281Y0062002D01*
X0371830Y0062002D01*
X0371830Y0062402D01*
X0377680Y0062402D01*
X0377680Y0064708D01*
X0374136Y0068252D01*
X0371830Y0068252D01*
X0371830Y0062402D01*
X0377680Y0062402D01*
X0377680Y0064708D01*
X0374136Y0068252D01*
X0371830Y0068252D01*
X0371830Y0062402D01*
X0371830Y0062002D01*
X0377281Y0062002D01*
X0378992Y0063713D01*
X0378992Y0079660D01*
X0380164Y0080832D01*
X0403080Y0080832D01*
X0404252Y0079660D01*
X0404252Y0077010D01*
X0412990Y0077010D01*
X0413053Y0077160D01*
X0414459Y0078567D01*
X0416297Y0079328D01*
X0421906Y0079328D01*
X0421906Y0079328D01*
X0416297Y0079328D01*
X0421906Y0079328D01*
X0421906Y0079328D01*
X0416297Y0079328D01*
X0414459Y0080089D01*
X0413053Y0081496D01*
X0412291Y0083334D01*
X0412291Y0085323D01*
X0413053Y0087160D01*
X0414459Y0088567D01*
X0416297Y0089328D01*
X0424286Y0089328D01*
X0426124Y0088567D01*
X0427530Y0087160D01*
X0428291Y0085323D01*
X0428291Y0083334D01*
X0427568Y0081586D01*
X0430098Y0079056D01*
X0430098Y0079056D01*
X0430886Y0078268D01*
X0431312Y0077239D01*
X0431312Y0051653D01*
X0430886Y0050624D01*
X0430098Y0049836D01*
X0429896Y0049753D01*
X0427886Y0047742D01*
X0427886Y0047742D01*
X0427224Y0047081D01*
X0427397Y0046844D01*
X0427740Y0046171D01*
X0427973Y0045452D01*
X0428091Y0044706D01*
X0428091Y0044528D01*
X0420491Y0044528D01*
X0420491Y0044128D01*
X0420491Y0039528D01*
X0423669Y0039528D01*
X0424415Y0039646D01*
X0425134Y0039880D01*
X0425807Y0040223D01*
X0426418Y0040667D01*
X0426953Y0041201D01*
X0427397Y0041812D01*
X0427740Y0042486D01*
X0427973Y0043204D01*
X0428091Y0043950D01*
X0428091Y0044128D01*
X0420491Y0044128D01*
X0420091Y0044128D01*
X0420091Y0039528D01*
X0418697Y0039528D01*
X0426208Y0032017D01*
X0426208Y0032017D01*
X0426996Y0031229D01*
X0427422Y0030200D01*
X0427422Y0012787D01*
X0426996Y0011758D01*
X0422862Y0007624D01*
X0422437Y0007199D01*
X0429271Y0007199D01*
X0429271Y0046661D01*
X0430002Y0048425D01*
X0431352Y0049775D01*
X0433116Y0050506D01*
X0434071Y0050506D01*
X0434071Y0088150D01*
X0433116Y0088150D01*
X0431352Y0088881D01*
X0430002Y0090231D01*
X0429271Y0091995D01*
X0429271Y0152005D01*
X0422973Y0152005D01*
X0423123Y0151446D01*
X0423123Y0148627D01*
X0422393Y0145905D01*
X0420984Y0143463D01*
X0418991Y0141470D01*
X0416549Y0140061D01*
X0413827Y0139331D01*
X0411008Y0139331D01*
X0408285Y0140061D01*
X0405844Y0141470D01*
X0403851Y0143463D01*
X0402441Y0145905D01*
X0401712Y0148627D01*
X0401712Y0151446D01*
X0401862Y0152005D01*
X0399501Y0152005D01*
X0399501Y0151050D01*
X0398770Y0149286D01*
X0397420Y0147936D01*
X0395656Y0147205D01*
X0321000Y0147205D01*
X0323319Y0144887D01*
X0323745Y0143857D01*
X0323745Y0141948D01*
X0332778Y0132915D01*
X0404195Y0132915D01*
X0405224Y0132489D01*
X0421596Y0116117D01*
X0421677Y0116084D01*
X0422464Y0115296D01*
X0422891Y0114267D01*
X0422891Y0099328D01*
X0424286Y0099328D01*
X0426124Y0098567D01*
X0427530Y0097160D01*
X0428291Y0095323D01*
X0428291Y0093334D01*
X0427530Y0091496D01*
X0426124Y0090089D01*
X0424286Y0089328D01*
X0416297Y0089328D01*
X0424286Y0089328D01*
X0426124Y0088567D01*
X0427530Y0087160D01*
X0428291Y0085323D01*
X0428291Y0083334D01*
X0427568Y0081586D01*
X0430098Y0079056D01*
X0430098Y0079056D01*
X0430134Y0079020D01*
X0430134Y0090099D01*
X0430002Y0090231D01*
X0429271Y0091995D01*
X0429271Y0132320D01*
X0405393Y0132320D01*
X0421596Y0116117D01*
X0421677Y0116084D01*
X0422464Y0115296D01*
X0422891Y0114267D01*
X0422891Y0099328D01*
X0424286Y0099328D01*
X0426124Y0098567D01*
X0427530Y0097160D01*
X0428291Y0095323D01*
X0428291Y0093334D01*
X0427530Y0091496D01*
X0426124Y0090089D01*
X0424286Y0089328D01*
X0416297Y0089328D01*
X0414459Y0090089D01*
X0413053Y0091496D01*
X0412291Y0093334D01*
X0412291Y0095323D01*
X0413053Y0097160D01*
X0414459Y0098567D01*
X0416297Y0099328D01*
X0417291Y0099328D01*
X0417291Y0112503D01*
X0405492Y0124301D01*
X0405492Y0102547D01*
X0404321Y0101375D01*
X0385885Y0101375D01*
X0397250Y0090010D01*
X0397870Y0090010D01*
X0397870Y0090818D01*
X0399042Y0091989D01*
X0404636Y0091989D01*
X0405807Y0090818D01*
X0405807Y0082862D01*
X0404636Y0081690D01*
X0399042Y0081690D01*
X0397870Y0082862D01*
X0397870Y0084410D01*
X0395534Y0084410D01*
X0394504Y0084836D01*
X0376295Y0103046D01*
X0376116Y0102616D01*
X0374891Y0101390D01*
X0374891Y0097780D01*
X0377880Y0094791D01*
X0377880Y0089613D01*
X0374219Y0085952D01*
X0369041Y0085952D01*
X0367540Y0087453D01*
X0367540Y0085736D01*
X0367765Y0085511D01*
X0368572Y0083563D01*
X0368572Y0081455D01*
X0367765Y0079507D01*
X0366274Y0078016D01*
X0364326Y0077209D01*
X0362217Y0077209D01*
X0360269Y0078016D01*
X0358779Y0079507D01*
X0357972Y0081455D01*
X0357972Y0083563D01*
X0358779Y0085511D01*
X0360269Y0087002D01*
X0361379Y0087462D01*
X0356521Y0092319D01*
X0354524Y0092319D01*
X0352577Y0093126D01*
X0352265Y0093438D01*
X0352265Y0092496D01*
X0356677Y0088084D01*
X0356677Y0088084D01*
X0357464Y0087296D01*
X0357891Y0086267D01*
X0357891Y0062398D01*
X0358581Y0062113D01*
X0360072Y0060622D01*
X0360854Y0058734D01*
X0366542Y0058734D01*
X0365580Y0059696D01*
X0365580Y0062002D01*
X0371430Y0062002D01*
X0371430Y0062402D01*
X0365580Y0062402D01*
X0365580Y0064708D01*
X0369124Y0068252D01*
X0371430Y0068252D01*
X0371430Y0062402D01*
X0371430Y0062002D01*
X0365580Y0062002D01*
X0365580Y0059696D01*
X0366542Y0058734D01*
X0360854Y0058734D01*
X0360072Y0060622D01*
X0358581Y0062113D01*
X0357891Y0062398D01*
X0357891Y0086267D01*
X0357464Y0087296D01*
X0356677Y0088084D01*
X0356677Y0088084D01*
X0352265Y0092496D01*
X0352265Y0093438D01*
X0352577Y0093126D01*
X0354524Y0092319D01*
X0356521Y0092319D01*
X0361379Y0087462D01*
X0360269Y0087002D01*
X0358779Y0085511D01*
X0357972Y0083563D01*
X0357972Y0081455D01*
X0358779Y0079507D01*
X0360269Y0078016D01*
X0362217Y0077209D01*
X0364326Y0077209D01*
X0366274Y0078016D01*
X0367765Y0079507D01*
X0368572Y0081455D01*
X0368572Y0083563D01*
X0367765Y0085511D01*
X0367540Y0085736D01*
X0367540Y0087453D01*
X0369041Y0085952D01*
X0374219Y0085952D01*
X0377880Y0089613D01*
X0377880Y0094791D01*
X0374891Y0097780D01*
X0374891Y0101390D01*
X0376116Y0102616D01*
X0376295Y0103046D01*
X0394504Y0084836D01*
X0395534Y0084410D01*
X0397870Y0084410D01*
X0397870Y0082862D01*
X0399042Y0081690D01*
X0404636Y0081690D01*
X0405807Y0082862D01*
X0405807Y0090818D01*
X0404636Y0091989D01*
X0399042Y0091989D01*
X0397870Y0090818D01*
X0397870Y0090010D01*
X0397250Y0090010D01*
X0385885Y0101375D01*
X0404321Y0101375D01*
X0405492Y0102547D01*
X0405492Y0124301D01*
X0417291Y0112503D01*
X0417291Y0099328D01*
X0416297Y0099328D01*
X0414459Y0098567D01*
X0415338Y0098931D02*
X0388329Y0098931D01*
X0415338Y0098931D01*
X0417291Y0100530D02*
X0386731Y0100530D01*
X0417291Y0100530D01*
X0417291Y0102128D02*
X0405073Y0102128D01*
X0417291Y0102128D01*
X0417291Y0103727D02*
X0405492Y0103727D01*
X0417291Y0103727D01*
X0417291Y0105325D02*
X0405492Y0105325D01*
X0417291Y0105325D01*
X0417291Y0106924D02*
X0405492Y0106924D01*
X0417291Y0106924D01*
X0417291Y0108522D02*
X0405492Y0108522D01*
X0417291Y0108522D01*
X0417291Y0110121D02*
X0405492Y0110121D01*
X0417291Y0110121D01*
X0417291Y0111719D02*
X0405492Y0111719D01*
X0417291Y0111719D01*
X0416476Y0113318D02*
X0405492Y0113318D01*
X0416476Y0113318D01*
X0414877Y0114916D02*
X0405492Y0114916D01*
X0414877Y0114916D01*
X0413279Y0116515D02*
X0405492Y0116515D01*
X0413279Y0116515D01*
X0411680Y0118113D02*
X0405492Y0118113D01*
X0411680Y0118113D01*
X0410082Y0119712D02*
X0405492Y0119712D01*
X0410082Y0119712D01*
X0408483Y0121310D02*
X0405492Y0121310D01*
X0408483Y0121310D01*
X0406885Y0122909D02*
X0405492Y0122909D01*
X0406885Y0122909D01*
X0413206Y0124507D02*
X0429271Y0124507D01*
X0413206Y0124507D01*
X0414804Y0122909D02*
X0429271Y0122909D01*
X0414804Y0122909D01*
X0416403Y0121310D02*
X0429271Y0121310D01*
X0416403Y0121310D01*
X0418001Y0119712D02*
X0429271Y0119712D01*
X0418001Y0119712D01*
X0419600Y0118113D02*
X0429271Y0118113D01*
X0419600Y0118113D01*
X0421198Y0116515D02*
X0429271Y0116515D01*
X0421198Y0116515D01*
X0422622Y0114916D02*
X0429271Y0114916D01*
X0422622Y0114916D01*
X0422891Y0113318D02*
X0429271Y0113318D01*
X0422891Y0113318D01*
X0422891Y0111719D02*
X0429271Y0111719D01*
X0422891Y0111719D01*
X0422891Y0110121D02*
X0429271Y0110121D01*
X0422891Y0110121D01*
X0422891Y0108522D02*
X0429271Y0108522D01*
X0422891Y0108522D01*
X0422891Y0106924D02*
X0429271Y0106924D01*
X0422891Y0106924D01*
X0422891Y0105325D02*
X0429271Y0105325D01*
X0422891Y0105325D01*
X0422891Y0103727D02*
X0429271Y0103727D01*
X0422891Y0103727D01*
X0422891Y0102128D02*
X0429271Y0102128D01*
X0422891Y0102128D01*
X0422891Y0100530D02*
X0429271Y0100530D01*
X0422891Y0100530D01*
X0425244Y0098931D02*
X0429271Y0098931D01*
X0425244Y0098931D01*
X0427358Y0097333D02*
X0429271Y0097333D01*
X0427358Y0097333D01*
X0428121Y0095734D02*
X0429271Y0095734D01*
X0428121Y0095734D01*
X0428291Y0094136D02*
X0429271Y0094136D01*
X0428291Y0094136D01*
X0427961Y0092537D02*
X0429271Y0092537D01*
X0427961Y0092537D01*
X0426973Y0090939D02*
X0429709Y0090939D01*
X0426973Y0090939D01*
X0424315Y0089340D02*
X0430893Y0089340D01*
X0430134Y0089340D02*
X0424315Y0089340D01*
X0426949Y0087741D02*
X0434071Y0087741D01*
X0434071Y0086143D02*
X0427952Y0086143D01*
X0430134Y0086143D01*
X0430134Y0087741D02*
X0426949Y0087741D01*
X0428291Y0084544D02*
X0434071Y0084544D01*
X0434071Y0082946D02*
X0428131Y0082946D01*
X0430134Y0082946D01*
X0430134Y0084544D02*
X0428291Y0084544D01*
X0420866Y0084328D02*
X0420291Y0084328D01*
X0420591Y0084210D01*
X0420866Y0084328D02*
X0428512Y0076682D01*
X0428512Y0052210D01*
X0428394Y0052210D01*
X0425512Y0049328D01*
X0414972Y0049328D01*
X0411827Y0046182D01*
X0411827Y0042438D01*
X0424622Y0029643D01*
X0424622Y0013344D01*
X0420488Y0009210D01*
X0219425Y0009210D01*
X0214780Y0013856D01*
X0214780Y0026021D01*
X0211091Y0029710D01*
X0191051Y0029710D01*
X0187850Y0032911D01*
X0187850Y0039450D01*
X0169591Y0057710D01*
X0149091Y0057710D01*
X0148693Y0058100D01*
X0138200Y0057370D02*
X0136909Y0057370D01*
X0138200Y0057370D01*
X0132890Y0062360D02*
X0132575Y0062675D01*
X0128953Y0062675D01*
X0127732Y0063895D01*
X0127732Y0066690D01*
X0124228Y0070194D01*
X0124228Y0074446D01*
X0127150Y0077367D01*
X0138878Y0077367D01*
X0141197Y0079686D01*
X0141197Y0081493D01*
X0148433Y0078100D02*
X0141000Y0070667D01*
X0141000Y0049682D01*
X0134858Y0043541D01*
X0134071Y0043541D01*
X0132890Y0042360D01*
X0133091Y0042210D01*
X0140236Y0039786D02*
X0141662Y0039786D01*
X0140236Y0039786D01*
X0141462Y0039170D02*
X0141685Y0039855D01*
X0142011Y0040496D01*
X0142434Y0041078D01*
X0142943Y0041587D01*
X0143525Y0042010D01*
X0144166Y0042336D01*
X0144851Y0042559D01*
X0145561Y0042671D01*
X0148607Y0042671D01*
X0148607Y0038186D01*
X0148779Y0038186D01*
X0148779Y0042671D01*
X0151824Y0042671D01*
X0152535Y0042559D01*
X0153219Y0042336D01*
X0153861Y0042010D01*
X0154443Y0041587D01*
X0154952Y0041078D01*
X0155375Y0040496D01*
X0155701Y0039855D01*
X0155924Y0039170D01*
X0156036Y0038460D01*
X0156036Y0038186D01*
X0148779Y0038186D01*
X0148607Y0038186D01*
X0148607Y0042671D01*
X0145561Y0042671D01*
X0144851Y0042559D01*
X0144166Y0042336D01*
X0143525Y0042010D01*
X0142943Y0041587D01*
X0142434Y0041078D01*
X0142011Y0040496D01*
X0141685Y0039855D01*
X0141462Y0039170D01*
X0141350Y0038460D01*
X0141350Y0038186D01*
X0148607Y0038186D01*
X0148607Y0038014D01*
X0141350Y0038014D01*
X0141350Y0037740D01*
X0141462Y0037029D01*
X0141685Y0036345D01*
X0142011Y0035704D01*
X0142434Y0035121D01*
X0142943Y0034613D01*
X0143525Y0034190D01*
X0144166Y0033863D01*
X0144851Y0033641D01*
X0145561Y0033528D01*
X0148607Y0033528D01*
X0148607Y0038014D01*
X0141350Y0038014D01*
X0141350Y0037740D01*
X0141462Y0037029D01*
X0141685Y0036345D01*
X0142011Y0035704D01*
X0142434Y0035121D01*
X0142943Y0034613D01*
X0143525Y0034190D01*
X0144166Y0033863D01*
X0144851Y0033641D01*
X0145561Y0033528D01*
X0148607Y0033528D01*
X0148607Y0038014D01*
X0148607Y0038186D01*
X0141350Y0038186D01*
X0141350Y0038460D01*
X0141462Y0039170D01*
X0141350Y0038188D02*
X0138789Y0038188D01*
X0141350Y0038188D01*
X0148607Y0038188D02*
X0148779Y0038188D01*
X0148607Y0038188D01*
X0148779Y0038186D02*
X0148779Y0042671D01*
X0151824Y0042671D01*
X0152535Y0042559D01*
X0153219Y0042336D01*
X0153861Y0042010D01*
X0154443Y0041587D01*
X0154952Y0041078D01*
X0155375Y0040496D01*
X0155701Y0039855D01*
X0155924Y0039170D01*
X0156036Y0038460D01*
X0156036Y0038186D01*
X0148779Y0038186D01*
X0148779Y0038014D01*
X0156036Y0038014D01*
X0156036Y0037740D01*
X0155924Y0037029D01*
X0155701Y0036345D01*
X0155375Y0035704D01*
X0154952Y0035121D01*
X0154443Y0034613D01*
X0153861Y0034190D01*
X0153219Y0033863D01*
X0152535Y0033641D01*
X0151824Y0033528D01*
X0148779Y0033528D01*
X0148779Y0038014D01*
X0148779Y0038186D01*
X0148779Y0038014D02*
X0156036Y0038014D01*
X0156036Y0037740D01*
X0155924Y0037029D01*
X0155701Y0036345D01*
X0155375Y0035704D01*
X0154952Y0035121D01*
X0154443Y0034613D01*
X0153861Y0034190D01*
X0153219Y0033863D01*
X0152535Y0033641D01*
X0151824Y0033528D01*
X0148779Y0033528D01*
X0148779Y0038014D01*
X0148607Y0038014D01*
X0148779Y0038014D01*
X0148779Y0036589D02*
X0148607Y0036589D01*
X0148779Y0036589D01*
X0148779Y0034991D02*
X0148607Y0034991D01*
X0148779Y0034991D01*
X0154821Y0034991D02*
X0185050Y0034991D01*
X0154821Y0034991D01*
X0155781Y0036589D02*
X0185050Y0036589D01*
X0155781Y0036589D01*
X0156036Y0038188D02*
X0185050Y0038188D01*
X0156036Y0038188D01*
X0155724Y0039786D02*
X0183555Y0039786D01*
X0155724Y0039786D01*
X0154645Y0041385D02*
X0181956Y0041385D01*
X0154645Y0041385D01*
X0148779Y0041385D02*
X0148607Y0041385D01*
X0148779Y0041385D01*
X0148779Y0039786D02*
X0148607Y0039786D01*
X0148779Y0039786D01*
X0142741Y0041385D02*
X0140890Y0041385D01*
X0142741Y0041385D01*
X0140890Y0042983D02*
X0180358Y0042983D01*
X0140890Y0042983D01*
X0140381Y0044582D02*
X0142691Y0044582D01*
X0140381Y0044582D01*
X0141458Y0046180D02*
X0141552Y0046180D01*
X0141458Y0046180D01*
X0134717Y0047360D02*
X0134717Y0047360D01*
X0143800Y0052574D02*
X0144255Y0052574D01*
X0143800Y0052574D01*
X0153131Y0052574D02*
X0170766Y0052574D01*
X0153131Y0052574D01*
X0154286Y0054173D02*
X0169168Y0054173D01*
X0154286Y0054173D01*
X0155337Y0050976D02*
X0172365Y0050976D01*
X0155337Y0050976D01*
X0156100Y0049377D02*
X0173963Y0049377D01*
X0156100Y0049377D01*
X0156236Y0047779D02*
X0175562Y0047779D01*
X0156236Y0047779D01*
X0155834Y0046180D02*
X0177161Y0046180D01*
X0155834Y0046180D01*
X0154695Y0044582D02*
X0178759Y0044582D01*
X0154695Y0044582D01*
X0190483Y0040410D02*
X0191968Y0040410D01*
X0191685Y0039855D01*
X0191462Y0039170D01*
X0191350Y0038460D01*
X0191350Y0038186D01*
X0198607Y0038186D01*
X0198607Y0038014D01*
X0191350Y0038014D01*
X0191350Y0037740D01*
X0191462Y0037029D01*
X0191685Y0036345D01*
X0192011Y0035704D01*
X0192434Y0035121D01*
X0192943Y0034613D01*
X0193525Y0034190D01*
X0194166Y0033863D01*
X0194851Y0033641D01*
X0195561Y0033528D01*
X0198607Y0033528D01*
X0198607Y0038014D01*
X0191350Y0038014D01*
X0191350Y0037740D01*
X0191462Y0037029D01*
X0191685Y0036345D01*
X0192011Y0035704D01*
X0192434Y0035121D01*
X0192943Y0034613D01*
X0193525Y0034190D01*
X0194166Y0033863D01*
X0194851Y0033641D01*
X0195561Y0033528D01*
X0198607Y0033528D01*
X0198607Y0038014D01*
X0198607Y0038186D01*
X0191350Y0038186D01*
X0191350Y0038460D01*
X0191462Y0039170D01*
X0191685Y0039855D01*
X0191968Y0040410D01*
X0190483Y0040410D01*
X0190650Y0040007D01*
X0190650Y0034071D01*
X0192211Y0032510D01*
X0208780Y0032510D01*
X0206855Y0034435D01*
X0206855Y0034435D01*
X0206067Y0035222D01*
X0205647Y0036238D01*
X0205375Y0035704D01*
X0204952Y0035121D01*
X0204443Y0034613D01*
X0203861Y0034190D01*
X0203219Y0033863D01*
X0202535Y0033641D01*
X0201824Y0033528D01*
X0198779Y0033528D01*
X0198779Y0038014D01*
X0198607Y0038014D01*
X0198779Y0038014D01*
X0198779Y0033528D01*
X0201824Y0033528D01*
X0202535Y0033641D01*
X0203219Y0033863D01*
X0203861Y0034190D01*
X0204443Y0034613D01*
X0204952Y0035121D01*
X0205375Y0035704D01*
X0205647Y0036238D01*
X0206067Y0035222D01*
X0206855Y0034435D01*
X0208780Y0032510D01*
X0192211Y0032510D01*
X0190650Y0034071D01*
X0190650Y0040007D01*
X0190483Y0040410D01*
X0190650Y0039786D02*
X0191662Y0039786D01*
X0190650Y0039786D01*
X0190650Y0038188D02*
X0191350Y0038188D01*
X0190650Y0038188D01*
X0190650Y0036589D02*
X0191605Y0036589D01*
X0190650Y0036589D01*
X0190650Y0034991D02*
X0192565Y0034991D01*
X0190650Y0034991D01*
X0191329Y0033392D02*
X0207897Y0033392D01*
X0191329Y0033392D01*
X0198607Y0034991D02*
X0198779Y0034991D01*
X0198607Y0034991D01*
X0198607Y0036589D02*
X0198779Y0036589D01*
X0198607Y0036589D01*
X0204821Y0034991D02*
X0206299Y0034991D01*
X0204821Y0034991D01*
X0206855Y0034435D02*
X0206855Y0034435D01*
X0214218Y0034991D02*
X0227039Y0034991D01*
X0214218Y0034991D01*
X0212620Y0036589D02*
X0227039Y0036589D01*
X0212620Y0036589D01*
X0211241Y0037968D02*
X0211241Y0040672D01*
X0210815Y0041702D01*
X0207720Y0044796D01*
X0207106Y0045410D01*
X0214671Y0045410D01*
X0215700Y0045836D01*
X0216488Y0046624D01*
X0220250Y0050386D01*
X0220250Y0046835D01*
X0221422Y0045663D01*
X0225279Y0045663D01*
X0225479Y0045863D01*
X0226500Y0045863D01*
X0227039Y0045863D01*
X0227039Y0031971D01*
X0217239Y0031971D01*
X0211241Y0037968D01*
X0211241Y0040672D01*
X0210815Y0041702D01*
X0207720Y0044796D01*
X0207720Y0044796D01*
X0207106Y0045410D01*
X0214671Y0045410D01*
X0215700Y0045836D01*
X0216488Y0046624D01*
X0220250Y0050386D01*
X0220250Y0046835D01*
X0221422Y0045663D01*
X0225279Y0045663D01*
X0225479Y0045863D01*
X0226500Y0045863D01*
X0226500Y0050013D01*
X0226500Y0050013D01*
X0226500Y0045863D01*
X0227039Y0045863D01*
X0227039Y0031971D01*
X0217239Y0031971D01*
X0211241Y0037968D01*
X0211241Y0038188D02*
X0227039Y0038188D01*
X0211241Y0038188D01*
X0211241Y0039786D02*
X0227039Y0039786D01*
X0211241Y0039786D01*
X0210946Y0041385D02*
X0227039Y0041385D01*
X0210946Y0041385D01*
X0209533Y0042983D02*
X0227039Y0042983D01*
X0209533Y0042983D01*
X0207935Y0044582D02*
X0227039Y0044582D01*
X0207935Y0044582D01*
X0207720Y0044796D02*
X0207720Y0044796D01*
X0214114Y0048210D02*
X0199091Y0048210D01*
X0198693Y0048100D01*
X0214114Y0048210D02*
X0220591Y0054686D01*
X0220591Y0065525D01*
X0219551Y0066564D01*
X0216551Y0066564D01*
X0216264Y0066549D01*
X0233750Y0066961D02*
X0262744Y0066961D01*
X0233750Y0066961D01*
X0233750Y0068559D02*
X0264342Y0068559D01*
X0233750Y0068559D01*
X0233750Y0070158D02*
X0265941Y0070158D01*
X0233750Y0070158D01*
X0233359Y0071756D02*
X0267539Y0071756D01*
X0233359Y0071756D01*
X0231768Y0073355D02*
X0273331Y0073355D01*
X0231768Y0073355D01*
X0232733Y0074953D02*
X0273331Y0074953D01*
X0232733Y0074953D01*
X0233727Y0076552D02*
X0273331Y0076552D01*
X0233727Y0076552D01*
X0233965Y0078150D02*
X0273331Y0078150D01*
X0233965Y0078150D01*
X0233600Y0079749D02*
X0273331Y0079749D01*
X0233600Y0079749D01*
X0232427Y0081347D02*
X0273331Y0081347D01*
X0232427Y0081347D01*
X0232191Y0082946D02*
X0273331Y0082946D01*
X0232191Y0082946D01*
X0232191Y0084544D02*
X0273331Y0084544D01*
X0232191Y0084544D01*
X0232191Y0086143D02*
X0273331Y0086143D01*
X0232191Y0086143D01*
X0232191Y0087741D02*
X0273331Y0087741D01*
X0232191Y0087741D01*
X0232191Y0089340D02*
X0273331Y0089340D01*
X0232191Y0089340D01*
X0232191Y0090939D02*
X0273531Y0090939D01*
X0232191Y0090939D01*
X0232191Y0092537D02*
X0266285Y0092537D01*
X0232191Y0092537D01*
X0232139Y0094136D02*
X0265006Y0094136D01*
X0232139Y0094136D01*
X0231027Y0095734D02*
X0264566Y0095734D01*
X0231027Y0095734D01*
X0229428Y0097333D02*
X0264729Y0097333D01*
X0229428Y0097333D01*
X0227830Y0098931D02*
X0265617Y0098931D01*
X0227830Y0098931D01*
X0226231Y0100530D02*
X0236222Y0100530D01*
X0226231Y0100530D01*
X0224633Y0102128D02*
X0235068Y0102128D01*
X0224633Y0102128D01*
X0222553Y0103727D02*
X0234716Y0103727D01*
X0222553Y0103727D01*
X0228764Y0106924D02*
X0235980Y0106924D01*
X0228764Y0106924D01*
X0229650Y0107280D02*
X0229650Y0111430D01*
X0229650Y0111430D01*
X0229650Y0107280D01*
X0229650Y0108522D02*
X0229650Y0108522D01*
X0229650Y0108522D01*
X0229650Y0110121D02*
X0229650Y0110121D01*
X0229650Y0110121D01*
X0229650Y0111431D02*
X0229650Y0115580D01*
X0230429Y0115580D01*
X0230595Y0115982D01*
X0242322Y0127709D01*
X0228337Y0127709D01*
X0219138Y0118510D01*
X0225648Y0118510D01*
X0226677Y0118084D01*
X0228964Y0115796D01*
X0229054Y0115580D01*
X0229650Y0115580D01*
X0229650Y0111431D01*
X0229650Y0111431D01*
X0229650Y0111431D01*
X0229650Y0115580D01*
X0230429Y0115580D01*
X0230595Y0115982D01*
X0242322Y0127709D01*
X0228337Y0127709D01*
X0219138Y0118510D01*
X0225648Y0118510D01*
X0226677Y0118084D01*
X0228964Y0115796D01*
X0229054Y0115580D01*
X0229650Y0115580D01*
X0229650Y0111431D01*
X0229650Y0111719D02*
X0229650Y0111719D01*
X0229650Y0111719D01*
X0229650Y0113318D02*
X0229650Y0113318D01*
X0229650Y0113318D01*
X0229650Y0114916D02*
X0229650Y0114916D01*
X0229650Y0114916D01*
X0228246Y0116515D02*
X0231128Y0116515D01*
X0228246Y0116515D01*
X0226605Y0118113D02*
X0232726Y0118113D01*
X0226605Y0118113D01*
X0220339Y0119712D02*
X0234325Y0119712D01*
X0220339Y0119712D01*
X0221938Y0121310D02*
X0235923Y0121310D01*
X0221938Y0121310D01*
X0223537Y0122909D02*
X0237522Y0122909D01*
X0223537Y0122909D01*
X0225135Y0124507D02*
X0239120Y0124507D01*
X0225135Y0124507D01*
X0226734Y0126106D02*
X0240719Y0126106D01*
X0226734Y0126106D01*
X0228332Y0127704D02*
X0242317Y0127704D01*
X0228332Y0127704D01*
X0227177Y0130509D02*
X0212378Y0115710D01*
X0207606Y0108522D02*
X0206236Y0108522D01*
X0207606Y0108522D01*
X0242202Y0106924D02*
X0273982Y0106924D01*
X0242202Y0106924D01*
X0243214Y0105325D02*
X0273331Y0105325D01*
X0243214Y0105325D01*
X0243465Y0103727D02*
X0273331Y0103727D01*
X0243465Y0103727D01*
X0243113Y0102128D02*
X0273331Y0102128D01*
X0243113Y0102128D01*
X0241959Y0100530D02*
X0273331Y0100530D01*
X0241959Y0100530D01*
X0224750Y0088727D02*
X0220614Y0092864D01*
X0220614Y0083518D01*
X0220414Y0083318D01*
X0220414Y0082297D01*
X0216264Y0082297D01*
X0216264Y0082297D01*
X0220414Y0082297D01*
X0220414Y0083318D01*
X0220614Y0083518D01*
X0220614Y0092864D01*
X0224750Y0088727D01*
X0224750Y0085535D01*
X0222362Y0083146D01*
X0221630Y0082415D01*
X0221261Y0081524D01*
X0220848Y0081695D01*
X0220414Y0081695D01*
X0220414Y0082297D01*
X0216264Y0082297D01*
X0216264Y0082297D01*
X0220414Y0082297D01*
X0220414Y0081695D01*
X0220848Y0081695D01*
X0221261Y0081524D01*
X0221630Y0082415D01*
X0222362Y0083146D01*
X0224750Y0085535D01*
X0224750Y0088727D01*
X0224138Y0089340D02*
X0220614Y0089340D01*
X0224138Y0089340D01*
X0224750Y0087741D02*
X0220614Y0087741D01*
X0224750Y0087741D01*
X0224750Y0086143D02*
X0220614Y0086143D01*
X0224750Y0086143D01*
X0223760Y0084544D02*
X0220614Y0084544D01*
X0223760Y0084544D01*
X0222161Y0082946D02*
X0220414Y0082946D01*
X0222161Y0082946D01*
X0216091Y0076210D02*
X0216264Y0075997D01*
X0233750Y0065362D02*
X0261145Y0065362D01*
X0233750Y0065362D01*
X0233750Y0063764D02*
X0259547Y0063764D01*
X0233750Y0063764D01*
X0234381Y0062165D02*
X0258431Y0062165D01*
X0234381Y0062165D01*
X0235323Y0060567D02*
X0258346Y0060567D01*
X0235323Y0060567D01*
X0235524Y0058968D02*
X0258346Y0058968D01*
X0235524Y0058968D01*
X0235123Y0057370D02*
X0258346Y0057370D01*
X0235123Y0057370D01*
X0233898Y0055771D02*
X0258346Y0055771D01*
X0233898Y0055771D01*
X0226500Y0050013D02*
X0226500Y0050013D01*
X0226500Y0045863D01*
X0226500Y0050013D01*
X0226500Y0049377D02*
X0226500Y0049377D01*
X0226500Y0049377D01*
X0226500Y0047779D02*
X0226500Y0047779D01*
X0226500Y0047779D01*
X0226500Y0046180D02*
X0226500Y0046180D01*
X0226500Y0046180D01*
X0220905Y0046180D02*
X0216044Y0046180D01*
X0220905Y0046180D01*
X0220250Y0047779D02*
X0217643Y0047779D01*
X0220250Y0047779D01*
X0220250Y0049377D02*
X0219241Y0049377D01*
X0220250Y0049377D01*
X0254666Y0036589D02*
X0271259Y0036589D01*
X0254666Y0036589D01*
X0256264Y0038188D02*
X0269660Y0038188D01*
X0256264Y0038188D01*
X0257863Y0039786D02*
X0268062Y0039786D01*
X0257863Y0039786D01*
X0259461Y0041385D02*
X0266463Y0041385D01*
X0259461Y0041385D01*
X0261060Y0042983D02*
X0264865Y0042983D01*
X0261060Y0042983D01*
X0262658Y0044582D02*
X0263266Y0044582D01*
X0262658Y0044582D01*
X0262962Y0044886D02*
X0281338Y0026510D01*
X0262191Y0026510D01*
X0261162Y0026084D01*
X0260994Y0025915D01*
X0260994Y0026072D01*
X0258299Y0028767D01*
X0256494Y0028767D01*
X0256494Y0024267D01*
X0256294Y0024267D01*
X0256294Y0028767D01*
X0254488Y0028767D01*
X0251794Y0026072D01*
X0251794Y0024267D01*
X0256294Y0024267D01*
X0256294Y0028767D01*
X0254488Y0028767D01*
X0251794Y0026072D01*
X0251794Y0024267D01*
X0256294Y0024267D01*
X0256494Y0024267D01*
X0256494Y0028767D01*
X0258299Y0028767D01*
X0260994Y0026072D01*
X0260994Y0025915D01*
X0261162Y0026084D01*
X0262191Y0026510D01*
X0281338Y0026510D01*
X0262962Y0044886D01*
X0247043Y0028967D01*
X0248382Y0028967D01*
X0251194Y0026155D01*
X0251194Y0022178D01*
X0251025Y0022010D01*
X0252045Y0022010D01*
X0251794Y0022261D01*
X0251794Y0024067D01*
X0256294Y0024067D01*
X0256294Y0024267D01*
X0256294Y0024067D01*
X0251794Y0024067D01*
X0251794Y0022261D01*
X0252045Y0022010D01*
X0251025Y0022010D01*
X0251194Y0022178D01*
X0251194Y0026155D01*
X0248382Y0028967D01*
X0247043Y0028967D01*
X0262962Y0044886D01*
X0261169Y0047052D02*
X0242904Y0028787D01*
X0238667Y0028787D01*
X0236394Y0026513D01*
X0236394Y0024167D01*
X0231390Y0029171D01*
X0229839Y0029171D01*
X0227039Y0033392D02*
X0215817Y0033392D01*
X0227039Y0033392D01*
X0248272Y0030195D02*
X0277653Y0030195D01*
X0248272Y0030195D01*
X0248752Y0028597D02*
X0254318Y0028597D01*
X0248752Y0028597D01*
X0250351Y0026998D02*
X0252720Y0026998D01*
X0250351Y0026998D01*
X0251194Y0025400D02*
X0251794Y0025400D01*
X0251194Y0025400D01*
X0251194Y0023801D02*
X0251794Y0023801D01*
X0251194Y0023801D01*
X0251194Y0022203D02*
X0251852Y0022203D01*
X0251194Y0022203D01*
X0256294Y0025400D02*
X0256494Y0025400D01*
X0256294Y0025400D01*
X0256294Y0026998D02*
X0256494Y0026998D01*
X0256294Y0026998D01*
X0256294Y0028597D02*
X0256494Y0028597D01*
X0256294Y0028597D01*
X0258469Y0028597D02*
X0279251Y0028597D01*
X0258469Y0028597D01*
X0260068Y0026998D02*
X0280850Y0026998D01*
X0260068Y0026998D01*
X0262748Y0023710D02*
X0303591Y0023710D01*
X0307591Y0019710D01*
X0307591Y0012777D01*
X0308539Y0011828D01*
X0335039Y0011828D01*
X0341870Y0018659D01*
X0342102Y0018659D01*
X0342339Y0018895D01*
X0342339Y0025234D01*
X0346591Y0029486D01*
X0362890Y0029486D01*
X0380882Y0047478D01*
X0387850Y0047478D01*
X0387850Y0047430D01*
X0389091Y0046190D01*
X0389091Y0038206D01*
X0394150Y0033147D01*
X0400528Y0033147D01*
X0401091Y0033710D01*
X0415091Y0019710D01*
X0415488Y0019682D01*
X0406598Y0019005D02*
X0390698Y0019005D01*
X0406598Y0019005D01*
X0406598Y0017407D02*
X0398587Y0017407D01*
X0406598Y0017407D01*
X0406598Y0015808D02*
X0398587Y0015808D01*
X0406598Y0015808D01*
X0406598Y0014210D02*
X0398503Y0014210D01*
X0406598Y0014210D01*
X0406598Y0013933D02*
X0407770Y0012761D01*
X0420080Y0012761D01*
X0419328Y0012010D01*
X0350093Y0012010D01*
X0350992Y0012909D01*
X0350992Y0024408D01*
X0349821Y0025580D01*
X0346645Y0025580D01*
X0347750Y0026686D01*
X0363447Y0026686D01*
X0364476Y0027112D01*
X0365263Y0027899D01*
X0378965Y0041601D01*
X0378877Y0041274D01*
X0378877Y0038071D01*
X0382461Y0038071D01*
X0382461Y0037703D01*
X0378877Y0037703D01*
X0378877Y0034501D01*
X0379000Y0034043D01*
X0379237Y0033632D01*
X0379572Y0033297D01*
X0379982Y0033060D01*
X0380440Y0032938D01*
X0382461Y0032938D01*
X0382461Y0037703D01*
X0378877Y0037703D01*
X0378877Y0034501D01*
X0379000Y0034043D01*
X0379237Y0033632D01*
X0379572Y0033297D01*
X0379982Y0033060D01*
X0380440Y0032938D01*
X0382461Y0032938D01*
X0382461Y0037703D01*
X0382461Y0038071D01*
X0378877Y0038071D01*
X0378877Y0041274D01*
X0378965Y0041601D01*
X0365263Y0027899D01*
X0365263Y0027899D01*
X0365263Y0027899D01*
X0364476Y0027112D01*
X0363447Y0026686D01*
X0347750Y0026686D01*
X0346645Y0025580D01*
X0349821Y0025580D01*
X0350992Y0024408D01*
X0350992Y0012909D01*
X0350093Y0012010D01*
X0419328Y0012010D01*
X0420080Y0012761D01*
X0407770Y0012761D01*
X0406598Y0013933D01*
X0406598Y0024242D01*
X0400494Y0030347D01*
X0393593Y0030347D01*
X0392564Y0030773D01*
X0391776Y0031561D01*
X0386717Y0036620D01*
X0386414Y0037351D01*
X0386414Y0034501D01*
X0386291Y0034043D01*
X0386055Y0033632D01*
X0385719Y0033297D01*
X0385309Y0033060D01*
X0384851Y0032938D01*
X0382830Y0032938D01*
X0382830Y0037703D01*
X0382461Y0037703D01*
X0382830Y0037703D01*
X0382830Y0032938D01*
X0384851Y0032938D01*
X0385309Y0033060D01*
X0385719Y0033297D01*
X0386055Y0033632D01*
X0386291Y0034043D01*
X0386414Y0034501D01*
X0386414Y0037351D01*
X0386717Y0036620D01*
X0391776Y0031561D01*
X0392564Y0030773D01*
X0393593Y0030347D01*
X0400494Y0030347D01*
X0406598Y0024242D01*
X0406598Y0013933D01*
X0398587Y0014524D02*
X0398587Y0018882D01*
X0390698Y0018882D01*
X0390698Y0020482D01*
X0398587Y0020482D01*
X0398587Y0024841D01*
X0398465Y0025298D01*
X0398228Y0025709D01*
X0397893Y0026044D01*
X0397482Y0026281D01*
X0397024Y0026404D01*
X0390698Y0026404D01*
X0390698Y0020482D01*
X0398587Y0020482D01*
X0398587Y0024841D01*
X0398465Y0025298D01*
X0398228Y0025709D01*
X0397893Y0026044D01*
X0397482Y0026281D01*
X0397024Y0026404D01*
X0390698Y0026404D01*
X0390698Y0020482D01*
X0390698Y0018882D01*
X0398587Y0018882D01*
X0398587Y0014524D01*
X0398465Y0014066D01*
X0398228Y0013656D01*
X0397893Y0013321D01*
X0397482Y0013084D01*
X0397024Y0012961D01*
X0390698Y0012961D01*
X0390698Y0018882D01*
X0389098Y0018882D01*
X0389098Y0012961D01*
X0382771Y0012961D01*
X0382313Y0013084D01*
X0381903Y0013321D01*
X0381568Y0013656D01*
X0381331Y0014066D01*
X0381208Y0014524D01*
X0381208Y0018882D01*
X0389098Y0018882D01*
X0390698Y0018882D01*
X0390698Y0012961D01*
X0397024Y0012961D01*
X0397482Y0013084D01*
X0397893Y0013321D01*
X0398228Y0013656D01*
X0398465Y0014066D01*
X0398587Y0014524D01*
X0390698Y0014210D02*
X0389098Y0014210D01*
X0390698Y0014210D01*
X0390698Y0015808D02*
X0389098Y0015808D01*
X0390698Y0015808D01*
X0390698Y0017407D02*
X0389098Y0017407D01*
X0390698Y0017407D01*
X0389098Y0018882D02*
X0389098Y0012961D01*
X0382771Y0012961D01*
X0382313Y0013084D01*
X0381903Y0013321D01*
X0381568Y0013656D01*
X0381331Y0014066D01*
X0381208Y0014524D01*
X0381208Y0018882D01*
X0389098Y0018882D01*
X0389098Y0020482D01*
X0381208Y0020482D01*
X0381208Y0024841D01*
X0381331Y0025298D01*
X0381568Y0025709D01*
X0381903Y0026044D01*
X0382313Y0026281D01*
X0382771Y0026404D01*
X0389098Y0026404D01*
X0389098Y0020482D01*
X0389098Y0018882D01*
X0389098Y0019005D02*
X0350992Y0019005D01*
X0389098Y0019005D01*
X0389098Y0020482D02*
X0381208Y0020482D01*
X0381208Y0024841D01*
X0381331Y0025298D01*
X0381568Y0025709D01*
X0381903Y0026044D01*
X0382313Y0026281D01*
X0382771Y0026404D01*
X0389098Y0026404D01*
X0389098Y0020482D01*
X0390698Y0020482D01*
X0389098Y0020482D01*
X0389098Y0020604D02*
X0390698Y0020604D01*
X0389098Y0020604D01*
X0389098Y0022203D02*
X0390698Y0022203D01*
X0389098Y0022203D01*
X0389098Y0023801D02*
X0390698Y0023801D01*
X0389098Y0023801D01*
X0389098Y0025400D02*
X0390698Y0025400D01*
X0389098Y0025400D01*
X0381389Y0025400D02*
X0350001Y0025400D01*
X0381389Y0025400D01*
X0381208Y0023801D02*
X0350992Y0023801D01*
X0381208Y0023801D01*
X0381208Y0022203D02*
X0350992Y0022203D01*
X0381208Y0022203D01*
X0381208Y0020604D02*
X0350992Y0020604D01*
X0381208Y0020604D01*
X0381208Y0017407D02*
X0350992Y0017407D01*
X0381208Y0017407D01*
X0381208Y0015808D02*
X0350992Y0015808D01*
X0381208Y0015808D01*
X0381292Y0014210D02*
X0350992Y0014210D01*
X0381292Y0014210D01*
X0398587Y0020604D02*
X0406598Y0020604D01*
X0398587Y0020604D01*
X0398587Y0022203D02*
X0406598Y0022203D01*
X0398587Y0022203D01*
X0398587Y0023801D02*
X0406598Y0023801D01*
X0398587Y0023801D01*
X0398406Y0025400D02*
X0405441Y0025400D01*
X0398406Y0025400D01*
X0403843Y0026998D02*
X0364201Y0026998D01*
X0403843Y0026998D01*
X0402244Y0028597D02*
X0365961Y0028597D01*
X0402244Y0028597D01*
X0400646Y0030195D02*
X0367559Y0030195D01*
X0400646Y0030195D01*
X0401091Y0033710D02*
X0401091Y0037710D01*
X0400598Y0037887D01*
X0389945Y0033392D02*
X0385814Y0033392D01*
X0389945Y0033392D01*
X0391543Y0031794D02*
X0369158Y0031794D01*
X0391543Y0031794D01*
X0382830Y0033392D02*
X0382461Y0033392D01*
X0382830Y0033392D01*
X0382830Y0034991D02*
X0382461Y0034991D01*
X0382830Y0034991D01*
X0382830Y0036589D02*
X0382461Y0036589D01*
X0382830Y0036589D01*
X0382830Y0038071D02*
X0382461Y0038071D01*
X0382461Y0042837D01*
X0380440Y0042837D01*
X0380113Y0042749D01*
X0382042Y0044678D01*
X0384982Y0044678D01*
X0385382Y0043712D01*
X0386291Y0042803D01*
X0386291Y0041733D01*
X0386055Y0042142D01*
X0385719Y0042477D01*
X0385309Y0042714D01*
X0384851Y0042837D01*
X0382830Y0042837D01*
X0382830Y0038071D01*
X0382461Y0038071D01*
X0382461Y0042837D01*
X0380440Y0042837D01*
X0380113Y0042749D01*
X0382042Y0044678D01*
X0384982Y0044678D01*
X0385382Y0043712D01*
X0386291Y0042803D01*
X0386291Y0041733D01*
X0386055Y0042142D01*
X0385719Y0042477D01*
X0385309Y0042714D01*
X0384851Y0042837D01*
X0382830Y0042837D01*
X0382830Y0038071D01*
X0382830Y0038188D02*
X0382461Y0038188D01*
X0382830Y0038188D01*
X0382830Y0039786D02*
X0382461Y0039786D01*
X0382830Y0039786D01*
X0382830Y0041385D02*
X0382461Y0041385D01*
X0382830Y0041385D01*
X0380347Y0042983D02*
X0386111Y0042983D01*
X0380347Y0042983D01*
X0378907Y0041385D02*
X0378749Y0041385D01*
X0378907Y0041385D01*
X0378877Y0039786D02*
X0377150Y0039786D01*
X0378877Y0039786D01*
X0378877Y0038188D02*
X0375552Y0038188D01*
X0378877Y0038188D01*
X0378877Y0036589D02*
X0373953Y0036589D01*
X0378877Y0036589D01*
X0378877Y0034991D02*
X0372355Y0034991D01*
X0378877Y0034991D01*
X0379477Y0033392D02*
X0370756Y0033392D01*
X0379477Y0033392D01*
X0386414Y0034991D02*
X0388346Y0034991D01*
X0386414Y0034991D01*
X0386414Y0036589D02*
X0386748Y0036589D01*
X0386414Y0036589D01*
X0385022Y0044582D02*
X0381946Y0044582D01*
X0385022Y0044582D01*
X0371091Y0048710D02*
X0362091Y0048710D01*
X0352591Y0039210D01*
X0342591Y0039210D01*
X0342339Y0039092D01*
X0333449Y0039786D02*
X0317548Y0039786D01*
X0333449Y0039786D01*
X0333449Y0038188D02*
X0325438Y0038188D01*
X0333449Y0038188D01*
X0333449Y0036589D02*
X0325438Y0036589D01*
X0333449Y0036589D01*
X0333449Y0034991D02*
X0325438Y0034991D01*
X0333449Y0034991D01*
X0333449Y0034723D02*
X0325438Y0034723D01*
X0325438Y0038292D01*
X0317548Y0038292D01*
X0317548Y0039892D01*
X0315948Y0039892D01*
X0315948Y0045813D01*
X0313343Y0045813D01*
X0316187Y0048657D01*
X0355257Y0048657D01*
X0356213Y0049053D01*
X0356944Y0049784D01*
X0357156Y0049996D01*
X0359417Y0049996D01*
X0351431Y0042010D01*
X0351228Y0042010D01*
X0351228Y0044842D01*
X0350057Y0046013D01*
X0334620Y0046013D01*
X0333449Y0044842D01*
X0333449Y0034723D01*
X0325438Y0034723D01*
X0325438Y0038292D01*
X0317548Y0038292D01*
X0317548Y0039892D01*
X0317548Y0045813D01*
X0323875Y0045813D01*
X0324333Y0045690D01*
X0324743Y0045453D01*
X0325078Y0045118D01*
X0325315Y0044708D01*
X0325438Y0044250D01*
X0325438Y0039892D01*
X0317548Y0039892D01*
X0315948Y0039892D01*
X0315948Y0045813D01*
X0313343Y0045813D01*
X0316187Y0048657D01*
X0355257Y0048657D01*
X0356213Y0049053D01*
X0356944Y0049784D01*
X0357156Y0049996D01*
X0359417Y0049996D01*
X0351431Y0042010D01*
X0351228Y0042010D01*
X0351228Y0044842D01*
X0350057Y0046013D01*
X0334620Y0046013D01*
X0333449Y0044842D01*
X0333449Y0034723D01*
X0325438Y0039892D02*
X0317548Y0039892D01*
X0317548Y0045813D01*
X0323875Y0045813D01*
X0324333Y0045690D01*
X0324743Y0045453D01*
X0325078Y0045118D01*
X0325315Y0044708D01*
X0325438Y0044250D01*
X0325438Y0039892D01*
X0325438Y0041385D02*
X0333449Y0041385D01*
X0325438Y0041385D01*
X0325438Y0042983D02*
X0333449Y0042983D01*
X0325438Y0042983D01*
X0325349Y0044582D02*
X0333449Y0044582D01*
X0325349Y0044582D01*
X0317548Y0044582D02*
X0315948Y0044582D01*
X0317548Y0044582D01*
X0317548Y0042983D02*
X0315948Y0042983D01*
X0317548Y0042983D01*
X0317548Y0041385D02*
X0315948Y0041385D01*
X0317548Y0041385D01*
X0315948Y0039892D02*
X0315948Y0038292D01*
X0308058Y0038292D01*
X0308058Y0033934D01*
X0308181Y0033476D01*
X0308189Y0033462D01*
X0304855Y0030128D01*
X0304855Y0031152D01*
X0300680Y0031152D01*
X0300680Y0032701D01*
X0299131Y0032701D01*
X0299131Y0031152D01*
X0294956Y0031152D01*
X0294956Y0029212D01*
X0293858Y0029212D01*
X0293858Y0036304D01*
X0292687Y0037476D01*
X0287002Y0037476D01*
X0286840Y0037638D01*
X0304608Y0037638D01*
X0305563Y0038033D01*
X0308058Y0040528D01*
X0308058Y0039892D01*
X0315948Y0039892D01*
X0315948Y0038292D01*
X0308058Y0038292D01*
X0308058Y0033934D01*
X0308181Y0033476D01*
X0308189Y0033462D01*
X0304855Y0030128D01*
X0304855Y0031152D01*
X0300680Y0031152D01*
X0300680Y0032701D01*
X0300680Y0037276D01*
X0303292Y0037276D01*
X0303750Y0037153D01*
X0304160Y0036916D01*
X0304495Y0036581D01*
X0304732Y0036170D01*
X0304855Y0035713D01*
X0304855Y0032701D01*
X0300680Y0032701D01*
X0299131Y0032701D01*
X0294956Y0032701D01*
X0294956Y0035713D01*
X0295079Y0036170D01*
X0295316Y0036581D01*
X0295651Y0036916D01*
X0296061Y0037153D01*
X0296519Y0037276D01*
X0299131Y0037276D01*
X0299131Y0032701D01*
X0299131Y0031152D01*
X0294956Y0031152D01*
X0294956Y0029212D01*
X0293858Y0029212D01*
X0293858Y0036304D01*
X0292687Y0037476D01*
X0287002Y0037476D01*
X0286840Y0037638D01*
X0304608Y0037638D01*
X0305563Y0038033D01*
X0308058Y0040528D01*
X0308058Y0039892D01*
X0315948Y0039892D01*
X0315948Y0039786D02*
X0307316Y0039786D01*
X0315948Y0039786D01*
X0308058Y0038188D02*
X0305718Y0038188D01*
X0308058Y0038188D01*
X0308058Y0036589D02*
X0304487Y0036589D01*
X0308058Y0036589D01*
X0308058Y0034991D02*
X0304855Y0034991D01*
X0308058Y0034991D01*
X0308119Y0033392D02*
X0304855Y0033392D01*
X0308119Y0033392D01*
X0306521Y0031794D02*
X0300680Y0031794D01*
X0306521Y0031794D01*
X0304855Y0032701D02*
X0304855Y0035713D01*
X0304732Y0036170D01*
X0304495Y0036581D01*
X0304160Y0036916D01*
X0303750Y0037153D01*
X0303292Y0037276D01*
X0300680Y0037276D01*
X0300680Y0032701D01*
X0304855Y0032701D01*
X0304855Y0030195D02*
X0304922Y0030195D01*
X0304855Y0030195D01*
X0306671Y0024590D02*
X0311605Y0029523D01*
X0342669Y0029523D01*
X0339965Y0026820D01*
X0339539Y0025791D01*
X0339539Y0025580D01*
X0334384Y0025580D01*
X0333213Y0024408D01*
X0333213Y0014628D01*
X0325202Y0014628D01*
X0325202Y0017859D01*
X0317312Y0017859D01*
X0317312Y0019459D01*
X0315712Y0019459D01*
X0315712Y0025380D01*
X0309385Y0025380D01*
X0308927Y0025257D01*
X0308517Y0025020D01*
X0308182Y0024685D01*
X0307945Y0024275D01*
X0307822Y0023817D01*
X0307822Y0023438D01*
X0306671Y0024590D01*
X0311605Y0029523D01*
X0342669Y0029523D01*
X0339965Y0026820D01*
X0339539Y0025791D01*
X0339539Y0025580D01*
X0334384Y0025580D01*
X0333213Y0024408D01*
X0333213Y0014628D01*
X0325202Y0014628D01*
X0325202Y0017859D01*
X0317312Y0017859D01*
X0317312Y0019459D01*
X0317312Y0025380D01*
X0323639Y0025380D01*
X0324096Y0025257D01*
X0324507Y0025020D01*
X0324842Y0024685D01*
X0325079Y0024275D01*
X0325202Y0023817D01*
X0325202Y0019459D01*
X0317312Y0019459D01*
X0315712Y0019459D01*
X0315712Y0025380D01*
X0309385Y0025380D01*
X0308927Y0025257D01*
X0308517Y0025020D01*
X0308182Y0024685D01*
X0307945Y0024275D01*
X0307822Y0023817D01*
X0307822Y0023438D01*
X0306671Y0024590D01*
X0307459Y0023801D02*
X0307822Y0023801D01*
X0307459Y0023801D01*
X0307481Y0025400D02*
X0334204Y0025400D01*
X0307481Y0025400D01*
X0309079Y0026998D02*
X0340143Y0026998D01*
X0309079Y0026998D01*
X0310678Y0028597D02*
X0341742Y0028597D01*
X0310678Y0028597D01*
X0317312Y0025380D02*
X0317312Y0019459D01*
X0325202Y0019459D01*
X0325202Y0023817D01*
X0325079Y0024275D01*
X0324842Y0024685D01*
X0324507Y0025020D01*
X0324096Y0025257D01*
X0323639Y0025380D01*
X0317312Y0025380D01*
X0317312Y0023801D02*
X0315712Y0023801D01*
X0317312Y0023801D01*
X0317312Y0022203D02*
X0315712Y0022203D01*
X0317312Y0022203D01*
X0317312Y0020604D02*
X0315712Y0020604D01*
X0317312Y0020604D01*
X0317312Y0019005D02*
X0333213Y0019005D01*
X0317312Y0019005D01*
X0325202Y0017407D02*
X0333213Y0017407D01*
X0325202Y0017407D01*
X0325202Y0015808D02*
X0333213Y0015808D01*
X0325202Y0015808D01*
X0325202Y0020604D02*
X0333213Y0020604D01*
X0325202Y0020604D01*
X0325202Y0022203D02*
X0333213Y0022203D01*
X0325202Y0022203D01*
X0325202Y0023801D02*
X0333213Y0023801D01*
X0325202Y0023801D01*
X0342102Y0018659D02*
X0342591Y0019210D01*
X0342102Y0018659D02*
X0342091Y0018210D01*
X0350694Y0012611D02*
X0419930Y0012611D01*
X0350694Y0012611D01*
X0304878Y0012010D02*
X0261025Y0012010D01*
X0261194Y0012178D01*
X0261194Y0015018D01*
X0264793Y0018618D01*
X0282876Y0018618D01*
X0283559Y0017935D01*
X0283559Y0013769D01*
X0284731Y0012598D01*
X0292687Y0012598D01*
X0293858Y0013769D01*
X0293858Y0020910D01*
X0294956Y0020910D01*
X0294956Y0018922D01*
X0299131Y0018922D01*
X0299131Y0017372D01*
X0300680Y0017372D01*
X0300680Y0012798D01*
X0303292Y0012798D01*
X0303750Y0012920D01*
X0304160Y0013157D01*
X0304495Y0013493D01*
X0304732Y0013903D01*
X0304791Y0014120D01*
X0304791Y0012220D01*
X0304878Y0012010D01*
X0261025Y0012010D01*
X0261194Y0012178D01*
X0261194Y0015018D01*
X0264793Y0018618D01*
X0282876Y0018618D01*
X0283559Y0017935D01*
X0283559Y0013769D01*
X0284731Y0012598D01*
X0292687Y0012598D01*
X0293858Y0013769D01*
X0293858Y0020910D01*
X0294956Y0020910D01*
X0294956Y0018922D01*
X0299131Y0018922D01*
X0299131Y0017372D01*
X0299131Y0012798D01*
X0296519Y0012798D01*
X0296061Y0012920D01*
X0295651Y0013157D01*
X0295316Y0013493D01*
X0295079Y0013903D01*
X0294956Y0014361D01*
X0294956Y0017372D01*
X0299131Y0017372D01*
X0300680Y0017372D01*
X0300680Y0012798D01*
X0303292Y0012798D01*
X0303750Y0012920D01*
X0304160Y0013157D01*
X0304495Y0013493D01*
X0304732Y0013903D01*
X0304791Y0014120D01*
X0304791Y0012220D01*
X0304878Y0012010D01*
X0304791Y0012611D02*
X0292700Y0012611D01*
X0304791Y0012611D01*
X0300680Y0014210D02*
X0299131Y0014210D01*
X0300680Y0014210D01*
X0300680Y0015808D02*
X0299131Y0015808D01*
X0300680Y0015808D01*
X0299131Y0017372D02*
X0299131Y0012798D01*
X0296519Y0012798D01*
X0296061Y0012920D01*
X0295651Y0013157D01*
X0295316Y0013493D01*
X0295079Y0013903D01*
X0294956Y0014361D01*
X0294956Y0017372D01*
X0299131Y0017372D01*
X0299131Y0017407D02*
X0293858Y0017407D01*
X0299131Y0017407D01*
X0294956Y0019005D02*
X0293858Y0019005D01*
X0294956Y0019005D01*
X0294956Y0020604D02*
X0293858Y0020604D01*
X0294956Y0020604D01*
X0283559Y0017407D02*
X0263583Y0017407D01*
X0283559Y0017407D01*
X0283559Y0015808D02*
X0261984Y0015808D01*
X0283559Y0015808D01*
X0283559Y0014210D02*
X0261194Y0014210D01*
X0283559Y0014210D01*
X0284717Y0012611D02*
X0261194Y0012611D01*
X0284717Y0012611D01*
X0293858Y0014210D02*
X0294996Y0014210D01*
X0293858Y0014210D01*
X0293858Y0015808D02*
X0294956Y0015808D01*
X0293858Y0015808D01*
X0262748Y0023710D02*
X0258248Y0019210D01*
X0233402Y0019210D01*
X0228480Y0024131D01*
X0222169Y0024131D01*
X0222091Y0024210D01*
X0211980Y0023801D02*
X0209583Y0023801D01*
X0211980Y0023801D01*
X0211980Y0022203D02*
X0209583Y0022203D01*
X0211980Y0022203D01*
X0211980Y0020604D02*
X0209583Y0020604D01*
X0211980Y0020604D01*
X0211980Y0019005D02*
X0209583Y0019005D01*
X0211980Y0019005D01*
X0211980Y0017407D02*
X0209583Y0017407D01*
X0211980Y0017407D01*
X0211980Y0015808D02*
X0208948Y0015808D01*
X0211980Y0015808D01*
X0211980Y0014210D02*
X0207528Y0014210D01*
X0211980Y0014210D01*
X0201638Y0014210D02*
X0197528Y0014210D01*
X0201638Y0014210D01*
X0200218Y0015808D02*
X0198948Y0015808D01*
X0200218Y0015808D01*
X0199583Y0017407D02*
X0199583Y0017407D01*
X0199583Y0017407D01*
X0199583Y0019005D02*
X0199583Y0019005D01*
X0199583Y0019005D01*
X0199583Y0020604D02*
X0199583Y0020604D01*
X0199583Y0020604D01*
X0199583Y0022203D02*
X0199583Y0022203D01*
X0199583Y0022203D01*
X0199583Y0023801D02*
X0199583Y0023801D01*
X0199583Y0023801D01*
X0199554Y0025400D02*
X0199611Y0025400D01*
X0199554Y0025400D01*
X0209554Y0025400D02*
X0211441Y0025400D01*
X0209554Y0025400D01*
X0190273Y0026998D02*
X0188582Y0026998D01*
X0190273Y0026998D01*
X0189031Y0026179D02*
X0188688Y0026852D01*
X0188244Y0027463D01*
X0187710Y0027997D01*
X0187098Y0028441D01*
X0186425Y0028784D01*
X0185707Y0029018D01*
X0184960Y0029136D01*
X0184783Y0029136D01*
X0184783Y0021536D01*
X0189383Y0021536D01*
X0189383Y0024714D01*
X0189264Y0025460D01*
X0189031Y0026179D01*
X0188688Y0026852D01*
X0188244Y0027463D01*
X0187710Y0027997D01*
X0187098Y0028441D01*
X0186425Y0028784D01*
X0185707Y0029018D01*
X0184960Y0029136D01*
X0184783Y0029136D01*
X0184783Y0021536D01*
X0184783Y0021136D01*
X0189383Y0021136D01*
X0189383Y0017958D01*
X0189264Y0017212D01*
X0189031Y0016493D01*
X0188688Y0015820D01*
X0188244Y0015209D01*
X0187710Y0014675D01*
X0187098Y0014231D01*
X0186425Y0013888D01*
X0185707Y0013654D01*
X0184960Y0013536D01*
X0184783Y0013536D01*
X0184783Y0021136D01*
X0184783Y0021536D01*
X0189383Y0021536D01*
X0189383Y0024714D01*
X0189264Y0025460D01*
X0189031Y0026179D01*
X0189274Y0025400D02*
X0189611Y0025400D01*
X0189274Y0025400D01*
X0189383Y0023801D02*
X0189583Y0023801D01*
X0189383Y0023801D01*
X0189383Y0022203D02*
X0189583Y0022203D01*
X0189383Y0022203D01*
X0189383Y0021136D02*
X0184783Y0021136D01*
X0184383Y0021136D01*
X0184383Y0013536D01*
X0184205Y0013536D01*
X0183459Y0013654D01*
X0182740Y0013888D01*
X0182067Y0014231D01*
X0181456Y0014675D01*
X0180921Y0015209D01*
X0180477Y0015820D01*
X0180134Y0016493D01*
X0179901Y0017212D01*
X0179783Y0017958D01*
X0179783Y0021136D01*
X0184383Y0021136D01*
X0184783Y0021136D01*
X0184783Y0013536D01*
X0184960Y0013536D01*
X0185707Y0013654D01*
X0186425Y0013888D01*
X0187098Y0014231D01*
X0187710Y0014675D01*
X0188244Y0015209D01*
X0188688Y0015820D01*
X0189031Y0016493D01*
X0189264Y0017212D01*
X0189383Y0017958D01*
X0189383Y0021136D01*
X0189383Y0020604D02*
X0189583Y0020604D01*
X0189383Y0020604D01*
X0189383Y0019005D02*
X0189583Y0019005D01*
X0189383Y0019005D01*
X0189295Y0017407D02*
X0189583Y0017407D01*
X0189295Y0017407D01*
X0188679Y0015808D02*
X0190218Y0015808D01*
X0188679Y0015808D01*
X0187058Y0014210D02*
X0191638Y0014210D01*
X0187058Y0014210D01*
X0184783Y0014210D02*
X0184383Y0014210D01*
X0184783Y0014210D01*
X0184383Y0013536D02*
X0184383Y0021136D01*
X0184383Y0021536D01*
X0184383Y0029136D01*
X0184205Y0029136D01*
X0183459Y0029018D01*
X0182740Y0028784D01*
X0182067Y0028441D01*
X0181456Y0027997D01*
X0180921Y0027463D01*
X0180477Y0026852D01*
X0180134Y0026179D01*
X0179901Y0025460D01*
X0179783Y0024714D01*
X0179783Y0021536D01*
X0184383Y0021536D01*
X0184783Y0021536D01*
X0184383Y0021536D01*
X0184383Y0029136D01*
X0184205Y0029136D01*
X0183459Y0029018D01*
X0182740Y0028784D01*
X0182067Y0028441D01*
X0181456Y0027997D01*
X0180921Y0027463D01*
X0180477Y0026852D01*
X0180134Y0026179D01*
X0179901Y0025460D01*
X0179783Y0024714D01*
X0179783Y0021536D01*
X0184383Y0021536D01*
X0184383Y0021136D01*
X0179783Y0021136D01*
X0179783Y0017958D01*
X0179901Y0017212D01*
X0180134Y0016493D01*
X0180477Y0015820D01*
X0180921Y0015209D01*
X0181456Y0014675D01*
X0182067Y0014231D01*
X0182740Y0013888D01*
X0183459Y0013654D01*
X0184205Y0013536D01*
X0184383Y0013536D01*
X0184383Y0015808D02*
X0184783Y0015808D01*
X0184383Y0015808D01*
X0184383Y0017407D02*
X0184783Y0017407D01*
X0184383Y0017407D01*
X0184383Y0019005D02*
X0184783Y0019005D01*
X0184383Y0019005D01*
X0184383Y0020604D02*
X0184783Y0020604D01*
X0184383Y0020604D01*
X0184383Y0022203D02*
X0184783Y0022203D01*
X0184383Y0022203D01*
X0184383Y0023801D02*
X0184783Y0023801D01*
X0184383Y0023801D01*
X0184383Y0025400D02*
X0184783Y0025400D01*
X0184383Y0025400D01*
X0184383Y0026998D02*
X0184783Y0026998D01*
X0184383Y0026998D01*
X0184383Y0028597D02*
X0184783Y0028597D01*
X0184383Y0028597D01*
X0182372Y0028597D02*
X0177362Y0028597D01*
X0182372Y0028597D01*
X0180584Y0026998D02*
X0178892Y0026998D01*
X0180584Y0026998D01*
X0179891Y0025400D02*
X0179554Y0025400D01*
X0179891Y0025400D01*
X0179583Y0025331D02*
X0178821Y0027168D01*
X0177415Y0028575D01*
X0175577Y0029336D01*
X0173588Y0029336D01*
X0171750Y0028575D01*
X0170344Y0027168D01*
X0169583Y0025331D01*
X0169583Y0017341D01*
X0170344Y0015504D01*
X0171750Y0014097D01*
X0173588Y0013336D01*
X0175577Y0013336D01*
X0177415Y0014097D01*
X0178821Y0015504D01*
X0179583Y0017341D01*
X0179583Y0025331D01*
X0178821Y0027168D01*
X0177415Y0028575D01*
X0175577Y0029336D01*
X0173588Y0029336D01*
X0171750Y0028575D01*
X0170344Y0027168D01*
X0169583Y0025331D01*
X0169583Y0017341D01*
X0170344Y0015504D01*
X0171750Y0014097D01*
X0173588Y0013336D01*
X0175577Y0013336D01*
X0177415Y0014097D01*
X0178821Y0015504D01*
X0179583Y0017341D01*
X0179583Y0025331D01*
X0179583Y0023801D02*
X0179783Y0023801D01*
X0179583Y0023801D01*
X0179583Y0022203D02*
X0179783Y0022203D01*
X0179583Y0022203D01*
X0179583Y0020604D02*
X0179783Y0020604D01*
X0179583Y0020604D01*
X0179583Y0019005D02*
X0179783Y0019005D01*
X0179583Y0019005D01*
X0179583Y0017407D02*
X0179870Y0017407D01*
X0179583Y0017407D01*
X0178948Y0015808D02*
X0180486Y0015808D01*
X0178948Y0015808D01*
X0177528Y0014210D02*
X0182107Y0014210D01*
X0177528Y0014210D01*
X0186794Y0028597D02*
X0188205Y0028597D01*
X0186794Y0028597D01*
X0236091Y0024210D02*
X0236394Y0024167D01*
X0249870Y0031794D02*
X0276054Y0031794D01*
X0249870Y0031794D01*
X0251469Y0033392D02*
X0274456Y0033392D01*
X0251469Y0033392D01*
X0253067Y0034991D02*
X0272857Y0034991D01*
X0253067Y0034991D01*
X0261169Y0047052D02*
X0261169Y0049052D01*
X0261146Y0050013D01*
X0261146Y0061403D01*
X0269453Y0069710D01*
X0277591Y0069710D01*
X0277681Y0069698D01*
X0282031Y0070158D02*
X0287862Y0070158D01*
X0282031Y0070158D01*
X0282031Y0070610D02*
X0286108Y0070610D01*
X0287063Y0071006D01*
X0293402Y0077344D01*
X0293402Y0075698D01*
X0284014Y0066310D01*
X0281831Y0066310D01*
X0281831Y0066548D01*
X0277681Y0066548D01*
X0273531Y0066548D01*
X0273531Y0065527D01*
X0273331Y0065327D01*
X0273331Y0056641D01*
X0272923Y0056810D01*
X0268180Y0056810D01*
X0267224Y0056414D01*
X0265386Y0054576D01*
X0265298Y0054363D01*
X0263946Y0054363D01*
X0263946Y0060243D01*
X0270613Y0066910D01*
X0273531Y0066910D01*
X0273531Y0066549D01*
X0277681Y0066549D01*
X0277681Y0066548D01*
X0273531Y0066548D01*
X0273531Y0065527D01*
X0273331Y0065327D01*
X0273331Y0056641D01*
X0272923Y0056810D01*
X0268180Y0056810D01*
X0267224Y0056414D01*
X0265386Y0054576D01*
X0265298Y0054363D01*
X0263946Y0054363D01*
X0263946Y0060243D01*
X0270613Y0066910D01*
X0273531Y0066910D01*
X0273531Y0066549D01*
X0277681Y0066549D01*
X0277681Y0066548D01*
X0277681Y0066549D01*
X0281831Y0066549D01*
X0281831Y0067570D01*
X0282031Y0067770D01*
X0282031Y0070610D01*
X0286108Y0070610D01*
X0287063Y0071006D01*
X0293402Y0077344D01*
X0293402Y0075698D01*
X0284014Y0066310D01*
X0281831Y0066310D01*
X0281831Y0066548D01*
X0277681Y0066548D01*
X0277681Y0066549D01*
X0281831Y0066549D01*
X0281831Y0067570D01*
X0282031Y0067770D01*
X0282031Y0070610D01*
X0282031Y0068559D02*
X0286263Y0068559D01*
X0282031Y0068559D01*
X0281831Y0066961D02*
X0284664Y0066961D01*
X0281831Y0066961D01*
X0273366Y0065362D02*
X0269065Y0065362D01*
X0273366Y0065362D01*
X0273331Y0063764D02*
X0267466Y0063764D01*
X0273331Y0063764D01*
X0273331Y0062165D02*
X0265868Y0062165D01*
X0273331Y0062165D01*
X0273331Y0060567D02*
X0264269Y0060567D01*
X0273331Y0060567D01*
X0273331Y0058968D02*
X0263946Y0058968D01*
X0273331Y0058968D01*
X0273331Y0057370D02*
X0263946Y0057370D01*
X0273331Y0057370D01*
X0266581Y0055771D02*
X0263946Y0055771D01*
X0266581Y0055771D01*
X0258346Y0054173D02*
X0256965Y0054173D01*
X0258346Y0054173D01*
X0257996Y0054163D02*
X0257996Y0050013D01*
X0257996Y0050013D01*
X0257996Y0054163D01*
X0257996Y0052574D02*
X0257996Y0052574D01*
X0257996Y0052574D01*
X0257996Y0050976D02*
X0257996Y0050976D01*
X0257996Y0050976D01*
X0293858Y0048371D02*
X0293858Y0042838D01*
X0294956Y0042838D01*
X0294956Y0044931D01*
X0299131Y0044931D01*
X0299131Y0046481D01*
X0299131Y0051055D01*
X0298126Y0051055D01*
X0298465Y0051875D01*
X0298465Y0053616D01*
X0297799Y0055224D01*
X0296691Y0056332D01*
X0296691Y0060133D01*
X0308210Y0071653D01*
X0313726Y0071653D01*
X0314244Y0072171D01*
X0320759Y0065656D01*
X0318060Y0065656D01*
X0318060Y0059734D01*
X0325950Y0059734D01*
X0325950Y0062670D01*
X0327104Y0061515D01*
X0326826Y0060844D01*
X0326826Y0059104D01*
X0327492Y0057496D01*
X0328723Y0056265D01*
X0330331Y0055599D01*
X0332071Y0055599D01*
X0333679Y0056265D01*
X0333961Y0056547D01*
X0333961Y0053857D01*
X0325950Y0053857D01*
X0325950Y0058134D01*
X0318060Y0058134D01*
X0318060Y0059734D01*
X0325950Y0059734D01*
X0325950Y0062670D01*
X0327104Y0061515D01*
X0326826Y0060844D01*
X0326826Y0059104D01*
X0327492Y0057496D01*
X0328723Y0056265D01*
X0330331Y0055599D01*
X0332071Y0055599D01*
X0333679Y0056265D01*
X0333961Y0056547D01*
X0333961Y0053857D01*
X0325950Y0053857D01*
X0325950Y0058134D01*
X0318060Y0058134D01*
X0318060Y0059734D01*
X0316460Y0059734D01*
X0316460Y0058134D01*
X0308570Y0058134D01*
X0308570Y0053776D01*
X0308693Y0053318D01*
X0308930Y0052908D01*
X0309265Y0052573D01*
X0309675Y0052336D01*
X0310133Y0052213D01*
X0312389Y0052213D01*
X0304855Y0044679D01*
X0304855Y0044931D01*
X0300680Y0044931D01*
X0300680Y0046481D01*
X0299131Y0046481D01*
X0299131Y0051055D01*
X0298126Y0051055D01*
X0298465Y0051875D01*
X0298465Y0053616D01*
X0297799Y0055224D01*
X0296691Y0056332D01*
X0296691Y0060133D01*
X0308210Y0071653D01*
X0313726Y0071653D01*
X0314244Y0072171D01*
X0320759Y0065656D01*
X0318060Y0065656D01*
X0318060Y0059734D01*
X0316460Y0059734D01*
X0308570Y0059734D01*
X0308570Y0064093D01*
X0308693Y0064550D01*
X0308930Y0064961D01*
X0309265Y0065296D01*
X0309675Y0065533D01*
X0310133Y0065656D01*
X0316460Y0065656D01*
X0316460Y0059734D01*
X0316460Y0058134D01*
X0308570Y0058134D01*
X0308570Y0053776D01*
X0308693Y0053318D01*
X0308930Y0052908D01*
X0309265Y0052573D01*
X0309675Y0052336D01*
X0310133Y0052213D01*
X0312389Y0052213D01*
X0304855Y0044679D01*
X0304855Y0044931D01*
X0300680Y0044931D01*
X0300680Y0046481D01*
X0300680Y0051055D01*
X0303292Y0051055D01*
X0303750Y0050933D01*
X0304160Y0050696D01*
X0304495Y0050360D01*
X0304732Y0049950D01*
X0304855Y0049492D01*
X0304855Y0046481D01*
X0300680Y0046481D01*
X0299131Y0046481D01*
X0294956Y0046481D01*
X0294956Y0048371D01*
X0293858Y0048371D01*
X0294956Y0048371D01*
X0294956Y0046481D01*
X0299131Y0046481D01*
X0299131Y0044931D01*
X0294956Y0044931D01*
X0294956Y0042838D01*
X0293858Y0042838D01*
X0293858Y0048371D01*
X0293858Y0047779D02*
X0294956Y0047779D01*
X0293858Y0047779D01*
X0293858Y0046180D02*
X0299131Y0046180D01*
X0293858Y0046180D01*
X0293858Y0044582D02*
X0294956Y0044582D01*
X0293858Y0044582D01*
X0293858Y0042983D02*
X0294956Y0042983D01*
X0293858Y0042983D01*
X0299131Y0047779D02*
X0300680Y0047779D01*
X0299131Y0047779D01*
X0299131Y0049377D02*
X0300680Y0049377D01*
X0299131Y0049377D01*
X0299131Y0050976D02*
X0300680Y0050976D01*
X0299131Y0050976D01*
X0300680Y0051055D02*
X0300680Y0046481D01*
X0304855Y0046481D01*
X0304855Y0049492D01*
X0304732Y0049950D01*
X0304495Y0050360D01*
X0304160Y0050696D01*
X0303750Y0050933D01*
X0303292Y0051055D01*
X0300680Y0051055D01*
X0298465Y0052574D02*
X0309263Y0052574D01*
X0298465Y0052574D01*
X0298235Y0054173D02*
X0308570Y0054173D01*
X0298235Y0054173D01*
X0297252Y0055771D02*
X0308570Y0055771D01*
X0297252Y0055771D01*
X0296691Y0057370D02*
X0308570Y0057370D01*
X0296691Y0057370D01*
X0296691Y0058968D02*
X0316460Y0058968D01*
X0296691Y0058968D01*
X0297124Y0060567D02*
X0308570Y0060567D01*
X0297124Y0060567D01*
X0298723Y0062165D02*
X0308570Y0062165D01*
X0298723Y0062165D01*
X0300321Y0063764D02*
X0308570Y0063764D01*
X0300321Y0063764D01*
X0301920Y0065362D02*
X0309380Y0065362D01*
X0301920Y0065362D01*
X0303518Y0066961D02*
X0319454Y0066961D01*
X0303518Y0066961D01*
X0305117Y0068559D02*
X0317856Y0068559D01*
X0305117Y0068559D01*
X0306715Y0070158D02*
X0316257Y0070158D01*
X0306715Y0070158D01*
X0313830Y0071756D02*
X0314659Y0071756D01*
X0313830Y0071756D01*
X0320414Y0073355D02*
X0321291Y0073355D01*
X0320414Y0073355D01*
X0321291Y0073011D02*
X0321667Y0072101D01*
X0317191Y0076578D01*
X0317191Y0096727D01*
X0316795Y0097683D01*
X0314898Y0099580D01*
X0314898Y0105202D01*
X0313726Y0106373D01*
X0306691Y0106373D01*
X0306691Y0108706D01*
X0307852Y0108706D01*
X0308364Y0109218D01*
X0308691Y0109029D01*
X0309149Y0108906D01*
X0311465Y0108906D01*
X0311465Y0113179D01*
X0312424Y0113179D01*
X0312424Y0108906D01*
X0314741Y0108906D01*
X0315199Y0109029D01*
X0315609Y0109266D01*
X0315944Y0109601D01*
X0316181Y0110011D01*
X0316304Y0110469D01*
X0316304Y0113179D01*
X0312424Y0113179D01*
X0312424Y0108906D01*
X0314741Y0108906D01*
X0315199Y0109029D01*
X0315609Y0109266D01*
X0315944Y0109601D01*
X0316181Y0110011D01*
X0316304Y0110469D01*
X0316304Y0113179D01*
X0312424Y0113179D01*
X0311465Y0113179D01*
X0311465Y0108906D01*
X0309149Y0108906D01*
X0308691Y0109029D01*
X0308364Y0109218D01*
X0307852Y0108706D01*
X0306691Y0108706D01*
X0306691Y0106373D01*
X0313726Y0106373D01*
X0314898Y0105202D01*
X0314898Y0099580D01*
X0316795Y0097683D01*
X0317191Y0096727D01*
X0317191Y0076578D01*
X0321667Y0072101D01*
X0321291Y0073011D01*
X0321291Y0099823D01*
X0320382Y0100732D01*
X0319716Y0102340D01*
X0319716Y0104080D01*
X0320382Y0105688D01*
X0321612Y0106919D01*
X0323220Y0107585D01*
X0324961Y0107585D01*
X0326569Y0106919D01*
X0327799Y0105688D01*
X0328465Y0104080D01*
X0328465Y0102340D01*
X0327799Y0100732D01*
X0326891Y0099823D01*
X0326891Y0074728D01*
X0327018Y0074601D01*
X0328303Y0074601D01*
X0329911Y0073934D01*
X0331142Y0072704D01*
X0331808Y0071096D01*
X0331808Y0069811D01*
X0335763Y0065856D01*
X0350569Y0065856D01*
X0351740Y0064684D01*
X0351740Y0061276D01*
X0352291Y0061827D01*
X0352291Y0084550D01*
X0347091Y0089750D01*
X0346665Y0090779D01*
X0346665Y0093910D01*
X0338394Y0085640D01*
X0338394Y0084072D01*
X0337728Y0082464D01*
X0336498Y0081233D01*
X0334890Y0080567D01*
X0333149Y0080567D01*
X0331542Y0081233D01*
X0330311Y0082464D01*
X0329645Y0084072D01*
X0329645Y0085812D01*
X0330311Y0087420D01*
X0331542Y0088651D01*
X0333149Y0089317D01*
X0334718Y0089317D01*
X0343991Y0098590D01*
X0343991Y0104452D01*
X0344386Y0105407D01*
X0345118Y0106139D01*
X0347888Y0108909D01*
X0347888Y0120220D01*
X0346734Y0121374D01*
X0327884Y0121374D01*
X0326929Y0121770D01*
X0326197Y0122501D01*
X0321655Y0127043D01*
X0311171Y0127043D01*
X0302740Y0118612D01*
X0307852Y0118612D01*
X0308364Y0118100D01*
X0308691Y0118289D01*
X0309149Y0118412D01*
X0311465Y0118412D01*
X0311465Y0114138D01*
X0312424Y0114138D01*
X0312424Y0118412D01*
X0314741Y0118412D01*
X0315199Y0118289D01*
X0315609Y0118052D01*
X0315944Y0117717D01*
X0316181Y0117306D01*
X0316304Y0116849D01*
X0316304Y0114138D01*
X0312424Y0114138D01*
X0311465Y0114138D01*
X0311465Y0118412D01*
X0309149Y0118412D01*
X0308691Y0118289D01*
X0308364Y0118100D01*
X0307852Y0118612D01*
X0302740Y0118612D01*
X0311171Y0127043D01*
X0321655Y0127043D01*
X0326197Y0122501D01*
X0326929Y0121770D01*
X0327884Y0121374D01*
X0346734Y0121374D01*
X0347888Y0120220D01*
X0347888Y0108909D01*
X0345118Y0106139D01*
X0344386Y0105407D01*
X0343991Y0104452D01*
X0343991Y0098590D01*
X0334718Y0089317D01*
X0333149Y0089317D01*
X0331542Y0088651D01*
X0330311Y0087420D01*
X0329645Y0085812D01*
X0329645Y0084072D01*
X0330311Y0082464D01*
X0331542Y0081233D01*
X0333149Y0080567D01*
X0334890Y0080567D01*
X0336498Y0081233D01*
X0337728Y0082464D01*
X0338394Y0084072D01*
X0338394Y0085640D01*
X0346665Y0093910D01*
X0346665Y0090779D01*
X0347091Y0089750D01*
X0352291Y0084550D01*
X0352291Y0061827D01*
X0351740Y0061276D01*
X0351740Y0064684D01*
X0350569Y0065856D01*
X0335763Y0065856D01*
X0331808Y0069811D01*
X0331808Y0071096D01*
X0331142Y0072704D01*
X0329911Y0073934D01*
X0328303Y0074601D01*
X0327018Y0074601D01*
X0326891Y0074728D01*
X0326891Y0099823D01*
X0327799Y0100732D01*
X0328465Y0102340D01*
X0328465Y0104080D01*
X0327799Y0105688D01*
X0326569Y0106919D01*
X0324961Y0107585D01*
X0323220Y0107585D01*
X0321612Y0106919D01*
X0320382Y0105688D01*
X0319716Y0104080D01*
X0319716Y0102340D01*
X0320382Y0100732D01*
X0321291Y0099823D01*
X0321291Y0073011D01*
X0321291Y0074953D02*
X0318815Y0074953D01*
X0321291Y0074953D01*
X0321291Y0076552D02*
X0317217Y0076552D01*
X0321291Y0076552D01*
X0321291Y0078150D02*
X0317191Y0078150D01*
X0321291Y0078150D01*
X0321291Y0079749D02*
X0317191Y0079749D01*
X0321291Y0079749D01*
X0321291Y0081347D02*
X0317191Y0081347D01*
X0321291Y0081347D01*
X0321291Y0082946D02*
X0317191Y0082946D01*
X0321291Y0082946D01*
X0321291Y0084544D02*
X0317191Y0084544D01*
X0321291Y0084544D01*
X0321291Y0086143D02*
X0317191Y0086143D01*
X0321291Y0086143D01*
X0321291Y0087741D02*
X0317191Y0087741D01*
X0321291Y0087741D01*
X0321291Y0089340D02*
X0317191Y0089340D01*
X0321291Y0089340D01*
X0321291Y0090939D02*
X0317191Y0090939D01*
X0321291Y0090939D01*
X0321291Y0092537D02*
X0317191Y0092537D01*
X0321291Y0092537D01*
X0321291Y0094136D02*
X0317191Y0094136D01*
X0321291Y0094136D01*
X0321291Y0095734D02*
X0317191Y0095734D01*
X0321291Y0095734D01*
X0321291Y0097333D02*
X0316940Y0097333D01*
X0321291Y0097333D01*
X0321291Y0098931D02*
X0315546Y0098931D01*
X0321291Y0098931D01*
X0320584Y0100530D02*
X0314898Y0100530D01*
X0320584Y0100530D01*
X0319803Y0102128D02*
X0314898Y0102128D01*
X0319803Y0102128D01*
X0319716Y0103727D02*
X0314898Y0103727D01*
X0319716Y0103727D01*
X0320231Y0105325D02*
X0314774Y0105325D01*
X0320231Y0105325D01*
X0321624Y0106924D02*
X0306691Y0106924D01*
X0321624Y0106924D01*
X0326557Y0106924D02*
X0345903Y0106924D01*
X0326557Y0106924D01*
X0327950Y0105325D02*
X0344352Y0105325D01*
X0327950Y0105325D01*
X0328465Y0103727D02*
X0343991Y0103727D01*
X0328465Y0103727D01*
X0328378Y0102128D02*
X0343991Y0102128D01*
X0328378Y0102128D01*
X0327597Y0100530D02*
X0343991Y0100530D01*
X0327597Y0100530D01*
X0326891Y0098931D02*
X0343991Y0098931D01*
X0326891Y0098931D01*
X0326891Y0097333D02*
X0342733Y0097333D01*
X0326891Y0097333D01*
X0326891Y0095734D02*
X0341135Y0095734D01*
X0326891Y0095734D01*
X0326891Y0094136D02*
X0339536Y0094136D01*
X0326891Y0094136D01*
X0326891Y0092537D02*
X0337938Y0092537D01*
X0326891Y0092537D01*
X0326891Y0090939D02*
X0336339Y0090939D01*
X0326891Y0090939D01*
X0326891Y0089340D02*
X0334740Y0089340D01*
X0326891Y0089340D01*
X0326891Y0087741D02*
X0330632Y0087741D01*
X0326891Y0087741D01*
X0326891Y0086143D02*
X0329782Y0086143D01*
X0326891Y0086143D01*
X0326891Y0084544D02*
X0329645Y0084544D01*
X0326891Y0084544D01*
X0326891Y0082946D02*
X0330111Y0082946D01*
X0326891Y0082946D01*
X0326891Y0081347D02*
X0331428Y0081347D01*
X0326891Y0081347D01*
X0326891Y0079749D02*
X0352291Y0079749D01*
X0326891Y0079749D01*
X0326891Y0078150D02*
X0352291Y0078150D01*
X0326891Y0078150D01*
X0326891Y0076552D02*
X0352291Y0076552D01*
X0326891Y0076552D01*
X0326891Y0074953D02*
X0352291Y0074953D01*
X0326891Y0074953D01*
X0324091Y0073568D02*
X0324091Y0103210D01*
X0306691Y0108522D02*
X0347501Y0108522D01*
X0306691Y0108522D01*
X0311465Y0110121D02*
X0312424Y0110121D01*
X0311465Y0110121D01*
X0311465Y0111719D02*
X0312424Y0111719D01*
X0311465Y0111719D01*
X0312424Y0113179D02*
X0312424Y0114138D01*
X0312424Y0118412D01*
X0314741Y0118412D01*
X0315199Y0118289D01*
X0315609Y0118052D01*
X0315944Y0117717D01*
X0316181Y0117306D01*
X0316304Y0116849D01*
X0316304Y0114138D01*
X0312424Y0114138D01*
X0312424Y0113179D01*
X0312424Y0113318D02*
X0347888Y0113318D01*
X0312424Y0113318D01*
X0312424Y0114916D02*
X0311465Y0114916D01*
X0312424Y0114916D01*
X0312424Y0116515D02*
X0311465Y0116515D01*
X0312424Y0116515D01*
X0312424Y0118113D02*
X0311465Y0118113D01*
X0312424Y0118113D01*
X0315503Y0118113D02*
X0347888Y0118113D01*
X0315503Y0118113D01*
X0316304Y0116515D02*
X0347888Y0116515D01*
X0316304Y0116515D01*
X0316304Y0114916D02*
X0347888Y0114916D01*
X0316304Y0114916D01*
X0316304Y0111719D02*
X0347888Y0111719D01*
X0316304Y0111719D01*
X0316211Y0110121D02*
X0347888Y0110121D01*
X0316211Y0110121D01*
X0301491Y0108706D02*
X0301491Y0106373D01*
X0294573Y0106373D01*
X0293402Y0105202D01*
X0293402Y0099351D01*
X0292368Y0098318D01*
X0292315Y0098296D01*
X0291583Y0097565D01*
X0291187Y0096609D01*
X0291187Y0094513D01*
X0291112Y0094588D01*
X0289504Y0095254D01*
X0287764Y0095254D01*
X0286156Y0094588D01*
X0284925Y0093357D01*
X0284259Y0091749D01*
X0284259Y0090009D01*
X0284831Y0088628D01*
X0282031Y0085827D01*
X0282031Y0090524D01*
X0281831Y0090724D01*
X0281831Y0091745D01*
X0277681Y0091745D01*
X0277681Y0091745D01*
X0277681Y0091745D01*
X0277681Y0091745D01*
X0281831Y0091745D01*
X0281831Y0090724D01*
X0282031Y0090524D01*
X0282031Y0085827D01*
X0284831Y0088628D01*
X0284259Y0090009D01*
X0284259Y0091749D01*
X0284925Y0093357D01*
X0286156Y0094588D01*
X0287764Y0095254D01*
X0289504Y0095254D01*
X0291112Y0094588D01*
X0291187Y0094513D01*
X0291187Y0096609D01*
X0291583Y0097565D01*
X0292315Y0098296D01*
X0292368Y0098318D01*
X0293402Y0099351D01*
X0293402Y0105202D01*
X0294573Y0106373D01*
X0301491Y0106373D01*
X0301491Y0108706D01*
X0301077Y0108706D01*
X0299906Y0109878D01*
X0299906Y0115777D01*
X0293285Y0109157D01*
X0293285Y0107287D01*
X0292889Y0106332D01*
X0292158Y0105600D01*
X0289063Y0102506D01*
X0288108Y0102110D01*
X0282031Y0102110D01*
X0282031Y0092967D01*
X0281831Y0092767D01*
X0281831Y0091745D01*
X0277681Y0091745D01*
X0273531Y0091745D01*
X0277681Y0091745D01*
X0281831Y0091745D01*
X0281831Y0092767D01*
X0282031Y0092967D01*
X0282031Y0102110D01*
X0288108Y0102110D01*
X0289063Y0102506D01*
X0292158Y0105600D01*
X0292889Y0106332D01*
X0293285Y0107287D01*
X0293285Y0109157D01*
X0299906Y0115777D01*
X0299906Y0109878D01*
X0301077Y0108706D01*
X0301491Y0108706D01*
X0301491Y0108522D02*
X0293285Y0108522D01*
X0301491Y0108522D01*
X0301491Y0106924D02*
X0293134Y0106924D01*
X0301491Y0106924D01*
X0293525Y0105325D02*
X0291883Y0105325D01*
X0293525Y0105325D01*
X0293402Y0103727D02*
X0290284Y0103727D01*
X0293402Y0103727D01*
X0293402Y0102128D02*
X0288151Y0102128D01*
X0293402Y0102128D01*
X0293402Y0100530D02*
X0282031Y0100530D01*
X0293402Y0100530D01*
X0292981Y0098931D02*
X0282031Y0098931D01*
X0292981Y0098931D01*
X0291487Y0097333D02*
X0282031Y0097333D01*
X0291487Y0097333D01*
X0291187Y0095734D02*
X0282031Y0095734D01*
X0291187Y0095734D01*
X0285703Y0094136D02*
X0282031Y0094136D01*
X0285703Y0094136D01*
X0284585Y0092537D02*
X0281831Y0092537D01*
X0284585Y0092537D01*
X0284259Y0090939D02*
X0281831Y0090939D01*
X0284259Y0090939D01*
X0284536Y0089340D02*
X0282031Y0089340D01*
X0284536Y0089340D01*
X0283945Y0087741D02*
X0282031Y0087741D01*
X0283945Y0087741D01*
X0282347Y0086143D02*
X0282031Y0086143D01*
X0282347Y0086143D01*
X0277591Y0094710D02*
X0277681Y0094895D01*
X0270114Y0094895D01*
X0268941Y0096068D01*
X0272265Y0098931D02*
X0273331Y0098931D01*
X0272265Y0098931D01*
X0273074Y0106765D02*
X0273142Y0107395D01*
X0273694Y0108522D02*
X0287726Y0108522D01*
X0273694Y0108522D01*
X0294249Y0110121D02*
X0299906Y0110121D01*
X0294249Y0110121D01*
X0295848Y0111719D02*
X0299906Y0111719D01*
X0295848Y0111719D01*
X0297446Y0113318D02*
X0299906Y0113318D01*
X0297446Y0113318D01*
X0299045Y0114916D02*
X0299906Y0114916D01*
X0299045Y0114916D01*
X0308350Y0118113D02*
X0308387Y0118113D01*
X0308350Y0118113D01*
X0303840Y0119712D02*
X0347888Y0119712D01*
X0303840Y0119712D01*
X0305439Y0121310D02*
X0346798Y0121310D01*
X0305439Y0121310D01*
X0307037Y0122909D02*
X0325790Y0122909D01*
X0307037Y0122909D01*
X0308636Y0124507D02*
X0324191Y0124507D01*
X0308636Y0124507D01*
X0310234Y0126106D02*
X0322593Y0126106D01*
X0310234Y0126106D01*
X0323835Y0132202D02*
X0329346Y0126690D01*
X0350016Y0126690D01*
X0353047Y0123659D01*
X0353047Y0106572D01*
X0349465Y0102989D01*
X0349465Y0091336D01*
X0355091Y0085710D01*
X0355091Y0058210D01*
X0355579Y0057619D01*
X0355591Y0057210D01*
X0356630Y0055934D01*
X0375173Y0055934D01*
X0385449Y0066210D01*
X0391091Y0066210D01*
X0391622Y0066627D01*
X0392091Y0066710D01*
X0399591Y0074210D01*
X0420091Y0074210D01*
X0420291Y0074328D01*
X0414043Y0078150D02*
X0404252Y0078150D01*
X0414043Y0078150D01*
X0415281Y0079749D02*
X0404163Y0079749D01*
X0415281Y0079749D01*
X0413201Y0081347D02*
X0368527Y0081347D01*
X0413201Y0081347D01*
X0412452Y0082946D02*
X0405807Y0082946D01*
X0412452Y0082946D01*
X0412291Y0084544D02*
X0405807Y0084544D01*
X0412291Y0084544D01*
X0412631Y0086143D02*
X0405807Y0086143D01*
X0412631Y0086143D01*
X0413634Y0087741D02*
X0405807Y0087741D01*
X0413634Y0087741D01*
X0416268Y0089340D02*
X0405807Y0089340D01*
X0416268Y0089340D01*
X0413610Y0090939D02*
X0405686Y0090939D01*
X0413610Y0090939D01*
X0412621Y0092537D02*
X0394723Y0092537D01*
X0412621Y0092537D01*
X0412291Y0094136D02*
X0393125Y0094136D01*
X0412291Y0094136D01*
X0412462Y0095734D02*
X0391526Y0095734D01*
X0412462Y0095734D01*
X0413225Y0097333D02*
X0389928Y0097333D01*
X0413225Y0097333D01*
X0397991Y0090939D02*
X0396322Y0090939D01*
X0397991Y0090939D01*
X0390001Y0089340D02*
X0387654Y0089340D01*
X0390001Y0089340D01*
X0391599Y0087741D02*
X0387654Y0087741D01*
X0391599Y0087741D01*
X0393198Y0086143D02*
X0387654Y0086143D01*
X0393198Y0086143D01*
X0395209Y0084544D02*
X0387654Y0084544D01*
X0395209Y0084544D01*
X0396091Y0087210D02*
X0377642Y0105659D01*
X0377642Y0112356D01*
X0373787Y0116210D01*
X0370091Y0116210D01*
X0362091Y0108210D01*
X0362047Y0108135D01*
X0372047Y0108135D02*
X0372091Y0107710D01*
X0372091Y0092210D01*
X0371630Y0092202D01*
X0377880Y0092537D02*
X0386804Y0092537D01*
X0377880Y0092537D01*
X0377880Y0090939D02*
X0380387Y0090939D01*
X0377880Y0090939D01*
X0377607Y0089340D02*
X0380117Y0089340D01*
X0377607Y0089340D01*
X0376008Y0087741D02*
X0380117Y0087741D01*
X0376008Y0087741D01*
X0374410Y0086143D02*
X0380117Y0086143D01*
X0374410Y0086143D01*
X0368850Y0086143D02*
X0367540Y0086143D01*
X0368850Y0086143D01*
X0368165Y0084544D02*
X0380117Y0084544D01*
X0368165Y0084544D01*
X0368572Y0082946D02*
X0380269Y0082946D01*
X0368572Y0082946D01*
X0364740Y0084171D02*
X0363272Y0082702D01*
X0363272Y0082509D01*
X0364740Y0084171D02*
X0364740Y0088060D01*
X0355591Y0097210D01*
X0355579Y0097619D01*
X0356079Y0098119D01*
X0356079Y0112911D01*
X0362075Y0118907D01*
X0374906Y0118907D01*
X0378102Y0115710D01*
X0392591Y0115710D01*
X0392862Y0115580D01*
X0411607Y0126106D02*
X0429271Y0126106D01*
X0411607Y0126106D01*
X0410009Y0127704D02*
X0429271Y0127704D01*
X0410009Y0127704D01*
X0408410Y0129303D02*
X0429271Y0129303D01*
X0408410Y0129303D01*
X0406812Y0130901D02*
X0429271Y0130901D01*
X0406812Y0130901D01*
X0405198Y0132500D02*
X0429271Y0132500D01*
X0429271Y0134098D02*
X0331595Y0134098D01*
X0329997Y0135697D02*
X0429271Y0135697D01*
X0429271Y0137295D02*
X0328398Y0137295D01*
X0326800Y0138894D02*
X0429271Y0138894D01*
X0429271Y0140492D02*
X0417297Y0140492D01*
X0419611Y0142091D02*
X0429271Y0142091D01*
X0429271Y0143689D02*
X0421114Y0143689D01*
X0422037Y0145288D02*
X0429271Y0145288D01*
X0429271Y0146886D02*
X0422656Y0146886D01*
X0423085Y0148485D02*
X0429271Y0148485D01*
X0429271Y0150083D02*
X0423123Y0150083D01*
X0423060Y0151682D02*
X0429271Y0151682D01*
X0403720Y0143689D02*
X0323745Y0143689D01*
X0323745Y0142091D02*
X0405223Y0142091D01*
X0407538Y0140492D02*
X0325201Y0140492D01*
X0322917Y0145288D02*
X0402797Y0145288D01*
X0402178Y0146886D02*
X0321319Y0146886D01*
X0308205Y0136060D02*
X0302969Y0141297D01*
X0280685Y0141297D01*
X0279189Y0142793D01*
X0255449Y0142793D01*
X0254819Y0142163D01*
X0251512Y0142163D01*
X0249740Y0140391D01*
X0249740Y0136848D01*
X0243402Y0130509D01*
X0227177Y0130509D01*
X0222019Y0134098D02*
X0123910Y0134098D01*
X0123910Y0135697D02*
X0223618Y0135697D01*
X0225216Y0137295D02*
X0123910Y0137295D01*
X0123910Y0138894D02*
X0226815Y0138894D01*
X0228043Y0140492D02*
X0145643Y0140492D01*
X0147958Y0142091D02*
X0228369Y0142091D01*
X0229827Y0143689D02*
X0149461Y0143689D01*
X0150384Y0145288D02*
X0231425Y0145288D01*
X0233024Y0146886D02*
X0151003Y0146886D01*
X0151431Y0148485D02*
X0155212Y0148485D01*
X0154081Y0150083D02*
X0151469Y0150083D01*
X0151406Y0151682D02*
X0153680Y0151682D01*
X0131144Y0145288D02*
X0123910Y0145288D01*
X0123910Y0146886D02*
X0130525Y0146886D01*
X0130096Y0148485D02*
X0123910Y0148485D01*
X0123910Y0150083D02*
X0130058Y0150083D01*
X0130121Y0151682D02*
X0123910Y0151682D01*
X0123910Y0143689D02*
X0132067Y0143689D01*
X0133570Y0142091D02*
X0123910Y0142091D01*
X0123910Y0140492D02*
X0135884Y0140492D01*
X0167091Y0105635D02*
X0191665Y0130210D01*
X0247562Y0115780D02*
X0251656Y0119874D01*
X0260108Y0119874D01*
X0261063Y0120270D01*
X0265063Y0124270D01*
X0265208Y0124415D01*
X0265687Y0124415D01*
X0265843Y0124571D01*
X0265998Y0124415D01*
X0269624Y0124415D01*
X0269780Y0124571D01*
X0269935Y0124415D01*
X0273561Y0124415D01*
X0273717Y0124571D01*
X0273872Y0124415D01*
X0277498Y0124415D01*
X0277654Y0124571D01*
X0277809Y0124415D01*
X0281435Y0124415D01*
X0281802Y0124782D01*
X0281880Y0124737D01*
X0282338Y0124615D01*
X0283559Y0124615D01*
X0283559Y0130352D01*
X0283559Y0136089D01*
X0282338Y0136089D01*
X0281880Y0135966D01*
X0281802Y0135921D01*
X0281435Y0136289D01*
X0279637Y0136289D01*
X0281845Y0138497D01*
X0301809Y0138497D01*
X0304017Y0136289D01*
X0301431Y0136289D01*
X0301276Y0136133D01*
X0301120Y0136289D01*
X0297494Y0136289D01*
X0297339Y0136133D01*
X0297183Y0136289D01*
X0293557Y0136289D01*
X0293402Y0136133D01*
X0293246Y0136289D01*
X0289620Y0136289D01*
X0289253Y0135921D01*
X0289175Y0135966D01*
X0288717Y0136089D01*
X0287496Y0136089D01*
X0286275Y0136089D01*
X0285817Y0135966D01*
X0285528Y0135799D01*
X0285238Y0135966D01*
X0284780Y0136089D01*
X0283559Y0136089D01*
X0282338Y0136089D01*
X0281880Y0135966D01*
X0281802Y0135921D01*
X0281435Y0136289D01*
X0279637Y0136289D01*
X0281845Y0138497D01*
X0301809Y0138497D01*
X0304017Y0136289D01*
X0301431Y0136289D01*
X0301276Y0136133D01*
X0301120Y0136289D01*
X0297494Y0136289D01*
X0297339Y0136133D01*
X0297183Y0136289D01*
X0293557Y0136289D01*
X0293402Y0136133D01*
X0293246Y0136289D01*
X0289620Y0136289D01*
X0289253Y0135921D01*
X0289175Y0135966D01*
X0288717Y0136089D01*
X0287496Y0136089D01*
X0287496Y0130352D01*
X0287496Y0130352D01*
X0287496Y0136089D01*
X0286275Y0136089D01*
X0285817Y0135966D01*
X0285528Y0135799D01*
X0285238Y0135966D01*
X0284780Y0136089D01*
X0283559Y0136089D01*
X0283559Y0130352D01*
X0283559Y0130352D01*
X0283559Y0130352D01*
X0283559Y0136089D01*
X0283559Y0130352D01*
X0287496Y0130352D01*
X0287496Y0130352D01*
X0287496Y0136089D01*
X0287496Y0130352D01*
X0287496Y0130352D01*
X0287496Y0130352D01*
X0283559Y0130352D01*
X0283559Y0130352D01*
X0283559Y0130352D01*
X0286343Y0130352D01*
X0287496Y0130352D01*
X0286343Y0130352D01*
X0283559Y0130352D01*
X0283559Y0124615D01*
X0283559Y0130352D01*
X0283559Y0130352D01*
X0283559Y0124615D01*
X0282338Y0124615D01*
X0281880Y0124737D01*
X0281802Y0124782D01*
X0281435Y0124415D01*
X0277809Y0124415D01*
X0277654Y0124571D01*
X0277498Y0124415D01*
X0273872Y0124415D01*
X0273717Y0124571D01*
X0273561Y0124415D01*
X0269935Y0124415D01*
X0269780Y0124571D01*
X0269624Y0124415D01*
X0265998Y0124415D01*
X0265843Y0124571D01*
X0265687Y0124415D01*
X0265208Y0124415D01*
X0265063Y0124270D01*
X0261063Y0120270D01*
X0260108Y0119874D01*
X0251656Y0119874D01*
X0247562Y0115780D01*
X0256068Y0115780D01*
X0258933Y0115780D01*
X0259645Y0116493D01*
X0259645Y0116493D01*
X0258933Y0115780D01*
X0256068Y0115780D01*
X0247562Y0115780D01*
X0248297Y0116515D02*
X0259667Y0116515D01*
X0248297Y0116515D01*
X0249895Y0118113D02*
X0261266Y0118113D01*
X0249895Y0118113D01*
X0251494Y0119712D02*
X0262864Y0119712D01*
X0251494Y0119712D01*
X0259645Y0116493D02*
X0259645Y0116493D01*
X0265607Y0122454D01*
X0265607Y0122454D01*
X0259645Y0116493D01*
X0262104Y0121310D02*
X0264463Y0121310D01*
X0262104Y0121310D01*
X0263702Y0122909D02*
X0266061Y0122909D01*
X0263702Y0122909D01*
X0265607Y0122454D02*
X0266338Y0123186D01*
X0267294Y0123582D01*
X0284285Y0123582D01*
X0285579Y0124875D01*
X0285528Y0124904D01*
X0285238Y0124737D01*
X0284780Y0124615D01*
X0283559Y0124615D01*
X0284780Y0124615D01*
X0285238Y0124737D01*
X0285528Y0124904D01*
X0285579Y0124875D01*
X0284285Y0123582D01*
X0267294Y0123582D01*
X0266338Y0123186D01*
X0265607Y0122454D01*
X0265607Y0122454D01*
X0265779Y0124507D02*
X0265906Y0124507D01*
X0265779Y0124507D01*
X0269716Y0124507D02*
X0269843Y0124507D01*
X0269716Y0124507D01*
X0273653Y0124507D02*
X0273780Y0124507D01*
X0273653Y0124507D01*
X0277590Y0124507D02*
X0277717Y0124507D01*
X0277590Y0124507D01*
X0281527Y0124507D02*
X0285211Y0124507D01*
X0281527Y0124507D01*
X0283559Y0126106D02*
X0283559Y0126106D01*
X0283559Y0126106D01*
X0283559Y0127704D02*
X0283559Y0127704D01*
X0283559Y0127704D01*
X0283559Y0129303D02*
X0283559Y0129303D01*
X0283559Y0129303D01*
X0283559Y0130352D02*
X0283559Y0130352D01*
X0283559Y0130901D02*
X0283559Y0130901D01*
X0283559Y0130901D01*
X0283559Y0132500D02*
X0283559Y0132500D01*
X0283559Y0132500D01*
X0283559Y0134098D02*
X0283559Y0134098D01*
X0283559Y0134098D01*
X0283559Y0135697D02*
X0283559Y0135697D01*
X0283559Y0135697D01*
X0280644Y0137295D02*
X0303010Y0137295D01*
X0280644Y0137295D01*
X0280685Y0141297D02*
X0275646Y0136257D01*
X0275646Y0130391D01*
X0275685Y0130352D01*
X0276091Y0130210D01*
X0279591Y0130210D01*
X0279622Y0130352D01*
X0271748Y0130352D02*
X0271591Y0130210D01*
X0268091Y0130210D01*
X0267811Y0130352D01*
X0267811Y0135982D01*
X0269551Y0137722D01*
X0287496Y0135697D02*
X0287496Y0135697D01*
X0287496Y0135697D01*
X0287496Y0134098D02*
X0287496Y0134098D01*
X0287496Y0134098D01*
X0287496Y0132500D02*
X0287496Y0132500D01*
X0287496Y0132500D01*
X0287496Y0130901D02*
X0287496Y0130901D01*
X0287496Y0130901D01*
X0308205Y0134446D02*
X0308205Y0136060D01*
X0308205Y0134446D02*
X0310449Y0132202D01*
X0323835Y0132202D01*
X0397969Y0148485D02*
X0401750Y0148485D01*
X0401712Y0150083D02*
X0399100Y0150083D01*
X0399501Y0151682D02*
X0401775Y0151682D01*
X0377213Y0102128D02*
X0375628Y0102128D01*
X0377213Y0102128D01*
X0378811Y0100530D02*
X0374891Y0100530D01*
X0378811Y0100530D01*
X0380410Y0098931D02*
X0374891Y0098931D01*
X0380410Y0098931D01*
X0382008Y0097333D02*
X0375338Y0097333D01*
X0382008Y0097333D01*
X0383607Y0095734D02*
X0376937Y0095734D01*
X0383607Y0095734D01*
X0385205Y0094136D02*
X0377880Y0094136D01*
X0385205Y0094136D01*
X0386091Y0091789D02*
X0384070Y0091789D01*
X0384070Y0087024D01*
X0387654Y0087024D01*
X0387654Y0090226D01*
X0387532Y0090684D01*
X0387295Y0091095D01*
X0386960Y0091430D01*
X0386549Y0091667D01*
X0386091Y0091789D01*
X0384070Y0091789D01*
X0384070Y0087024D01*
X0384070Y0086656D01*
X0387654Y0086656D01*
X0387654Y0083453D01*
X0387532Y0082995D01*
X0387295Y0082585D01*
X0386960Y0082250D01*
X0386549Y0082013D01*
X0386091Y0081890D01*
X0384070Y0081890D01*
X0384070Y0086656D01*
X0384070Y0087024D01*
X0387654Y0087024D01*
X0387654Y0090226D01*
X0387532Y0090684D01*
X0387295Y0091095D01*
X0386960Y0091430D01*
X0386549Y0091667D01*
X0386091Y0091789D01*
X0387385Y0090939D02*
X0388402Y0090939D01*
X0387385Y0090939D01*
X0384070Y0090939D02*
X0383702Y0090939D01*
X0384070Y0090939D01*
X0383702Y0091789D02*
X0381680Y0091789D01*
X0381223Y0091667D01*
X0380812Y0091430D01*
X0380477Y0091095D01*
X0380240Y0090684D01*
X0380117Y0090226D01*
X0380117Y0087024D01*
X0383701Y0087024D01*
X0383701Y0086656D01*
X0380117Y0086656D01*
X0380117Y0083453D01*
X0380240Y0082995D01*
X0380477Y0082585D01*
X0380812Y0082250D01*
X0381223Y0082013D01*
X0381680Y0081890D01*
X0383702Y0081890D01*
X0383702Y0086656D01*
X0384070Y0086656D01*
X0387654Y0086656D01*
X0387654Y0083453D01*
X0387532Y0082995D01*
X0387295Y0082585D01*
X0386960Y0082250D01*
X0386549Y0082013D01*
X0386091Y0081890D01*
X0384070Y0081890D01*
X0384070Y0086656D01*
X0383702Y0086656D01*
X0383702Y0081890D01*
X0381680Y0081890D01*
X0381223Y0082013D01*
X0380812Y0082250D01*
X0380477Y0082585D01*
X0380240Y0082995D01*
X0380117Y0083453D01*
X0380117Y0086656D01*
X0383701Y0086656D01*
X0383701Y0087024D01*
X0380117Y0087024D01*
X0380117Y0090226D01*
X0380240Y0090684D01*
X0380477Y0091095D01*
X0380812Y0091430D01*
X0381223Y0091667D01*
X0381680Y0091789D01*
X0383702Y0091789D01*
X0383702Y0087024D01*
X0384070Y0087024D01*
X0383702Y0087024D01*
X0383702Y0091789D01*
X0383702Y0089340D02*
X0384070Y0089340D01*
X0383702Y0089340D01*
X0383702Y0087741D02*
X0384070Y0087741D01*
X0383702Y0087741D01*
X0383702Y0086143D02*
X0384070Y0086143D01*
X0383702Y0086143D01*
X0383702Y0084544D02*
X0384070Y0084544D01*
X0383702Y0084544D01*
X0383702Y0082946D02*
X0384070Y0082946D01*
X0383702Y0082946D01*
X0387503Y0082946D02*
X0397870Y0082946D01*
X0387503Y0082946D01*
X0379081Y0079749D02*
X0367865Y0079749D01*
X0379081Y0079749D01*
X0378992Y0078150D02*
X0366408Y0078150D01*
X0378992Y0078150D01*
X0378992Y0076552D02*
X0357891Y0076552D01*
X0378992Y0076552D01*
X0378992Y0074953D02*
X0357891Y0074953D01*
X0378992Y0074953D01*
X0378992Y0073355D02*
X0357891Y0073355D01*
X0378992Y0073355D01*
X0378992Y0071756D02*
X0357891Y0071756D01*
X0378992Y0071756D01*
X0378992Y0070158D02*
X0357891Y0070158D01*
X0378992Y0070158D01*
X0378992Y0068559D02*
X0357891Y0068559D01*
X0378992Y0068559D01*
X0378992Y0066961D02*
X0375427Y0066961D01*
X0378992Y0066961D01*
X0378992Y0065362D02*
X0377026Y0065362D01*
X0378992Y0065362D01*
X0378992Y0063764D02*
X0377680Y0063764D01*
X0378992Y0063764D01*
X0377444Y0062165D02*
X0371830Y0062165D01*
X0377444Y0062165D01*
X0371830Y0062402D02*
X0371430Y0062402D01*
X0365580Y0062402D01*
X0365580Y0064708D01*
X0369124Y0068252D01*
X0371430Y0068252D01*
X0371430Y0062402D01*
X0371830Y0062402D01*
X0371430Y0062165D02*
X0358454Y0062165D01*
X0371430Y0062165D01*
X0371430Y0063764D02*
X0371830Y0063764D01*
X0371430Y0063764D01*
X0371430Y0065362D02*
X0371830Y0065362D01*
X0371430Y0065362D01*
X0371430Y0066961D02*
X0371830Y0066961D01*
X0371430Y0066961D01*
X0367833Y0066961D02*
X0357891Y0066961D01*
X0367833Y0066961D01*
X0366234Y0065362D02*
X0357891Y0065362D01*
X0366234Y0065362D01*
X0365580Y0063764D02*
X0357891Y0063764D01*
X0365580Y0063764D01*
X0365580Y0060567D02*
X0360095Y0060567D01*
X0365580Y0060567D01*
X0366308Y0058968D02*
X0360757Y0058968D01*
X0366308Y0058968D01*
X0352291Y0062165D02*
X0351740Y0062165D01*
X0352291Y0062165D01*
X0352291Y0063764D02*
X0351740Y0063764D01*
X0352291Y0063764D01*
X0352291Y0065362D02*
X0351062Y0065362D01*
X0352291Y0065362D01*
X0352291Y0066961D02*
X0334658Y0066961D01*
X0352291Y0066961D01*
X0352291Y0068559D02*
X0333059Y0068559D01*
X0352291Y0068559D01*
X0352291Y0070158D02*
X0331808Y0070158D01*
X0352291Y0070158D01*
X0352291Y0071756D02*
X0331534Y0071756D01*
X0352291Y0071756D01*
X0352291Y0073355D02*
X0330491Y0073355D01*
X0352291Y0073355D01*
X0357891Y0078150D02*
X0360135Y0078150D01*
X0357891Y0078150D01*
X0357891Y0079749D02*
X0358678Y0079749D01*
X0357891Y0079749D01*
X0357891Y0081347D02*
X0358016Y0081347D01*
X0357891Y0081347D01*
X0357891Y0082946D02*
X0357972Y0082946D01*
X0357891Y0082946D01*
X0357891Y0084544D02*
X0358378Y0084544D01*
X0357891Y0084544D01*
X0357891Y0086143D02*
X0359410Y0086143D01*
X0357891Y0086143D01*
X0357019Y0087741D02*
X0361099Y0087741D01*
X0357019Y0087741D01*
X0355420Y0089340D02*
X0359501Y0089340D01*
X0355420Y0089340D01*
X0353822Y0090939D02*
X0357902Y0090939D01*
X0353822Y0090939D01*
X0353999Y0092537D02*
X0352265Y0092537D01*
X0353999Y0092537D01*
X0346665Y0092537D02*
X0345291Y0092537D01*
X0346665Y0092537D01*
X0346665Y0090939D02*
X0343693Y0090939D01*
X0346665Y0090939D01*
X0347501Y0089340D02*
X0342094Y0089340D01*
X0347501Y0089340D01*
X0349099Y0087741D02*
X0340496Y0087741D01*
X0349099Y0087741D01*
X0350698Y0086143D02*
X0338897Y0086143D01*
X0350698Y0086143D01*
X0352291Y0084544D02*
X0338394Y0084544D01*
X0352291Y0084544D01*
X0352291Y0082946D02*
X0337928Y0082946D01*
X0352291Y0082946D01*
X0352291Y0081347D02*
X0336612Y0081347D01*
X0352291Y0081347D01*
X0327433Y0070226D02*
X0324091Y0073568D01*
X0327433Y0070226D02*
X0338724Y0058934D01*
X0342850Y0058934D01*
X0342591Y0059210D01*
X0333961Y0055771D02*
X0332487Y0055771D01*
X0333961Y0055771D01*
X0333961Y0054173D02*
X0325950Y0054173D01*
X0333961Y0054173D01*
X0329915Y0055771D02*
X0325950Y0055771D01*
X0329915Y0055771D01*
X0327618Y0057370D02*
X0325950Y0057370D01*
X0327618Y0057370D01*
X0326882Y0058968D02*
X0318060Y0058968D01*
X0326882Y0058968D01*
X0326826Y0060567D02*
X0325950Y0060567D01*
X0326826Y0060567D01*
X0326454Y0062165D02*
X0325950Y0062165D01*
X0326454Y0062165D01*
X0318060Y0062165D02*
X0316460Y0062165D01*
X0318060Y0062165D01*
X0318060Y0060567D02*
X0316460Y0060567D01*
X0318060Y0060567D01*
X0316460Y0059734D02*
X0316460Y0065656D01*
X0310133Y0065656D01*
X0309675Y0065533D01*
X0309265Y0065296D01*
X0308930Y0064961D01*
X0308693Y0064550D01*
X0308570Y0064093D01*
X0308570Y0059734D01*
X0316460Y0059734D01*
X0316460Y0063764D02*
X0318060Y0063764D01*
X0316460Y0063764D01*
X0316460Y0065362D02*
X0318060Y0065362D01*
X0316460Y0065362D01*
X0291059Y0073355D02*
X0289412Y0073355D01*
X0291059Y0073355D01*
X0291011Y0074953D02*
X0292657Y0074953D01*
X0291011Y0074953D01*
X0292609Y0076552D02*
X0293402Y0076552D01*
X0292609Y0076552D01*
X0289460Y0071756D02*
X0287814Y0071756D01*
X0289460Y0071756D01*
X0222539Y0090939D02*
X0220614Y0090939D01*
X0222539Y0090939D01*
X0220941Y0092537D02*
X0220614Y0092537D01*
X0220941Y0092537D01*
X0167616Y0110121D02*
X0155566Y0110121D01*
X0167616Y0110121D01*
X0169215Y0111719D02*
X0154261Y0111719D01*
X0169215Y0111719D01*
X0163791Y0108522D02*
X0156026Y0108522D01*
X0163791Y0108522D01*
X0162889Y0106924D02*
X0155889Y0106924D01*
X0162889Y0106924D01*
X0162716Y0105325D02*
X0155100Y0105325D01*
X0162716Y0105325D01*
X0163146Y0103727D02*
X0152800Y0103727D01*
X0163146Y0103727D01*
X0164411Y0102128D02*
X0154184Y0102128D01*
X0164411Y0102128D01*
X0155375Y0105704D02*
X0154952Y0105121D01*
X0154443Y0104613D01*
X0153861Y0104190D01*
X0153219Y0103863D01*
X0152535Y0103641D01*
X0151824Y0103528D01*
X0148779Y0103528D01*
X0148779Y0108014D01*
X0148779Y0108186D01*
X0148607Y0108186D01*
X0148607Y0112671D01*
X0145561Y0112671D01*
X0144851Y0112559D01*
X0144166Y0112336D01*
X0143525Y0112010D01*
X0142943Y0111587D01*
X0142434Y0111078D01*
X0142011Y0110496D01*
X0141685Y0109855D01*
X0141462Y0109170D01*
X0141350Y0108460D01*
X0141350Y0108186D01*
X0148607Y0108186D01*
X0148607Y0112671D01*
X0145561Y0112671D01*
X0144851Y0112559D01*
X0144166Y0112336D01*
X0143525Y0112010D01*
X0142943Y0111587D01*
X0142434Y0111078D01*
X0142011Y0110496D01*
X0141685Y0109855D01*
X0141462Y0109170D01*
X0141350Y0108460D01*
X0141350Y0108186D01*
X0148607Y0108186D01*
X0148779Y0108186D01*
X0148779Y0112671D01*
X0151824Y0112671D01*
X0152535Y0112559D01*
X0153219Y0112336D01*
X0153861Y0112010D01*
X0154443Y0111587D01*
X0154952Y0111078D01*
X0155375Y0110496D01*
X0155701Y0109855D01*
X0155924Y0109170D01*
X0156036Y0108460D01*
X0156036Y0108186D01*
X0148779Y0108186D01*
X0148779Y0112671D01*
X0151824Y0112671D01*
X0152535Y0112559D01*
X0153219Y0112336D01*
X0153861Y0112010D01*
X0154443Y0111587D01*
X0154952Y0111078D01*
X0155375Y0110496D01*
X0155701Y0109855D01*
X0155924Y0109170D01*
X0156036Y0108460D01*
X0156036Y0108186D01*
X0148779Y0108186D01*
X0148779Y0108014D01*
X0156036Y0108014D01*
X0156036Y0107740D01*
X0155924Y0107029D01*
X0155701Y0106345D01*
X0155375Y0105704D01*
X0155701Y0106345D01*
X0155924Y0107029D01*
X0156036Y0107740D01*
X0156036Y0108014D01*
X0148779Y0108014D01*
X0148607Y0108014D01*
X0141350Y0108014D01*
X0141350Y0107740D01*
X0141462Y0107029D01*
X0141685Y0106345D01*
X0142011Y0105704D01*
X0142434Y0105121D01*
X0142943Y0104613D01*
X0143525Y0104190D01*
X0144166Y0103863D01*
X0144851Y0103641D01*
X0145561Y0103528D01*
X0148607Y0103528D01*
X0148607Y0108014D01*
X0148607Y0108186D01*
X0148607Y0108014D01*
X0141350Y0108014D01*
X0141350Y0107740D01*
X0141462Y0107029D01*
X0141685Y0106345D01*
X0142011Y0105704D01*
X0142434Y0105121D01*
X0142943Y0104613D01*
X0143525Y0104190D01*
X0144166Y0103863D01*
X0144851Y0103641D01*
X0145561Y0103528D01*
X0148607Y0103528D01*
X0148607Y0108014D01*
X0148779Y0108014D01*
X0148779Y0103528D01*
X0151824Y0103528D01*
X0152535Y0103641D01*
X0153219Y0103863D01*
X0153861Y0104190D01*
X0154443Y0104613D01*
X0154952Y0105121D01*
X0155375Y0105704D01*
X0148779Y0105325D02*
X0148607Y0105325D01*
X0148779Y0105325D01*
X0148779Y0103727D02*
X0148607Y0103727D01*
X0148779Y0103727D01*
X0148779Y0106924D02*
X0148607Y0106924D01*
X0148779Y0106924D01*
X0148779Y0108522D02*
X0148607Y0108522D01*
X0148779Y0108522D01*
X0148779Y0110121D02*
X0148607Y0110121D01*
X0148779Y0110121D01*
X0148779Y0111719D02*
X0148607Y0111719D01*
X0148779Y0111719D01*
X0148693Y0078100D02*
X0148433Y0078100D01*
X0148693Y0078100D02*
X0148591Y0077710D01*
X0293573Y0036589D02*
X0295324Y0036589D01*
X0293573Y0036589D01*
X0295079Y0036170D02*
X0295316Y0036581D01*
X0295651Y0036916D01*
X0296061Y0037153D01*
X0296519Y0037276D01*
X0299131Y0037276D01*
X0299131Y0032701D01*
X0294956Y0032701D01*
X0294956Y0035713D01*
X0295079Y0036170D01*
X0294956Y0034991D02*
X0293858Y0034991D01*
X0294956Y0034991D01*
X0294956Y0033392D02*
X0293858Y0033392D01*
X0294956Y0033392D01*
X0293858Y0031794D02*
X0299131Y0031794D01*
X0293858Y0031794D01*
X0293858Y0030195D02*
X0294956Y0030195D01*
X0293858Y0030195D01*
X0299131Y0033392D02*
X0300680Y0033392D01*
X0299131Y0033392D01*
X0299131Y0034991D02*
X0300680Y0034991D01*
X0299131Y0034991D01*
X0299131Y0036589D02*
X0300680Y0036589D01*
X0299131Y0036589D01*
X0300680Y0046180D02*
X0306356Y0046180D01*
X0300680Y0046180D01*
X0304855Y0047779D02*
X0307955Y0047779D01*
X0304855Y0047779D01*
X0304855Y0049377D02*
X0309553Y0049377D01*
X0304855Y0049377D01*
X0303589Y0050976D02*
X0311152Y0050976D01*
X0303589Y0050976D01*
X0313710Y0046180D02*
X0355601Y0046180D01*
X0313710Y0046180D01*
X0315309Y0047779D02*
X0357200Y0047779D01*
X0315309Y0047779D01*
X0351228Y0044582D02*
X0354002Y0044582D01*
X0351228Y0044582D01*
X0351228Y0042983D02*
X0352404Y0042983D01*
X0351228Y0042983D01*
X0356537Y0049377D02*
X0358798Y0049377D01*
X0356537Y0049377D01*
X0384091Y0066210D02*
X0385449Y0066210D01*
X0431312Y0066961D02*
X0434071Y0066961D01*
X0434071Y0068559D02*
X0431312Y0068559D01*
X0431312Y0070158D02*
X0434071Y0070158D01*
X0434071Y0071756D02*
X0431312Y0071756D01*
X0431312Y0073355D02*
X0434071Y0073355D01*
X0434071Y0074953D02*
X0431312Y0074953D01*
X0431312Y0076552D02*
X0434071Y0076552D01*
X0434071Y0078150D02*
X0430934Y0078150D01*
X0430134Y0079749D02*
X0429405Y0079749D01*
X0434071Y0079749D01*
X0434071Y0081347D02*
X0427807Y0081347D01*
X0430134Y0081347D01*
X0401839Y0086840D02*
X0401591Y0087210D01*
X0396091Y0087210D01*
X0356091Y0098210D02*
X0355579Y0097619D01*
X0431312Y0065362D02*
X0434071Y0065362D01*
X0434071Y0063764D02*
X0431312Y0063764D01*
X0431312Y0062165D02*
X0434071Y0062165D01*
X0434071Y0060567D02*
X0431312Y0060567D01*
X0431312Y0058968D02*
X0434071Y0058968D01*
X0434071Y0057370D02*
X0431312Y0057370D01*
X0431312Y0055771D02*
X0434071Y0055771D01*
X0434071Y0054173D02*
X0431312Y0054173D01*
X0431312Y0052574D02*
X0434071Y0052574D01*
X0434071Y0050976D02*
X0431031Y0050976D01*
X0430134Y0049872D02*
X0430134Y0048557D01*
X0430002Y0048425D01*
X0429271Y0046661D01*
X0429271Y0007199D01*
X0422437Y0007199D01*
X0422862Y0007624D01*
X0426996Y0011758D01*
X0427422Y0012787D01*
X0427422Y0013901D01*
X0427422Y0030200D01*
X0426996Y0031229D01*
X0426208Y0032017D01*
X0418697Y0039528D01*
X0420091Y0039528D01*
X0420091Y0044128D01*
X0420491Y0044128D01*
X0420491Y0039528D01*
X0423669Y0039528D01*
X0424415Y0039646D01*
X0425134Y0039880D01*
X0425807Y0040223D01*
X0426418Y0040667D01*
X0426953Y0041201D01*
X0427397Y0041812D01*
X0427740Y0042486D01*
X0427973Y0043204D01*
X0428091Y0043950D01*
X0428091Y0044128D01*
X0420491Y0044128D01*
X0420491Y0044528D01*
X0428091Y0044528D01*
X0428091Y0044706D01*
X0427973Y0045452D01*
X0427740Y0046171D01*
X0427397Y0046844D01*
X0427224Y0047081D01*
X0427886Y0047742D01*
X0429896Y0049753D01*
X0430098Y0049836D01*
X0430134Y0049872D01*
X0430134Y0049377D02*
X0429521Y0049377D01*
X0430954Y0049377D01*
X0429734Y0047779D02*
X0427922Y0047779D01*
X0429734Y0047779D01*
X0429271Y0046180D02*
X0427735Y0046180D01*
X0429271Y0046180D01*
X0429271Y0044582D02*
X0428091Y0044582D01*
X0429271Y0044582D01*
X0429271Y0042983D02*
X0427901Y0042983D01*
X0429271Y0042983D01*
X0429271Y0041385D02*
X0427086Y0041385D01*
X0429271Y0041385D01*
X0429271Y0039786D02*
X0424846Y0039786D01*
X0429271Y0039786D01*
X0429271Y0038188D02*
X0420037Y0038188D01*
X0429271Y0038188D01*
X0429271Y0036589D02*
X0421636Y0036589D01*
X0429271Y0036589D01*
X0429271Y0034991D02*
X0423234Y0034991D01*
X0429271Y0034991D01*
X0429271Y0033392D02*
X0424833Y0033392D01*
X0429271Y0033392D01*
X0429271Y0031794D02*
X0426431Y0031794D01*
X0429271Y0031794D01*
X0429271Y0030195D02*
X0427422Y0030195D01*
X0429271Y0030195D01*
X0429271Y0028597D02*
X0427422Y0028597D01*
X0429271Y0028597D01*
X0429271Y0026998D02*
X0427422Y0026998D01*
X0429271Y0026998D01*
X0429271Y0025400D02*
X0427422Y0025400D01*
X0429271Y0025400D01*
X0429271Y0023801D02*
X0427422Y0023801D01*
X0429271Y0023801D01*
X0429271Y0022203D02*
X0427422Y0022203D01*
X0429271Y0022203D01*
X0429271Y0020604D02*
X0427422Y0020604D01*
X0429271Y0020604D01*
X0429271Y0019005D02*
X0427422Y0019005D01*
X0429271Y0019005D01*
X0429271Y0017407D02*
X0427422Y0017407D01*
X0429271Y0017407D01*
X0429271Y0015808D02*
X0427422Y0015808D01*
X0429271Y0015808D01*
X0429271Y0014210D02*
X0427422Y0014210D01*
X0429271Y0014210D01*
X0429271Y0012611D02*
X0427349Y0012611D01*
X0429271Y0012611D01*
X0429271Y0011013D02*
X0426251Y0011013D01*
X0429271Y0011013D01*
X0429271Y0009414D02*
X0424652Y0009414D01*
X0429271Y0009414D01*
X0429271Y0007816D02*
X0423054Y0007816D01*
X0429271Y0007816D01*
X0426208Y0032017D02*
X0426208Y0032017D01*
X0420491Y0039786D02*
X0420091Y0039786D01*
X0420491Y0039786D01*
X0420491Y0041385D02*
X0420091Y0041385D01*
X0420491Y0041385D01*
X0420491Y0042983D02*
X0420091Y0042983D01*
X0420491Y0042983D01*
X0427886Y0047742D02*
X0427886Y0047742D01*
D26*
X0389091Y0046190D03*
X0371091Y0048710D03*
X0331201Y0059974D03*
X0302299Y0057045D03*
X0294091Y0052745D03*
X0269189Y0060076D03*
X0231150Y0059210D03*
X0229591Y0077997D03*
X0249346Y0082596D03*
X0222378Y0087399D03*
X0210091Y0100710D03*
X0239091Y0103848D03*
X0268941Y0096068D03*
X0288634Y0090879D03*
X0324091Y0103210D03*
X0321157Y0119486D03*
X0269551Y0137722D03*
X0257862Y0138115D03*
X0229701Y0122005D03*
X0257850Y0118029D03*
X0167091Y0105635D03*
X0161024Y0084123D03*
X0327433Y0070226D03*
X0334020Y0084942D03*
X0329189Y0038777D03*
X0329307Y0018895D03*
X0275567Y0015234D03*
X0222091Y0024210D03*
X0220173Y0034486D03*
X0402654Y0019486D03*
D27*
X0378929Y0050367D02*
X0360685Y0032123D01*
X0310528Y0032123D01*
X0305016Y0026612D01*
X0284913Y0026612D01*
X0264315Y0047210D01*
X0264315Y0049710D01*
X0264295Y0050013D01*
X0267445Y0050013D02*
X0267591Y0050210D01*
X0267591Y0053104D01*
X0268697Y0054210D01*
X0272406Y0054210D01*
X0281906Y0044710D01*
X0281906Y0042989D01*
X0284591Y0040304D01*
X0284591Y0040238D01*
X0304091Y0040238D01*
X0315110Y0051257D01*
X0354740Y0051257D01*
X0356079Y0052596D01*
X0367969Y0052596D01*
X0368559Y0053186D01*
X0373283Y0053186D01*
X0373874Y0052596D01*
X0408559Y0052596D01*
X0420291Y0064328D01*
X0420091Y0064210D01*
X0420291Y0054328D02*
X0420091Y0054210D01*
X0416236Y0054210D01*
X0412394Y0050367D01*
X0378929Y0050367D01*
X0331201Y0059974D02*
X0331201Y0061096D01*
X0326157Y0066139D01*
X0323953Y0066139D01*
X0314591Y0075501D01*
X0314591Y0096210D01*
X0310091Y0100710D01*
X0309748Y0100824D01*
X0298551Y0100824D02*
X0293819Y0096092D01*
X0293787Y0096092D01*
X0293787Y0088592D01*
X0281406Y0076210D01*
X0278091Y0076210D01*
X0277681Y0075997D01*
X0278091Y0073210D02*
X0277681Y0072848D01*
X0278091Y0073210D02*
X0285591Y0073210D01*
X0296091Y0083710D01*
X0304591Y0083710D01*
X0309591Y0088710D01*
X0309748Y0089013D01*
X0304091Y0094710D02*
X0298591Y0089210D01*
X0298551Y0089013D01*
X0288634Y0088753D02*
X0288634Y0090879D01*
X0288634Y0088753D02*
X0282591Y0082710D01*
X0278091Y0082710D01*
X0277681Y0082297D01*
X0285091Y0063710D02*
X0298091Y0076710D01*
X0298551Y0077202D01*
X0309591Y0076710D02*
X0309748Y0077202D01*
X0309591Y0076710D02*
X0294091Y0061210D01*
X0294091Y0052745D01*
X0289091Y0045710D02*
X0278091Y0056710D01*
X0277681Y0057100D01*
X0277681Y0063399D02*
X0278091Y0063710D01*
X0285091Y0063710D01*
X0271091Y0049710D02*
X0270594Y0050013D01*
X0271091Y0049710D02*
X0288591Y0032210D01*
X0288709Y0031927D01*
X0283953Y0021218D02*
X0263717Y0021218D01*
X0256669Y0014171D01*
X0256394Y0014167D01*
X0283953Y0021218D02*
X0287024Y0018147D01*
X0288709Y0018147D01*
X0288591Y0017710D01*
X0288709Y0045706D02*
X0289091Y0045710D01*
X0231150Y0059210D02*
X0231150Y0070297D01*
X0225697Y0075749D01*
X0225724Y0075749D01*
X0223835Y0077639D01*
X0223835Y0080942D01*
X0227350Y0084458D01*
X0227350Y0089804D01*
X0219091Y0098064D01*
X0216591Y0098064D01*
X0216264Y0098045D01*
X0216264Y0101194D02*
X0216591Y0101222D01*
X0219248Y0101182D01*
X0221902Y0101182D01*
X0229591Y0093493D01*
X0229591Y0077997D01*
X0216264Y0072848D02*
X0216091Y0073210D01*
X0212591Y0073210D01*
X0206091Y0079710D01*
X0206091Y0080710D01*
X0199091Y0087710D01*
X0198693Y0088100D01*
X0191091Y0090210D02*
X0198591Y0097710D01*
X0198693Y0098100D01*
X0202591Y0102710D02*
X0182091Y0102710D01*
X0163504Y0084123D01*
X0161024Y0084123D01*
X0167693Y0092671D02*
X0143406Y0092671D01*
X0143366Y0092710D01*
X0133016Y0082360D01*
X0132890Y0082360D01*
X0133209Y0082592D01*
X0167693Y0092671D02*
X0187732Y0112710D01*
X0203591Y0112710D01*
X0204591Y0111710D01*
X0223091Y0111710D01*
X0223350Y0111430D01*
X0232799Y0111430D02*
X0232799Y0114509D01*
X0248500Y0130210D01*
X0251591Y0130210D01*
X0252063Y0130352D01*
X0255591Y0130210D02*
X0255591Y0126041D01*
X0254339Y0124789D01*
X0246669Y0124789D01*
X0236091Y0114210D01*
X0236091Y0111710D01*
X0235949Y0111430D01*
X0233091Y0111710D02*
X0232799Y0111430D01*
X0239091Y0111210D02*
X0239098Y0111430D01*
X0239091Y0111210D02*
X0239091Y0103848D01*
X0242248Y0111430D02*
X0242236Y0111631D01*
X0242236Y0114131D01*
X0250579Y0122474D01*
X0259591Y0122474D01*
X0263591Y0126474D01*
X0263591Y0130210D01*
X0263874Y0130352D01*
X0259937Y0130352D02*
X0259937Y0136139D01*
X0257961Y0138115D01*
X0257862Y0138115D01*
X0259945Y0133946D02*
X0259945Y0130946D01*
X0259937Y0130352D01*
X0256000Y0130352D02*
X0255591Y0130210D01*
X0267811Y0120982D02*
X0285205Y0120982D01*
X0285283Y0120903D01*
X0291091Y0126710D01*
X0291091Y0130210D01*
X0291433Y0130352D01*
X0295091Y0130210D02*
X0295370Y0130352D01*
X0295091Y0130210D02*
X0295091Y0126710D01*
X0286685Y0118304D01*
X0268323Y0118304D01*
X0264394Y0114375D01*
X0264354Y0114375D01*
X0264354Y0111671D01*
X0264295Y0111430D01*
X0261157Y0111552D02*
X0261146Y0111430D01*
X0261146Y0114261D01*
X0261118Y0114289D01*
X0267811Y0120982D01*
X0269228Y0116060D02*
X0267591Y0114423D01*
X0267591Y0111710D01*
X0267445Y0111430D01*
X0270594Y0111430D02*
X0270598Y0111434D01*
X0287748Y0111434D01*
X0303248Y0126934D01*
X0303091Y0130210D01*
X0303244Y0130352D01*
X0299307Y0130352D02*
X0299091Y0130210D01*
X0299091Y0126710D01*
X0288441Y0116060D01*
X0269228Y0116060D01*
X0271091Y0111710D02*
X0270594Y0111430D01*
X0277681Y0104344D02*
X0278091Y0104710D01*
X0287591Y0104710D01*
X0290685Y0107804D01*
X0290685Y0110234D01*
X0310094Y0129643D01*
X0322732Y0129643D01*
X0328402Y0123974D01*
X0347811Y0123974D01*
X0350488Y0121297D01*
X0350488Y0107832D01*
X0346591Y0103934D01*
X0346591Y0097513D01*
X0334020Y0084942D01*
X0304091Y0094710D02*
X0304091Y0113210D01*
X0304465Y0113659D01*
X0298551Y0100824D02*
X0298091Y0100710D01*
X0216264Y0104344D02*
X0214587Y0106021D01*
X0208362Y0106021D01*
X0206827Y0104486D01*
X0204366Y0104486D01*
X0202591Y0102710D01*
X0216209Y0104486D02*
X0216264Y0104344D01*
X0191091Y0090210D02*
X0191091Y0076210D01*
X0194193Y0073108D01*
X0203480Y0073108D01*
X0206591Y0069997D01*
X0215965Y0069997D01*
X0216264Y0069698D01*
X0216091Y0069710D01*
X0216091Y0063710D02*
X0203091Y0063710D01*
X0199091Y0067710D01*
X0198693Y0068100D01*
X0216091Y0063710D02*
X0216264Y0063399D01*
X0216264Y0060249D02*
X0216091Y0060210D01*
X0201091Y0060210D01*
X0199091Y0058210D01*
X0198693Y0058100D01*
M02*
